<svg id="svg" version="1.1" xmlns="http://www.w3.org/2000/svg" xmlns:xlink="http://www.w3.org/1999/xlink" width="400" height="412.99638989169677" viewBox="0, 0, 400,412.99638989169677"><g id="svgg"><path id="path0" d="M253.588 1.100 C 253.577 2.040,253.517 2.098,253.168 1.500 C 252.027 -0.459,248.299 1.207,247.756 3.919 C 247.524 5.081,246.800 5.754,246.800 4.808 C 246.800 4.592,246.305 4.285,245.700 4.126 C 243.288 3.493,242.000 4.381,242.000 6.676 C 242.000 8.116,240.344 8.674,239.855 7.400 C 239.204 5.704,234.800 8.351,234.800 10.439 C 234.800 10.741,234.503 10.655,234.009 10.208 C 232.366 8.721,229.457 9.904,229.020 12.237 C 228.748 13.685,227.847 14.866,226.669 15.318 C 226.301 15.459,226.000 15.851,226.000 16.187 C 226.000 16.524,225.685 16.813,225.300 16.829 C 224.915 16.845,223.703 16.890,222.607 16.929 C 220.963 16.988,220.587 17.140,220.458 17.800 C 220.210 19.078,218.524 20.900,218.250 20.186 C 217.451 18.103,213.200 20.293,213.200 22.788 C 213.200 24.117,213.195 24.120,212.366 23.370 C 210.513 21.692,207.200 22.781,207.200 25.067 C 207.200 25.626,206.772 26.257,206.100 26.691 C 205.495 27.081,204.534 27.871,203.965 28.447 C 203.126 29.296,202.457 29.529,200.433 29.675 C 197.611 29.879,197.215 30.235,197.206 32.576 C 197.201 34.014,197.151 34.087,196.649 33.399 C 195.379 31.663,190.567 32.733,191.047 34.646 C 191.310 35.694,191.198 35.730,188.078 35.606 C 186.061 35.525,184.514 36.385,184.329 37.690 C 184.211 38.523,184.026 38.589,182.134 38.466 C 179.761 38.312,178.400 39.242,178.400 41.019 C 178.400 41.717,178.044 42.241,177.268 42.687 C 176.646 43.044,175.844 43.846,175.487 44.468 C 174.879 45.527,174.671 45.600,172.247 45.600 C 169.394 45.600,168.400 46.170,168.400 47.803 C 168.400 48.659,168.267 48.728,167.022 48.526 C 164.524 48.121,162.892 48.669,162.597 50.013 C 162.454 50.666,162.216 51.214,162.068 51.230 C 161.921 51.247,160.770 51.304,159.511 51.358 C 156.851 51.473,155.802 52.199,155.429 54.185 C 155.242 55.183,154.920 55.584,154.148 55.777 C 153.512 55.937,152.952 56.473,152.687 57.176 C 152.287 58.236,152.079 58.327,149.723 58.477 C 146.834 58.661,145.490 59.504,146.379 60.575 C 147.050 61.383,146.580 61.548,143.200 61.690 C 140.702 61.796,140.576 61.851,140.000 63.091 C 139.428 64.323,139.295 64.383,137.123 64.391 C 134.636 64.401,133.600 65.200,133.600 67.109 C 133.600 67.789,133.235 68.193,132.249 68.606 C 131.505 68.916,130.791 69.447,130.661 69.785 C 130.502 70.199,129.892 70.400,128.792 70.400 C 126.637 70.400,124.099 71.852,123.787 73.263 C 123.628 73.985,123.209 74.411,122.480 74.594 C 121.239 74.906,120.815 75.440,120.806 76.700 C 120.802 77.306,120.559 77.600,120.062 77.600 C 119.274 77.600,118.280 78.554,117.873 79.700 C 117.737 80.085,117.381 80.400,117.082 80.400 C 116.490 80.400,114.811 82.024,114.782 82.626 C 114.764 82.983,114.310 83.394,111.946 85.186 C 111.319 85.662,110.785 86.557,110.628 87.393 C 110.366 88.786,109.882 89.179,109.396 88.393 C 108.995 87.744,108.400 88.359,108.400 89.424 C 108.400 89.961,108.220 90.400,108.000 90.400 C 107.780 90.400,107.600 90.670,107.600 91.000 C 107.600 91.330,107.330 91.600,107.000 91.600 C 106.670 91.600,106.048 91.952,105.619 92.381 C 105.029 92.971,104.173 93.192,102.132 93.281 C 99.474 93.398,99.421 93.422,99.065 94.669 C 98.821 95.522,98.382 96.018,97.725 96.183 C 97.128 96.333,96.538 96.929,96.209 97.714 C 95.889 98.477,94.925 99.471,93.835 100.158 C 92.502 100.999,92.000 101.574,92.000 102.258 C 92.000 102.966,91.777 103.202,91.100 103.206 C 89.813 103.215,89.210 103.703,88.857 105.022 C 88.654 105.785,88.218 106.252,87.574 106.400 C 86.913 106.553,86.477 107.039,86.217 107.912 C 86.007 108.621,85.647 109.206,85.417 109.213 C 84.704 109.236,83.200 110.695,83.200 111.364 C 83.200 111.714,82.960 112.000,82.667 112.000 C 81.989 112.000,79.293 114.676,78.982 115.658 C 78.852 116.066,78.501 116.400,78.202 116.400 C 77.488 116.400,76.000 118.310,76.000 119.227 C 76.000 119.709,75.646 119.989,74.930 120.073 C 73.966 120.187,73.173 121.054,72.162 123.100 C 72.026 123.375,71.574 123.600,71.157 123.600 C 70.741 123.600,70.400 123.870,70.400 124.200 C 70.400 124.666,69.870 124.800,68.033 124.800 C 64.825 124.800,64.400 125.016,64.400 126.643 C 64.400 127.887,64.299 128.000,63.187 128.000 C 62.423 128.000,61.880 128.247,61.718 128.669 C 61.577 129.038,61.132 129.668,60.731 130.069 C 60.329 130.471,60.000 131.056,60.000 131.368 C 60.000 131.681,59.462 132.055,58.803 132.199 C 57.889 132.400,57.529 132.761,57.278 133.731 C 57.023 134.716,56.687 135.045,55.775 135.202 C 54.804 135.368,54.579 135.621,54.478 136.656 C 54.377 137.691,54.146 137.951,53.145 138.151 C 52.282 138.324,51.805 138.733,51.488 139.573 C 51.221 140.280,50.657 140.850,50.080 140.994 C 49.502 141.139,48.938 141.709,48.671 142.418 C 48.425 143.068,48.087 143.600,47.920 143.600 C 47.457 143.600,44.997 146.084,44.452 147.102 C 44.188 147.596,43.790 148.000,43.568 148.000 C 43.058 148.000,41.200 149.836,41.200 150.339 C 41.200 150.545,40.930 150.818,40.600 150.945 C 40.270 151.071,40.000 151.430,40.000 151.741 C 40.000 152.052,39.640 152.401,39.200 152.516 C 38.760 152.631,38.400 153.012,38.400 153.363 C 38.400 153.713,38.229 154.000,38.021 154.000 C 37.587 154.000,35.600 155.761,35.600 156.146 C 35.600 157.651,32.159 159.698,29.718 159.645 C 26.815 159.582,25.880 160.240,25.416 162.675 C 25.223 163.689,24.952 163.975,24.087 164.075 C 23.252 164.171,22.911 164.502,22.617 165.500 C 22.343 166.431,21.997 166.800,21.397 166.800 C 20.302 166.800,19.600 167.535,19.600 168.680 C 19.600 169.320,19.367 169.600,18.833 169.600 C 17.388 169.600,16.800 170.067,16.800 171.216 C 16.800 172.041,16.557 172.420,15.900 172.618 C 14.810 172.949,9.600 178.122,9.600 178.875 C 9.600 179.169,9.197 179.588,8.704 179.805 C 8.211 180.022,7.446 180.778,7.004 181.485 C 6.562 182.191,6.006 182.776,5.770 182.785 C 5.196 182.805,3.600 184.527,3.600 185.126 C 3.600 185.387,3.361 185.600,3.070 185.600 C 2.426 185.600,0.800 187.266,0.800 187.926 C 0.800 188.187,0.620 188.400,0.400 188.400 C 0.144 188.400,0.000 192.133,0.000 198.800 C 0.000 205.467,0.144 209.200,0.400 209.200 C 0.620 209.200,0.800 209.622,0.800 210.138 C 0.800 212.379,1.706 212.600,10.877 212.600 C 20.229 212.600,20.800 212.425,20.800 209.556 C 20.800 208.901,21.017 208.397,21.300 208.393 C 21.789 208.386,23.600 206.708,23.600 206.262 C 23.600 206.138,24.050 205.586,24.600 205.036 L 25.600 204.036 25.600 274.752 L 25.600 345.467 27.067 346.933 C 27.873 347.740,28.711 348.400,28.929 348.400 C 29.668 348.400,32.326 351.552,32.586 352.738 C 32.903 354.182,33.559 354.387,37.861 354.395 L 41.122 354.400 41.540 355.600 C 41.770 356.260,42.135 356.800,42.351 356.800 C 42.566 356.800,43.058 357.115,43.442 357.500 C 43.977 358.035,44.978 358.233,47.696 358.341 C 50.919 358.468,51.282 358.563,51.584 359.357 C 52.224 361.042,53.122 361.393,56.959 361.458 C 58.962 361.492,60.825 361.538,61.100 361.560 C 61.375 361.582,61.600 362.039,61.600 362.576 C 61.600 363.970,62.140 364.176,66.396 364.400 C 69.798 364.579,70.206 364.683,70.330 365.400 C 70.585 366.883,71.556 367.200,75.834 367.200 C 80.140 367.200,80.400 367.316,80.400 369.233 C 80.400 369.726,80.678 370.000,81.176 370.000 C 81.603 370.000,82.064 370.180,82.200 370.400 C 82.341 370.628,84.366 370.800,86.908 370.800 L 91.370 370.800 93.078 372.476 C 94.779 374.146,94.800 374.154,98.293 374.326 C 101.705 374.494,101.822 374.533,102.607 375.749 L 103.415 377.000 108.526 377.112 L 113.637 377.224 114.782 376.080 C 115.412 375.450,115.988 374.507,116.063 373.984 C 116.154 373.353,116.537 372.957,117.200 372.808 C 117.812 372.671,118.433 372.085,118.800 371.300 C 119.130 370.595,119.706 370.013,120.080 370.009 C 120.453 370.004,121.263 369.339,121.880 368.531 L 123.000 367.063 123.106 329.669 C 123.204 295.208,123.160 292.219,122.544 291.538 C 121.915 290.843,121.924 290.800,122.695 290.800 C 123.253 290.800,123.601 291.148,123.788 291.896 C 124.194 293.514,124.491 293.587,130.668 293.594 L 136.336 293.600 136.606 294.827 C 136.754 295.502,137.173 296.166,137.538 296.302 C 137.902 296.439,138.404 296.822,138.653 297.155 C 138.983 297.596,140.133 297.804,142.918 297.926 C 146.231 298.071,146.757 298.191,146.927 298.843 C 147.035 299.256,147.679 299.910,148.359 300.297 L 149.595 301.000 149.597 342.617 L 149.600 384.235 150.900 384.617 L 152.200 385.000 152.400 388.287 C 152.671 392.734,152.941 392.978,157.714 393.076 C 159.741 393.117,161.593 393.162,161.828 393.176 C 162.063 393.189,162.513 393.785,162.828 394.500 L 163.400 395.800 167.500 395.914 C 171.148 396.015,171.600 396.108,171.600 396.752 C 171.600 398.357,173.045 398.984,176.936 399.065 C 178.951 399.107,180.721 399.155,180.868 399.171 C 181.016 399.187,181.249 399.695,181.387 400.300 C 181.835 402.263,187.321 403.793,188.979 402.418 C 189.699 401.820,191.568 403.009,191.587 404.077 C 191.619 405.758,197.261 406.948,197.855 405.400 C 198.209 404.480,200.000 404.626,200.000 405.575 C 200.000 406.925,202.031 408.732,203.881 409.027 C 206.063 409.376,208.400 408.939,208.400 408.182 C 208.400 407.862,208.541 407.600,208.714 407.600 C 209.156 407.600,210.400 409.792,210.400 410.572 C 210.400 411.654,212.200 412.000,217.826 412.000 C 221.142 412.000,223.200 412.153,223.200 412.400 C 223.200 412.656,226.800 412.800,233.200 412.800 L 243.200 412.800 243.212 411.700 C 243.223 410.760,243.283 410.702,243.632 411.300 C 244.771 413.255,248.643 411.917,249.015 409.441 C 249.243 407.921,249.430 407.654,250.407 407.459 C 251.078 407.324,251.644 406.892,251.803 406.392 C 252.045 405.627,252.264 405.575,254.221 405.820 C 256.316 406.082,258.780 404.744,258.806 403.331 C 258.826 402.236,259.483 402.003,260.755 402.638 C 261.996 403.256,262.098 403.247,262.954 402.443 C 263.448 401.979,264.065 401.600,264.326 401.600 C 264.595 401.600,264.800 401.032,264.800 400.282 L 264.800 398.965 267.636 398.965 C 270.793 398.965,271.973 398.142,271.991 395.927 C 271.997 395.210,272.266 394.770,272.800 394.600 C 273.240 394.460,273.600 394.088,273.600 393.773 C 273.600 393.458,273.855 393.200,274.167 393.200 C 274.478 393.200,274.816 392.975,274.917 392.700 C 275.063 392.300,275.206 392.300,275.630 392.700 C 277.316 394.290,280.789 392.426,280.812 389.918 C 280.822 388.829,280.895 388.722,281.232 389.300 C 282.224 391.004,285.651 390.231,287.000 388.000 C 288.228 385.969,288.566 385.698,289.000 386.400 C 289.752 387.617,293.330 385.934,293.527 384.270 C 293.649 383.238,293.742 383.200,296.138 383.200 C 299.202 383.200,300.206 382.576,300.544 380.462 C 300.721 379.354,301.029 378.833,301.597 378.685 C 302.039 378.569,302.400 378.188,302.400 377.837 C 302.400 377.487,302.655 377.200,302.967 377.200 C 303.278 377.200,303.638 376.975,303.767 376.700 C 303.953 376.300,304.047 376.300,304.233 376.700 C 305.051 378.452,309.600 376.049,309.600 373.866 C 309.600 373.115,309.638 373.110,310.360 373.764 C 311.563 374.853,313.881 374.229,315.639 372.344 C 316.814 371.082,317.351 370.800,318.577 370.800 C 320.721 370.800,322.235 369.594,322.548 367.637 C 322.723 366.543,323.047 365.975,323.598 365.801 C 324.037 365.661,324.687 365.256,325.043 364.900 C 325.497 364.446,326.268 364.282,327.619 364.354 C 330.013 364.481,331.109 363.925,331.273 362.500 C 331.395 361.441,331.492 361.398,333.853 361.339 C 336.824 361.265,337.855 360.771,338.186 359.264 C 338.426 358.170,338.518 358.129,340.318 358.300 C 342.563 358.513,344.273 357.440,344.474 355.691 C 344.594 354.650,344.713 354.595,347.054 354.482 C 349.743 354.353,351.437 353.277,350.471 352.311 C 349.774 351.614,349.897 351.200,350.800 351.200 C 351.244 351.200,351.600 350.933,351.600 350.600 C 351.600 350.270,351.849 350.000,352.153 350.000 C 352.458 350.000,352.801 349.640,352.916 349.200 C 353.100 348.497,353.462 348.400,355.886 348.400 C 358.912 348.400,359.872 347.945,360.072 346.417 C 360.192 345.498,360.337 345.441,362.272 345.545 C 364.452 345.662,366.000 344.765,366.000 343.383 C 366.000 342.590,367.101 341.492,368.500 340.890 C 369.284 340.553,369.600 340.127,369.600 339.409 C 369.600 338.599,369.798 338.400,370.600 338.400 C 373.394 338.400,373.201 341.738,373.194 293.700 C 373.191 269.995,373.056 250.419,372.894 250.199 C 372.523 249.692,369.451 247.600,369.078 247.600 C 368.670 247.600,367.200 246.061,367.200 245.633 C 367.200 245.432,366.996 245.199,366.747 245.116 C 366.497 245.032,366.092 244.342,365.847 243.582 L 365.400 242.200 360.200 241.982 C 357.340 241.862,355.495 241.727,356.100 241.682 C 356.817 241.628,357.200 241.373,357.200 240.947 C 357.200 240.416,357.500 240.335,358.806 240.510 C 361.207 240.832,362.744 240.108,363.043 238.513 C 363.295 237.167,364.527 236.687,365.425 237.585 C 365.673 237.833,366.311 237.796,367.205 237.482 C 369.237 236.770,369.600 236.458,369.600 235.425 C 369.600 234.348,370.583 233.325,370.988 233.981 C 372.117 235.807,376.000 233.940,376.000 231.571 C 376.000 230.383,376.160 230.000,376.654 230.000 C 377.340 230.000,379.200 228.232,379.200 227.579 C 379.200 226.979,380.651 227.139,381.200 227.800 C 382.069 228.847,384.800 227.689,384.800 226.274 C 384.800 225.397,386.552 224.303,387.254 224.741 C 389.029 225.849,391.979 224.221,391.994 222.125 C 391.999 221.352,392.160 221.276,393.378 221.474 C 395.784 221.864,397.600 221.315,397.600 220.196 C 397.600 219.659,398.135 218.680,398.800 218.000 L 400.000 216.772 400.000 206.391 C 400.000 195.529,399.822 194.400,398.111 194.400 C 397.830 194.400,397.600 194.113,397.600 193.763 C 397.600 193.412,397.240 193.031,396.800 192.916 C 396.360 192.801,396.000 192.458,396.000 192.153 C 396.000 191.849,395.730 191.600,395.400 191.600 C 394.934 191.600,394.800 191.070,394.800 189.229 C 394.800 186.692,394.189 185.600,392.771 185.600 C 392.347 185.600,392.000 185.342,392.000 185.027 C 392.000 184.712,391.640 184.340,391.200 184.200 C 390.760 184.060,390.400 183.688,390.400 183.373 C 390.400 183.058,390.130 182.800,389.800 182.800 C 389.352 182.800,389.199 182.320,389.195 180.900 C 389.187 178.431,388.841 177.200,388.153 177.200 C 386.977 177.200,386.000 175.652,386.000 173.787 C 386.000 172.545,385.811 171.902,385.400 171.745 C 385.070 171.618,384.800 171.193,384.800 170.800 C 384.800 170.063,384.047 169.600,382.850 169.600 C 382.423 169.600,382.022 169.111,381.783 168.300 C 381.493 167.315,381.144 166.970,380.345 166.878 C 379.348 166.762,379.281 166.616,379.127 164.191 C 378.961 161.577,377.842 159.600,376.530 159.600 C 376.239 159.600,376.000 159.361,376.000 159.070 C 376.000 158.426,374.334 156.800,373.674 156.800 C 373.364 156.800,373.198 156.003,373.194 154.500 C 373.187 151.796,372.972 151.359,371.464 150.980 C 370.844 150.825,370.143 150.273,369.907 149.755 C 369.671 149.237,368.976 148.591,368.363 148.319 C 367.749 148.048,367.152 147.550,367.035 147.213 C 366.919 146.876,366.594 146.286,366.315 145.901 C 365.909 145.345,365.906 145.042,366.300 144.411 C 366.949 143.372,365.746 141.060,364.457 140.871 C 363.466 140.725,361.600 139.146,361.600 138.454 C 361.600 138.204,361.323 138.000,360.985 138.000 C 360.582 138.000,360.407 137.690,360.478 137.100 C 360.765 134.718,360.007 132.548,358.685 131.966 C 357.460 131.426,357.394 131.284,357.281 128.914 C 357.151 126.180,356.097 124.800,354.138 124.800 C 353.330 124.800,353.222 124.653,353.427 123.833 C 353.709 122.711,352.755 122.008,350.926 121.988 C 349.968 121.977,349.904 121.915,350.500 121.568 C 352.292 120.524,350.472 115.785,347.975 114.992 C 347.549 114.857,347.200 114.520,347.200 114.243 C 347.200 113.620,345.520 112.000,344.874 112.000 C 344.297 112.000,344.248 111.341,344.800 111.000 C 346.430 109.993,344.986 106.646,342.748 106.243 C 341.555 106.028,341.255 105.776,341.065 104.826 C 340.889 103.944,340.547 103.608,339.617 103.404 C 338.426 103.142,338.400 103.085,338.400 100.742 C 338.400 97.719,337.978 96.945,336.004 96.354 C 334.971 96.045,334.104 95.414,333.510 94.543 C 333.010 93.807,332.375 93.204,332.100 93.203 C 331.825 93.201,331.600 93.020,331.600 92.800 C 331.600 92.580,331.780 92.400,332.000 92.400 C 333.379 92.400,331.963 87.637,330.569 87.587 C 329.997 87.566,328.400 86.124,328.400 85.629 C 328.400 85.386,327.770 84.887,327.000 84.519 C 325.634 83.868,325.600 83.794,325.600 81.500 C 325.600 78.362,325.213 77.753,323.011 77.423 C 321.152 77.144,320.876 76.884,321.635 76.125 C 322.254 75.506,321.325 74.998,320.629 75.576 C 319.874 76.202,319.600 75.301,319.600 72.195 C 319.600 69.782,319.535 69.609,318.300 68.747 C 316.586 67.549,316.411 67.245,316.677 65.914 C 316.983 64.387,315.143 61.695,313.677 61.523 C 312.939 61.436,312.565 61.106,312.405 60.400 C 312.264 59.781,311.693 59.185,310.906 58.835 C 309.703 58.301,309.629 58.141,309.517 55.845 C 309.418 53.795,309.261 53.351,308.503 52.975 C 308.009 52.729,307.275 52.230,306.871 51.864 C 306.467 51.499,305.926 51.200,305.669 51.200 C 305.411 51.200,305.200 50.930,305.200 50.600 C 305.200 50.270,304.930 50.000,304.600 50.000 C 303.946 50.000,303.925 49.924,303.782 47.025 C 303.726 45.890,303.443 44.870,303.117 44.625 C 302.806 44.391,302.432 43.885,302.288 43.500 C 302.143 43.115,301.827 42.800,301.586 42.800 C 301.344 42.800,300.573 42.197,299.873 41.461 C 299.173 40.725,298.195 39.908,297.700 39.647 C 296.954 39.253,296.800 38.837,296.800 37.219 C 296.800 34.545,296.523 34.000,295.165 34.000 C 294.243 34.000,293.962 33.782,293.746 32.900 C 293.432 31.618,292.945 31.215,291.700 31.206 C 290.855 31.200,290.800 31.033,290.800 28.470 C 290.800 25.712,289.909 24.000,288.474 24.000 C 288.166 24.000,288.000 23.230,288.000 21.800 C 288.000 19.512,287.124 18.000,285.800 18.000 C 285.470 18.000,285.200 17.856,285.200 17.679 C 285.200 17.135,281.908 14.000,281.338 14.000 C 280.944 14.000,280.800 13.324,280.800 11.480 C 280.800 8.768,280.385 8.000,278.920 8.000 C 278.414 8.000,278.000 7.762,278.000 7.472 C 278.000 6.961,276.251 5.200,275.743 5.200 C 275.361 5.200,273.600 3.211,273.600 2.779 C 273.600 2.571,273.240 2.400,272.800 2.400 C 272.178 2.400,272.000 2.133,272.000 1.200 L 272.000 0.000 262.800 0.000 L 253.600 0.000 253.588 1.100 M256.800 31.538 C 256.800 32.521,257.908 33.449,259.482 33.783 C 260.755 34.054,260.766 34.077,260.882 36.728 L 261.000 39.400 262.300 39.525 C 263.342 39.626,263.600 39.828,263.600 40.545 C 263.600 41.694,264.316 42.400,265.480 42.400 C 266.341 42.400,266.400 42.560,266.406 44.900 C 266.413 47.808,267.051 49.347,268.325 49.530 C 270.272 49.809,272.795 52.919,272.707 54.931 C 272.626 56.807,273.523 58.400,274.662 58.400 C 274.958 58.400,275.200 58.647,275.200 58.949 C 275.200 59.536,278.277 62.548,279.229 62.893 C 279.687 63.059,279.701 63.205,279.300 63.630 C 277.802 65.217,278.957 68.400,281.030 68.400 C 282.123 68.400,282.334 68.568,282.542 69.608 C 282.728 70.541,283.050 70.870,283.949 71.050 C 285.084 71.277,285.119 71.357,285.273 74.090 C 285.447 77.169,286.299 78.400,288.257 78.400 C 288.789 78.400,289.336 78.688,289.471 79.040 C 289.793 79.880,291.524 81.600,292.047 81.600 C 292.272 81.600,292.156 81.901,291.788 82.270 C 290.322 83.736,291.920 87.200,294.062 87.200 C 295.300 87.200,295.462 87.591,294.719 88.781 C 294.357 89.361,294.350 89.779,294.690 90.475 C 294.938 90.984,295.301 91.940,295.497 92.600 C 295.752 93.462,296.212 93.908,297.126 94.183 C 297.827 94.393,298.400 94.742,298.400 94.957 C 298.400 95.552,300.068 97.200,300.670 97.200 C 301.050 97.200,301.200 97.869,301.200 99.571 C 301.200 102.108,301.811 103.200,303.229 103.200 C 303.653 103.200,304.000 103.335,304.000 103.500 C 304.001 103.665,304.451 104.323,305.000 104.962 C 305.550 105.601,306.000 106.286,306.000 106.483 C 306.000 106.680,306.562 107.038,307.250 107.277 C 308.283 107.638,308.387 107.776,307.850 108.076 C 306.131 109.038,307.814 113.192,309.929 113.209 C 310.741 113.215,311.145 113.529,311.600 114.509 C 311.952 115.267,312.550 115.850,313.048 115.921 C 313.798 116.028,313.919 116.370,314.100 118.899 C 314.329 122.105,315.130 123.200,317.244 123.200 C 317.937 123.200,318.400 123.412,318.400 123.730 C 318.400 124.022,318.823 124.658,319.340 125.144 C 320.135 125.891,320.252 126.317,320.101 127.913 C 319.890 130.131,321.024 132.000,322.580 132.000 C 323.608 132.000,324.240 132.603,324.462 133.795 C 324.543 134.233,324.967 134.657,325.405 134.738 C 326.844 135.006,327.200 135.637,327.200 137.923 C 327.200 140.204,328.200 142.000,329.470 142.000 C 329.835 142.000,330.002 142.592,330.005 143.900 C 330.013 146.396,330.360 147.600,331.074 147.600 C 332.787 147.600,336.000 151.732,336.000 153.935 C 336.000 155.738,336.126 156.108,336.800 156.284 C 337.240 156.399,337.600 156.747,337.600 157.057 C 337.600 157.366,338.119 157.724,338.754 157.851 C 339.421 157.984,340.084 158.467,340.325 158.994 C 340.553 159.496,341.294 160.151,341.970 160.451 C 343.159 160.977,343.200 161.080,343.200 163.566 C 343.200 166.264,343.856 167.600,345.181 167.600 C 346.549 167.600,348.990 170.685,348.856 172.244 C 348.685 174.228,349.455 175.843,350.848 176.420 C 351.496 176.688,352.388 177.367,352.829 177.928 C 353.270 178.489,354.164 179.272,354.816 179.668 C 355.917 180.338,356.000 180.557,356.000 182.794 C 356.000 184.636,356.137 185.200,356.584 185.200 C 356.905 185.200,357.902 185.920,358.800 186.800 C 359.698 187.680,360.676 188.400,360.973 188.400 C 361.718 188.400,362.000 189.308,362.000 191.707 C 362.000 193.801,363.049 195.600,364.270 195.600 C 364.649 195.600,364.800 196.260,364.800 197.920 C 364.800 200.656,365.208 201.182,367.380 201.253 C 368.944 201.304,368.956 201.314,367.725 201.553 C 367.024 201.689,366.034 202.160,365.525 202.600 C 364.844 203.189,364.151 203.368,362.896 203.277 C 361.642 203.186,361.130 203.318,360.954 203.777 C 360.822 204.120,360.393 204.400,360.000 204.400 C 359.175 204.400,358.800 205.167,358.800 206.853 C 358.800 207.832,358.554 208.143,357.400 208.626 C 356.630 208.948,356.000 209.465,356.000 209.776 C 356.000 210.222,355.539 210.295,353.830 210.118 C 351.432 209.871,350.142 210.741,348.963 213.400 C 348.634 214.143,348.425 214.333,348.416 213.900 C 348.366 211.678,343.200 213.582,343.200 215.823 C 343.200 217.352,343.024 217.481,342.143 216.600 C 340.577 215.034,336.403 217.284,335.863 219.984 C 335.708 220.761,335.211 221.381,334.413 221.793 C 333.746 222.138,333.200 222.596,333.200 222.810 C 333.200 223.025,332.133 223.200,330.829 223.200 C 328.241 223.200,327.199 223.811,327.201 225.329 C 327.202 226.148,327.047 226.192,324.620 226.067 L 322.039 225.933 321.440 227.367 C 321.110 228.155,320.697 228.814,320.520 228.832 C 320.344 228.850,319.255 228.912,318.100 228.970 C 315.839 229.085,314.400 229.976,314.400 231.262 C 314.400 231.884,314.070 232.002,312.300 232.013 C 310.021 232.028,309.077 232.570,307.781 234.608 C 305.534 238.142,304.759 238.800,302.833 238.806 C 300.466 238.814,299.099 239.525,298.600 241.010 C 298.211 242.167,298.127 242.200,295.600 242.200 C 293.019 242.200,292.997 242.209,292.622 243.483 C 292.257 244.724,292.165 244.770,289.832 244.883 C 287.795 244.982,287.351 245.140,286.975 245.897 C 286.729 246.391,286.230 247.125,285.864 247.529 C 285.499 247.933,285.200 248.453,285.200 248.685 C 285.200 248.917,284.842 249.200,284.403 249.315 C 283.965 249.430,283.291 250.073,282.905 250.746 C 282.250 251.887,282.031 251.976,279.604 252.084 C 277.061 252.197,277.001 252.226,276.800 253.400 C 276.600 254.573,276.536 254.603,274.005 254.721 C 271.088 254.858,269.634 255.677,270.486 256.704 C 270.870 257.167,270.842 257.380,270.350 257.743 C 270.009 257.994,269.625 258.470,269.496 258.800 C 269.302 259.301,269.258 259.291,269.232 258.743 C 269.214 258.381,268.921 257.979,268.581 257.848 C 268.241 257.717,267.777 257.079,267.551 256.430 C 267.262 255.602,266.791 255.174,265.970 254.993 C 265.326 254.852,264.800 254.537,264.800 254.294 C 264.800 253.659,263.158 252.000,262.530 252.000 C 262.144 252.000,262.000 251.290,262.000 249.387 C 262.000 247.262,261.870 246.728,261.300 246.523 C 260.915 246.385,260.278 245.941,259.884 245.536 C 259.491 245.131,258.816 244.800,258.384 244.800 C 257.953 244.800,257.600 244.600,257.600 244.356 C 257.600 244.112,257.206 243.504,256.725 243.004 C 256.007 242.258,255.868 241.699,255.952 239.897 C 256.064 237.480,254.939 236.000,252.989 236.000 C 252.363 236.000,252.011 235.698,251.839 235.012 C 251.702 234.468,251.188 233.811,250.695 233.552 C 249.473 232.908,249.214 232.432,249.201 230.800 C 249.184 228.789,248.792 227.600,248.144 227.600 C 247.835 227.600,246.801 226.880,245.846 226.000 C 244.892 225.120,243.906 224.400,243.655 224.400 C 243.363 224.400,243.200 223.492,243.200 221.858 C 243.200 219.679,243.059 219.180,242.210 218.358 C 240.853 217.045,239.630 216.000,239.451 216.000 C 238.181 216.000,236.000 212.772,236.000 210.891 C 236.000 209.067,235.898 208.800,235.200 208.800 C 234.760 208.800,234.400 208.549,234.400 208.243 C 234.400 207.936,234.130 207.582,233.800 207.455 C 233.375 207.292,233.200 206.630,233.200 205.186 C 233.200 202.877,232.675 201.600,231.724 201.600 C 231.368 201.600,230.460 200.880,229.707 200.000 C 228.954 199.120,228.082 198.400,227.769 198.400 C 227.336 198.400,227.200 197.787,227.200 195.843 C 227.200 193.178,226.947 192.800,225.167 192.800 C 224.745 192.800,224.400 192.531,224.400 192.201 C 224.400 191.872,223.519 190.747,222.443 189.701 C 220.630 187.939,220.466 187.617,220.204 185.300 L 219.921 182.800 218.561 182.800 C 217.418 182.800,217.199 182.656,217.194 181.900 C 217.185 180.634,216.760 180.106,215.496 179.788 C 214.446 179.525,214.400 179.407,214.400 176.992 C 214.400 174.283,214.531 174.482,210.918 171.683 C 210.434 171.307,210.022 170.820,210.003 170.600 C 209.984 170.380,209.391 169.838,208.685 169.395 C 207.343 168.553,206.771 166.799,207.538 165.875 C 207.991 165.329,207.213 164.000,206.441 164.000 C 206.042 164.000,203.753 161.802,202.143 159.874 C 201.892 159.573,201.532 158.184,201.343 156.788 C 201.017 154.372,200.938 154.233,199.718 153.918 C 198.452 153.591,198.435 153.553,198.318 150.893 L 198.200 148.200 196.900 148.075 C 195.914 147.980,195.600 147.758,195.600 147.159 C 195.600 146.724,194.856 145.681,193.947 144.841 C 192.490 143.496,192.270 143.059,192.096 141.157 C 191.854 138.506,191.478 138.000,189.751 138.000 C 188.618 138.000,188.399 137.854,188.394 137.100 C 188.385 135.832,187.955 135.302,186.800 135.140 C 185.866 135.009,185.792 134.830,185.678 132.403 C 185.562 129.911,184.625 128.000,183.520 128.000 C 182.113 128.000,179.600 124.339,179.600 122.291 C 179.600 119.886,179.138 119.200,177.520 119.200 C 176.544 119.200,176.400 119.047,176.400 118.008 C 176.400 117.059,176.189 116.762,175.366 116.556 C 173.468 116.079,172.400 114.587,172.400 112.410 C 172.400 110.306,171.701 109.200,170.371 109.200 C 169.691 109.200,169.600 108.902,169.600 106.680 C 169.600 103.968,169.185 103.200,167.720 103.200 C 167.001 103.200,166.800 102.978,166.800 102.182 C 166.800 101.209,165.234 99.200,164.475 99.200 C 164.277 99.200,163.998 98.075,163.856 96.700 C 163.565 93.885,162.991 93.200,160.924 93.200 C 159.555 93.200,159.285 92.875,160.034 92.126 C 160.589 91.571,159.013 90.400,157.711 90.400 C 157.210 90.400,156.800 90.220,156.800 90.000 C 156.800 89.780,156.966 89.600,157.168 89.600 C 157.371 89.600,157.651 89.078,157.791 88.441 C 157.939 87.769,158.371 87.196,158.819 87.079 C 159.245 86.968,159.910 86.321,160.297 85.641 C 160.953 84.488,161.153 84.405,163.271 84.403 C 165.704 84.400,166.800 83.769,166.800 82.371 C 166.800 81.704,167.093 81.600,168.967 81.600 C 171.979 81.600,172.400 81.370,172.400 79.720 L 172.400 78.325 174.300 78.560 C 177.294 78.929,178.923 78.405,179.410 76.916 C 179.894 75.437,181.102 74.000,181.862 74.000 C 182.158 74.000,182.403 73.685,182.406 73.300 C 182.419 71.859,183.026 71.433,184.045 72.147 C 186.103 73.588,188.400 72.350,188.400 69.800 C 188.400 68.511,188.495 68.400,189.600 68.400 C 190.260 68.400,190.800 68.580,190.800 68.800 C 190.800 69.020,191.321 69.200,191.958 69.200 C 193.250 69.200,195.600 67.290,195.600 66.240 C 195.600 65.521,197.776 65.314,198.195 65.992 C 198.344 66.234,198.698 66.245,199.119 66.021 C 199.493 65.822,200.115 65.561,200.500 65.442 C 200.893 65.320,201.206 64.825,201.213 64.313 C 201.226 63.315,202.633 61.503,203.716 61.087 C 204.092 60.943,204.400 60.549,204.400 60.213 C 204.400 59.522,205.303 59.413,206.357 59.977 C 206.817 60.223,207.535 60.187,208.430 59.874 C 210.472 59.158,210.735 58.909,211.244 57.210 C 211.649 55.859,211.786 55.729,212.284 56.227 C 213.815 57.758,217.200 56.176,217.200 53.930 C 217.200 52.991,217.369 52.800,218.200 52.800 C 218.750 52.800,219.200 52.968,219.200 53.173 C 219.200 54.611,222.574 53.755,222.959 52.219 C 223.191 51.296,224.501 49.600,224.982 49.600 C 225.330 49.600,227.200 47.561,227.200 47.182 C 227.200 46.972,227.470 46.800,227.800 46.800 C 228.130 46.800,228.400 46.980,228.400 47.200 C 228.400 47.420,228.940 47.600,229.600 47.600 C 230.260 47.600,230.800 47.433,230.800 47.228 C 230.800 47.023,231.205 46.798,231.700 46.728 C 232.320 46.640,232.719 46.195,232.983 45.300 C 233.359 44.021,233.405 44.000,235.783 43.987 C 238.638 43.972,239.481 43.453,240.077 41.341 C 240.317 40.493,240.592 40.025,240.690 40.300 C 241.349 42.162,246.000 40.302,246.000 38.177 C 246.000 36.690,246.720 36.340,247.600 37.400 C 248.813 38.861,252.000 37.278,252.000 35.214 C 252.000 34.349,252.230 34.029,252.986 33.839 C 254.021 33.579,256.000 31.835,256.000 31.182 C 256.000 30.972,256.180 30.800,256.400 30.800 C 256.620 30.800,256.800 31.132,256.800 31.538 M133.826 108.726 C 133.948 109.283,134.478 109.808,135.160 110.046 C 136.191 110.405,136.312 110.652,136.506 112.793 C 136.769 115.699,136.950 116.000,138.424 116.000 C 139.411 116.000,139.600 116.160,139.600 116.996 C 139.600 117.695,140.017 118.263,140.995 118.896 C 142.240 119.703,142.392 119.994,142.411 121.600 C 142.436 123.691,143.904 125.760,145.679 126.205 C 146.458 126.401,146.788 126.768,146.877 127.538 C 146.970 128.345,147.312 128.692,148.300 128.983 C 149.592 129.363,149.600 129.381,149.600 131.936 C 149.600 134.455,150.395 136.000,151.693 136.000 C 152.838 136.000,155.358 139.370,155.257 140.767 C 155.146 142.295,156.865 144.793,158.036 144.806 C 159.176 144.819,159.791 145.488,159.255 146.133 C 158.734 146.761,159.951 148.000,161.089 148.000 C 161.405 148.000,161.600 148.526,161.600 149.376 C 161.600 150.133,161.780 150.864,162.000 151.000 C 162.220 151.136,162.400 151.630,162.400 152.098 C 162.400 153.065,163.866 154.800,164.682 154.800 C 164.981 154.800,165.329 155.071,165.456 155.402 C 165.583 155.733,166.297 156.293,167.044 156.647 C 168.360 157.272,168.400 157.360,168.400 159.662 C 168.400 162.051,170.604 165.178,172.300 165.195 C 172.575 165.198,172.800 165.470,172.800 165.800 C 172.800 166.130,173.049 166.400,173.353 166.400 C 174.074 166.400,174.482 167.770,174.401 169.922 C 174.318 172.160,175.168 173.430,176.977 173.769 L 178.400 174.036 178.400 176.628 C 178.400 178.945,178.495 179.257,179.300 179.570 C 179.795 179.762,180.729 180.478,181.375 181.160 C 182.021 181.842,182.876 182.400,183.275 182.400 C 183.877 182.400,184.000 182.735,184.000 184.374 C 184.000 186.562,184.551 188.400,185.207 188.400 C 186.600 188.400,190.400 193.131,190.400 194.864 C 190.400 196.736,191.263 198.400,192.235 198.400 C 192.560 198.400,192.929 198.670,193.055 199.000 C 193.182 199.330,193.496 199.600,193.754 199.600 C 194.011 199.600,194.530 199.960,194.907 200.400 C 195.284 200.840,195.954 201.200,196.396 201.200 C 197.124 201.200,197.200 201.462,197.200 203.973 C 197.200 206.395,197.301 206.778,198.000 207.000 C 198.440 207.140,198.800 207.512,198.800 207.827 C 198.800 208.142,198.972 208.400,199.182 208.400 C 199.652 208.400,201.600 210.310,201.600 210.772 C 201.600 210.956,201.951 211.198,202.380 211.311 C 203.032 211.481,203.179 211.930,203.280 214.057 C 203.397 216.544,203.429 216.608,204.700 216.983 C 205.415 217.193,206.000 217.598,206.000 217.883 C 206.000 218.167,206.258 218.400,206.573 218.400 C 206.888 218.400,207.260 218.760,207.400 219.200 C 207.540 219.640,207.912 220.000,208.227 220.000 C 208.542 220.000,208.800 220.251,208.800 220.557 C 208.800 220.864,209.070 221.218,209.400 221.345 C 209.809 221.502,210.000 222.142,210.000 223.361 C 210.000 226.132,210.554 227.200,211.990 227.200 L 213.200 227.200 213.200 229.982 L 213.200 232.764 214.600 233.026 C 215.400 233.177,216.000 233.527,216.000 233.843 C 216.000 234.148,216.630 235.095,217.400 235.947 C 218.515 237.181,218.800 237.827,218.800 239.118 C 218.800 240.976,220.260 243.066,221.704 243.274 C 222.186 243.343,222.801 243.850,223.070 244.400 C 223.340 244.950,224.065 245.684,224.680 246.031 C 225.682 246.595,225.813 246.910,225.919 249.031 C 226.037 251.371,227.123 253.200,228.395 253.200 C 228.632 253.200,228.937 253.515,229.073 253.900 C 229.477 255.037,230.472 256.000,231.244 256.000 C 231.854 256.000,231.981 256.411,232.082 258.700 C 232.198 261.353,232.222 261.406,233.476 261.776 C 234.309 262.021,234.833 262.477,234.987 263.089 C 235.116 263.605,235.712 264.238,236.311 264.495 C 236.910 264.752,237.452 264.993,237.516 265.030 C 237.580 265.068,237.985 266.064,238.416 267.244 C 239.802 271.035,240.247 270.800,231.680 270.800 C 223.722 270.800,223.200 270.916,223.200 272.680 C 223.200 273.193,222.957 273.600,222.651 273.600 C 222.349 273.600,221.359 274.406,220.451 275.391 L 218.800 277.182 218.800 329.671 C 218.800 370.496,218.693 382.053,218.320 381.680 C 218.056 381.416,217.078 381.200,216.147 381.200 C 214.826 381.200,214.400 381.030,214.209 380.429 C 213.643 378.646,206.400 376.764,206.400 378.400 C 206.400 379.602,204.645 378.298,204.009 376.623 C 203.340 374.865,198.736 374.056,196.976 375.387 C 195.912 376.192,195.865 376.174,195.272 374.700 C 194.333 372.368,194.146 372.205,192.017 371.863 C 189.374 371.439,187.200 371.807,187.200 372.680 C 187.200 373.745,185.695 372.145,185.390 370.755 C 184.948 368.741,178.272 367.714,177.232 369.500 C 176.953 369.979,176.820 356.399,176.812 326.556 C 176.805 302.552,176.691 282.114,176.557 281.138 C 176.144 278.122,174.545 276.595,171.828 276.621 C 169.940 276.639,169.600 276.532,169.600 275.921 C 169.600 274.120,168.231 273.564,163.965 273.631 C 159.848 273.696,159.111 273.529,159.921 272.719 C 161.320 271.320,159.373 270.800,152.738 270.800 C 146.584 270.800,145.890 270.670,146.863 269.697 C 147.916 268.644,146.473 268.000,143.051 267.995 C 138.678 267.987,137.943 267.768,138.246 266.560 C 138.442 265.780,138.281 265.540,137.342 265.206 C 136.714 264.982,135.887 264.620,135.505 264.400 C 135.123 264.180,133.614 264.000,132.151 264.000 C 129.414 264.000,128.198 263.336,127.472 261.444 C 127.268 260.911,126.530 260.800,123.203 260.800 C 119.325 260.800,119.167 260.765,118.815 259.840 C 118.031 257.778,117.247 257.600,108.937 257.600 C 100.911 257.600,99.200 257.869,99.200 259.132 C 99.200 259.928,97.866 261.506,96.574 262.239 C 94.781 263.256,94.812 262.524,94.806 304.500 L 94.800 344.400 93.953 344.400 C 93.284 344.400,93.154 344.220,93.332 343.539 C 93.689 342.174,92.614 340.543,91.167 340.253 C 89.051 339.830,86.996 339.968,86.176 340.587 C 85.000 341.477,84.400 341.321,84.400 340.126 C 84.400 337.842,83.122 337.200,78.575 337.200 L 74.489 337.200 74.237 335.855 C 73.928 334.211,70.040 333.364,66.700 334.214 C 65.872 334.424,65.600 334.348,65.600 333.905 C 65.600 332.015,63.812 331.200,59.662 331.200 C 56.496 331.200,55.639 331.078,55.455 330.600 C 55.329 330.270,54.949 330.000,54.613 330.000 C 54.276 330.000,54.000 329.739,54.000 329.420 C 54.000 329.101,53.732 328.690,53.405 328.507 C 52.882 328.214,52.797 320.130,52.705 262.272 C 52.591 190.665,52.755 195.621,50.500 195.606 C 49.765 195.601,49.600 195.377,49.600 194.382 C 49.600 191.862,48.256 191.201,43.118 191.194 C 40.633 191.191,38.793 191.056,39.029 190.894 C 39.265 190.732,39.577 190.278,39.722 189.885 C 39.867 189.492,40.528 188.862,41.191 188.485 C 41.922 188.069,42.396 187.473,42.397 186.968 C 42.399 186.462,42.832 185.917,43.500 185.580 C 44.105 185.274,44.914 184.712,45.298 184.331 C 45.850 183.783,46.414 183.687,47.986 183.873 C 50.454 184.165,51.758 183.422,52.638 181.221 C 53.042 180.211,53.585 179.590,54.197 179.436 C 54.820 179.280,55.222 178.809,55.392 178.038 C 55.568 177.234,55.961 176.796,56.665 176.619 C 57.302 176.460,57.852 175.918,58.133 175.173 C 58.467 174.288,58.966 173.878,60.074 173.580 C 61.758 173.127,62.301 172.541,61.645 171.885 C 60.994 171.234,61.101 170.800,61.912 170.800 C 62.304 170.800,63.568 169.855,64.721 168.700 C 68.004 165.411,68.113 165.303,69.700 163.744 C 70.525 162.934,71.200 162.114,71.200 161.922 C 71.200 161.436,76.306 156.400,76.799 156.400 C 77.020 156.400,77.200 156.208,77.200 155.973 C 77.200 155.738,77.830 154.952,78.600 154.226 C 79.370 153.500,80.000 152.702,80.000 152.453 C 80.000 152.162,80.965 151.995,82.700 151.987 C 85.623 151.972,87.200 151.176,87.200 149.716 C 87.200 148.780,87.941 148.000,88.831 148.000 C 89.700 148.000,90.600 146.899,90.600 145.835 C 90.600 145.207,90.893 144.967,91.781 144.866 C 93.042 144.722,93.966 143.826,93.987 142.728 C 93.995 142.344,94.380 142.001,94.886 141.928 C 95.374 141.858,96.196 141.170,96.713 140.400 C 97.231 139.630,98.008 138.868,98.441 138.708 C 98.874 138.547,99.537 137.873,99.914 137.210 C 100.291 136.547,100.818 136.004,101.084 136.003 C 101.940 135.998,103.200 134.284,103.200 133.125 C 103.200 132.168,103.364 131.998,104.300 131.987 C 105.929 131.968,107.067 131.003,106.402 130.203 C 106.118 129.861,105.957 129.540,106.043 129.490 C 106.129 129.441,106.740 129.124,107.400 128.787 C 108.069 128.445,108.655 127.789,108.725 127.306 C 108.794 126.828,109.199 126.327,109.625 126.192 C 110.051 126.057,110.400 125.688,110.400 125.373 C 110.400 125.058,110.613 124.800,110.874 124.800 C 111.504 124.800,113.200 123.187,113.200 122.588 C 113.200 122.328,113.784 121.948,114.499 121.743 C 115.504 121.455,115.843 121.104,116.002 120.189 C 116.163 119.258,116.458 118.963,117.389 118.802 C 118.304 118.643,118.655 118.304,118.943 117.299 L 119.316 116.000 122.009 116.000 C 124.876 116.000,126.246 115.286,125.263 114.303 C 124.494 113.534,124.734 113.200,126.053 113.200 C 127.290 113.200,128.800 112.002,128.800 111.022 C 128.800 110.771,129.383 110.393,130.096 110.183 C 131.010 109.913,131.510 109.449,131.796 108.606 C 132.395 106.838,133.364 105.925,133.512 106.991 C 133.574 107.436,133.715 108.217,133.826 108.726 M346.000 283.600 C 346.000 312.233,345.906 318.400,345.470 318.400 C 344.853 318.400,343.431 319.883,343.072 320.900 C 342.936 321.285,342.606 321.600,342.338 321.600 C 341.406 321.600,340.000 323.326,340.000 324.470 C 340.000 325.718,338.684 326.117,338.255 325.000 C 337.505 323.045,333.200 324.919,333.200 327.200 L 333.200 328.400 330.680 328.400 C 327.978 328.400,327.200 328.816,327.200 330.258 C 327.200 330.843,326.817 331.340,326.104 331.682 C 325.501 331.971,324.771 332.701,324.482 333.304 C 323.997 334.316,323.775 334.400,321.596 334.400 C 319.280 334.400,317.200 335.544,317.200 336.818 C 317.200 337.028,316.130 337.200,314.823 337.200 C 312.164 337.200,311.200 337.968,311.200 340.089 C 311.200 341.349,310.486 341.531,309.086 340.629 C 307.414 339.552,304.400 341.592,304.400 343.801 C 304.400 344.101,304.040 344.460,303.600 344.600 C 303.160 344.740,302.800 345.112,302.800 345.427 C 302.800 345.742,302.549 346.000,302.243 346.000 C 301.936 346.000,301.582 346.270,301.455 346.600 C 301.199 347.267,298.991 347.433,298.609 346.815 C 298.238 346.215,295.828 347.872,295.584 348.895 C 295.393 349.693,295.058 349.824,292.744 350.000 C 289.982 350.211,288.800 350.818,288.800 352.025 C 288.800 352.993,288.100 353.381,287.402 352.802 C 286.748 352.259,284.000 353.053,284.000 353.784 C 284.000 354.017,283.640 354.432,283.200 354.707 C 282.723 355.005,282.395 355.650,282.388 356.303 C 282.377 357.241,282.317 357.299,281.968 356.700 C 280.924 354.908,277.059 356.293,276.623 358.616 C 276.433 359.629,276.109 360.058,275.399 360.236 C 274.867 360.369,274.071 361.091,273.630 361.839 C 272.841 363.177,271.887 363.588,271.400 362.800 C 270.600 361.505,267.413 363.189,266.671 365.300 C 266.399 366.074,265.783 366.219,265.400 365.600 C 264.648 364.383,261.070 366.066,260.873 367.730 C 260.753 368.749,260.638 368.800,258.473 368.806 C 255.797 368.813,255.358 369.031,254.980 370.536 C 254.824 371.157,254.450 371.759,254.149 371.875 C 253.847 371.991,253.600 372.336,253.600 372.643 C 253.600 372.949,253.342 373.200,253.027 373.200 C 252.712 373.200,252.340 373.560,252.200 374.000 C 252.060 374.440,251.688 374.800,251.373 374.800 C 251.058 374.800,250.800 375.070,250.800 375.400 C 250.800 376.164,250.502 376.159,249.724 375.381 C 249.165 374.822,249.038 374.822,248.421 375.381 C 248.045 375.721,247.520 376.000,247.256 376.000 C 246.991 376.000,246.611 376.405,246.412 376.900 C 246.194 377.443,246.059 358.226,246.072 328.400 C 246.083 301.230,246.182 279.360,246.291 279.800 C 246.400 280.240,246.739 280.744,247.045 280.920 C 247.421 281.137,247.600 282.012,247.600 283.638 C 247.600 286.151,248.695 288.000,250.182 288.000 C 250.526 288.000,250.800 288.342,250.800 288.771 C 250.800 290.713,251.315 290.800,262.800 290.800 C 274.239 290.800,274.800 290.707,274.800 288.818 C 274.800 288.209,275.219 288.067,277.427 287.926 C 280.187 287.750,280.783 287.357,280.794 285.700 C 280.797 285.205,281.047 284.800,281.348 284.800 C 281.650 284.800,282.595 284.080,283.448 283.201 C 284.813 281.794,285.158 281.631,286.311 281.847 C 288.105 282.184,290.799 280.384,290.803 278.846 C 290.806 277.829,290.880 277.799,293.449 277.750 C 296.238 277.697,296.783 277.363,296.794 275.700 C 296.800 274.858,296.970 274.800,299.453 274.800 C 302.465 274.800,303.384 274.160,303.836 271.749 C 304.041 270.658,304.274 270.400,305.057 270.400 C 305.589 270.400,306.129 270.130,306.255 269.800 C 306.421 269.367,307.099 269.200,308.682 269.200 C 311.373 269.200,313.444 267.493,313.014 265.630 C 312.860 264.965,312.901 264.788,313.130 265.130 C 314.352 266.958,318.219 265.579,319.215 262.961 C 319.530 262.133,319.844 261.999,321.490 261.995 C 324.406 261.986,325.209 261.654,325.470 260.348 C 325.683 259.284,325.835 259.200,327.550 259.195 C 330.268 259.187,331.199 258.845,331.206 257.853 C 331.214 256.714,331.618 256.165,332.692 255.830 C 333.182 255.677,333.896 255.022,334.278 254.376 C 335.009 253.137,335.918 252.878,336.720 253.680 C 337.093 254.053,337.307 254.053,337.680 253.680 C 337.944 253.416,338.453 253.200,338.810 253.200 C 339.604 253.200,341.010 251.724,341.381 250.500 C 341.597 249.787,341.801 249.679,342.362 249.980 C 343.218 250.438,344.878 250.076,345.320 249.336 C 345.496 249.041,345.721 248.800,345.820 248.800 C 345.919 248.800,346.000 264.460,346.000 283.600 " stroke="none" fill="#ffffff" fill-rule="evenodd"></path><path id="path1" d="M253.588 1.100 C 253.577 2.040,253.517 2.098,253.168 1.500 C 252.027 -0.459,248.299 1.207,247.756 3.919 C 247.524 5.081,246.800 5.754,246.800 4.808 C 246.800 4.592,246.305 4.285,245.700 4.126 C 243.288 3.493,242.000 4.381,242.000 6.676 C 242.000 8.116,240.344 8.674,239.855 7.400 C 239.204 5.704,234.800 8.351,234.800 10.439 C 234.800 10.741,234.503 10.655,234.009 10.208 C 232.366 8.721,229.457 9.904,229.020 12.237 C 228.748 13.685,227.847 14.866,226.669 15.318 C 226.301 15.459,226.000 15.851,226.000 16.187 C 226.000 16.524,225.685 16.813,225.300 16.829 C 224.915 16.845,223.703 16.890,222.607 16.929 C 220.963 16.988,220.587 17.140,220.458 17.800 C 220.210 19.078,218.524 20.900,218.250 20.186 C 217.451 18.103,213.200 20.293,213.200 22.788 C 213.200 24.117,213.195 24.120,212.366 23.370 C 210.513 21.692,207.200 22.781,207.200 25.067 C 207.200 25.626,206.772 26.257,206.100 26.691 C 205.495 27.081,204.534 27.871,203.965 28.447 C 203.126 29.296,202.457 29.529,200.433 29.675 C 197.611 29.879,197.215 30.235,197.206 32.576 C 197.201 34.014,197.151 34.087,196.649 33.399 C 195.379 31.663,190.567 32.733,191.047 34.646 C 191.310 35.694,191.198 35.730,188.078 35.606 C 186.061 35.525,184.514 36.385,184.329 37.690 C 184.211 38.523,184.026 38.589,182.134 38.466 C 179.761 38.312,178.400 39.242,178.400 41.019 C 178.400 41.717,178.044 42.241,177.268 42.687 C 176.646 43.044,175.844 43.846,175.487 44.468 C 174.879 45.527,174.671 45.600,172.247 45.600 C 169.394 45.600,168.400 46.170,168.400 47.803 C 168.400 48.659,168.267 48.728,167.022 48.526 C 164.524 48.121,162.892 48.669,162.597 50.013 C 162.454 50.666,162.216 51.214,162.068 51.230 C 161.921 51.247,160.770 51.304,159.511 51.358 C 156.851 51.473,155.802 52.199,155.429 54.185 C 155.242 55.183,154.920 55.584,154.148 55.777 C 153.512 55.937,152.952 56.473,152.687 57.176 C 152.287 58.236,152.079 58.327,149.723 58.477 C 146.834 58.661,145.490 59.504,146.379 60.575 C 147.050 61.383,146.580 61.548,143.200 61.690 C 140.702 61.796,140.576 61.851,140.000 63.091 C 139.428 64.323,139.295 64.383,137.123 64.391 C 134.636 64.401,133.600 65.200,133.600 67.109 C 133.600 67.789,133.235 68.193,132.249 68.606 C 131.505 68.916,130.791 69.447,130.661 69.785 C 130.502 70.199,129.892 70.400,128.792 70.400 C 126.637 70.400,124.099 71.852,123.787 73.263 C 123.628 73.985,123.209 74.411,122.480 74.594 C 121.239 74.906,120.815 75.440,120.806 76.700 C 120.802 77.306,120.559 77.600,120.062 77.600 C 119.274 77.600,118.280 78.554,117.873 79.700 C 117.737 80.085,117.381 80.400,117.082 80.400 C 116.490 80.400,114.811 82.024,114.782 82.626 C 114.764 82.983,114.310 83.394,111.946 85.186 C 111.319 85.662,110.785 86.557,110.628 87.393 C 110.366 88.786,109.882 89.179,109.396 88.393 C 108.995 87.744,108.400 88.359,108.400 89.424 C 108.400 89.961,108.220 90.400,108.000 90.400 C 107.780 90.400,107.600 90.670,107.600 91.000 C 107.600 91.330,107.330 91.600,107.000 91.600 C 106.670 91.600,106.048 91.952,105.619 92.381 C 105.029 92.971,104.173 93.192,102.132 93.281 C 99.474 93.398,99.421 93.422,99.065 94.669 C 98.821 95.522,98.382 96.018,97.725 96.183 C 97.128 96.333,96.538 96.929,96.209 97.714 C 95.889 98.477,94.925 99.471,93.835 100.158 C 92.502 100.999,92.000 101.574,92.000 102.258 C 92.000 102.966,91.777 103.202,91.100 103.206 C 89.813 103.215,89.210 103.703,88.857 105.022 C 88.654 105.785,88.218 106.252,87.574 106.400 C 86.913 106.553,86.477 107.039,86.217 107.912 C 86.007 108.621,85.647 109.206,85.417 109.213 C 84.704 109.236,83.200 110.695,83.200 111.364 C 83.200 111.714,82.960 112.000,82.667 112.000 C 81.989 112.000,79.293 114.676,78.982 115.658 C 78.852 116.066,78.501 116.400,78.202 116.400 C 77.488 116.400,76.000 118.310,76.000 119.227 C 76.000 119.709,75.646 119.989,74.930 120.073 C 73.966 120.187,73.173 121.054,72.162 123.100 C 72.026 123.375,71.574 123.600,71.157 123.600 C 70.741 123.600,70.400 123.870,70.400 124.200 C 70.400 124.666,69.870 124.800,68.033 124.800 C 64.825 124.800,64.400 125.016,64.400 126.643 C 64.400 127.887,64.299 128.000,63.187 128.000 C 62.423 128.000,61.880 128.247,61.718 128.669 C 61.577 129.038,61.132 129.668,60.731 130.069 C 60.329 130.471,60.000 131.056,60.000 131.368 C 60.000 131.681,59.462 132.055,58.803 132.199 C 57.889 132.400,57.529 132.761,57.278 133.731 C 57.023 134.716,56.687 135.045,55.775 135.202 C 54.804 135.368,54.579 135.621,54.478 136.656 C 54.377 137.691,54.146 137.951,53.145 138.151 C 52.282 138.324,51.805 138.733,51.488 139.573 C 51.221 140.280,50.657 140.850,50.080 140.994 C 49.502 141.139,48.938 141.709,48.671 142.418 C 48.425 143.068,48.087 143.600,47.920 143.600 C 47.457 143.600,44.997 146.084,44.452 147.102 C 44.188 147.596,43.790 148.000,43.568 148.000 C 43.058 148.000,41.200 149.836,41.200 150.339 C 41.200 150.545,40.930 150.818,40.600 150.945 C 40.270 151.071,40.000 151.430,40.000 151.741 C 40.000 152.052,39.640 152.401,39.200 152.516 C 38.760 152.631,38.400 153.012,38.400 153.363 C 38.400 153.713,38.229 154.000,38.021 154.000 C 37.587 154.000,35.600 155.761,35.600 156.146 C 35.600 157.651,32.159 159.698,29.718 159.645 C 26.815 159.582,25.880 160.240,25.416 162.675 C 25.223 163.689,24.952 163.975,24.087 164.075 C 23.252 164.171,22.911 164.502,22.617 165.500 C 22.343 166.431,21.997 166.800,21.397 166.800 C 20.302 166.800,19.600 167.535,19.600 168.680 C 19.600 169.320,19.367 169.600,18.833 169.600 C 17.388 169.600,16.800 170.067,16.800 171.216 C 16.800 172.041,16.557 172.420,15.900 172.618 C 14.810 172.949,9.600 178.122,9.600 178.875 C 9.600 179.169,9.197 179.588,8.704 179.805 C 8.211 180.022,7.446 180.778,7.004 181.485 C 6.562 182.191,6.006 182.776,5.770 182.785 C 5.196 182.805,3.600 184.527,3.600 185.126 C 3.600 185.387,3.361 185.600,3.070 185.600 C 2.426 185.600,0.800 187.266,0.800 187.926 C 0.800 188.187,0.620 188.400,0.400 188.400 C 0.144 188.400,0.000 192.133,0.000 198.800 C 0.000 205.467,0.144 209.200,0.400 209.200 C 0.620 209.200,0.800 209.622,0.800 210.138 C 0.800 212.379,1.706 212.600,10.877 212.600 C 20.229 212.600,20.800 212.425,20.800 209.556 C 20.800 208.901,21.017 208.397,21.300 208.393 C 21.789 208.386,23.600 206.708,23.600 206.262 C 23.600 206.138,24.050 205.586,24.600 205.036 L 25.600 204.036 25.600 274.752 L 25.600 345.467 27.067 346.933 C 27.873 347.740,28.711 348.400,28.929 348.400 C 29.668 348.400,32.326 351.552,32.586 352.738 C 32.903 354.182,33.559 354.387,37.861 354.395 L 41.122 354.400 41.540 355.600 C 41.770 356.260,42.135 356.800,42.351 356.800 C 42.566 356.800,43.058 357.115,43.442 357.500 C 43.977 358.035,44.978 358.233,47.696 358.341 C 50.919 358.468,51.282 358.563,51.584 359.357 C 52.224 361.042,53.122 361.393,56.959 361.458 C 58.962 361.492,60.825 361.538,61.100 361.560 C 61.375 361.582,61.600 362.039,61.600 362.576 C 61.600 363.970,62.140 364.176,66.396 364.400 C 69.798 364.579,70.206 364.683,70.330 365.400 C 70.585 366.883,71.556 367.200,75.834 367.200 C 80.140 367.200,80.400 367.316,80.400 369.233 C 80.400 369.726,80.678 370.000,81.176 370.000 C 81.603 370.000,82.064 370.180,82.200 370.400 C 82.341 370.628,84.366 370.800,86.908 370.800 L 91.370 370.800 93.078 372.476 C 94.779 374.146,94.800 374.154,98.293 374.326 C 101.705 374.494,101.822 374.533,102.607 375.749 L 103.415 377.000 108.526 377.112 L 113.637 377.224 114.782 376.080 C 115.412 375.450,115.988 374.507,116.063 373.984 C 116.154 373.353,116.537 372.957,117.200 372.808 C 117.812 372.671,118.433 372.085,118.800 371.300 C 119.130 370.595,119.706 370.013,120.080 370.009 C 120.453 370.004,121.263 369.339,121.880 368.531 L 123.000 367.063 123.106 329.669 C 123.204 295.208,123.160 292.219,122.544 291.538 C 121.915 290.843,121.924 290.800,122.695 290.800 C 123.253 290.800,123.601 291.148,123.788 291.896 C 124.194 293.514,124.491 293.587,130.668 293.594 L 136.336 293.600 136.606 294.827 C 136.754 295.502,137.173 296.166,137.538 296.302 C 137.902 296.439,138.404 296.822,138.653 297.155 C 138.983 297.596,140.133 297.804,142.918 297.926 C 146.231 298.071,146.757 298.191,146.927 298.843 C 147.035 299.256,147.679 299.910,148.359 300.297 L 149.595 301.000 149.597 342.617 L 149.600 384.235 150.900 384.617 L 152.200 385.000 152.400 388.287 C 152.671 392.734,152.941 392.978,157.714 393.076 C 159.741 393.117,161.593 393.162,161.828 393.176 C 162.063 393.189,162.513 393.785,162.828 394.500 L 163.400 395.800 167.500 395.914 C 171.148 396.015,171.600 396.108,171.600 396.752 C 171.600 398.357,173.045 398.984,176.936 399.065 C 178.951 399.107,180.721 399.155,180.868 399.171 C 181.016 399.187,181.249 399.695,181.387 400.300 C 181.835 402.263,187.321 403.793,188.979 402.418 C 189.699 401.820,191.568 403.009,191.587 404.077 C 191.619 405.758,197.261 406.948,197.855 405.400 C 198.209 404.480,200.000 404.626,200.000 405.575 C 200.000 406.925,202.031 408.732,203.881 409.027 C 206.063 409.376,208.400 408.939,208.400 408.182 C 208.400 407.862,208.541 407.600,208.714 407.600 C 209.156 407.600,210.400 409.792,210.400 410.572 C 210.400 411.654,212.200 412.000,217.826 412.000 C 221.142 412.000,223.200 412.153,223.200 412.400 C 223.200 412.656,226.800 412.800,233.200 412.800 L 243.200 412.800 243.212 411.700 C 243.223 410.760,243.283 410.702,243.632 411.300 C 244.771 413.255,248.643 411.917,249.015 409.441 C 249.243 407.921,249.430 407.654,250.407 407.459 C 251.078 407.324,251.644 406.892,251.803 406.392 C 252.045 405.627,252.264 405.575,254.221 405.820 C 256.316 406.082,258.780 404.744,258.806 403.331 C 258.826 402.236,259.483 402.003,260.755 402.638 C 261.996 403.256,262.098 403.247,262.954 402.443 C 263.448 401.979,264.065 401.600,264.326 401.600 C 264.595 401.600,264.800 401.032,264.800 400.282 L 264.800 398.965 267.636 398.965 C 270.793 398.965,271.973 398.142,271.991 395.927 C 271.997 395.210,272.266 394.770,272.800 394.600 C 273.240 394.460,273.600 394.088,273.600 393.773 C 273.600 393.458,273.855 393.200,274.167 393.200 C 274.478 393.200,274.816 392.975,274.917 392.700 C 275.063 392.300,275.206 392.300,275.630 392.700 C 277.316 394.290,280.789 392.426,280.812 389.918 C 280.822 388.829,280.895 388.722,281.232 389.300 C 282.224 391.004,285.651 390.231,287.000 388.000 C 288.228 385.969,288.566 385.698,289.000 386.400 C 289.752 387.617,293.330 385.934,293.527 384.270 C 293.649 383.238,293.742 383.200,296.138 383.200 C 299.202 383.200,300.206 382.576,300.544 380.462 C 300.721 379.354,301.029 378.833,301.597 378.685 C 302.039 378.569,302.400 378.188,302.400 377.837 C 302.400 377.487,302.655 377.200,302.967 377.200 C 303.278 377.200,303.638 376.975,303.767 376.700 C 303.953 376.300,304.047 376.300,304.233 376.700 C 305.051 378.452,309.600 376.049,309.600 373.866 C 309.600 373.115,309.638 373.110,310.360 373.764 C 311.563 374.853,313.881 374.229,315.639 372.344 C 316.814 371.082,317.351 370.800,318.577 370.800 C 320.721 370.800,322.235 369.594,322.548 367.637 C 322.723 366.543,323.047 365.975,323.598 365.801 C 324.037 365.661,324.687 365.256,325.043 364.900 C 325.497 364.446,326.268 364.282,327.619 364.354 C 330.013 364.481,331.109 363.925,331.273 362.500 C 331.395 361.441,331.492 361.398,333.853 361.339 C 336.824 361.265,337.855 360.771,338.186 359.264 C 338.426 358.170,338.518 358.129,340.318 358.300 C 342.563 358.513,344.273 357.440,344.474 355.691 C 344.594 354.650,344.713 354.595,347.054 354.482 C 349.743 354.353,351.437 353.277,350.471 352.311 C 349.774 351.614,349.897 351.200,350.800 351.200 C 351.244 351.200,351.600 350.933,351.600 350.600 C 351.600 350.270,351.849 350.000,352.153 350.000 C 352.458 350.000,352.801 349.640,352.916 349.200 C 353.100 348.497,353.462 348.400,355.886 348.400 C 358.912 348.400,359.872 347.945,360.072 346.417 C 360.192 345.498,360.337 345.441,362.272 345.545 C 364.452 345.662,366.000 344.765,366.000 343.383 C 366.000 342.590,367.101 341.492,368.500 340.890 C 369.284 340.553,369.600 340.127,369.600 339.409 C 369.600 338.599,369.798 338.400,370.600 338.400 C 373.394 338.400,373.201 341.738,373.194 293.700 C 373.191 269.995,373.056 250.419,372.894 250.199 C 372.523 249.692,369.451 247.600,369.078 247.600 C 368.670 247.600,367.200 246.061,367.200 245.633 C 367.200 245.432,366.996 245.199,366.747 245.116 C 366.497 245.032,366.092 244.342,365.847 243.582 L 365.400 242.200 360.200 241.982 C 357.340 241.862,355.495 241.727,356.100 241.682 C 356.817 241.628,357.200 241.373,357.200 240.947 C 357.200 240.416,357.500 240.335,358.806 240.510 C 361.207 240.832,362.744 240.108,363.043 238.513 C 363.295 237.167,364.527 236.687,365.425 237.585 C 365.673 237.833,366.311 237.796,367.205 237.482 C 369.237 236.770,369.600 236.458,369.600 235.425 C 369.600 234.348,370.583 233.325,370.988 233.981 C 372.117 235.807,376.000 233.940,376.000 231.571 C 376.000 230.383,376.160 230.000,376.654 230.000 C 377.340 230.000,379.200 228.232,379.200 227.579 C 379.200 226.979,380.651 227.139,381.200 227.800 C 382.069 228.847,384.800 227.689,384.800 226.274 C 384.800 225.397,386.552 224.303,387.254 224.741 C 389.029 225.849,391.979 224.221,391.994 222.125 C 391.999 221.352,392.160 221.276,393.378 221.474 C 395.784 221.864,397.600 221.315,397.600 220.196 C 397.600 219.659,398.135 218.680,398.800 218.000 L 400.000 216.772 400.000 206.391 C 400.000 195.529,399.822 194.400,398.111 194.400 C 397.830 194.400,397.600 194.113,397.600 193.763 C 397.600 193.412,397.240 193.031,396.800 192.916 C 396.360 192.801,396.000 192.458,396.000 192.153 C 396.000 191.849,395.730 191.600,395.400 191.600 C 394.934 191.600,394.800 191.070,394.800 189.229 C 394.800 186.692,394.189 185.600,392.771 185.600 C 392.347 185.600,392.000 185.342,392.000 185.027 C 392.000 184.712,391.640 184.340,391.200 184.200 C 390.760 184.060,390.400 183.688,390.400 183.373 C 390.400 183.058,390.130 182.800,389.800 182.800 C 389.352 182.800,389.199 182.320,389.195 180.900 C 389.187 178.431,388.841 177.200,388.153 177.200 C 386.977 177.200,386.000 175.652,386.000 173.787 C 386.000 172.545,385.811 171.902,385.400 171.745 C 385.070 171.618,384.800 171.193,384.800 170.800 C 384.800 170.063,384.047 169.600,382.850 169.600 C 382.423 169.600,382.022 169.111,381.783 168.300 C 381.493 167.315,381.144 166.970,380.345 166.878 C 379.348 166.762,379.281 166.616,379.127 164.191 C 378.961 161.577,377.842 159.600,376.530 159.600 C 376.239 159.600,376.000 159.361,376.000 159.070 C 376.000 158.426,374.334 156.800,373.674 156.800 C 373.364 156.800,373.198 156.003,373.194 154.500 C 373.187 151.796,372.972 151.359,371.464 150.980 C 370.844 150.825,370.143 150.273,369.907 149.755 C 369.671 149.237,368.976 148.591,368.363 148.319 C 367.749 148.048,367.152 147.550,367.035 147.213 C 366.919 146.876,366.594 146.286,366.315 145.901 C 365.909 145.345,365.906 145.042,366.300 144.411 C 366.949 143.372,365.746 141.060,364.457 140.871 C 363.466 140.725,361.600 139.146,361.600 138.454 C 361.600 138.204,361.323 138.000,360.985 138.000 C 360.582 138.000,360.407 137.690,360.478 137.100 C 360.765 134.718,360.007 132.548,358.685 131.966 C 357.460 131.426,357.394 131.284,357.281 128.914 C 357.151 126.180,356.097 124.800,354.138 124.800 C 353.330 124.800,353.222 124.653,353.427 123.833 C 353.709 122.711,352.755 122.008,350.926 121.988 C 349.968 121.977,349.904 121.915,350.500 121.568 C 352.292 120.524,350.472 115.785,347.975 114.992 C 347.549 114.857,347.200 114.520,347.200 114.243 C 347.200 113.620,345.520 112.000,344.874 112.000 C 344.297 112.000,344.248 111.341,344.800 111.000 C 346.430 109.993,344.986 106.646,342.748 106.243 C 341.555 106.028,341.255 105.776,341.065 104.826 C 340.889 103.944,340.547 103.608,339.617 103.404 C 338.426 103.142,338.400 103.085,338.400 100.742 C 338.400 97.719,337.978 96.945,336.004 96.354 C 334.971 96.045,334.104 95.414,333.510 94.543 C 333.010 93.807,332.375 93.204,332.100 93.203 C 331.825 93.201,331.600 93.020,331.600 92.800 C 331.600 92.580,331.780 92.400,332.000 92.400 C 333.379 92.400,331.963 87.637,330.569 87.587 C 329.997 87.566,328.400 86.124,328.400 85.629 C 328.400 85.386,327.770 84.887,327.000 84.519 C 325.634 83.868,325.600 83.794,325.600 81.500 C 325.600 78.362,325.213 77.753,323.011 77.423 C 321.152 77.144,320.876 76.884,321.635 76.125 C 322.254 75.506,321.325 74.998,320.629 75.576 C 319.874 76.202,319.600 75.301,319.600 72.195 C 319.600 69.782,319.535 69.609,318.300 68.747 C 316.586 67.549,316.411 67.245,316.677 65.914 C 316.983 64.387,315.143 61.695,313.677 61.523 C 312.939 61.436,312.565 61.106,312.405 60.400 C 312.264 59.781,311.693 59.185,310.906 58.835 C 309.703 58.301,309.629 58.141,309.517 55.845 C 309.418 53.795,309.261 53.351,308.503 52.975 C 308.009 52.729,307.275 52.230,306.871 51.864 C 306.467 51.499,305.926 51.200,305.669 51.200 C 305.411 51.200,305.200 50.930,305.200 50.600 C 305.200 50.270,304.930 50.000,304.600 50.000 C 303.946 50.000,303.925 49.924,303.782 47.025 C 303.726 45.890,303.443 44.870,303.117 44.625 C 302.806 44.391,302.432 43.885,302.288 43.500 C 302.143 43.115,301.827 42.800,301.586 42.800 C 301.344 42.800,300.573 42.197,299.873 41.461 C 299.173 40.725,298.195 39.908,297.700 39.647 C 296.954 39.253,296.800 38.837,296.800 37.219 C 296.800 34.545,296.523 34.000,295.165 34.000 C 294.243 34.000,293.962 33.782,293.746 32.900 C 293.432 31.618,292.945 31.215,291.700 31.206 C 290.855 31.200,290.800 31.033,290.800 28.470 C 290.800 25.712,289.909 24.000,288.474 24.000 C 288.166 24.000,288.000 23.230,288.000 21.800 C 288.000 19.512,287.124 18.000,285.800 18.000 C 285.470 18.000,285.200 17.856,285.200 17.679 C 285.200 17.135,281.908 14.000,281.338 14.000 C 280.944 14.000,280.800 13.324,280.800 11.480 C 280.800 8.768,280.385 8.000,278.920 8.000 C 278.414 8.000,278.000 7.762,278.000 7.472 C 278.000 6.961,276.251 5.200,275.743 5.200 C 275.361 5.200,273.600 3.211,273.600 2.779 C 273.600 2.571,273.240 2.400,272.800 2.400 C 272.178 2.400,272.000 2.133,272.000 1.200 L 272.000 0.000 262.800 0.000 L 253.600 0.000 253.588 1.100 M256.800 31.538 C 256.800 32.521,257.908 33.449,259.482 33.783 C 260.755 34.054,260.766 34.077,260.882 36.728 L 261.000 39.400 262.300 39.525 C 263.342 39.626,263.600 39.828,263.600 40.545 C 263.600 41.694,264.316 42.400,265.480 42.400 C 266.341 42.400,266.400 42.560,266.406 44.900 C 266.413 47.808,267.051 49.347,268.325 49.530 C 270.272 49.809,272.795 52.919,272.707 54.931 C 272.626 56.807,273.523 58.400,274.662 58.400 C 274.958 58.400,275.200 58.647,275.200 58.949 C 275.200 59.536,278.277 62.548,279.229 62.893 C 279.687 63.059,279.701 63.205,279.300 63.630 C 277.802 65.217,278.957 68.400,281.030 68.400 C 282.123 68.400,282.334 68.568,282.542 69.608 C 282.728 70.541,283.050 70.870,283.949 71.050 C 285.084 71.277,285.119 71.357,285.273 74.090 C 285.447 77.169,286.299 78.400,288.257 78.400 C 288.789 78.400,289.336 78.688,289.471 79.040 C 289.793 79.880,291.524 81.600,292.047 81.600 C 292.272 81.600,292.156 81.901,291.788 82.270 C 290.322 83.736,291.920 87.200,294.062 87.200 C 295.300 87.200,295.462 87.591,294.719 88.781 C 294.357 89.361,294.350 89.779,294.690 90.475 C 294.938 90.984,295.301 91.940,295.497 92.600 C 295.752 93.462,296.212 93.908,297.126 94.183 C 297.827 94.393,298.400 94.742,298.400 94.957 C 298.400 95.552,300.068 97.200,300.670 97.200 C 301.050 97.200,301.200 97.869,301.200 99.571 C 301.200 102.108,301.811 103.200,303.229 103.200 C 303.653 103.200,304.000 103.335,304.000 103.500 C 304.001 103.665,304.451 104.323,305.000 104.962 C 305.550 105.601,306.000 106.286,306.000 106.483 C 306.000 106.680,306.562 107.038,307.250 107.277 C 308.283 107.638,308.387 107.776,307.850 108.076 C 306.131 109.038,307.814 113.192,309.929 113.209 C 310.741 113.215,311.145 113.529,311.600 114.509 C 311.952 115.267,312.550 115.850,313.048 115.921 C 313.798 116.028,313.919 116.370,314.100 118.899 C 314.329 122.105,315.130 123.200,317.244 123.200 C 317.937 123.200,318.400 123.412,318.400 123.730 C 318.400 124.022,318.823 124.658,319.340 125.144 C 320.135 125.891,320.252 126.317,320.101 127.913 C 319.890 130.131,321.024 132.000,322.580 132.000 C 323.608 132.000,324.240 132.603,324.462 133.795 C 324.543 134.233,324.967 134.657,325.405 134.738 C 326.844 135.006,327.200 135.637,327.200 137.923 C 327.200 140.204,328.200 142.000,329.470 142.000 C 329.835 142.000,330.002 142.592,330.005 143.900 C 330.013 146.396,330.360 147.600,331.074 147.600 C 332.787 147.600,336.000 151.732,336.000 153.935 C 336.000 155.738,336.126 156.108,336.800 156.284 C 337.240 156.399,337.600 156.747,337.600 157.057 C 337.600 157.366,338.119 157.724,338.754 157.851 C 339.421 157.984,340.084 158.467,340.325 158.994 C 340.553 159.496,341.294 160.151,341.970 160.451 C 343.159 160.977,343.200 161.080,343.200 163.566 C 343.200 166.264,343.856 167.600,345.181 167.600 C 346.549 167.600,348.990 170.685,348.856 172.244 C 348.685 174.228,349.455 175.843,350.848 176.420 C 351.496 176.688,352.388 177.367,352.829 177.928 C 353.270 178.489,354.164 179.272,354.816 179.668 C 355.917 180.338,356.000 180.557,356.000 182.794 C 356.000 184.636,356.137 185.200,356.584 185.200 C 356.905 185.200,357.902 185.920,358.800 186.800 C 359.698 187.680,360.676 188.400,360.973 188.400 C 361.718 188.400,362.000 189.308,362.000 191.707 C 362.000 193.801,363.049 195.600,364.270 195.600 C 364.649 195.600,364.800 196.260,364.800 197.920 C 364.800 200.656,365.208 201.182,367.380 201.253 C 368.944 201.304,368.956 201.314,367.725 201.553 C 367.024 201.689,366.034 202.160,365.525 202.600 C 364.844 203.189,364.151 203.368,362.896 203.277 C 361.642 203.186,361.130 203.318,360.954 203.777 C 360.822 204.120,360.393 204.400,360.000 204.400 C 359.175 204.400,358.800 205.167,358.800 206.853 C 358.800 207.832,358.554 208.143,357.400 208.626 C 356.630 208.948,356.000 209.465,356.000 209.776 C 356.000 210.222,355.539 210.295,353.830 210.118 C 351.432 209.871,350.142 210.741,348.963 213.400 C 348.634 214.143,348.425 214.333,348.416 213.900 C 348.366 211.678,343.200 213.582,343.200 215.823 C 343.200 217.352,343.024 217.481,342.143 216.600 C 340.577 215.034,336.403 217.284,335.863 219.984 C 335.708 220.761,335.211 221.381,334.413 221.793 C 333.746 222.138,333.200 222.596,333.200 222.810 C 333.200 223.025,332.133 223.200,330.829 223.200 C 328.241 223.200,327.199 223.811,327.201 225.329 C 327.202 226.148,327.047 226.192,324.620 226.067 L 322.039 225.933 321.440 227.367 C 321.110 228.155,320.697 228.814,320.520 228.832 C 320.344 228.850,319.255 228.912,318.100 228.970 C 315.839 229.085,314.400 229.976,314.400 231.262 C 314.400 231.884,314.070 232.002,312.300 232.013 C 310.021 232.028,309.077 232.570,307.781 234.608 C 305.534 238.142,304.759 238.800,302.833 238.806 C 300.466 238.814,299.099 239.525,298.600 241.010 C 298.211 242.167,298.127 242.200,295.600 242.200 C 293.019 242.200,292.997 242.209,292.622 243.483 C 292.257 244.724,292.165 244.770,289.832 244.883 C 287.795 244.982,287.351 245.140,286.975 245.897 C 286.729 246.391,286.230 247.125,285.864 247.529 C 285.499 247.933,285.200 248.453,285.200 248.685 C 285.200 248.917,284.842 249.200,284.403 249.315 C 283.965 249.430,283.291 250.073,282.905 250.746 C 282.250 251.887,282.031 251.976,279.604 252.084 C 277.061 252.197,277.001 252.226,276.800 253.400 C 276.600 254.573,276.536 254.603,274.005 254.721 C 271.088 254.858,269.634 255.677,270.486 256.704 C 270.870 257.167,270.842 257.380,270.350 257.743 C 270.009 257.994,269.625 258.470,269.496 258.800 C 269.302 259.301,269.258 259.291,269.232 258.743 C 269.214 258.381,268.921 257.979,268.581 257.848 C 268.241 257.717,267.777 257.079,267.551 256.430 C 267.262 255.602,266.791 255.174,265.970 254.993 C 265.326 254.852,264.800 254.537,264.800 254.294 C 264.800 253.659,263.158 252.000,262.530 252.000 C 262.144 252.000,262.000 251.290,262.000 249.387 C 262.000 247.262,261.870 246.728,261.300 246.523 C 260.915 246.385,260.278 245.941,259.884 245.536 C 259.491 245.131,258.816 244.800,258.384 244.800 C 257.953 244.800,257.600 244.600,257.600 244.356 C 257.600 244.112,257.206 243.504,256.725 243.004 C 256.007 242.258,255.868 241.699,255.952 239.897 C 256.064 237.480,254.939 236.000,252.989 236.000 C 252.363 236.000,252.011 235.698,251.839 235.012 C 251.702 234.468,251.188 233.811,250.695 233.552 C 249.473 232.908,249.214 232.432,249.201 230.800 C 249.184 228.789,248.792 227.600,248.144 227.600 C 247.835 227.600,246.801 226.880,245.846 226.000 C 244.892 225.120,243.906 224.400,243.655 224.400 C 243.363 224.400,243.200 223.492,243.200 221.858 C 243.200 219.679,243.059 219.180,242.210 218.358 C 240.853 217.045,239.630 216.000,239.451 216.000 C 238.181 216.000,236.000 212.772,236.000 210.891 C 236.000 209.067,235.898 208.800,235.200 208.800 C 234.760 208.800,234.400 208.549,234.400 208.243 C 234.400 207.936,234.130 207.582,233.800 207.455 C 233.375 207.292,233.200 206.630,233.200 205.186 C 233.200 202.877,232.675 201.600,231.724 201.600 C 231.368 201.600,230.460 200.880,229.707 200.000 C 228.954 199.120,228.082 198.400,227.769 198.400 C 227.336 198.400,227.200 197.787,227.200 195.843 C 227.200 193.178,226.947 192.800,225.167 192.800 C 224.745 192.800,224.400 192.531,224.400 192.201 C 224.400 191.872,223.519 190.747,222.443 189.701 C 220.630 187.939,220.466 187.617,220.204 185.300 L 219.921 182.800 218.561 182.800 C 217.418 182.800,217.199 182.656,217.194 181.900 C 217.185 180.634,216.760 180.106,215.496 179.788 C 214.446 179.525,214.400 179.407,214.400 176.992 C 214.400 174.283,214.531 174.482,210.918 171.683 C 210.434 171.307,210.022 170.820,210.003 170.600 C 209.984 170.380,209.391 169.838,208.685 169.395 C 207.343 168.553,206.771 166.799,207.538 165.875 C 207.991 165.329,207.213 164.000,206.441 164.000 C 206.042 164.000,203.753 161.802,202.143 159.874 C 201.892 159.573,201.532 158.184,201.343 156.788 C 201.017 154.372,200.938 154.233,199.718 153.918 C 198.452 153.591,198.435 153.553,198.318 150.893 L 198.200 148.200 196.900 148.075 C 195.914 147.980,195.600 147.758,195.600 147.159 C 195.600 146.724,194.856 145.681,193.947 144.841 C 192.490 143.496,192.270 143.059,192.096 141.157 C 191.854 138.506,191.478 138.000,189.751 138.000 C 188.618 138.000,188.399 137.854,188.394 137.100 C 188.385 135.832,187.955 135.302,186.800 135.140 C 185.866 135.009,185.792 134.830,185.678 132.403 C 185.562 129.911,184.625 128.000,183.520 128.000 C 182.113 128.000,179.600 124.339,179.600 122.291 C 179.600 119.886,179.138 119.200,177.520 119.200 C 176.544 119.200,176.400 119.047,176.400 118.008 C 176.400 117.059,176.189 116.762,175.366 116.556 C 173.468 116.079,172.400 114.587,172.400 112.410 C 172.400 110.306,171.701 109.200,170.371 109.200 C 169.691 109.200,169.600 108.902,169.600 106.680 C 169.600 103.968,169.185 103.200,167.720 103.200 C 167.001 103.200,166.800 102.978,166.800 102.182 C 166.800 101.209,165.234 99.200,164.475 99.200 C 164.277 99.200,163.998 98.075,163.856 96.700 C 163.565 93.885,162.991 93.200,160.924 93.200 C 159.555 93.200,159.285 92.875,160.034 92.126 C 160.589 91.571,159.013 90.400,157.711 90.400 C 157.210 90.400,156.800 90.220,156.800 90.000 C 156.800 89.780,156.966 89.600,157.168 89.600 C 157.371 89.600,157.651 89.078,157.791 88.441 C 157.939 87.769,158.371 87.196,158.819 87.079 C 159.245 86.968,159.910 86.321,160.297 85.641 C 160.953 84.488,161.153 84.405,163.271 84.403 C 165.704 84.400,166.800 83.769,166.800 82.371 C 166.800 81.704,167.093 81.600,168.967 81.600 C 171.979 81.600,172.400 81.370,172.400 79.720 L 172.400 78.325 174.300 78.560 C 177.294 78.929,178.923 78.405,179.410 76.916 C 179.894 75.437,181.102 74.000,181.862 74.000 C 182.158 74.000,182.403 73.685,182.406 73.300 C 182.419 71.859,183.026 71.433,184.045 72.147 C 186.103 73.588,188.400 72.350,188.400 69.800 C 188.400 68.511,188.495 68.400,189.600 68.400 C 190.260 68.400,190.800 68.580,190.800 68.800 C 190.800 69.020,191.321 69.200,191.958 69.200 C 193.250 69.200,195.600 67.290,195.600 66.240 C 195.600 65.521,197.776 65.314,198.195 65.992 C 198.344 66.234,198.698 66.245,199.119 66.021 C 199.493 65.822,200.115 65.561,200.500 65.442 C 200.893 65.320,201.206 64.825,201.213 64.313 C 201.226 63.315,202.633 61.503,203.716 61.087 C 204.092 60.943,204.400 60.549,204.400 60.213 C 204.400 59.522,205.303 59.413,206.357 59.977 C 206.817 60.223,207.535 60.187,208.430 59.874 C 210.472 59.158,210.735 58.909,211.244 57.210 C 211.649 55.859,211.786 55.729,212.284 56.227 C 213.815 57.758,217.200 56.176,217.200 53.930 C 217.200 52.991,217.369 52.800,218.200 52.800 C 218.750 52.800,219.200 52.968,219.200 53.173 C 219.200 54.611,222.574 53.755,222.959 52.219 C 223.191 51.296,224.501 49.600,224.982 49.600 C 225.330 49.600,227.200 47.561,227.200 47.182 C 227.200 46.972,227.470 46.800,227.800 46.800 C 228.130 46.800,228.400 46.980,228.400 47.200 C 228.400 47.420,228.940 47.600,229.600 47.600 C 230.260 47.600,230.800 47.433,230.800 47.228 C 230.800 47.023,231.205 46.798,231.700 46.728 C 232.320 46.640,232.719 46.195,232.983 45.300 C 233.359 44.021,233.405 44.000,235.783 43.987 C 238.638 43.972,239.481 43.453,240.077 41.341 C 240.317 40.493,240.592 40.025,240.690 40.300 C 241.349 42.162,246.000 40.302,246.000 38.177 C 246.000 36.690,246.720 36.340,247.600 37.400 C 248.813 38.861,252.000 37.278,252.000 35.214 C 252.000 34.349,252.230 34.029,252.986 33.839 C 254.021 33.579,256.000 31.835,256.000 31.182 C 256.000 30.972,256.180 30.800,256.400 30.800 C 256.620 30.800,256.800 31.132,256.800 31.538 M133.826 108.726 C 133.948 109.283,134.478 109.808,135.160 110.046 C 136.191 110.405,136.312 110.652,136.506 112.793 C 136.769 115.699,136.950 116.000,138.424 116.000 C 139.411 116.000,139.600 116.160,139.600 116.996 C 139.600 117.695,140.017 118.263,140.995 118.896 C 142.240 119.703,142.392 119.994,142.411 121.600 C 142.436 123.691,143.904 125.760,145.679 126.205 C 146.458 126.401,146.788 126.768,146.877 127.538 C 146.970 128.345,147.312 128.692,148.300 128.983 C 149.592 129.363,149.600 129.381,149.600 131.936 C 149.600 134.455,150.395 136.000,151.693 136.000 C 152.838 136.000,155.358 139.370,155.257 140.767 C 155.146 142.295,156.865 144.793,158.036 144.806 C 159.176 144.819,159.791 145.488,159.255 146.133 C 158.734 146.761,159.951 148.000,161.089 148.000 C 161.405 148.000,161.600 148.526,161.600 149.376 C 161.600 150.133,161.780 150.864,162.000 151.000 C 162.220 151.136,162.400 151.630,162.400 152.098 C 162.400 153.065,163.866 154.800,164.682 154.800 C 164.981 154.800,165.329 155.071,165.456 155.402 C 165.583 155.733,166.297 156.293,167.044 156.647 C 168.360 157.272,168.400 157.360,168.400 159.662 C 168.400 162.051,170.604 165.178,172.300 165.195 C 172.575 165.198,172.800 165.470,172.800 165.800 C 172.800 166.130,173.049 166.400,173.353 166.400 C 174.074 166.400,174.482 167.770,174.401 169.922 C 174.318 172.160,175.168 173.430,176.977 173.769 L 178.400 174.036 178.400 176.628 C 178.400 178.945,178.495 179.257,179.300 179.570 C 179.795 179.762,180.729 180.478,181.375 181.160 C 182.021 181.842,182.876 182.400,183.275 182.400 C 183.877 182.400,184.000 182.735,184.000 184.374 C 184.000 186.562,184.551 188.400,185.207 188.400 C 186.600 188.400,190.400 193.131,190.400 194.864 C 190.400 196.736,191.263 198.400,192.235 198.400 C 192.560 198.400,192.929 198.670,193.055 199.000 C 193.182 199.330,193.496 199.600,193.754 199.600 C 194.011 199.600,194.530 199.960,194.907 200.400 C 195.284 200.840,195.954 201.200,196.396 201.200 C 197.124 201.200,197.200 201.462,197.200 203.973 C 197.200 206.395,197.301 206.778,198.000 207.000 C 198.440 207.140,198.800 207.512,198.800 207.827 C 198.800 208.142,198.972 208.400,199.182 208.400 C 199.652 208.400,201.600 210.310,201.600 210.772 C 201.600 210.956,201.951 211.198,202.380 211.311 C 203.032 211.481,203.179 211.930,203.280 214.057 C 203.397 216.544,203.429 216.608,204.700 216.983 C 205.415 217.193,206.000 217.598,206.000 217.883 C 206.000 218.167,206.258 218.400,206.573 218.400 C 206.888 218.400,207.260 218.760,207.400 219.200 C 207.540 219.640,207.912 220.000,208.227 220.000 C 208.542 220.000,208.800 220.251,208.800 220.557 C 208.800 220.864,209.070 221.218,209.400 221.345 C 209.809 221.502,210.000 222.142,210.000 223.361 C 210.000 226.132,210.554 227.200,211.990 227.200 L 213.200 227.200 213.200 229.982 L 213.200 232.764 214.600 233.026 C 215.400 233.177,216.000 233.527,216.000 233.843 C 216.000 234.148,216.630 235.095,217.400 235.947 C 218.515 237.181,218.800 237.827,218.800 239.118 C 218.800 240.976,220.260 243.066,221.704 243.274 C 222.186 243.343,222.801 243.850,223.070 244.400 C 223.340 244.950,224.065 245.684,224.680 246.031 C 225.682 246.595,225.813 246.910,225.919 249.031 C 226.037 251.371,227.123 253.200,228.395 253.200 C 228.632 253.200,228.937 253.515,229.073 253.900 C 229.477 255.037,230.472 256.000,231.244 256.000 C 231.854 256.000,231.981 256.411,232.082 258.700 C 232.198 261.353,232.222 261.406,233.476 261.776 C 234.309 262.021,234.833 262.477,234.987 263.089 C 235.116 263.605,235.712 264.238,236.311 264.495 C 236.910 264.752,237.452 264.993,237.516 265.030 C 237.580 265.068,237.985 266.064,238.416 267.244 C 239.802 271.035,240.247 270.800,231.680 270.800 C 223.722 270.800,223.200 270.916,223.200 272.680 C 223.200 273.193,222.957 273.600,222.651 273.600 C 222.349 273.600,221.359 274.406,220.451 275.391 L 218.800 277.182 218.800 329.671 C 218.800 370.496,218.693 382.053,218.320 381.680 C 218.056 381.416,217.078 381.200,216.147 381.200 C 214.826 381.200,214.400 381.030,214.209 380.429 C 213.643 378.646,206.400 376.764,206.400 378.400 C 206.400 379.602,204.645 378.298,204.009 376.623 C 203.340 374.865,198.736 374.056,196.976 375.387 C 195.912 376.192,195.865 376.174,195.272 374.700 C 194.333 372.368,194.146 372.205,192.017 371.863 C 189.374 371.439,187.200 371.807,187.200 372.680 C 187.200 373.745,185.695 372.145,185.390 370.755 C 184.948 368.741,178.272 367.714,177.232 369.500 C 176.953 369.979,176.820 356.399,176.812 326.556 C 176.805 302.552,176.691 282.114,176.557 281.138 C 176.144 278.122,174.545 276.595,171.828 276.621 C 169.940 276.639,169.600 276.532,169.600 275.921 C 169.600 274.120,168.231 273.564,163.965 273.631 C 159.848 273.696,159.111 273.529,159.921 272.719 C 161.320 271.320,159.373 270.800,152.738 270.800 C 146.584 270.800,145.890 270.670,146.863 269.697 C 147.916 268.644,146.473 268.000,143.051 267.995 C 138.678 267.987,137.943 267.768,138.246 266.560 C 138.442 265.780,138.281 265.540,137.342 265.206 C 136.714 264.982,135.887 264.620,135.505 264.400 C 135.123 264.180,133.614 264.000,132.151 264.000 C 129.414 264.000,128.198 263.336,127.472 261.444 C 127.268 260.911,126.530 260.800,123.203 260.800 C 119.325 260.800,119.167 260.765,118.815 259.840 C 118.031 257.778,117.247 257.600,108.937 257.600 C 100.911 257.600,99.200 257.869,99.200 259.132 C 99.200 259.928,97.866 261.506,96.574 262.239 C 94.781 263.256,94.812 262.524,94.806 304.500 L 94.800 344.400 93.953 344.400 C 93.284 344.400,93.154 344.220,93.332 343.539 C 93.689 342.174,92.614 340.543,91.167 340.253 C 89.051 339.830,86.996 339.968,86.176 340.587 C 85.000 341.477,84.400 341.321,84.400 340.126 C 84.400 337.842,83.122 337.200,78.575 337.200 L 74.489 337.200 74.237 335.855 C 73.928 334.211,70.040 333.364,66.700 334.214 C 65.872 334.424,65.600 334.348,65.600 333.905 C 65.600 332.015,63.812 331.200,59.662 331.200 C 56.496 331.200,55.639 331.078,55.455 330.600 C 55.329 330.270,54.949 330.000,54.613 330.000 C 54.276 330.000,54.000 329.739,54.000 329.420 C 54.000 329.101,53.732 328.690,53.405 328.507 C 52.882 328.214,52.797 320.130,52.705 262.272 C 52.591 190.665,52.755 195.621,50.500 195.606 C 49.765 195.601,49.600 195.377,49.600 194.382 C 49.600 191.862,48.256 191.201,43.118 191.194 C 40.633 191.191,38.793 191.056,39.029 190.894 C 39.265 190.732,39.577 190.278,39.722 189.885 C 39.867 189.492,40.528 188.862,41.191 188.485 C 41.922 188.069,42.396 187.473,42.397 186.968 C 42.399 186.462,42.832 185.917,43.500 185.580 C 44.105 185.274,44.914 184.712,45.298 184.331 C 45.850 183.783,46.414 183.687,47.986 183.873 C 50.454 184.165,51.758 183.422,52.638 181.221 C 53.042 180.211,53.585 179.590,54.197 179.436 C 54.820 179.280,55.222 178.809,55.392 178.038 C 55.568 177.234,55.961 176.796,56.665 176.619 C 57.302 176.460,57.852 175.918,58.133 175.173 C 58.467 174.288,58.966 173.878,60.074 173.580 C 61.758 173.127,62.301 172.541,61.645 171.885 C 60.994 171.234,61.101 170.800,61.912 170.800 C 62.304 170.800,63.568 169.855,64.721 168.700 C 68.004 165.411,68.113 165.303,69.700 163.744 C 70.525 162.934,71.200 162.114,71.200 161.922 C 71.200 161.436,76.306 156.400,76.799 156.400 C 77.020 156.400,77.200 156.208,77.200 155.973 C 77.200 155.738,77.830 154.952,78.600 154.226 C 79.370 153.500,80.000 152.702,80.000 152.453 C 80.000 152.162,80.965 151.995,82.700 151.987 C 85.623 151.972,87.200 151.176,87.200 149.716 C 87.200 148.780,87.941 148.000,88.831 148.000 C 89.700 148.000,90.600 146.899,90.600 145.835 C 90.600 145.207,90.893 144.967,91.781 144.866 C 93.042 144.722,93.966 143.826,93.987 142.728 C 93.995 142.344,94.380 142.001,94.886 141.928 C 95.374 141.858,96.196 141.170,96.713 140.400 C 97.231 139.630,98.008 138.868,98.441 138.708 C 98.874 138.547,99.537 137.873,99.914 137.210 C 100.291 136.547,100.818 136.004,101.084 136.003 C 101.940 135.998,103.200 134.284,103.200 133.125 C 103.200 132.168,103.364 131.998,104.300 131.987 C 105.929 131.968,107.067 131.003,106.402 130.203 C 106.118 129.861,105.957 129.540,106.043 129.490 C 106.129 129.441,106.740 129.124,107.400 128.787 C 108.069 128.445,108.655 127.789,108.725 127.306 C 108.794 126.828,109.199 126.327,109.625 126.192 C 110.051 126.057,110.400 125.688,110.400 125.373 C 110.400 125.058,110.613 124.800,110.874 124.800 C 111.504 124.800,113.200 123.187,113.200 122.588 C 113.200 122.328,113.784 121.948,114.499 121.743 C 115.504 121.455,115.843 121.104,116.002 120.189 C 116.163 119.258,116.458 118.963,117.389 118.802 C 118.304 118.643,118.655 118.304,118.943 117.299 L 119.316 116.000 122.009 116.000 C 124.876 116.000,126.246 115.286,125.263 114.303 C 124.494 113.534,124.734 113.200,126.053 113.200 C 127.290 113.200,128.800 112.002,128.800 111.022 C 128.800 110.771,129.383 110.393,130.096 110.183 C 131.010 109.913,131.510 109.449,131.796 108.606 C 132.395 106.838,133.364 105.925,133.512 106.991 C 133.574 107.436,133.715 108.217,133.826 108.726 M346.000 283.600 C 346.000 312.233,345.906 318.400,345.470 318.400 C 344.853 318.400,343.431 319.883,343.072 320.900 C 342.936 321.285,342.606 321.600,342.338 321.600 C 341.406 321.600,340.000 323.326,340.000 324.470 C 340.000 325.718,338.684 326.117,338.255 325.000 C 337.505 323.045,333.200 324.919,333.200 327.200 L 333.200 328.400 330.680 328.400 C 327.978 328.400,327.200 328.816,327.200 330.258 C 327.200 330.843,326.817 331.340,326.104 331.682 C 325.501 331.971,324.771 332.701,324.482 333.304 C 323.997 334.316,323.775 334.400,321.596 334.400 C 319.280 334.400,317.200 335.544,317.200 336.818 C 317.200 337.028,316.130 337.200,314.823 337.200 C 312.164 337.200,311.200 337.968,311.200 340.089 C 311.200 341.349,310.486 341.531,309.086 340.629 C 307.414 339.552,304.400 341.592,304.400 343.801 C 304.400 344.101,304.040 344.460,303.600 344.600 C 303.160 344.740,302.800 345.112,302.800 345.427 C 302.800 345.742,302.549 346.000,302.243 346.000 C 301.936 346.000,301.582 346.270,301.455 346.600 C 301.199 347.267,298.991 347.433,298.609 346.815 C 298.238 346.215,295.828 347.872,295.584 348.895 C 295.393 349.693,295.058 349.824,292.744 350.000 C 289.982 350.211,288.800 350.818,288.800 352.025 C 288.800 352.993,288.100 353.381,287.402 352.802 C 286.748 352.259,284.000 353.053,284.000 353.784 C 284.000 354.017,283.640 354.432,283.200 354.707 C 282.723 355.005,282.395 355.650,282.388 356.303 C 282.377 357.241,282.317 357.299,281.968 356.700 C 280.924 354.908,277.059 356.293,276.623 358.616 C 276.433 359.629,276.109 360.058,275.399 360.236 C 274.867 360.369,274.071 361.091,273.630 361.839 C 272.841 363.177,271.887 363.588,271.400 362.800 C 270.600 361.505,267.413 363.189,266.671 365.300 C 266.399 366.074,265.783 366.219,265.400 365.600 C 264.648 364.383,261.070 366.066,260.873 367.730 C 260.753 368.749,260.638 368.800,258.473 368.806 C 255.797 368.813,255.358 369.031,254.980 370.536 C 254.824 371.157,254.450 371.759,254.149 371.875 C 253.847 371.991,253.600 372.336,253.600 372.643 C 253.600 372.949,253.342 373.200,253.027 373.200 C 252.712 373.200,252.340 373.560,252.200 374.000 C 252.060 374.440,251.688 374.800,251.373 374.800 C 251.058 374.800,250.800 375.070,250.800 375.400 C 250.800 376.164,250.502 376.159,249.724 375.381 C 249.165 374.822,249.038 374.822,248.421 375.381 C 248.045 375.721,247.520 376.000,247.256 376.000 C 246.991 376.000,246.611 376.405,246.412 376.900 C 246.194 377.443,246.059 358.226,246.072 328.400 C 246.083 301.230,246.182 279.360,246.291 279.800 C 246.400 280.240,246.739 280.744,247.045 280.920 C 247.421 281.137,247.600 282.012,247.600 283.638 C 247.600 286.151,248.695 288.000,250.182 288.000 C 250.526 288.000,250.800 288.342,250.800 288.771 C 250.800 290.713,251.315 290.800,262.800 290.800 C 274.239 290.800,274.800 290.707,274.800 288.818 C 274.800 288.209,275.219 288.067,277.427 287.926 C 280.187 287.750,280.783 287.357,280.794 285.700 C 280.797 285.205,281.047 284.800,281.348 284.800 C 281.650 284.800,282.595 284.080,283.448 283.201 C 284.813 281.794,285.158 281.631,286.311 281.847 C 288.105 282.184,290.799 280.384,290.803 278.846 C 290.806 277.829,290.880 277.799,293.449 277.750 C 296.238 277.697,296.783 277.363,296.794 275.700 C 296.800 274.858,296.970 274.800,299.453 274.800 C 302.465 274.800,303.384 274.160,303.836 271.749 C 304.041 270.658,304.274 270.400,305.057 270.400 C 305.589 270.400,306.129 270.130,306.255 269.800 C 306.421 269.367,307.099 269.200,308.682 269.200 C 311.373 269.200,313.444 267.493,313.014 265.630 C 312.860 264.965,312.901 264.788,313.130 265.130 C 314.352 266.958,318.219 265.579,319.215 262.961 C 319.530 262.133,319.844 261.999,321.490 261.995 C 324.406 261.986,325.209 261.654,325.470 260.348 C 325.683 259.284,325.835 259.200,327.550 259.195 C 330.268 259.187,331.199 258.845,331.206 257.853 C 331.214 256.714,331.618 256.165,332.692 255.830 C 333.182 255.677,333.896 255.022,334.278 254.376 C 335.009 253.137,335.918 252.878,336.720 253.680 C 337.093 254.053,337.307 254.053,337.680 253.680 C 337.944 253.416,338.453 253.200,338.810 253.200 C 339.604 253.200,341.010 251.724,341.381 250.500 C 341.597 249.787,341.801 249.679,342.362 249.980 C 343.218 250.438,344.878 250.076,345.320 249.336 C 345.496 249.041,345.721 248.800,345.820 248.800 C 345.919 248.800,346.000 264.460,346.000 283.600 " stroke="none" fill="#ffffff" fill-rule="evenodd"></path></g></svg>