<svg id="svg" version="1.1" xmlns="http://www.w3.org/2000/svg" xmlns:xlink="http://www.w3.org/1999/xlink" width="400" height="418.7725631768953" viewBox="0, 0, 400,418.7725631768953"><g id="svgg"><path id="path0" d="M376.400 0.400 C 376.400 0.620,375.410 0.800,374.200 0.800 C 372.615 0.800,372.000 0.952,372.000 1.342 C 372.000 1.720,371.182 1.961,369.300 2.136 C 367.590 2.295,366.437 2.610,366.156 2.994 C 365.871 3.382,365.055 3.600,363.883 3.600 C 362.405 3.600,362.005 3.754,361.800 4.400 C 361.581 5.090,361.195 5.200,358.993 5.200 C 357.259 5.200,356.337 5.375,356.120 5.746 C 355.942 6.049,354.865 6.379,353.696 6.487 C 352.539 6.595,351.265 6.980,350.864 7.342 C 350.406 7.756,349.441 8.000,348.256 8.000 C 347.026 8.000,346.302 8.191,346.163 8.552 C 346.044 8.861,345.077 9.219,343.957 9.368 C 342.774 9.525,341.871 9.870,341.738 10.216 C 341.580 10.628,340.879 10.800,339.357 10.800 C 337.467 10.800,337.200 10.899,337.200 11.600 C 337.200 12.324,336.933 12.400,334.400 12.400 C 332.178 12.400,331.600 12.524,331.600 13.000 C 331.600 13.461,331.089 13.600,329.400 13.600 C 327.467 13.600,327.200 13.697,327.200 14.400 C 327.200 15.121,326.933 15.200,324.496 15.200 C 322.226 15.200,321.712 15.328,321.293 16.000 C 320.904 16.623,320.360 16.800,318.839 16.800 C 317.472 16.800,316.817 16.980,316.655 17.400 C 316.485 17.843,315.784 18.000,313.975 18.000 C 311.862 18.000,311.496 18.110,311.316 18.800 C 311.140 19.472,310.770 19.600,308.996 19.600 C 307.583 19.600,306.816 19.780,306.676 20.145 C 306.535 20.514,305.471 20.754,303.381 20.889 C 301.081 21.036,300.202 21.254,299.928 21.743 C 299.665 22.212,299.002 22.400,297.607 22.400 C 296.005 22.400,295.608 22.544,295.400 23.200 C 295.181 23.891,294.795 24.000,292.560 24.000 C 290.631 24.000,289.916 24.152,289.745 24.600 C 289.588 25.007,288.951 25.200,287.761 25.200 C 286.440 25.200,285.883 25.398,285.507 26.000 C 285.124 26.613,284.574 26.800,283.153 26.800 C 281.992 26.800,281.112 27.025,280.800 27.400 C 280.497 27.765,279.621 28.000,278.565 28.000 C 277.238 28.000,276.727 28.189,276.400 28.800 C 276.040 29.473,275.562 29.600,273.386 29.600 C 271.067 29.600,270.800 29.682,270.800 30.400 C 270.800 31.109,270.533 31.200,268.449 31.200 C 266.847 31.200,265.939 31.391,265.600 31.800 C 265.270 32.197,264.375 32.400,262.951 32.400 C 261.067 32.400,260.800 32.499,260.800 33.200 C 260.800 33.923,260.533 34.000,258.043 34.000 C 255.961 34.000,255.229 34.147,255.055 34.600 C 254.898 35.010,254.257 35.200,253.035 35.200 C 251.715 35.200,251.102 35.404,250.700 35.979 C 250.274 36.587,249.589 36.784,247.577 36.879 L 245.000 37.000 244.882 39.700 C 244.773 42.192,244.826 42.400,245.582 42.400 C 246.133 42.400,246.400 42.661,246.400 43.200 C 246.400 43.640,246.651 44.000,246.957 44.000 C 247.264 44.000,247.618 44.270,247.745 44.600 C 247.871 44.930,248.251 45.200,248.587 45.200 C 248.933 45.200,249.200 45.548,249.200 46.000 C 249.200 46.440,249.426 46.800,249.702 46.800 C 249.978 46.800,250.730 47.430,251.372 48.200 C 252.014 48.970,252.778 49.600,253.070 49.600 C 253.361 49.600,253.600 49.839,253.600 50.130 C 253.600 50.422,254.230 51.186,255.000 51.828 C 255.770 52.470,256.400 53.222,256.400 53.498 C 256.400 53.774,256.760 54.000,257.200 54.000 C 257.640 54.000,258.003 54.225,258.007 54.500 C 258.015 55.110,259.742 56.800,260.356 56.800 C 260.600 56.800,260.800 57.160,260.800 57.600 C 260.800 58.040,260.980 58.400,261.200 58.400 C 261.420 58.400,261.960 58.760,262.400 59.200 C 262.840 59.640,263.566 60.000,264.013 60.000 C 264.459 60.000,264.929 60.270,265.055 60.600 C 265.182 60.930,265.536 61.200,265.843 61.200 C 266.149 61.200,266.400 61.560,266.400 62.000 C 266.400 62.533,266.667 62.800,267.200 62.800 C 267.652 62.800,268.000 63.067,268.000 63.413 C 268.000 63.749,268.270 64.129,268.600 64.255 C 268.930 64.382,269.200 64.736,269.200 65.043 C 269.200 65.349,269.560 65.600,270.000 65.600 C 270.533 65.600,270.800 65.867,270.800 66.400 C 270.800 66.933,271.067 67.200,271.600 67.200 C 272.044 67.200,272.400 67.467,272.400 67.800 C 272.400 68.130,272.670 68.400,273.000 68.400 C 273.333 68.400,273.600 68.756,273.600 69.200 C 273.600 69.733,273.867 70.000,274.400 70.000 C 274.840 70.000,275.203 70.225,275.207 70.500 C 275.215 71.110,276.942 72.800,277.556 72.800 C 277.800 72.800,278.000 73.160,278.000 73.600 C 278.000 74.133,278.267 74.400,278.800 74.400 C 279.244 74.400,279.600 74.667,279.600 75.000 C 279.600 75.330,279.870 75.600,280.200 75.600 C 280.533 75.600,280.800 75.956,280.800 76.400 C 280.800 76.933,281.067 77.200,281.600 77.200 C 282.052 77.200,282.400 77.467,282.400 77.813 C 282.400 78.149,282.670 78.529,283.000 78.655 C 283.330 78.782,283.600 79.136,283.600 79.443 C 283.600 79.749,283.330 80.000,283.000 80.000 C 282.670 80.000,282.400 80.338,282.400 80.750 C 282.400 81.264,282.021 81.576,281.192 81.742 C 280.247 81.931,279.931 82.247,279.742 83.192 C 279.576 84.021,279.264 84.400,278.750 84.400 C 278.267 84.400,278.000 84.684,278.000 85.200 C 278.000 85.733,277.733 86.000,277.200 86.000 C 276.756 86.000,276.400 86.267,276.400 86.600 C 276.400 86.930,276.130 87.200,275.800 87.200 C 275.467 87.200,275.200 87.556,275.200 88.000 C 275.200 88.533,274.933 88.800,274.400 88.800 C 273.956 88.800,273.600 89.067,273.600 89.400 C 273.600 89.730,273.330 90.000,273.000 90.000 C 272.667 90.000,272.400 90.356,272.400 90.800 C 272.400 91.333,272.133 91.600,271.600 91.600 C 271.067 91.600,270.800 91.867,270.800 92.400 C 270.800 92.933,270.533 93.200,270.000 93.200 C 269.556 93.200,269.200 93.467,269.200 93.800 C 269.200 94.130,268.930 94.400,268.600 94.400 C 268.270 94.400,267.640 94.760,267.200 95.200 C 266.760 95.640,266.130 96.000,265.800 96.000 C 265.467 96.000,265.200 96.356,265.200 96.800 C 265.200 97.333,264.933 97.600,264.400 97.600 C 263.960 97.600,263.600 97.849,263.600 98.153 C 263.600 98.458,263.240 98.801,262.800 98.916 C 262.360 99.031,262.000 99.412,262.000 99.763 C 262.000 100.113,261.730 100.400,261.400 100.400 C 261.070 100.400,260.800 100.649,260.800 100.953 C 260.800 101.258,260.440 101.601,260.000 101.716 C 259.560 101.831,259.200 102.212,259.200 102.563 C 259.200 102.913,258.942 103.200,258.627 103.200 C 258.312 103.200,257.940 103.560,257.800 104.000 C 257.660 104.440,257.288 104.800,256.973 104.800 C 256.658 104.800,256.400 105.049,256.400 105.353 C 256.400 105.658,256.040 106.001,255.600 106.116 C 255.160 106.231,254.800 106.612,254.800 106.963 C 254.800 107.313,254.530 107.600,254.200 107.600 C 253.870 107.600,253.600 107.870,253.600 108.200 C 253.600 108.530,253.332 108.800,253.003 108.800 C 252.441 108.800,250.001 111.041,249.999 111.559 C 249.998 111.692,249.459 112.160,248.800 112.600 C 248.141 113.040,247.602 113.715,247.601 114.100 C 247.601 114.485,247.330 114.800,247.000 114.800 C 246.670 114.800,246.400 114.968,246.400 115.173 C 246.400 115.378,246.040 115.660,245.600 115.800 C 245.160 115.940,244.800 116.402,244.800 116.827 C 244.800 117.333,244.524 117.600,244.000 117.600 C 243.467 117.600,243.200 117.867,243.200 118.400 C 243.200 118.844,242.933 119.200,242.600 119.200 C 242.270 119.200,242.000 119.470,242.000 119.800 C 242.000 120.133,241.644 120.400,241.200 120.400 C 240.667 120.400,240.400 120.667,240.400 121.200 C 240.400 121.848,240.133 122.000,239.000 122.000 C 238.051 122.000,237.600 122.185,237.600 122.573 C 237.600 122.888,237.240 123.260,236.800 123.400 C 236.360 123.540,236.000 123.912,236.000 124.227 C 236.000 124.542,235.730 124.800,235.400 124.800 C 235.067 124.800,234.800 125.156,234.800 125.600 C 234.800 126.133,234.533 126.400,234.000 126.400 C 233.556 126.400,233.200 126.667,233.200 127.000 C 233.200 127.330,232.942 127.600,232.627 127.600 C 232.312 127.600,231.940 127.960,231.800 128.400 C 231.660 128.840,231.309 129.200,231.020 129.200 C 230.730 129.200,230.399 129.560,230.284 130.000 C 230.169 130.440,229.788 130.800,229.437 130.800 C 229.087 130.800,228.800 131.070,228.800 131.400 C 228.800 131.730,228.530 132.000,228.200 132.000 C 227.867 132.000,227.600 132.356,227.600 132.800 C 227.600 133.333,227.333 133.600,226.800 133.600 C 226.360 133.600,226.000 133.850,226.000 134.157 C 226.000 134.463,225.555 134.825,225.010 134.962 C 224.080 135.195,220.400 138.415,220.400 138.996 C 220.400 139.142,219.680 139.934,218.800 140.755 C 217.920 141.575,217.200 142.456,217.200 142.713 C 217.200 142.970,216.660 143.459,216.000 143.800 C 215.340 144.141,214.800 144.596,214.800 144.810 C 214.800 145.025,214.350 145.200,213.800 145.200 C 213.067 145.200,212.800 144.987,212.800 144.400 C 212.800 143.960,212.620 143.600,212.400 143.600 C 212.180 143.600,211.640 143.240,211.200 142.800 C 210.760 142.360,210.040 142.000,209.600 142.000 C 209.156 142.000,208.800 141.733,208.800 141.400 C 208.800 141.070,208.461 140.800,208.047 140.800 C 207.630 140.800,207.200 140.443,207.084 140.000 C 206.969 139.560,206.588 139.200,206.237 139.200 C 205.887 139.200,205.600 138.950,205.600 138.645 C 205.600 138.326,205.002 137.977,204.200 137.826 C 203.362 137.669,202.800 137.330,202.800 136.982 C 202.800 136.662,202.574 136.400,202.298 136.400 C 202.022 136.400,201.270 135.770,200.628 135.000 C 199.799 134.006,199.133 133.600,198.330 133.600 C 197.467 133.600,197.200 133.411,197.200 132.800 C 197.200 132.267,196.933 132.000,196.400 132.000 C 195.956 132.000,195.600 131.733,195.600 131.400 C 195.600 131.070,195.313 130.800,194.963 130.800 C 194.612 130.800,194.231 130.440,194.116 130.000 C 194.001 129.560,193.658 129.200,193.353 129.200 C 193.049 129.200,192.440 128.840,192.000 128.400 C 191.560 127.960,190.930 127.600,190.600 127.600 C 190.270 127.600,190.000 127.330,190.000 127.000 C 190.000 126.670,189.661 126.400,189.247 126.400 C 188.830 126.400,188.400 126.043,188.284 125.600 C 188.169 125.160,187.788 124.800,187.437 124.800 C 187.087 124.800,186.440 124.440,186.000 124.000 C 185.560 123.560,184.930 123.200,184.600 123.200 C 184.270 123.200,184.000 122.930,184.000 122.600 C 184.000 122.270,183.774 122.000,183.498 122.000 C 183.222 122.000,182.470 121.370,181.828 120.600 C 180.999 119.606,180.333 119.200,179.530 119.200 C 178.667 119.200,178.400 119.011,178.400 118.400 C 178.400 117.867,178.133 117.600,177.600 117.600 C 177.156 117.600,176.800 117.333,176.800 117.000 C 176.800 116.670,176.536 116.400,176.214 116.400 C 175.892 116.400,175.435 116.040,175.200 115.600 C 174.965 115.160,174.598 114.800,174.386 114.800 C 174.174 114.800,173.640 114.440,173.200 114.000 C 172.760 113.560,172.130 113.200,171.800 113.200 C 171.470 113.200,171.200 112.930,171.200 112.600 C 171.200 112.267,170.844 112.000,170.400 112.000 C 169.948 112.000,169.600 111.733,169.600 111.387 C 169.600 111.051,169.299 110.659,168.931 110.518 C 168.562 110.377,167.932 109.932,167.531 109.531 C 167.129 109.129,166.440 108.800,166.000 108.800 C 165.556 108.800,165.200 108.533,165.200 108.200 C 165.200 107.870,164.869 107.600,164.464 107.600 C 164.060 107.600,163.155 106.970,162.455 106.200 C 161.754 105.430,160.825 104.800,160.390 104.800 C 159.867 104.800,159.600 104.530,159.600 104.000 C 159.600 103.556,159.333 103.200,159.000 103.200 C 158.670 103.200,158.040 102.840,157.600 102.400 C 157.160 101.960,156.440 101.600,156.000 101.600 C 155.556 101.600,155.200 101.333,155.200 101.000 C 155.200 100.667,154.844 100.400,154.400 100.400 C 153.867 100.400,153.600 100.133,153.600 99.600 C 153.600 99.148,153.333 98.800,152.987 98.800 C 152.651 98.800,152.271 98.530,152.145 98.200 C 152.018 97.870,151.467 97.600,150.920 97.600 C 150.262 97.600,149.854 97.329,149.716 96.800 C 149.600 96.357,149.170 96.000,148.753 96.000 C 148.331 96.000,148.000 95.720,148.000 95.363 C 148.000 95.012,147.640 94.631,147.200 94.516 C 146.760 94.401,146.400 94.058,146.400 93.753 C 146.400 93.391,145.932 93.200,145.047 93.200 C 144.030 93.200,143.641 93.001,143.484 92.400 C 143.048 90.733,139.200 92.103,139.200 93.926 C 139.200 94.187,138.930 94.400,138.600 94.400 C 138.267 94.400,138.000 94.756,138.000 95.200 C 138.000 95.733,137.733 96.000,137.200 96.000 C 136.667 96.000,136.400 96.267,136.400 96.800 C 136.400 97.244,136.133 97.600,135.800 97.600 C 135.470 97.600,135.200 97.870,135.200 98.200 C 135.200 98.533,134.844 98.800,134.400 98.800 C 133.883 98.800,133.600 99.067,133.600 99.553 C 133.600 99.970,133.243 100.400,132.800 100.516 C 132.360 100.631,132.000 101.012,132.000 101.363 C 132.000 101.713,131.730 102.000,131.400 102.000 C 131.070 102.000,130.800 102.249,130.800 102.553 C 130.800 102.858,130.440 103.201,130.000 103.316 C 129.560 103.431,129.200 103.812,129.200 104.163 C 129.200 104.513,128.930 104.800,128.600 104.800 C 128.270 104.800,128.000 105.049,128.000 105.353 C 128.000 105.658,127.640 106.001,127.200 106.116 C 126.760 106.231,126.400 106.612,126.400 106.963 C 126.400 107.313,126.142 107.600,125.827 107.600 C 125.512 107.600,125.140 107.960,125.000 108.400 C 124.860 108.840,124.488 109.200,124.173 109.200 C 123.858 109.200,123.600 109.449,123.600 109.753 C 123.600 110.058,123.240 110.401,122.800 110.516 C 122.360 110.631,122.000 111.012,122.000 111.363 C 122.000 111.713,121.730 112.000,121.400 112.000 C 121.070 112.000,120.800 112.258,120.800 112.573 C 120.800 112.888,120.440 113.260,120.000 113.400 C 119.560 113.540,119.200 113.912,119.200 114.227 C 119.200 114.542,118.942 114.800,118.627 114.800 C 118.312 114.800,117.940 115.160,117.800 115.600 C 117.660 116.040,117.288 116.400,116.973 116.400 C 116.658 116.400,116.400 116.649,116.400 116.953 C 116.400 117.258,116.040 117.601,115.600 117.716 C 115.160 117.831,114.800 118.212,114.800 118.563 C 114.800 118.913,114.530 119.200,114.200 119.200 C 113.870 119.200,113.600 119.458,113.600 119.773 C 113.600 120.088,113.240 120.460,112.800 120.600 C 112.360 120.740,112.000 121.112,112.000 121.427 C 112.000 121.742,111.742 122.000,111.427 122.000 C 111.112 122.000,110.740 122.360,110.600 122.800 C 110.460 123.240,110.088 123.600,109.773 123.600 C 109.458 123.600,109.200 123.849,109.200 124.153 C 109.200 124.458,108.840 124.801,108.400 124.916 C 107.960 125.031,107.600 125.412,107.600 125.763 C 107.600 126.113,107.330 126.400,107.000 126.400 C 106.670 126.400,106.400 126.658,106.400 126.973 C 106.400 127.288,106.040 127.660,105.600 127.800 C 105.160 127.940,104.800 128.291,104.800 128.580 C 104.800 128.870,104.440 129.201,104.000 129.316 C 103.560 129.431,103.200 129.812,103.200 130.163 C 103.200 130.513,102.930 130.800,102.600 130.800 C 102.270 130.800,102.000 131.049,102.000 131.353 C 102.000 131.658,101.640 132.001,101.200 132.116 C 100.760 132.231,100.400 132.612,100.400 132.963 C 100.400 133.313,100.130 133.600,99.800 133.600 C 99.470 133.600,99.200 133.887,99.200 134.237 C 99.200 134.588,98.840 134.969,98.400 135.084 C 97.960 135.199,97.600 135.521,97.600 135.800 C 97.600 136.079,97.240 136.401,96.800 136.516 C 96.360 136.631,96.000 137.012,96.000 137.363 C 96.000 137.713,95.730 138.000,95.400 138.000 C 95.070 138.000,94.800 138.258,94.800 138.573 C 94.800 138.888,94.440 139.260,94.000 139.400 C 93.560 139.540,93.200 139.912,93.200 140.227 C 93.200 140.542,93.028 140.800,92.818 140.800 C 92.220 140.800,90.400 142.771,90.400 143.418 C 90.400 143.738,90.130 144.000,89.800 144.000 C 89.470 144.000,89.200 144.172,89.200 144.382 C 89.200 144.592,88.750 145.214,88.200 145.764 C 87.650 146.314,87.200 147.042,87.200 147.382 C 87.200 147.722,86.930 148.000,86.600 148.000 C 86.270 148.000,86.000 148.270,86.000 148.600 C 86.000 148.930,85.713 149.200,85.363 149.200 C 85.012 149.200,84.631 149.560,84.516 150.000 C 84.401 150.440,84.058 150.800,83.753 150.800 C 83.449 150.800,83.200 151.160,83.200 151.600 C 83.200 152.133,82.933 152.400,82.400 152.400 C 81.956 152.400,81.600 152.667,81.600 153.000 C 81.600 153.330,81.313 153.600,80.963 153.600 C 80.612 153.600,80.231 153.960,80.116 154.400 C 80.001 154.840,79.658 155.200,79.353 155.200 C 79.049 155.200,78.800 155.470,78.800 155.800 C 78.800 156.130,78.513 156.400,78.163 156.400 C 77.812 156.400,77.431 156.760,77.316 157.200 C 77.201 157.640,76.858 158.000,76.553 158.000 C 76.249 158.000,76.000 158.360,76.000 158.800 C 76.000 159.333,75.733 159.600,75.200 159.600 C 74.756 159.600,74.400 159.867,74.400 160.200 C 74.400 160.530,74.113 160.800,73.763 160.800 C 73.412 160.800,73.031 161.160,72.916 161.600 C 72.801 162.040,72.458 162.400,72.153 162.400 C 71.849 162.400,71.600 162.670,71.600 163.000 C 71.600 163.330,71.313 163.600,70.963 163.600 C 70.612 163.600,70.231 163.960,70.116 164.400 C 70.001 164.840,69.658 165.200,69.353 165.200 C 69.049 165.200,68.800 165.560,68.800 166.000 C 68.800 166.533,68.533 166.800,68.000 166.800 C 67.556 166.800,67.200 167.067,67.200 167.400 C 67.200 167.730,66.913 168.000,66.563 168.000 C 66.212 168.000,65.831 168.360,65.716 168.800 C 65.601 169.240,65.258 169.600,64.953 169.600 C 64.649 169.600,64.400 169.870,64.400 170.200 C 64.400 170.530,64.113 170.800,63.763 170.800 C 63.412 170.800,63.031 171.160,62.916 171.600 C 62.801 172.040,62.470 172.400,62.180 172.400 C 61.891 172.400,61.540 172.760,61.400 173.200 C 61.260 173.640,60.888 174.000,60.573 174.000 C 60.258 174.000,60.000 174.270,60.000 174.600 C 60.000 174.930,59.713 175.200,59.363 175.200 C 59.012 175.200,58.631 175.560,58.516 176.000 C 58.401 176.440,58.079 176.800,57.800 176.800 C 57.521 176.800,57.199 177.160,57.084 177.600 C 56.969 178.040,56.588 178.400,56.237 178.400 C 55.887 178.400,55.600 178.670,55.600 179.000 C 55.600 179.330,55.313 179.600,54.963 179.600 C 54.612 179.600,54.231 179.960,54.116 180.400 C 54.001 180.840,53.658 181.200,53.353 181.200 C 53.049 181.200,52.800 181.470,52.800 181.800 C 52.800 182.130,52.513 182.400,52.163 182.400 C 51.812 182.400,51.431 182.760,51.316 183.200 C 51.201 183.640,50.858 184.000,50.553 184.000 C 50.249 184.000,50.000 184.360,50.000 184.800 C 50.000 185.333,49.733 185.600,49.200 185.600 C 48.756 185.600,48.400 185.867,48.400 186.200 C 48.400 186.530,48.113 186.800,47.763 186.800 C 47.412 186.800,47.031 187.160,46.916 187.600 C 46.801 188.040,46.549 188.400,46.356 188.400 C 45.795 188.400,44.000 190.098,44.000 190.629 C 44.000 190.896,43.730 191.218,43.400 191.345 C 43.070 191.471,42.800 191.851,42.800 192.187 C 42.800 192.533,42.452 192.800,42.000 192.800 C 41.560 192.800,41.200 192.992,41.200 193.227 C 41.200 193.462,40.570 194.248,39.800 194.974 C 39.030 195.700,38.400 196.498,38.400 196.747 C 38.400 196.996,38.175 197.203,37.900 197.207 C 37.290 197.215,35.600 198.942,35.600 199.556 C 35.600 199.800,35.415 200.000,35.189 200.000 C 34.655 200.000,31.200 203.455,31.200 203.989 C 31.200 204.215,30.975 204.403,30.700 204.407 C 30.090 204.415,28.400 206.142,28.400 206.756 C 28.400 207.000,28.040 207.200,27.600 207.200 C 27.018 207.200,26.800 207.467,26.800 208.176 C 26.800 208.713,26.620 209.264,26.400 209.400 C 25.881 209.721,25.881 211.479,26.400 211.800 C 26.620 211.936,26.800 212.487,26.800 213.024 C 26.800 213.561,27.000 214.000,27.244 214.000 C 27.804 214.000,31.200 217.417,31.200 217.981 C 31.200 218.211,31.560 218.400,32.000 218.400 C 32.440 218.400,32.800 218.571,32.800 218.779 C 32.800 219.330,34.612 221.200,35.146 221.200 C 35.396 221.200,35.600 221.385,35.600 221.611 C 35.600 222.145,39.055 225.600,39.589 225.600 C 39.815 225.600,40.003 225.825,40.007 226.100 C 40.015 226.710,41.742 228.400,42.356 228.400 C 42.600 228.400,42.800 228.611,42.800 228.869 C 42.800 229.425,46.240 232.800,46.807 232.800 C 47.023 232.800,47.200 233.039,47.200 233.330 C 47.200 233.622,47.830 234.386,48.600 235.028 C 49.370 235.670,50.000 236.422,50.000 236.698 C 50.000 237.053,50.820 237.200,52.800 237.200 C 55.022 237.200,55.600 237.076,55.600 236.600 C 55.600 236.270,55.858 236.000,56.173 236.000 C 56.488 236.000,56.860 235.640,57.000 235.200 C 57.140 234.760,57.512 234.400,57.827 234.400 C 58.142 234.400,58.400 234.142,58.400 233.827 C 58.400 233.512,58.760 233.140,59.200 233.000 C 59.640 232.860,60.000 232.488,60.000 232.173 C 60.000 231.858,60.270 231.600,60.600 231.600 C 60.933 231.600,61.200 231.244,61.200 230.800 C 61.200 230.267,61.467 230.000,62.000 230.000 C 62.533 230.000,62.800 229.733,62.800 229.200 C 62.800 228.756,63.067 228.400,63.400 228.400 C 63.730 228.400,64.000 228.236,64.000 228.035 C 64.000 227.549,68.690 222.800,69.170 222.800 C 69.377 222.800,69.660 222.440,69.800 222.000 C 69.940 221.560,70.312 221.200,70.627 221.200 C 70.942 221.200,71.200 221.028,71.200 220.818 C 71.200 220.450,73.065 218.400,73.400 218.400 C 73.613 218.400,75.600 216.413,75.600 216.200 C 75.600 215.865,77.650 214.000,78.018 214.000 C 78.228 214.000,78.400 213.742,78.400 213.427 C 78.400 213.112,78.760 212.740,79.200 212.600 C 79.640 212.460,80.000 212.187,80.000 211.994 C 80.000 211.463,81.826 209.600,82.346 209.600 C 82.596 209.600,82.800 209.428,82.800 209.219 C 82.800 208.740,86.363 205.200,86.845 205.200 C 87.040 205.200,87.200 205.020,87.200 204.800 C 87.200 204.274,90.072 201.411,90.931 201.082 C 91.299 200.941,91.600 200.639,91.600 200.413 C 91.600 199.898,94.664 196.800,95.173 196.800 C 95.378 196.800,95.660 196.440,95.800 196.000 C 95.940 195.560,96.312 195.200,96.627 195.200 C 96.942 195.200,97.200 195.000,97.200 194.756 C 97.200 194.142,98.890 192.415,99.500 192.407 C 99.775 192.403,100.000 192.240,100.000 192.045 C 100.000 191.563,103.540 188.000,104.019 188.000 C 104.228 188.000,104.400 187.742,104.400 187.427 C 104.400 187.112,104.760 186.740,105.200 186.600 C 105.640 186.460,106.000 186.000,106.000 185.576 C 106.000 185.153,106.360 184.582,106.800 184.307 C 107.240 184.032,107.600 183.491,107.600 183.104 C 107.600 182.717,107.825 182.397,108.100 182.393 C 108.710 182.385,110.400 180.658,110.400 180.044 C 110.400 179.800,110.760 179.600,111.200 179.600 C 111.733 179.600,112.000 179.333,112.000 178.800 C 112.000 178.356,112.267 178.000,112.600 178.000 C 112.930 178.000,113.200 177.730,113.200 177.400 C 113.200 177.067,113.556 176.800,114.000 176.800 C 114.533 176.800,114.800 176.533,114.800 176.000 C 114.800 175.560,115.025 175.197,115.300 175.193 C 115.910 175.185,117.600 173.458,117.600 172.844 C 117.600 172.600,117.960 172.400,118.400 172.400 C 118.933 172.400,119.200 172.133,119.200 171.600 C 119.200 171.156,119.467 170.800,119.800 170.800 C 120.130 170.800,120.400 170.530,120.400 170.200 C 120.400 169.867,120.756 169.600,121.200 169.600 C 121.733 169.600,122.000 169.333,122.000 168.800 C 122.000 168.360,122.225 167.997,122.500 167.993 C 123.110 167.985,124.800 166.258,124.800 165.644 C 124.800 165.400,125.160 165.200,125.600 165.200 C 126.133 165.200,126.400 164.933,126.400 164.400 C 126.400 163.956,126.667 163.600,127.000 163.600 C 127.330 163.600,127.600 163.330,127.600 163.000 C 127.600 162.667,127.956 162.400,128.400 162.400 C 128.933 162.400,129.200 162.133,129.200 161.600 C 129.200 161.160,129.425 160.797,129.700 160.793 C 130.310 160.785,132.000 159.058,132.000 158.444 C 132.000 158.200,132.360 158.000,132.800 158.000 C 133.333 158.000,133.600 157.733,133.600 157.200 C 133.600 156.760,133.825 156.397,134.100 156.393 C 134.710 156.385,136.400 154.658,136.400 154.044 C 136.400 153.800,136.625 153.597,136.900 153.593 C 137.510 153.585,139.200 151.858,139.200 151.244 C 139.200 151.000,139.560 150.800,140.000 150.800 C 140.533 150.800,140.800 150.533,140.800 150.000 C 140.800 149.560,141.025 149.197,141.300 149.193 C 141.910 149.185,143.600 147.458,143.600 146.844 C 143.600 146.600,143.960 146.400,144.400 146.400 C 144.933 146.400,145.200 146.133,145.200 145.600 C 145.200 144.952,145.467 144.800,146.600 144.800 C 147.733 144.800,148.000 144.952,148.000 145.600 C 148.000 146.060,148.267 146.400,148.627 146.400 C 148.972 146.400,149.848 147.030,150.574 147.800 C 151.433 148.711,152.262 149.200,152.947 149.200 C 153.733 149.200,154.000 149.403,154.000 150.000 C 154.000 150.440,154.261 150.800,154.580 150.800 C 154.899 150.800,155.304 151.029,155.480 151.308 C 155.656 151.588,156.295 152.034,156.900 152.300 C 157.505 152.565,158.000 152.967,158.000 153.191 C 158.000 153.416,158.360 153.600,158.800 153.600 C 159.265 153.600,159.600 153.867,159.600 154.237 C 159.600 154.588,159.960 154.969,160.400 155.084 C 160.840 155.199,161.200 155.542,161.200 155.847 C 161.200 156.212,161.675 156.400,162.600 156.400 C 163.733 156.400,164.000 156.552,164.000 157.200 C 164.000 157.640,164.172 158.000,164.382 158.000 C 164.878 158.000,166.800 159.922,166.800 160.418 C 166.800 160.628,167.430 160.800,168.200 160.800 C 169.333 160.800,169.600 160.952,169.600 161.600 C 169.600 162.133,169.867 162.400,170.400 162.400 C 170.840 162.400,171.200 162.649,171.200 162.953 C 171.200 163.258,171.560 163.601,172.000 163.716 C 172.440 163.831,172.800 164.212,172.800 164.563 C 172.800 165.024,173.186 165.200,174.200 165.200 C 175.178 165.200,175.600 165.381,175.600 165.800 C 175.600 166.553,177.016 168.000,177.753 168.000 C 178.058 168.000,178.401 168.360,178.516 168.800 C 178.631 169.240,179.012 169.600,179.363 169.600 C 179.713 169.600,180.000 169.870,180.000 170.200 C 180.000 170.619,180.422 170.800,181.400 170.800 C 182.533 170.800,182.800 170.952,182.800 171.600 C 182.800 172.044,183.067 172.400,183.400 172.400 C 183.730 172.400,184.000 172.658,184.000 172.973 C 184.000 173.288,184.360 173.660,184.800 173.800 C 185.240 173.940,185.600 174.312,185.600 174.627 C 185.600 175.015,186.051 175.200,187.000 175.200 C 188.133 175.200,188.400 175.352,188.400 176.000 C 188.400 176.533,188.667 176.800,189.200 176.800 C 189.640 176.800,190.000 177.049,190.000 177.353 C 190.000 177.658,190.360 178.001,190.800 178.116 C 191.240 178.231,191.600 178.612,191.600 178.963 C 191.600 179.424,191.986 179.600,193.000 179.600 C 194.133 179.600,194.400 179.752,194.400 180.400 C 194.400 180.844,194.667 181.200,195.000 181.200 C 195.330 181.200,195.600 181.470,195.600 181.800 C 195.600 182.130,195.939 182.400,196.353 182.400 C 196.770 182.400,197.200 182.757,197.316 183.200 C 197.468 183.783,197.862 184.000,198.763 184.000 C 199.596 184.000,200.000 184.196,200.000 184.600 C 200.000 184.933,200.356 185.200,200.800 185.200 C 201.333 185.200,201.600 185.467,201.600 186.000 C 201.600 186.440,201.772 186.800,201.982 186.800 C 202.478 186.800,204.400 188.722,204.400 189.218 C 204.400 189.428,205.030 189.600,205.800 189.600 C 206.933 189.600,207.200 189.752,207.200 190.400 C 207.200 190.933,207.467 191.200,208.000 191.200 C 208.444 191.200,208.800 191.467,208.800 191.800 C 208.800 192.130,209.064 192.400,209.386 192.400 C 209.708 192.400,210.165 192.760,210.400 193.200 C 210.680 193.724,211.238 194.000,212.014 194.000 C 212.933 194.000,213.200 194.180,213.200 194.800 C 213.200 195.244,213.467 195.600,213.800 195.600 C 214.130 195.600,214.400 195.870,214.400 196.200 C 214.400 197.260,218.142 197.001,219.379 195.854 C 219.941 195.334,220.400 194.704,220.400 194.454 C 220.400 194.204,220.670 194.000,221.000 194.000 C 221.330 194.000,221.600 193.751,221.600 193.447 C 221.600 193.142,221.960 192.799,222.400 192.684 C 222.840 192.569,223.200 192.188,223.200 191.837 C 223.200 191.487,223.470 191.200,223.800 191.200 C 224.133 191.200,224.400 190.844,224.400 190.400 C 224.400 189.867,224.667 189.600,225.200 189.600 C 225.640 189.600,226.000 189.351,226.000 189.047 C 226.000 188.742,226.360 188.399,226.800 188.284 C 227.240 188.169,227.600 187.788,227.600 187.437 C 227.600 186.999,227.966 186.800,228.773 186.800 C 229.595 186.800,230.022 186.560,230.200 186.000 C 230.340 185.560,230.712 185.200,231.027 185.200 C 231.342 185.200,231.600 184.951,231.600 184.647 C 231.600 184.342,231.960 183.999,232.400 183.884 C 232.840 183.769,233.200 183.388,233.200 183.037 C 233.200 182.687,233.470 182.400,233.800 182.400 C 234.130 182.400,234.400 182.113,234.400 181.763 C 234.400 181.412,234.760 181.031,235.200 180.916 C 235.640 180.801,236.000 180.479,236.000 180.200 C 236.000 179.921,236.360 179.599,236.800 179.484 C 237.240 179.369,237.600 178.988,237.600 178.637 C 237.600 178.287,237.870 178.000,238.200 178.000 C 238.530 178.000,238.800 177.751,238.800 177.447 C 238.800 177.142,239.160 176.799,239.600 176.684 C 240.040 176.569,240.400 176.188,240.400 175.837 C 240.400 175.487,240.572 175.200,240.782 175.200 C 241.278 175.200,243.200 173.278,243.200 172.782 C 243.200 172.572,243.560 172.400,244.000 172.400 C 244.533 172.400,244.800 172.133,244.800 171.600 C 244.800 171.067,245.067 170.800,245.600 170.800 C 246.044 170.800,246.400 170.533,246.400 170.200 C 246.400 169.870,246.670 169.600,247.000 169.600 C 247.333 169.600,247.600 169.244,247.600 168.800 C 247.600 168.267,247.867 168.000,248.400 168.000 C 248.844 168.000,249.200 167.733,249.200 167.400 C 249.200 167.070,249.470 166.800,249.800 166.800 C 250.133 166.800,250.400 166.444,250.400 166.000 C 250.400 165.467,250.667 165.200,251.200 165.200 C 251.733 165.200,252.000 164.933,252.000 164.400 C 252.000 163.867,252.267 163.600,252.800 163.600 C 253.244 163.600,253.600 163.333,253.600 163.000 C 253.600 162.670,253.870 162.400,254.200 162.400 C 254.533 162.400,254.800 162.044,254.800 161.600 C 254.800 160.972,255.067 160.800,256.037 160.800 C 256.938 160.800,257.332 160.583,257.484 160.000 C 257.600 159.557,258.030 159.200,258.447 159.200 C 258.861 159.200,259.200 158.949,259.200 158.643 C 259.200 158.336,259.470 157.982,259.800 157.855 C 260.130 157.729,260.400 157.349,260.400 157.013 C 260.400 156.667,260.748 156.400,261.200 156.400 C 261.640 156.400,262.000 156.142,262.000 155.827 C 262.000 155.512,262.360 155.140,262.800 155.000 C 263.240 154.860,263.600 154.488,263.600 154.173 C 263.600 153.858,263.870 153.600,264.200 153.600 C 264.533 153.600,264.800 153.244,264.800 152.800 C 264.800 152.267,265.067 152.000,265.600 152.000 C 266.044 152.000,266.400 151.733,266.400 151.400 C 266.400 151.070,266.658 150.800,266.973 150.800 C 267.288 150.800,267.660 150.440,267.800 150.000 C 267.940 149.560,268.312 149.200,268.627 149.200 C 268.942 149.200,269.200 148.942,269.200 148.627 C 269.200 148.312,269.560 147.940,270.000 147.800 C 270.440 147.660,270.800 147.309,270.800 147.020 C 270.800 146.730,271.160 146.399,271.600 146.284 C 272.040 146.169,272.400 145.788,272.400 145.437 C 272.400 145.087,272.670 144.800,273.000 144.800 C 273.330 144.800,273.600 144.530,273.600 144.200 C 273.600 143.867,273.956 143.600,274.400 143.600 C 274.933 143.600,275.200 143.333,275.200 142.800 C 275.200 142.356,275.467 142.000,275.800 142.000 C 276.130 142.000,276.400 141.730,276.400 141.400 C 276.400 141.070,276.687 140.800,277.037 140.800 C 277.388 140.800,277.769 140.440,277.884 140.000 C 277.999 139.560,278.359 139.200,278.684 139.200 C 279.009 139.200,279.369 138.840,279.484 138.400 C 279.599 137.960,279.942 137.600,280.247 137.600 C 280.551 137.600,280.800 137.330,280.800 137.000 C 280.800 136.667,281.156 136.400,281.600 136.400 C 282.133 136.400,282.400 136.133,282.400 135.600 C 282.400 135.011,282.667 134.800,283.411 134.800 C 284.420 134.800,288.000 131.688,288.000 130.811 C 288.000 130.585,288.225 130.397,288.500 130.393 C 289.110 130.385,290.800 128.658,290.800 128.044 C 290.800 127.800,291.160 127.600,291.600 127.600 C 292.133 127.600,292.400 127.333,292.400 126.800 C 292.400 126.360,292.651 126.000,292.957 126.000 C 293.264 126.000,293.618 125.730,293.745 125.400 C 293.871 125.070,294.251 124.800,294.587 124.800 C 294.933 124.800,295.200 124.452,295.200 124.000 C 295.200 123.467,295.467 123.200,296.000 123.200 C 296.444 123.200,296.800 122.933,296.800 122.600 C 296.800 122.270,297.070 122.000,297.400 122.000 C 297.733 122.000,298.000 121.644,298.000 121.200 C 298.000 120.760,298.261 120.400,298.579 120.400 C 299.284 120.400,301.200 118.685,301.200 118.054 C 301.200 117.804,301.470 117.600,301.800 117.600 C 302.133 117.600,302.400 117.244,302.400 116.800 C 302.400 116.267,302.667 116.000,303.200 116.000 C 303.644 116.000,304.000 115.733,304.000 115.400 C 304.000 115.070,304.287 114.800,304.637 114.800 C 304.988 114.800,305.369 114.440,305.484 114.000 C 305.599 113.560,305.942 113.200,306.247 113.200 C 306.551 113.200,306.800 112.930,306.800 112.600 C 306.800 112.270,307.087 112.000,307.437 112.000 C 307.788 112.000,308.169 111.640,308.284 111.200 C 308.399 110.760,308.742 110.400,309.047 110.400 C 309.351 110.400,309.600 110.040,309.600 109.600 C 309.600 108.956,309.867 108.800,310.971 108.800 C 311.940 108.800,312.395 108.595,312.524 108.100 C 312.698 107.433,312.709 107.433,312.754 108.100 C 312.788 108.624,313.151 108.800,314.200 108.800 C 315.333 108.800,315.600 108.952,315.600 109.600 C 315.600 110.040,315.858 110.400,316.173 110.400 C 316.488 110.400,316.860 110.760,317.000 111.200 C 317.140 111.640,317.512 112.000,317.827 112.000 C 318.142 112.000,318.400 112.270,318.400 112.600 C 318.400 112.933,318.756 113.200,319.200 113.200 C 319.733 113.200,320.000 113.467,320.000 114.000 C 320.000 114.444,320.267 114.800,320.600 114.800 C 320.930 114.800,321.200 115.070,321.200 115.400 C 321.200 115.733,321.556 116.000,322.000 116.000 C 322.533 116.000,322.800 116.267,322.800 116.800 C 322.800 117.333,323.067 117.600,323.600 117.600 C 324.052 117.600,324.400 117.867,324.400 118.213 C 324.400 118.549,324.670 118.929,325.000 119.055 C 325.330 119.182,325.600 119.536,325.600 119.843 C 325.600 120.149,325.960 120.400,326.400 120.400 C 326.933 120.400,327.200 120.667,327.200 121.200 C 327.200 121.644,327.467 122.000,327.800 122.000 C 328.130 122.000,328.400 122.270,328.400 122.600 C 328.400 122.933,328.756 123.200,329.200 123.200 C 329.733 123.200,330.000 123.467,330.000 124.000 C 330.000 124.533,330.267 124.800,330.800 124.800 C 331.252 124.800,331.600 125.067,331.600 125.413 C 331.600 125.749,331.870 126.129,332.200 126.255 C 332.530 126.382,332.800 126.736,332.800 127.043 C 332.800 127.349,333.160 127.600,333.600 127.600 C 334.133 127.600,334.400 127.867,334.400 128.400 C 334.400 128.840,334.651 129.200,334.957 129.200 C 335.264 129.200,335.618 129.470,335.745 129.800 C 335.871 130.130,336.251 130.400,336.587 130.400 C 336.924 130.400,337.200 130.679,337.200 131.019 C 337.200 131.722,339.141 133.568,339.900 133.587 C 340.175 133.594,340.400 133.870,340.400 134.200 C 340.400 134.530,340.670 134.800,341.000 134.800 C 341.330 134.800,341.600 135.058,341.600 135.373 C 341.600 135.688,341.960 136.060,342.400 136.200 C 342.840 136.340,343.200 136.712,343.200 137.027 C 343.200 137.342,343.372 137.600,343.582 137.600 C 344.078 137.600,346.000 139.522,346.000 140.018 C 346.000 140.228,346.258 140.400,346.573 140.400 C 346.888 140.400,347.260 140.760,347.400 141.200 C 347.619 141.889,348.005 142.000,350.180 142.000 C 353.066 142.000,353.185 141.849,353.195 138.143 C 353.198 136.687,353.375 136.018,353.800 135.855 C 354.263 135.678,354.400 134.904,354.400 132.459 C 354.400 129.630,354.485 129.271,355.200 129.084 C 355.828 128.920,356.000 128.538,356.000 127.313 C 356.000 126.453,356.360 125.005,356.800 124.094 C 357.240 123.184,357.600 121.967,357.600 121.391 C 357.600 120.814,357.870 120.073,358.200 119.743 C 358.590 119.353,358.800 118.362,358.800 116.916 C 358.800 115.402,358.992 114.546,359.399 114.244 C 359.758 113.978,360.101 112.800,360.256 111.302 C 360.397 109.928,360.758 108.601,361.057 108.353 C 361.418 108.053,361.600 106.981,361.600 105.154 C 361.600 102.840,361.726 102.328,362.400 101.907 C 363.072 101.488,363.200 100.974,363.200 98.704 C 363.200 96.668,363.337 96.000,363.753 96.000 C 364.457 96.000,364.788 94.761,364.795 92.100 C 364.799 90.502,364.944 90.000,365.400 90.000 C 365.876 90.000,366.000 89.422,366.000 87.200 C 366.000 85.073,366.134 84.400,366.557 84.400 C 367.341 84.400,367.600 83.497,367.600 80.767 C 367.600 78.930,367.734 78.400,368.200 78.400 C 368.675 78.400,368.800 77.827,368.800 75.647 C 368.800 73.230,368.898 72.868,369.600 72.684 C 370.305 72.500,370.400 72.138,370.400 69.637 C 370.400 67.497,370.535 66.800,370.950 66.800 C 371.558 66.800,372.000 65.112,372.000 62.793 C 372.000 61.822,372.214 61.204,372.600 61.055 C 373.027 60.892,373.200 60.225,373.200 58.744 C 373.200 57.374,373.425 56.415,373.858 55.936 C 374.220 55.535,374.605 54.261,374.713 53.104 C 374.821 51.935,375.151 50.858,375.454 50.680 C 375.820 50.466,376.000 49.562,376.000 47.943 C 376.000 46.132,376.200 45.271,376.800 44.509 C 377.381 43.770,377.600 42.886,377.600 41.278 C 377.600 39.751,377.812 38.829,378.282 38.309 C 378.727 37.817,379.022 36.658,379.129 34.977 C 379.247 33.129,379.450 32.400,379.847 32.400 C 380.251 32.400,380.400 31.807,380.400 30.200 C 380.400 28.594,380.549 28.000,380.953 28.000 C 381.653 28.000,381.988 26.763,381.995 24.149 C 381.998 22.819,382.211 21.923,382.600 21.600 C 383.033 21.241,383.200 20.291,383.200 18.198 C 383.200 15.630,383.293 15.269,384.000 15.084 C 384.704 14.900,384.800 14.538,384.800 12.084 C 384.800 9.630,384.896 9.268,385.600 9.084 C 386.298 8.902,386.400 8.538,386.400 6.237 C 386.400 4.160,386.527 3.600,387.000 3.600 C 387.444 3.600,387.600 3.133,387.600 1.800 L 387.600 0.000 382.000 0.000 C 378.533 0.000,376.400 0.152,376.400 0.400 M314.099 264.700 L 314.200 378.600 350.900 378.702 L 387.600 378.804 387.600 264.802 L 387.600 150.800 350.799 150.800 L 313.999 150.800 314.099 264.700 M113.200 204.518 L 112.200 205.024 112.106 291.212 C 112.047 345.094,112.154 377.625,112.391 378.000 C 112.724 378.526,117.330 378.600,149.885 378.600 L 187.000 378.600 187.101 291.929 C 187.192 213.532,187.142 205.199,186.572 204.629 C 185.721 203.778,114.876 203.670,113.200 204.518 M213.473 237.461 C 213.323 237.611,213.200 269.473,213.200 308.267 L 213.200 378.800 249.826 378.800 C 274.309 378.800,286.709 378.663,287.226 378.386 C 288.094 377.921,288.472 239.366,287.609 238.000 C 287.207 237.364,214.101 236.832,213.473 237.461 M12.400 319.600 L 12.400 378.800 49.200 378.800 L 86.000 378.800 86.000 320.624 C 86.000 283.082,86.139 262.361,86.392 262.205 C 86.639 262.053,86.603 261.673,86.296 261.181 C 85.817 260.415,85.084 260.400,49.104 260.400 L 12.400 260.400 12.400 319.600 M0.000 403.600 L 0.000 418.400 200.000 418.400 L 400.000 418.400 400.000 403.600 L 400.000 388.800 200.000 388.800 L 0.000 388.800 0.000 403.600 " stroke="none" fill="#ffffff" fill-rule="evenodd"></path><path id="path1" d="M376.400 0.400 C 376.400 0.620,375.410 0.800,374.200 0.800 C 372.615 0.800,372.000 0.952,372.000 1.342 C 372.000 1.720,371.182 1.961,369.300 2.136 C 367.590 2.295,366.437 2.610,366.156 2.994 C 365.871 3.382,365.055 3.600,363.883 3.600 C 362.405 3.600,362.005 3.754,361.800 4.400 C 361.581 5.090,361.195 5.200,358.993 5.200 C 357.259 5.200,356.337 5.375,356.120 5.746 C 355.942 6.049,354.865 6.379,353.696 6.487 C 352.539 6.595,351.265 6.980,350.864 7.342 C 350.406 7.756,349.441 8.000,348.256 8.000 C 347.026 8.000,346.302 8.191,346.163 8.552 C 346.044 8.861,345.077 9.219,343.957 9.368 C 342.774 9.525,341.871 9.870,341.738 10.216 C 341.580 10.628,340.879 10.800,339.357 10.800 C 337.467 10.800,337.200 10.899,337.200 11.600 C 337.200 12.324,336.933 12.400,334.400 12.400 C 332.178 12.400,331.600 12.524,331.600 13.000 C 331.600 13.461,331.089 13.600,329.400 13.600 C 327.467 13.600,327.200 13.697,327.200 14.400 C 327.200 15.121,326.933 15.200,324.496 15.200 C 322.226 15.200,321.712 15.328,321.293 16.000 C 320.904 16.623,320.360 16.800,318.839 16.800 C 317.472 16.800,316.817 16.980,316.655 17.400 C 316.485 17.843,315.784 18.000,313.975 18.000 C 311.862 18.000,311.496 18.110,311.316 18.800 C 311.140 19.472,310.770 19.600,308.996 19.600 C 307.583 19.600,306.816 19.780,306.676 20.145 C 306.535 20.514,305.471 20.754,303.381 20.889 C 301.081 21.036,300.202 21.254,299.928 21.743 C 299.665 22.212,299.002 22.400,297.607 22.400 C 296.005 22.400,295.608 22.544,295.400 23.200 C 295.181 23.891,294.795 24.000,292.560 24.000 C 290.631 24.000,289.916 24.152,289.745 24.600 C 289.588 25.007,288.951 25.200,287.761 25.200 C 286.440 25.200,285.883 25.398,285.507 26.000 C 285.124 26.613,284.574 26.800,283.153 26.800 C 281.992 26.800,281.112 27.025,280.800 27.400 C 280.497 27.765,279.621 28.000,278.565 28.000 C 277.238 28.000,276.727 28.189,276.400 28.800 C 276.040 29.473,275.562 29.600,273.386 29.600 C 271.067 29.600,270.800 29.682,270.800 30.400 C 270.800 31.109,270.533 31.200,268.449 31.200 C 266.847 31.200,265.939 31.391,265.600 31.800 C 265.270 32.197,264.375 32.400,262.951 32.400 C 261.067 32.400,260.800 32.499,260.800 33.200 C 260.800 33.923,260.533 34.000,258.043 34.000 C 255.961 34.000,255.229 34.147,255.055 34.600 C 254.898 35.010,254.257 35.200,253.035 35.200 C 251.715 35.200,251.102 35.404,250.700 35.979 C 250.274 36.587,249.589 36.784,247.577 36.879 L 245.000 37.000 244.882 39.700 C 244.773 42.192,244.826 42.400,245.582 42.400 C 246.133 42.400,246.400 42.661,246.400 43.200 C 246.400 43.640,246.651 44.000,246.957 44.000 C 247.264 44.000,247.618 44.270,247.745 44.600 C 247.871 44.930,248.251 45.200,248.587 45.200 C 248.933 45.200,249.200 45.548,249.200 46.000 C 249.200 46.440,249.426 46.800,249.702 46.800 C 249.978 46.800,250.730 47.430,251.372 48.200 C 252.014 48.970,252.778 49.600,253.070 49.600 C 253.361 49.600,253.600 49.839,253.600 50.130 C 253.600 50.422,254.230 51.186,255.000 51.828 C 255.770 52.470,256.400 53.222,256.400 53.498 C 256.400 53.774,256.760 54.000,257.200 54.000 C 257.640 54.000,258.003 54.225,258.007 54.500 C 258.015 55.110,259.742 56.800,260.356 56.800 C 260.600 56.800,260.800 57.160,260.800 57.600 C 260.800 58.040,260.980 58.400,261.200 58.400 C 261.420 58.400,261.960 58.760,262.400 59.200 C 262.840 59.640,263.566 60.000,264.013 60.000 C 264.459 60.000,264.929 60.270,265.055 60.600 C 265.182 60.930,265.536 61.200,265.843 61.200 C 266.149 61.200,266.400 61.560,266.400 62.000 C 266.400 62.533,266.667 62.800,267.200 62.800 C 267.652 62.800,268.000 63.067,268.000 63.413 C 268.000 63.749,268.270 64.129,268.600 64.255 C 268.930 64.382,269.200 64.736,269.200 65.043 C 269.200 65.349,269.560 65.600,270.000 65.600 C 270.533 65.600,270.800 65.867,270.800 66.400 C 270.800 66.933,271.067 67.200,271.600 67.200 C 272.044 67.200,272.400 67.467,272.400 67.800 C 272.400 68.130,272.670 68.400,273.000 68.400 C 273.333 68.400,273.600 68.756,273.600 69.200 C 273.600 69.733,273.867 70.000,274.400 70.000 C 274.840 70.000,275.203 70.225,275.207 70.500 C 275.215 71.110,276.942 72.800,277.556 72.800 C 277.800 72.800,278.000 73.160,278.000 73.600 C 278.000 74.133,278.267 74.400,278.800 74.400 C 279.244 74.400,279.600 74.667,279.600 75.000 C 279.600 75.330,279.870 75.600,280.200 75.600 C 280.533 75.600,280.800 75.956,280.800 76.400 C 280.800 76.933,281.067 77.200,281.600 77.200 C 282.052 77.200,282.400 77.467,282.400 77.813 C 282.400 78.149,282.670 78.529,283.000 78.655 C 283.330 78.782,283.600 79.136,283.600 79.443 C 283.600 79.749,283.330 80.000,283.000 80.000 C 282.670 80.000,282.400 80.338,282.400 80.750 C 282.400 81.264,282.021 81.576,281.192 81.742 C 280.247 81.931,279.931 82.247,279.742 83.192 C 279.576 84.021,279.264 84.400,278.750 84.400 C 278.267 84.400,278.000 84.684,278.000 85.200 C 278.000 85.733,277.733 86.000,277.200 86.000 C 276.756 86.000,276.400 86.267,276.400 86.600 C 276.400 86.930,276.130 87.200,275.800 87.200 C 275.467 87.200,275.200 87.556,275.200 88.000 C 275.200 88.533,274.933 88.800,274.400 88.800 C 273.956 88.800,273.600 89.067,273.600 89.400 C 273.600 89.730,273.330 90.000,273.000 90.000 C 272.667 90.000,272.400 90.356,272.400 90.800 C 272.400 91.333,272.133 91.600,271.600 91.600 C 271.067 91.600,270.800 91.867,270.800 92.400 C 270.800 92.933,270.533 93.200,270.000 93.200 C 269.556 93.200,269.200 93.467,269.200 93.800 C 269.200 94.130,268.930 94.400,268.600 94.400 C 268.270 94.400,267.640 94.760,267.200 95.200 C 266.760 95.640,266.130 96.000,265.800 96.000 C 265.467 96.000,265.200 96.356,265.200 96.800 C 265.200 97.333,264.933 97.600,264.400 97.600 C 263.960 97.600,263.600 97.849,263.600 98.153 C 263.600 98.458,263.240 98.801,262.800 98.916 C 262.360 99.031,262.000 99.412,262.000 99.763 C 262.000 100.113,261.730 100.400,261.400 100.400 C 261.070 100.400,260.800 100.649,260.800 100.953 C 260.800 101.258,260.440 101.601,260.000 101.716 C 259.560 101.831,259.200 102.212,259.200 102.563 C 259.200 102.913,258.942 103.200,258.627 103.200 C 258.312 103.200,257.940 103.560,257.800 104.000 C 257.660 104.440,257.288 104.800,256.973 104.800 C 256.658 104.800,256.400 105.049,256.400 105.353 C 256.400 105.658,256.040 106.001,255.600 106.116 C 255.160 106.231,254.800 106.612,254.800 106.963 C 254.800 107.313,254.530 107.600,254.200 107.600 C 253.870 107.600,253.600 107.870,253.600 108.200 C 253.600 108.530,253.332 108.800,253.003 108.800 C 252.441 108.800,250.001 111.041,249.999 111.559 C 249.998 111.692,249.459 112.160,248.800 112.600 C 248.141 113.040,247.602 113.715,247.601 114.100 C 247.601 114.485,247.330 114.800,247.000 114.800 C 246.670 114.800,246.400 114.968,246.400 115.173 C 246.400 115.378,246.040 115.660,245.600 115.800 C 245.160 115.940,244.800 116.402,244.800 116.827 C 244.800 117.333,244.524 117.600,244.000 117.600 C 243.467 117.600,243.200 117.867,243.200 118.400 C 243.200 118.844,242.933 119.200,242.600 119.200 C 242.270 119.200,242.000 119.470,242.000 119.800 C 242.000 120.133,241.644 120.400,241.200 120.400 C 240.667 120.400,240.400 120.667,240.400 121.200 C 240.400 121.848,240.133 122.000,239.000 122.000 C 238.051 122.000,237.600 122.185,237.600 122.573 C 237.600 122.888,237.240 123.260,236.800 123.400 C 236.360 123.540,236.000 123.912,236.000 124.227 C 236.000 124.542,235.730 124.800,235.400 124.800 C 235.067 124.800,234.800 125.156,234.800 125.600 C 234.800 126.133,234.533 126.400,234.000 126.400 C 233.556 126.400,233.200 126.667,233.200 127.000 C 233.200 127.330,232.942 127.600,232.627 127.600 C 232.312 127.600,231.940 127.960,231.800 128.400 C 231.660 128.840,231.309 129.200,231.020 129.200 C 230.730 129.200,230.399 129.560,230.284 130.000 C 230.169 130.440,229.788 130.800,229.437 130.800 C 229.087 130.800,228.800 131.070,228.800 131.400 C 228.800 131.730,228.530 132.000,228.200 132.000 C 227.867 132.000,227.600 132.356,227.600 132.800 C 227.600 133.333,227.333 133.600,226.800 133.600 C 226.360 133.600,226.000 133.850,226.000 134.157 C 226.000 134.463,225.555 134.825,225.010 134.962 C 224.080 135.195,220.400 138.415,220.400 138.996 C 220.400 139.142,219.680 139.934,218.800 140.755 C 217.920 141.575,217.200 142.456,217.200 142.713 C 217.200 142.970,216.660 143.459,216.000 143.800 C 215.340 144.141,214.800 144.596,214.800 144.810 C 214.800 145.025,214.350 145.200,213.800 145.200 C 213.067 145.200,212.800 144.987,212.800 144.400 C 212.800 143.960,212.620 143.600,212.400 143.600 C 212.180 143.600,211.640 143.240,211.200 142.800 C 210.760 142.360,210.040 142.000,209.600 142.000 C 209.156 142.000,208.800 141.733,208.800 141.400 C 208.800 141.070,208.461 140.800,208.047 140.800 C 207.630 140.800,207.200 140.443,207.084 140.000 C 206.969 139.560,206.588 139.200,206.237 139.200 C 205.887 139.200,205.600 138.950,205.600 138.645 C 205.600 138.326,205.002 137.977,204.200 137.826 C 203.362 137.669,202.800 137.330,202.800 136.982 C 202.800 136.662,202.574 136.400,202.298 136.400 C 202.022 136.400,201.270 135.770,200.628 135.000 C 199.799 134.006,199.133 133.600,198.330 133.600 C 197.467 133.600,197.200 133.411,197.200 132.800 C 197.200 132.267,196.933 132.000,196.400 132.000 C 195.956 132.000,195.600 131.733,195.600 131.400 C 195.600 131.070,195.313 130.800,194.963 130.800 C 194.612 130.800,194.231 130.440,194.116 130.000 C 194.001 129.560,193.658 129.200,193.353 129.200 C 193.049 129.200,192.440 128.840,192.000 128.400 C 191.560 127.960,190.930 127.600,190.600 127.600 C 190.270 127.600,190.000 127.330,190.000 127.000 C 190.000 126.670,189.661 126.400,189.247 126.400 C 188.830 126.400,188.400 126.043,188.284 125.600 C 188.169 125.160,187.788 124.800,187.437 124.800 C 187.087 124.800,186.440 124.440,186.000 124.000 C 185.560 123.560,184.930 123.200,184.600 123.200 C 184.270 123.200,184.000 122.930,184.000 122.600 C 184.000 122.270,183.774 122.000,183.498 122.000 C 183.222 122.000,182.470 121.370,181.828 120.600 C 180.999 119.606,180.333 119.200,179.530 119.200 C 178.667 119.200,178.400 119.011,178.400 118.400 C 178.400 117.867,178.133 117.600,177.600 117.600 C 177.156 117.600,176.800 117.333,176.800 117.000 C 176.800 116.670,176.536 116.400,176.214 116.400 C 175.892 116.400,175.435 116.040,175.200 115.600 C 174.965 115.160,174.598 114.800,174.386 114.800 C 174.174 114.800,173.640 114.440,173.200 114.000 C 172.760 113.560,172.130 113.200,171.800 113.200 C 171.470 113.200,171.200 112.930,171.200 112.600 C 171.200 112.267,170.844 112.000,170.400 112.000 C 169.948 112.000,169.600 111.733,169.600 111.387 C 169.600 111.051,169.299 110.659,168.931 110.518 C 168.562 110.377,167.932 109.932,167.531 109.531 C 167.129 109.129,166.440 108.800,166.000 108.800 C 165.556 108.800,165.200 108.533,165.200 108.200 C 165.200 107.870,164.869 107.600,164.464 107.600 C 164.060 107.600,163.155 106.970,162.455 106.200 C 161.754 105.430,160.825 104.800,160.390 104.800 C 159.867 104.800,159.600 104.530,159.600 104.000 C 159.600 103.556,159.333 103.200,159.000 103.200 C 158.670 103.200,158.040 102.840,157.600 102.400 C 157.160 101.960,156.440 101.600,156.000 101.600 C 155.556 101.600,155.200 101.333,155.200 101.000 C 155.200 100.667,154.844 100.400,154.400 100.400 C 153.867 100.400,153.600 100.133,153.600 99.600 C 153.600 99.148,153.333 98.800,152.987 98.800 C 152.651 98.800,152.271 98.530,152.145 98.200 C 152.018 97.870,151.467 97.600,150.920 97.600 C 150.262 97.600,149.854 97.329,149.716 96.800 C 149.600 96.357,149.170 96.000,148.753 96.000 C 148.331 96.000,148.000 95.720,148.000 95.363 C 148.000 95.012,147.640 94.631,147.200 94.516 C 146.760 94.401,146.400 94.058,146.400 93.753 C 146.400 93.391,145.932 93.200,145.047 93.200 C 144.030 93.200,143.641 93.001,143.484 92.400 C 143.048 90.733,139.200 92.103,139.200 93.926 C 139.200 94.187,138.930 94.400,138.600 94.400 C 138.267 94.400,138.000 94.756,138.000 95.200 C 138.000 95.733,137.733 96.000,137.200 96.000 C 136.667 96.000,136.400 96.267,136.400 96.800 C 136.400 97.244,136.133 97.600,135.800 97.600 C 135.470 97.600,135.200 97.870,135.200 98.200 C 135.200 98.533,134.844 98.800,134.400 98.800 C 133.883 98.800,133.600 99.067,133.600 99.553 C 133.600 99.970,133.243 100.400,132.800 100.516 C 132.360 100.631,132.000 101.012,132.000 101.363 C 132.000 101.713,131.730 102.000,131.400 102.000 C 131.070 102.000,130.800 102.249,130.800 102.553 C 130.800 102.858,130.440 103.201,130.000 103.316 C 129.560 103.431,129.200 103.812,129.200 104.163 C 129.200 104.513,128.930 104.800,128.600 104.800 C 128.270 104.800,128.000 105.049,128.000 105.353 C 128.000 105.658,127.640 106.001,127.200 106.116 C 126.760 106.231,126.400 106.612,126.400 106.963 C 126.400 107.313,126.142 107.600,125.827 107.600 C 125.512 107.600,125.140 107.960,125.000 108.400 C 124.860 108.840,124.488 109.200,124.173 109.200 C 123.858 109.200,123.600 109.449,123.600 109.753 C 123.600 110.058,123.240 110.401,122.800 110.516 C 122.360 110.631,122.000 111.012,122.000 111.363 C 122.000 111.713,121.730 112.000,121.400 112.000 C 121.070 112.000,120.800 112.258,120.800 112.573 C 120.800 112.888,120.440 113.260,120.000 113.400 C 119.560 113.540,119.200 113.912,119.200 114.227 C 119.200 114.542,118.942 114.800,118.627 114.800 C 118.312 114.800,117.940 115.160,117.800 115.600 C 117.660 116.040,117.288 116.400,116.973 116.400 C 116.658 116.400,116.400 116.649,116.400 116.953 C 116.400 117.258,116.040 117.601,115.600 117.716 C 115.160 117.831,114.800 118.212,114.800 118.563 C 114.800 118.913,114.530 119.200,114.200 119.200 C 113.870 119.200,113.600 119.458,113.600 119.773 C 113.600 120.088,113.240 120.460,112.800 120.600 C 112.360 120.740,112.000 121.112,112.000 121.427 C 112.000 121.742,111.742 122.000,111.427 122.000 C 111.112 122.000,110.740 122.360,110.600 122.800 C 110.460 123.240,110.088 123.600,109.773 123.600 C 109.458 123.600,109.200 123.849,109.200 124.153 C 109.200 124.458,108.840 124.801,108.400 124.916 C 107.960 125.031,107.600 125.412,107.600 125.763 C 107.600 126.113,107.330 126.400,107.000 126.400 C 106.670 126.400,106.400 126.658,106.400 126.973 C 106.400 127.288,106.040 127.660,105.600 127.800 C 105.160 127.940,104.800 128.291,104.800 128.580 C 104.800 128.870,104.440 129.201,104.000 129.316 C 103.560 129.431,103.200 129.812,103.200 130.163 C 103.200 130.513,102.930 130.800,102.600 130.800 C 102.270 130.800,102.000 131.049,102.000 131.353 C 102.000 131.658,101.640 132.001,101.200 132.116 C 100.760 132.231,100.400 132.612,100.400 132.963 C 100.400 133.313,100.130 133.600,99.800 133.600 C 99.470 133.600,99.200 133.887,99.200 134.237 C 99.200 134.588,98.840 134.969,98.400 135.084 C 97.960 135.199,97.600 135.521,97.600 135.800 C 97.600 136.079,97.240 136.401,96.800 136.516 C 96.360 136.631,96.000 137.012,96.000 137.363 C 96.000 137.713,95.730 138.000,95.400 138.000 C 95.070 138.000,94.800 138.258,94.800 138.573 C 94.800 138.888,94.440 139.260,94.000 139.400 C 93.560 139.540,93.200 139.912,93.200 140.227 C 93.200 140.542,93.028 140.800,92.818 140.800 C 92.220 140.800,90.400 142.771,90.400 143.418 C 90.400 143.738,90.130 144.000,89.800 144.000 C 89.470 144.000,89.200 144.172,89.200 144.382 C 89.200 144.592,88.750 145.214,88.200 145.764 C 87.650 146.314,87.200 147.042,87.200 147.382 C 87.200 147.722,86.930 148.000,86.600 148.000 C 86.270 148.000,86.000 148.270,86.000 148.600 C 86.000 148.930,85.713 149.200,85.363 149.200 C 85.012 149.200,84.631 149.560,84.516 150.000 C 84.401 150.440,84.058 150.800,83.753 150.800 C 83.449 150.800,83.200 151.160,83.200 151.600 C 83.200 152.133,82.933 152.400,82.400 152.400 C 81.956 152.400,81.600 152.667,81.600 153.000 C 81.600 153.330,81.313 153.600,80.963 153.600 C 80.612 153.600,80.231 153.960,80.116 154.400 C 80.001 154.840,79.658 155.200,79.353 155.200 C 79.049 155.200,78.800 155.470,78.800 155.800 C 78.800 156.130,78.513 156.400,78.163 156.400 C 77.812 156.400,77.431 156.760,77.316 157.200 C 77.201 157.640,76.858 158.000,76.553 158.000 C 76.249 158.000,76.000 158.360,76.000 158.800 C 76.000 159.333,75.733 159.600,75.200 159.600 C 74.756 159.600,74.400 159.867,74.400 160.200 C 74.400 160.530,74.113 160.800,73.763 160.800 C 73.412 160.800,73.031 161.160,72.916 161.600 C 72.801 162.040,72.458 162.400,72.153 162.400 C 71.849 162.400,71.600 162.670,71.600 163.000 C 71.600 163.330,71.313 163.600,70.963 163.600 C 70.612 163.600,70.231 163.960,70.116 164.400 C 70.001 164.840,69.658 165.200,69.353 165.200 C 69.049 165.200,68.800 165.560,68.800 166.000 C 68.800 166.533,68.533 166.800,68.000 166.800 C 67.556 166.800,67.200 167.067,67.200 167.400 C 67.200 167.730,66.913 168.000,66.563 168.000 C 66.212 168.000,65.831 168.360,65.716 168.800 C 65.601 169.240,65.258 169.600,64.953 169.600 C 64.649 169.600,64.400 169.870,64.400 170.200 C 64.400 170.530,64.113 170.800,63.763 170.800 C 63.412 170.800,63.031 171.160,62.916 171.600 C 62.801 172.040,62.470 172.400,62.180 172.400 C 61.891 172.400,61.540 172.760,61.400 173.200 C 61.260 173.640,60.888 174.000,60.573 174.000 C 60.258 174.000,60.000 174.270,60.000 174.600 C 60.000 174.930,59.713 175.200,59.363 175.200 C 59.012 175.200,58.631 175.560,58.516 176.000 C 58.401 176.440,58.079 176.800,57.800 176.800 C 57.521 176.800,57.199 177.160,57.084 177.600 C 56.969 178.040,56.588 178.400,56.237 178.400 C 55.887 178.400,55.600 178.670,55.600 179.000 C 55.600 179.330,55.313 179.600,54.963 179.600 C 54.612 179.600,54.231 179.960,54.116 180.400 C 54.001 180.840,53.658 181.200,53.353 181.200 C 53.049 181.200,52.800 181.470,52.800 181.800 C 52.800 182.130,52.513 182.400,52.163 182.400 C 51.812 182.400,51.431 182.760,51.316 183.200 C 51.201 183.640,50.858 184.000,50.553 184.000 C 50.249 184.000,50.000 184.360,50.000 184.800 C 50.000 185.333,49.733 185.600,49.200 185.600 C 48.756 185.600,48.400 185.867,48.400 186.200 C 48.400 186.530,48.113 186.800,47.763 186.800 C 47.412 186.800,47.031 187.160,46.916 187.600 C 46.801 188.040,46.549 188.400,46.356 188.400 C 45.795 188.400,44.000 190.098,44.000 190.629 C 44.000 190.896,43.730 191.218,43.400 191.345 C 43.070 191.471,42.800 191.851,42.800 192.187 C 42.800 192.533,42.452 192.800,42.000 192.800 C 41.560 192.800,41.200 192.992,41.200 193.227 C 41.200 193.462,40.570 194.248,39.800 194.974 C 39.030 195.700,38.400 196.498,38.400 196.747 C 38.400 196.996,38.175 197.203,37.900 197.207 C 37.290 197.215,35.600 198.942,35.600 199.556 C 35.600 199.800,35.415 200.000,35.189 200.000 C 34.655 200.000,31.200 203.455,31.200 203.989 C 31.200 204.215,30.975 204.403,30.700 204.407 C 30.090 204.415,28.400 206.142,28.400 206.756 C 28.400 207.000,28.040 207.200,27.600 207.200 C 27.018 207.200,26.800 207.467,26.800 208.176 C 26.800 208.713,26.620 209.264,26.400 209.400 C 25.881 209.721,25.881 211.479,26.400 211.800 C 26.620 211.936,26.800 212.487,26.800 213.024 C 26.800 213.561,27.000 214.000,27.244 214.000 C 27.804 214.000,31.200 217.417,31.200 217.981 C 31.200 218.211,31.560 218.400,32.000 218.400 C 32.440 218.400,32.800 218.571,32.800 218.779 C 32.800 219.330,34.612 221.200,35.146 221.200 C 35.396 221.200,35.600 221.385,35.600 221.611 C 35.600 222.145,39.055 225.600,39.589 225.600 C 39.815 225.600,40.003 225.825,40.007 226.100 C 40.015 226.710,41.742 228.400,42.356 228.400 C 42.600 228.400,42.800 228.611,42.800 228.869 C 42.800 229.425,46.240 232.800,46.807 232.800 C 47.023 232.800,47.200 233.039,47.200 233.330 C 47.200 233.622,47.830 234.386,48.600 235.028 C 49.370 235.670,50.000 236.422,50.000 236.698 C 50.000 237.053,50.820 237.200,52.800 237.200 C 55.022 237.200,55.600 237.076,55.600 236.600 C 55.600 236.270,55.858 236.000,56.173 236.000 C 56.488 236.000,56.860 235.640,57.000 235.200 C 57.140 234.760,57.512 234.400,57.827 234.400 C 58.142 234.400,58.400 234.142,58.400 233.827 C 58.400 233.512,58.760 233.140,59.200 233.000 C 59.640 232.860,60.000 232.488,60.000 232.173 C 60.000 231.858,60.270 231.600,60.600 231.600 C 60.933 231.600,61.200 231.244,61.200 230.800 C 61.200 230.267,61.467 230.000,62.000 230.000 C 62.533 230.000,62.800 229.733,62.800 229.200 C 62.800 228.756,63.067 228.400,63.400 228.400 C 63.730 228.400,64.000 228.236,64.000 228.035 C 64.000 227.549,68.690 222.800,69.170 222.800 C 69.377 222.800,69.660 222.440,69.800 222.000 C 69.940 221.560,70.312 221.200,70.627 221.200 C 70.942 221.200,71.200 221.028,71.200 220.818 C 71.200 220.450,73.065 218.400,73.400 218.400 C 73.613 218.400,75.600 216.413,75.600 216.200 C 75.600 215.865,77.650 214.000,78.018 214.000 C 78.228 214.000,78.400 213.742,78.400 213.427 C 78.400 213.112,78.760 212.740,79.200 212.600 C 79.640 212.460,80.000 212.187,80.000 211.994 C 80.000 211.463,81.826 209.600,82.346 209.600 C 82.596 209.600,82.800 209.428,82.800 209.219 C 82.800 208.740,86.363 205.200,86.845 205.200 C 87.040 205.200,87.200 205.020,87.200 204.800 C 87.200 204.274,90.072 201.411,90.931 201.082 C 91.299 200.941,91.600 200.639,91.600 200.413 C 91.600 199.898,94.664 196.800,95.173 196.800 C 95.378 196.800,95.660 196.440,95.800 196.000 C 95.940 195.560,96.312 195.200,96.627 195.200 C 96.942 195.200,97.200 195.000,97.200 194.756 C 97.200 194.142,98.890 192.415,99.500 192.407 C 99.775 192.403,100.000 192.240,100.000 192.045 C 100.000 191.563,103.540 188.000,104.019 188.000 C 104.228 188.000,104.400 187.742,104.400 187.427 C 104.400 187.112,104.760 186.740,105.200 186.600 C 105.640 186.460,106.000 186.000,106.000 185.576 C 106.000 185.153,106.360 184.582,106.800 184.307 C 107.240 184.032,107.600 183.491,107.600 183.104 C 107.600 182.717,107.825 182.397,108.100 182.393 C 108.710 182.385,110.400 180.658,110.400 180.044 C 110.400 179.800,110.760 179.600,111.200 179.600 C 111.733 179.600,112.000 179.333,112.000 178.800 C 112.000 178.356,112.267 178.000,112.600 178.000 C 112.930 178.000,113.200 177.730,113.200 177.400 C 113.200 177.067,113.556 176.800,114.000 176.800 C 114.533 176.800,114.800 176.533,114.800 176.000 C 114.800 175.560,115.025 175.197,115.300 175.193 C 115.910 175.185,117.600 173.458,117.600 172.844 C 117.600 172.600,117.960 172.400,118.400 172.400 C 118.933 172.400,119.200 172.133,119.200 171.600 C 119.200 171.156,119.467 170.800,119.800 170.800 C 120.130 170.800,120.400 170.530,120.400 170.200 C 120.400 169.867,120.756 169.600,121.200 169.600 C 121.733 169.600,122.000 169.333,122.000 168.800 C 122.000 168.360,122.225 167.997,122.500 167.993 C 123.110 167.985,124.800 166.258,124.800 165.644 C 124.800 165.400,125.160 165.200,125.600 165.200 C 126.133 165.200,126.400 164.933,126.400 164.400 C 126.400 163.956,126.667 163.600,127.000 163.600 C 127.330 163.600,127.600 163.330,127.600 163.000 C 127.600 162.667,127.956 162.400,128.400 162.400 C 128.933 162.400,129.200 162.133,129.200 161.600 C 129.200 161.160,129.425 160.797,129.700 160.793 C 130.310 160.785,132.000 159.058,132.000 158.444 C 132.000 158.200,132.360 158.000,132.800 158.000 C 133.333 158.000,133.600 157.733,133.600 157.200 C 133.600 156.760,133.825 156.397,134.100 156.393 C 134.710 156.385,136.400 154.658,136.400 154.044 C 136.400 153.800,136.625 153.597,136.900 153.593 C 137.510 153.585,139.200 151.858,139.200 151.244 C 139.200 151.000,139.560 150.800,140.000 150.800 C 140.533 150.800,140.800 150.533,140.800 150.000 C 140.800 149.560,141.025 149.197,141.300 149.193 C 141.910 149.185,143.600 147.458,143.600 146.844 C 143.600 146.600,143.960 146.400,144.400 146.400 C 144.933 146.400,145.200 146.133,145.200 145.600 C 145.200 144.952,145.467 144.800,146.600 144.800 C 147.733 144.800,148.000 144.952,148.000 145.600 C 148.000 146.060,148.267 146.400,148.627 146.400 C 148.972 146.400,149.848 147.030,150.574 147.800 C 151.433 148.711,152.262 149.200,152.947 149.200 C 153.733 149.200,154.000 149.403,154.000 150.000 C 154.000 150.440,154.261 150.800,154.580 150.800 C 154.899 150.800,155.304 151.029,155.480 151.308 C 155.656 151.588,156.295 152.034,156.900 152.300 C 157.505 152.565,158.000 152.967,158.000 153.191 C 158.000 153.416,158.360 153.600,158.800 153.600 C 159.265 153.600,159.600 153.867,159.600 154.237 C 159.600 154.588,159.960 154.969,160.400 155.084 C 160.840 155.199,161.200 155.542,161.200 155.847 C 161.200 156.212,161.675 156.400,162.600 156.400 C 163.733 156.400,164.000 156.552,164.000 157.200 C 164.000 157.640,164.172 158.000,164.382 158.000 C 164.878 158.000,166.800 159.922,166.800 160.418 C 166.800 160.628,167.430 160.800,168.200 160.800 C 169.333 160.800,169.600 160.952,169.600 161.600 C 169.600 162.133,169.867 162.400,170.400 162.400 C 170.840 162.400,171.200 162.649,171.200 162.953 C 171.200 163.258,171.560 163.601,172.000 163.716 C 172.440 163.831,172.800 164.212,172.800 164.563 C 172.800 165.024,173.186 165.200,174.200 165.200 C 175.178 165.200,175.600 165.381,175.600 165.800 C 175.600 166.553,177.016 168.000,177.753 168.000 C 178.058 168.000,178.401 168.360,178.516 168.800 C 178.631 169.240,179.012 169.600,179.363 169.600 C 179.713 169.600,180.000 169.870,180.000 170.200 C 180.000 170.619,180.422 170.800,181.400 170.800 C 182.533 170.800,182.800 170.952,182.800 171.600 C 182.800 172.044,183.067 172.400,183.400 172.400 C 183.730 172.400,184.000 172.658,184.000 172.973 C 184.000 173.288,184.360 173.660,184.800 173.800 C 185.240 173.940,185.600 174.312,185.600 174.627 C 185.600 175.015,186.051 175.200,187.000 175.200 C 188.133 175.200,188.400 175.352,188.400 176.000 C 188.400 176.533,188.667 176.800,189.200 176.800 C 189.640 176.800,190.000 177.049,190.000 177.353 C 190.000 177.658,190.360 178.001,190.800 178.116 C 191.240 178.231,191.600 178.612,191.600 178.963 C 191.600 179.424,191.986 179.600,193.000 179.600 C 194.133 179.600,194.400 179.752,194.400 180.400 C 194.400 180.844,194.667 181.200,195.000 181.200 C 195.330 181.200,195.600 181.470,195.600 181.800 C 195.600 182.130,195.939 182.400,196.353 182.400 C 196.770 182.400,197.200 182.757,197.316 183.200 C 197.468 183.783,197.862 184.000,198.763 184.000 C 199.596 184.000,200.000 184.196,200.000 184.600 C 200.000 184.933,200.356 185.200,200.800 185.200 C 201.333 185.200,201.600 185.467,201.600 186.000 C 201.600 186.440,201.772 186.800,201.982 186.800 C 202.478 186.800,204.400 188.722,204.400 189.218 C 204.400 189.428,205.030 189.600,205.800 189.600 C 206.933 189.600,207.200 189.752,207.200 190.400 C 207.200 190.933,207.467 191.200,208.000 191.200 C 208.444 191.200,208.800 191.467,208.800 191.800 C 208.800 192.130,209.064 192.400,209.386 192.400 C 209.708 192.400,210.165 192.760,210.400 193.200 C 210.680 193.724,211.238 194.000,212.014 194.000 C 212.933 194.000,213.200 194.180,213.200 194.800 C 213.200 195.244,213.467 195.600,213.800 195.600 C 214.130 195.600,214.400 195.870,214.400 196.200 C 214.400 197.260,218.142 197.001,219.379 195.854 C 219.941 195.334,220.400 194.704,220.400 194.454 C 220.400 194.204,220.670 194.000,221.000 194.000 C 221.330 194.000,221.600 193.751,221.600 193.447 C 221.600 193.142,221.960 192.799,222.400 192.684 C 222.840 192.569,223.200 192.188,223.200 191.837 C 223.200 191.487,223.470 191.200,223.800 191.200 C 224.133 191.200,224.400 190.844,224.400 190.400 C 224.400 189.867,224.667 189.600,225.200 189.600 C 225.640 189.600,226.000 189.351,226.000 189.047 C 226.000 188.742,226.360 188.399,226.800 188.284 C 227.240 188.169,227.600 187.788,227.600 187.437 C 227.600 186.999,227.966 186.800,228.773 186.800 C 229.595 186.800,230.022 186.560,230.200 186.000 C 230.340 185.560,230.712 185.200,231.027 185.200 C 231.342 185.200,231.600 184.951,231.600 184.647 C 231.600 184.342,231.960 183.999,232.400 183.884 C 232.840 183.769,233.200 183.388,233.200 183.037 C 233.200 182.687,233.470 182.400,233.800 182.400 C 234.130 182.400,234.400 182.113,234.400 181.763 C 234.400 181.412,234.760 181.031,235.200 180.916 C 235.640 180.801,236.000 180.479,236.000 180.200 C 236.000 179.921,236.360 179.599,236.800 179.484 C 237.240 179.369,237.600 178.988,237.600 178.637 C 237.600 178.287,237.870 178.000,238.200 178.000 C 238.530 178.000,238.800 177.751,238.800 177.447 C 238.800 177.142,239.160 176.799,239.600 176.684 C 240.040 176.569,240.400 176.188,240.400 175.837 C 240.400 175.487,240.572 175.200,240.782 175.200 C 241.278 175.200,243.200 173.278,243.200 172.782 C 243.200 172.572,243.560 172.400,244.000 172.400 C 244.533 172.400,244.800 172.133,244.800 171.600 C 244.800 171.067,245.067 170.800,245.600 170.800 C 246.044 170.800,246.400 170.533,246.400 170.200 C 246.400 169.870,246.670 169.600,247.000 169.600 C 247.333 169.600,247.600 169.244,247.600 168.800 C 247.600 168.267,247.867 168.000,248.400 168.000 C 248.844 168.000,249.200 167.733,249.200 167.400 C 249.200 167.070,249.470 166.800,249.800 166.800 C 250.133 166.800,250.400 166.444,250.400 166.000 C 250.400 165.467,250.667 165.200,251.200 165.200 C 251.733 165.200,252.000 164.933,252.000 164.400 C 252.000 163.867,252.267 163.600,252.800 163.600 C 253.244 163.600,253.600 163.333,253.600 163.000 C 253.600 162.670,253.870 162.400,254.200 162.400 C 254.533 162.400,254.800 162.044,254.800 161.600 C 254.800 160.972,255.067 160.800,256.037 160.800 C 256.938 160.800,257.332 160.583,257.484 160.000 C 257.600 159.557,258.030 159.200,258.447 159.200 C 258.861 159.200,259.200 158.949,259.200 158.643 C 259.200 158.336,259.470 157.982,259.800 157.855 C 260.130 157.729,260.400 157.349,260.400 157.013 C 260.400 156.667,260.748 156.400,261.200 156.400 C 261.640 156.400,262.000 156.142,262.000 155.827 C 262.000 155.512,262.360 155.140,262.800 155.000 C 263.240 154.860,263.600 154.488,263.600 154.173 C 263.600 153.858,263.870 153.600,264.200 153.600 C 264.533 153.600,264.800 153.244,264.800 152.800 C 264.800 152.267,265.067 152.000,265.600 152.000 C 266.044 152.000,266.400 151.733,266.400 151.400 C 266.400 151.070,266.658 150.800,266.973 150.800 C 267.288 150.800,267.660 150.440,267.800 150.000 C 267.940 149.560,268.312 149.200,268.627 149.200 C 268.942 149.200,269.200 148.942,269.200 148.627 C 269.200 148.312,269.560 147.940,270.000 147.800 C 270.440 147.660,270.800 147.309,270.800 147.020 C 270.800 146.730,271.160 146.399,271.600 146.284 C 272.040 146.169,272.400 145.788,272.400 145.437 C 272.400 145.087,272.670 144.800,273.000 144.800 C 273.330 144.800,273.600 144.530,273.600 144.200 C 273.600 143.867,273.956 143.600,274.400 143.600 C 274.933 143.600,275.200 143.333,275.200 142.800 C 275.200 142.356,275.467 142.000,275.800 142.000 C 276.130 142.000,276.400 141.730,276.400 141.400 C 276.400 141.070,276.687 140.800,277.037 140.800 C 277.388 140.800,277.769 140.440,277.884 140.000 C 277.999 139.560,278.359 139.200,278.684 139.200 C 279.009 139.200,279.369 138.840,279.484 138.400 C 279.599 137.960,279.942 137.600,280.247 137.600 C 280.551 137.600,280.800 137.330,280.800 137.000 C 280.800 136.667,281.156 136.400,281.600 136.400 C 282.133 136.400,282.400 136.133,282.400 135.600 C 282.400 135.011,282.667 134.800,283.411 134.800 C 284.420 134.800,288.000 131.688,288.000 130.811 C 288.000 130.585,288.225 130.397,288.500 130.393 C 289.110 130.385,290.800 128.658,290.800 128.044 C 290.800 127.800,291.160 127.600,291.600 127.600 C 292.133 127.600,292.400 127.333,292.400 126.800 C 292.400 126.360,292.651 126.000,292.957 126.000 C 293.264 126.000,293.618 125.730,293.745 125.400 C 293.871 125.070,294.251 124.800,294.587 124.800 C 294.933 124.800,295.200 124.452,295.200 124.000 C 295.200 123.467,295.467 123.200,296.000 123.200 C 296.444 123.200,296.800 122.933,296.800 122.600 C 296.800 122.270,297.070 122.000,297.400 122.000 C 297.733 122.000,298.000 121.644,298.000 121.200 C 298.000 120.760,298.261 120.400,298.579 120.400 C 299.284 120.400,301.200 118.685,301.200 118.054 C 301.200 117.804,301.470 117.600,301.800 117.600 C 302.133 117.600,302.400 117.244,302.400 116.800 C 302.400 116.267,302.667 116.000,303.200 116.000 C 303.644 116.000,304.000 115.733,304.000 115.400 C 304.000 115.070,304.287 114.800,304.637 114.800 C 304.988 114.800,305.369 114.440,305.484 114.000 C 305.599 113.560,305.942 113.200,306.247 113.200 C 306.551 113.200,306.800 112.930,306.800 112.600 C 306.800 112.270,307.087 112.000,307.437 112.000 C 307.788 112.000,308.169 111.640,308.284 111.200 C 308.399 110.760,308.742 110.400,309.047 110.400 C 309.351 110.400,309.600 110.040,309.600 109.600 C 309.600 108.956,309.867 108.800,310.971 108.800 C 311.940 108.800,312.395 108.595,312.524 108.100 C 312.698 107.433,312.709 107.433,312.754 108.100 C 312.788 108.624,313.151 108.800,314.200 108.800 C 315.333 108.800,315.600 108.952,315.600 109.600 C 315.600 110.040,315.858 110.400,316.173 110.400 C 316.488 110.400,316.860 110.760,317.000 111.200 C 317.140 111.640,317.512 112.000,317.827 112.000 C 318.142 112.000,318.400 112.270,318.400 112.600 C 318.400 112.933,318.756 113.200,319.200 113.200 C 319.733 113.200,320.000 113.467,320.000 114.000 C 320.000 114.444,320.267 114.800,320.600 114.800 C 320.930 114.800,321.200 115.070,321.200 115.400 C 321.200 115.733,321.556 116.000,322.000 116.000 C 322.533 116.000,322.800 116.267,322.800 116.800 C 322.800 117.333,323.067 117.600,323.600 117.600 C 324.052 117.600,324.400 117.867,324.400 118.213 C 324.400 118.549,324.670 118.929,325.000 119.055 C 325.330 119.182,325.600 119.536,325.600 119.843 C 325.600 120.149,325.960 120.400,326.400 120.400 C 326.933 120.400,327.200 120.667,327.200 121.200 C 327.200 121.644,327.467 122.000,327.800 122.000 C 328.130 122.000,328.400 122.270,328.400 122.600 C 328.400 122.933,328.756 123.200,329.200 123.200 C 329.733 123.200,330.000 123.467,330.000 124.000 C 330.000 124.533,330.267 124.800,330.800 124.800 C 331.252 124.800,331.600 125.067,331.600 125.413 C 331.600 125.749,331.870 126.129,332.200 126.255 C 332.530 126.382,332.800 126.736,332.800 127.043 C 332.800 127.349,333.160 127.600,333.600 127.600 C 334.133 127.600,334.400 127.867,334.400 128.400 C 334.400 128.840,334.651 129.200,334.957 129.200 C 335.264 129.200,335.618 129.470,335.745 129.800 C 335.871 130.130,336.251 130.400,336.587 130.400 C 336.924 130.400,337.200 130.679,337.200 131.019 C 337.200 131.722,339.141 133.568,339.900 133.587 C 340.175 133.594,340.400 133.870,340.400 134.200 C 340.400 134.530,340.670 134.800,341.000 134.800 C 341.330 134.800,341.600 135.058,341.600 135.373 C 341.600 135.688,341.960 136.060,342.400 136.200 C 342.840 136.340,343.200 136.712,343.200 137.027 C 343.200 137.342,343.372 137.600,343.582 137.600 C 344.078 137.600,346.000 139.522,346.000 140.018 C 346.000 140.228,346.258 140.400,346.573 140.400 C 346.888 140.400,347.260 140.760,347.400 141.200 C 347.619 141.889,348.005 142.000,350.180 142.000 C 353.066 142.000,353.185 141.849,353.195 138.143 C 353.198 136.687,353.375 136.018,353.800 135.855 C 354.263 135.678,354.400 134.904,354.400 132.459 C 354.400 129.630,354.485 129.271,355.200 129.084 C 355.828 128.920,356.000 128.538,356.000 127.313 C 356.000 126.453,356.360 125.005,356.800 124.094 C 357.240 123.184,357.600 121.967,357.600 121.391 C 357.600 120.814,357.870 120.073,358.200 119.743 C 358.590 119.353,358.800 118.362,358.800 116.916 C 358.800 115.402,358.992 114.546,359.399 114.244 C 359.758 113.978,360.101 112.800,360.256 111.302 C 360.397 109.928,360.758 108.601,361.057 108.353 C 361.418 108.053,361.600 106.981,361.600 105.154 C 361.600 102.840,361.726 102.328,362.400 101.907 C 363.072 101.488,363.200 100.974,363.200 98.704 C 363.200 96.668,363.337 96.000,363.753 96.000 C 364.457 96.000,364.788 94.761,364.795 92.100 C 364.799 90.502,364.944 90.000,365.400 90.000 C 365.876 90.000,366.000 89.422,366.000 87.200 C 366.000 85.073,366.134 84.400,366.557 84.400 C 367.341 84.400,367.600 83.497,367.600 80.767 C 367.600 78.930,367.734 78.400,368.200 78.400 C 368.675 78.400,368.800 77.827,368.800 75.647 C 368.800 73.230,368.898 72.868,369.600 72.684 C 370.305 72.500,370.400 72.138,370.400 69.637 C 370.400 67.497,370.535 66.800,370.950 66.800 C 371.558 66.800,372.000 65.112,372.000 62.793 C 372.000 61.822,372.214 61.204,372.600 61.055 C 373.027 60.892,373.200 60.225,373.200 58.744 C 373.200 57.374,373.425 56.415,373.858 55.936 C 374.220 55.535,374.605 54.261,374.713 53.104 C 374.821 51.935,375.151 50.858,375.454 50.680 C 375.820 50.466,376.000 49.562,376.000 47.943 C 376.000 46.132,376.200 45.271,376.800 44.509 C 377.381 43.770,377.600 42.886,377.600 41.278 C 377.600 39.751,377.812 38.829,378.282 38.309 C 378.727 37.817,379.022 36.658,379.129 34.977 C 379.247 33.129,379.450 32.400,379.847 32.400 C 380.251 32.400,380.400 31.807,380.400 30.200 C 380.400 28.594,380.549 28.000,380.953 28.000 C 381.653 28.000,381.988 26.763,381.995 24.149 C 381.998 22.819,382.211 21.923,382.600 21.600 C 383.033 21.241,383.200 20.291,383.200 18.198 C 383.200 15.630,383.293 15.269,384.000 15.084 C 384.704 14.900,384.800 14.538,384.800 12.084 C 384.800 9.630,384.896 9.268,385.600 9.084 C 386.298 8.902,386.400 8.538,386.400 6.237 C 386.400 4.160,386.527 3.600,387.000 3.600 C 387.444 3.600,387.600 3.133,387.600 1.800 L 387.600 0.000 382.000 0.000 C 378.533 0.000,376.400 0.152,376.400 0.400 M314.099 264.700 L 314.200 378.600 350.900 378.702 L 387.600 378.804 387.600 264.802 L 387.600 150.800 350.799 150.800 L 313.999 150.800 314.099 264.700 M113.200 204.518 L 112.200 205.024 112.106 291.212 C 112.047 345.094,112.154 377.625,112.391 378.000 C 112.724 378.526,117.330 378.600,149.885 378.600 L 187.000 378.600 187.101 291.929 C 187.192 213.532,187.142 205.199,186.572 204.629 C 185.721 203.778,114.876 203.670,113.200 204.518 M213.473 237.461 C 213.323 237.611,213.200 269.473,213.200 308.267 L 213.200 378.800 249.826 378.800 C 274.309 378.800,286.709 378.663,287.226 378.386 C 288.094 377.921,288.472 239.366,287.609 238.000 C 287.207 237.364,214.101 236.832,213.473 237.461 M12.400 319.600 L 12.400 378.800 49.200 378.800 L 86.000 378.800 86.000 320.624 C 86.000 283.082,86.139 262.361,86.392 262.205 C 86.639 262.053,86.603 261.673,86.296 261.181 C 85.817 260.415,85.084 260.400,49.104 260.400 L 12.400 260.400 12.400 319.600 M0.000 403.600 L 0.000 418.400 200.000 418.400 L 400.000 418.400 400.000 403.600 L 400.000 388.800 200.000 388.800 L 0.000 388.800 0.000 403.600 " stroke="none" fill="#ffffff" fill-rule="evenodd"></path></g></svg>