<svg id="svg" version="1.1" xmlns="http://www.w3.org/2000/svg" xmlns:xlink="http://www.w3.org/1999/xlink" width="400" height="262.81588447653434" viewBox="0, 0, 400,262.81588447653434"><g id="svgg"><path id="path0" d="M327.153 0.394 C 327.153 0.714,326.729 0.789,324.918 0.789 C 322.709 0.789,322.682 0.797,322.682 1.446 C 322.682 2.093,322.647 2.104,320.579 2.104 L 318.475 2.104 318.475 2.893 C 318.475 3.674,318.460 3.682,317.028 3.682 C 315.661 3.682,315.582 3.718,315.582 4.339 C 315.582 4.961,315.503 4.997,314.135 4.997 C 312.704 4.997,312.689 5.005,312.689 5.786 C 312.689 6.567,312.674 6.575,311.243 6.575 C 309.875 6.575,309.796 6.610,309.796 7.232 C 309.796 7.854,309.717 7.890,308.350 7.890 C 306.925 7.890,306.903 7.901,306.903 8.661 C 306.903 9.307,306.786 9.446,306.180 9.516 C 305.662 9.575,305.433 9.767,305.373 10.191 C 305.312 10.619,305.112 10.782,304.650 10.782 C 304.118 10.782,304.011 10.912,304.011 11.554 C 304.011 12.200,303.893 12.339,303.287 12.409 C 302.775 12.468,302.540 12.661,302.482 13.070 C 302.411 13.569,302.211 13.660,301.035 13.728 C 299.766 13.801,299.666 13.857,299.588 14.530 C 299.523 15.098,299.368 15.253,298.865 15.253 C 298.358 15.253,298.225 15.389,298.225 15.911 C 298.225 16.429,298.091 16.568,297.596 16.568 C 296.866 16.568,296.647 16.997,296.647 18.430 C 296.647 19.354,296.579 19.461,295.989 19.461 C 295.434 19.461,295.332 19.584,295.332 20.250 C 295.332 20.914,295.229 21.039,294.680 21.039 C 294.203 21.039,293.983 21.216,293.862 21.696 C 293.744 22.168,293.520 22.354,293.068 22.354 C 292.481 22.354,292.439 22.450,292.439 23.800 C 292.439 25.155,292.399 25.247,291.803 25.247 C 291.309 25.247,291.127 25.424,290.993 26.036 C 290.858 26.647,290.676 26.824,290.183 26.824 C 289.587 26.824,289.546 26.916,289.546 28.271 C 289.546 29.620,289.504 29.717,288.920 29.717 C 288.236 29.717,287.978 30.271,287.972 31.755 C 287.969 32.491,287.877 32.610,287.311 32.610 C 286.664 32.610,286.654 32.645,286.654 34.714 C 286.654 36.753,286.634 36.818,286.029 36.818 C 285.306 36.818,285.076 37.558,285.076 39.875 C 285.076 41.208,285.038 41.289,284.418 41.289 L 283.761 41.289 283.761 44.839 L 283.761 48.389 283.103 48.389 L 282.446 48.389 282.446 57.725 L 282.446 67.061 283.103 67.061 L 283.761 67.061 283.761 71.395 L 283.761 75.730 283.103 75.895 C 282.631 76.013,282.446 76.237,282.446 76.689 C 282.446 77.212,282.313 77.318,281.657 77.318 C 280.992 77.318,280.868 77.420,280.868 77.970 C 280.868 78.447,280.691 78.667,280.210 78.787 C 279.738 78.906,279.553 79.130,279.553 79.581 C 279.553 80.105,279.421 80.210,278.764 80.210 C 278.107 80.210,277.975 80.316,277.975 80.839 C 277.975 81.291,277.790 81.515,277.318 81.633 C 276.837 81.754,276.660 81.974,276.660 82.451 C 276.660 83.000,276.536 83.103,275.871 83.103 C 275.214 83.103,275.082 83.209,275.082 83.732 C 275.082 84.184,274.897 84.408,274.425 84.526 C 273.944 84.647,273.767 84.867,273.767 85.344 C 273.767 85.893,273.643 85.996,272.978 85.996 C 272.318 85.996,272.189 86.100,272.189 86.635 C 272.189 87.098,272.026 87.298,271.598 87.358 C 271.174 87.419,270.982 87.648,270.923 88.166 C 270.853 88.771,270.714 88.889,270.068 88.889 C 269.426 88.889,269.297 88.996,269.297 89.528 C 269.297 89.991,269.133 90.190,268.705 90.251 C 268.281 90.311,268.089 90.541,268.030 91.059 C 267.960 91.664,267.821 91.782,267.175 91.782 C 266.533 91.782,266.404 91.889,266.404 92.421 C 266.404 92.884,266.240 93.083,265.812 93.144 C 265.299 93.217,265.210 93.407,265.142 94.578 C 265.069 95.840,265.012 95.939,264.287 96.084 C 263.673 96.207,263.511 96.378,263.511 96.903 C 263.511 97.436,263.381 97.567,262.853 97.567 C 262.332 97.567,262.196 97.700,262.196 98.207 C 262.196 98.710,262.041 98.865,261.473 98.931 C 260.905 98.996,260.732 99.169,260.666 99.737 C 260.601 100.305,260.446 100.460,259.943 100.460 C 259.343 100.460,259.303 100.550,259.303 101.907 C 259.303 103.338,259.295 103.353,258.514 103.353 C 257.854 103.353,257.725 103.457,257.725 103.992 C 257.725 104.455,257.562 104.655,257.133 104.715 C 256.710 104.776,256.518 105.005,256.459 105.523 C 256.389 106.128,256.250 106.246,255.604 106.246 C 254.844 106.246,254.832 106.268,254.832 107.692 C 254.832 109.060,254.796 109.139,254.175 109.139 C 253.654 109.139,253.517 109.271,253.517 109.779 C 253.517 110.281,253.362 110.437,252.794 110.502 C 252.121 110.579,252.066 110.679,251.992 111.949 C 251.924 113.125,251.833 113.325,251.335 113.396 C 250.925 113.454,250.732 113.689,250.673 114.201 C 250.603 114.807,250.464 114.924,249.818 114.924 C 249.058 114.924,249.047 114.946,249.047 116.371 C 249.047 117.738,249.011 117.817,248.389 117.817 C 247.768 117.817,247.732 117.896,247.732 119.264 C 247.732 120.695,247.724 120.710,246.943 120.710 C 246.277 120.710,246.154 120.812,246.154 121.368 C 246.154 121.893,246.022 122.025,245.496 122.025 C 244.876 122.025,244.839 122.105,244.839 123.454 C 244.839 124.817,244.806 124.887,244.116 124.966 C 243.441 125.044,243.387 125.142,243.313 126.430 C 243.240 127.698,243.181 127.811,242.590 127.811 C 241.986 127.811,241.946 127.899,241.946 129.240 C 241.946 130.603,241.913 130.672,241.223 130.752 C 240.548 130.829,240.494 130.928,240.420 132.216 C 240.347 133.484,240.288 133.596,239.697 133.596 C 239.093 133.596,239.053 133.685,239.053 135.025 C 239.053 136.389,239.020 136.458,238.330 136.537 C 237.656 136.615,237.601 136.714,237.527 138.001 C 237.454 139.269,237.395 139.382,236.804 139.382 C 236.200 139.382,236.160 139.470,236.160 140.811 C 236.160 142.174,236.127 142.244,235.437 142.323 C 234.721 142.406,234.713 142.426,234.638 144.576 C 234.563 146.685,234.543 146.746,233.914 146.746 C 233.307 146.746,233.268 146.832,233.268 148.175 C 233.268 149.538,233.234 149.607,232.544 149.687 C 231.832 149.769,231.820 149.802,231.744 151.808 C 231.671 153.764,231.642 153.846,231.035 153.846 C 230.457 153.846,230.395 153.726,230.323 152.465 C 230.249 151.178,230.195 151.079,229.520 151.002 C 228.830 150.922,228.797 150.853,228.797 149.489 C 228.797 148.141,228.760 148.060,228.139 148.060 C 227.613 148.060,227.482 147.929,227.482 147.403 C 227.482 146.848,227.359 146.746,226.693 146.746 C 225.912 146.746,225.904 146.731,225.904 145.299 C 225.904 143.942,225.864 143.853,225.264 143.853 C 224.761 143.853,224.606 143.698,224.541 143.130 C 224.475 142.561,224.302 142.388,223.734 142.323 C 223.044 142.244,223.011 142.174,223.011 140.811 C 223.011 139.462,222.974 139.382,222.354 139.382 C 221.828 139.382,221.696 139.250,221.696 138.725 C 221.696 138.169,221.574 138.067,220.907 138.067 C 220.126 138.067,220.118 138.052,220.118 136.621 C 220.118 135.264,220.079 135.174,219.478 135.174 C 218.976 135.174,218.821 135.019,218.755 134.451 C 218.690 133.883,218.517 133.710,217.949 133.645 C 217.381 133.579,217.226 133.424,217.226 132.921 C 217.226 132.419,217.088 132.281,216.586 132.281 C 216.083 132.281,215.928 132.126,215.862 131.558 C 215.797 130.990,215.624 130.817,215.056 130.752 C 214.488 130.686,214.333 130.531,214.333 130.029 C 214.333 129.526,214.195 129.389,213.693 129.389 C 213.190 129.389,213.035 129.233,212.969 128.665 C 212.904 128.097,212.731 127.924,212.163 127.859 C 211.595 127.794,211.440 127.638,211.440 127.136 C 211.440 126.633,211.303 126.496,210.800 126.496 C 210.297 126.496,210.142 126.341,210.077 125.773 C 210.011 125.204,209.838 125.031,209.270 124.966 C 208.702 124.901,208.547 124.746,208.547 124.243 C 208.547 123.740,208.410 123.603,207.907 123.603 C 207.404 123.603,207.249 123.448,207.184 122.880 C 207.118 122.312,206.945 122.139,206.377 122.073 C 205.809 122.008,205.654 121.853,205.654 121.350 C 205.654 120.847,205.517 120.710,205.014 120.710 C 204.512 120.710,204.356 120.555,204.291 119.987 C 204.226 119.419,204.053 119.246,203.485 119.180 C 202.917 119.115,202.761 118.960,202.761 118.457 C 202.761 117.955,202.624 117.817,202.121 117.817 C 201.619 117.817,201.463 117.662,201.398 117.094 C 201.321 116.419,201.222 116.365,199.934 116.291 C 198.666 116.218,198.554 116.159,198.554 115.568 C 198.554 115.061,198.417 114.924,197.914 114.924 C 197.411 114.924,197.256 114.769,197.190 114.201 C 197.125 113.633,196.952 113.460,196.384 113.395 C 195.816 113.329,195.661 113.174,195.661 112.672 C 195.661 112.072,195.570 112.032,194.232 112.032 C 192.868 112.032,192.799 111.998,192.720 111.308 C 192.661 110.797,192.467 110.561,192.061 110.503 C 191.702 110.452,191.454 110.204,191.403 109.846 C 191.333 109.351,191.131 109.259,189.957 109.191 C 188.693 109.118,188.586 109.060,188.511 108.402 C 188.435 107.745,188.328 107.686,187.065 107.613 C 185.889 107.545,185.689 107.455,185.618 106.956 C 185.547 106.457,185.348 106.367,184.171 106.298 C 182.908 106.225,182.801 106.167,182.725 105.510 C 182.649 104.852,182.542 104.794,181.279 104.721 C 180.103 104.653,179.903 104.562,179.832 104.063 C 179.761 103.563,179.562 103.474,178.369 103.405 C 177.120 103.333,176.989 103.267,176.989 102.710 C 176.989 101.923,176.570 101.775,174.337 101.775 C 172.572 101.775,172.518 101.756,172.518 101.118 C 172.518 100.471,172.483 100.460,170.414 100.460 C 168.370 100.460,168.310 100.442,168.310 99.831 C 168.310 98.966,167.950 98.882,164.213 98.882 L 160.947 98.882 160.947 98.225 L 160.947 97.567 155.179 97.567 L 149.410 97.567 149.327 96.844 L 149.244 96.121 140.991 96.051 C 132.419 95.979,132.018 96.025,132.018 97.074 C 132.018 97.541,131.720 97.567,126.364 97.567 L 120.710 97.567 120.710 98.217 L 120.710 98.867 117.094 98.941 L 113.478 99.014 113.395 99.737 L 113.312 100.460 110.436 100.460 C 107.561 100.460,107.561 100.460,107.561 101.104 C 107.561 101.695,107.448 101.754,106.180 101.827 C 104.892 101.901,104.794 101.955,104.716 102.630 C 104.651 103.198,104.496 103.353,103.993 103.353 C 103.490 103.353,103.353 103.490,103.353 103.993 C 103.353 104.496,103.198 104.651,102.630 104.716 C 102.062 104.782,101.889 104.955,101.823 105.523 C 101.758 106.091,101.603 106.246,101.100 106.246 C 100.598 106.246,100.460 106.383,100.460 106.886 C 100.460 107.389,100.305 107.544,99.737 107.609 C 99.169 107.674,98.996 107.847,98.931 108.416 C 98.865 108.984,98.710 109.139,98.207 109.139 C 97.607 109.139,97.567 109.228,97.567 110.585 C 97.567 112.018,97.560 112.032,96.775 112.032 L 95.983 112.032 96.052 122.091 L 96.121 132.150 96.844 132.233 C 97.534 132.313,97.567 132.382,97.567 133.745 C 97.567 135.086,97.607 135.174,98.211 135.174 C 98.802 135.174,98.861 135.287,98.934 136.555 C 99.008 137.843,99.062 137.941,99.737 138.019 C 100.305 138.084,100.460 138.239,100.460 138.742 C 100.460 139.245,100.598 139.382,101.100 139.382 C 101.603 139.382,101.758 139.537,101.823 140.105 C 101.901 140.780,102.000 140.834,103.287 140.908 C 104.555 140.981,104.668 141.040,104.668 141.631 C 104.668 142.171,104.795 142.275,105.457 142.275 C 106.158 142.275,106.246 142.362,106.246 143.064 L 106.246 143.853 108.350 143.853 C 110.419 143.853,110.454 143.864,110.454 144.510 L 110.454 145.168 117.686 145.168 L 124.918 145.168 124.918 144.510 L 124.918 143.853 128.468 143.853 L 132.018 143.853 132.018 143.064 L 132.018 142.275 140.022 142.275 L 148.026 142.275 148.109 142.998 L 148.192 143.721 151.019 143.796 C 153.829 143.870,153.846 143.875,153.846 144.519 C 153.846 145.154,153.890 145.168,155.933 145.168 C 158.013 145.168,158.019 145.170,158.102 145.891 C 158.180 146.565,158.278 146.619,159.566 146.694 C 160.834 146.767,160.947 146.826,160.947 147.417 C 160.947 148.021,161.035 148.060,162.376 148.060 C 163.739 148.060,163.808 148.094,163.888 148.784 C 163.965 149.458,164.064 149.512,165.352 149.586 C 166.620 149.659,166.732 149.718,166.732 150.310 C 166.732 150.846,166.861 150.953,167.504 150.953 C 168.150 150.953,168.289 151.071,168.359 151.677 C 168.436 152.351,168.535 152.405,169.822 152.479 C 171.090 152.552,171.203 152.611,171.203 153.202 C 171.203 153.709,171.339 153.846,171.843 153.846 C 172.346 153.846,172.501 154.001,172.566 154.569 C 172.632 155.137,172.805 155.310,173.373 155.376 C 173.941 155.441,174.096 155.596,174.096 156.099 C 174.096 156.602,174.233 156.739,174.736 156.739 C 175.239 156.739,175.394 156.894,175.459 157.462 C 175.525 158.030,175.698 158.203,176.266 158.269 C 176.834 158.334,176.989 158.489,176.989 158.992 C 176.989 159.495,177.126 159.632,177.629 159.632 C 178.131 159.632,178.287 159.787,178.352 160.355 C 178.417 160.923,178.590 161.096,179.158 161.161 C 179.726 161.227,179.882 161.382,179.882 161.885 C 179.882 162.387,180.019 162.525,180.522 162.525 C 181.024 162.525,181.179 162.680,181.245 163.248 C 181.310 163.812,181.484 163.989,182.038 164.053 C 182.696 164.129,182.754 164.236,182.827 165.499 C 182.896 166.686,182.983 166.875,183.498 166.948 C 183.926 167.009,184.089 167.209,184.089 167.671 C 184.089 168.206,184.218 168.310,184.878 168.310 C 185.659 168.310,185.667 168.325,185.667 169.757 C 185.667 171.114,185.707 171.203,186.307 171.203 C 186.810 171.203,186.965 171.358,187.031 171.926 C 187.095 172.491,187.270 172.668,187.824 172.732 C 188.481 172.807,188.540 172.914,188.613 174.178 C 188.681 175.364,188.769 175.553,189.283 175.626 C 189.712 175.687,189.875 175.887,189.875 176.350 C 189.875 176.885,190.004 176.989,190.664 176.989 C 191.445 176.989,191.453 177.003,191.453 178.435 C 191.453 179.803,191.489 179.882,192.110 179.882 C 192.732 179.882,192.768 179.961,192.768 181.328 C 192.768 182.760,192.776 182.774,193.557 182.774 C 194.338 182.774,194.346 182.789,194.346 184.221 C 194.346 185.588,194.382 185.667,195.003 185.667 C 195.625 185.667,195.661 185.746,195.661 187.114 C 195.661 188.546,195.669 188.560,196.450 188.560 C 197.231 188.560,197.239 188.575,197.239 190.007 C 197.239 191.374,197.275 191.453,197.896 191.453 C 198.518 191.453,198.554 191.532,198.554 192.899 C 198.554 194.331,198.562 194.346,199.343 194.346 L 200.131 194.346 200.131 196.450 C 200.131 198.519,200.142 198.554,200.789 198.554 C 201.439 198.554,201.446 198.580,201.446 200.789 L 201.446 203.024 202.235 203.024 C 203.016 203.024,203.024 203.039,203.024 204.471 C 203.024 205.838,203.060 205.917,203.682 205.917 C 204.328 205.917,204.339 205.952,204.339 208.021 C 204.339 210.090,204.350 210.125,204.997 210.125 C 205.616 210.125,205.654 210.206,205.654 211.538 C 205.654 213.856,205.885 214.596,206.607 214.596 C 207.227 214.596,207.232 214.619,207.232 217.488 L 207.232 220.381 207.890 220.381 C 208.523 220.381,208.547 220.444,208.547 222.069 C 208.547 224.174,208.703 224.589,209.496 224.589 C 210.121 224.589,210.125 224.606,210.125 227.482 L 210.125 230.375 210.782 230.375 L 211.440 230.375 211.443 233.465 C 211.448 237.237,211.559 237.738,212.391 237.738 C 213.013 237.738,213.018 237.759,213.018 240.631 L 213.018 243.524 213.675 243.524 L 214.333 243.524 214.333 246.658 C 214.333 250.259,214.420 250.625,215.281 250.625 C 215.869 250.625,215.911 250.721,215.911 252.071 C 215.911 253.430,215.949 253.517,216.554 253.517 C 217.145 253.517,217.205 253.630,217.278 254.898 C 217.352 256.186,217.406 256.284,218.080 256.362 C 218.686 256.432,218.803 256.571,218.803 257.217 C 218.803 257.858,218.911 257.988,219.443 257.988 C 219.905 257.988,220.105 258.152,220.166 258.580 C 220.226 259.004,220.455 259.195,220.973 259.255 C 221.579 259.325,221.696 259.463,221.696 260.110 C 221.696 260.869,221.718 260.881,223.143 260.881 C 224.510 260.881,224.589 260.917,224.589 261.538 C 224.589 262.160,224.668 262.196,226.036 262.196 C 227.146 262.196,227.482 262.288,227.482 262.590 C 227.482 262.934,228.695 262.985,236.818 262.985 C 244.941 262.985,246.154 262.934,246.154 262.590 C 246.154 262.288,246.490 262.196,247.600 262.196 C 248.968 262.196,249.047 262.160,249.047 261.538 C 249.047 260.917,249.126 260.881,250.493 260.881 C 251.925 260.881,251.940 260.873,251.940 260.092 C 251.940 259.391,252.027 259.303,252.728 259.303 C 253.395 259.303,253.517 259.201,253.517 258.646 C 253.517 258.120,253.649 257.988,254.175 257.988 C 254.730 257.988,254.832 257.865,254.832 257.199 C 254.832 256.498,254.920 256.410,255.621 256.410 C 256.402 256.410,256.410 256.396,256.410 254.964 C 256.410 253.596,256.446 253.517,257.068 253.517 C 257.689 253.517,257.725 253.439,257.725 252.071 C 257.725 250.639,257.733 250.625,258.514 250.625 L 259.303 250.625 259.303 244.181 L 259.303 237.738 259.961 237.738 L 260.618 237.738 260.618 230.524 L 260.618 223.309 261.341 223.226 L 262.064 223.143 262.137 218.869 L 262.209 214.596 262.860 214.596 L 263.511 214.596 263.511 210.274 L 263.511 205.952 264.234 205.869 L 264.957 205.786 265.032 202.959 C 265.106 200.149,265.111 200.131,265.755 200.131 L 266.404 200.131 266.404 197.256 L 266.404 194.381 267.127 194.298 L 267.850 194.214 267.925 191.387 C 267.999 188.578,268.003 188.560,268.648 188.560 C 269.283 188.560,269.297 188.516,269.297 186.474 C 269.297 184.393,269.299 184.387,270.020 184.304 L 270.743 184.221 270.817 181.411 C 270.888 178.736,270.920 178.597,271.475 178.518 C 271.979 178.446,272.069 178.250,272.137 177.071 C 272.210 175.807,272.268 175.700,272.926 175.624 C 273.626 175.544,273.637 175.512,273.712 173.373 C 273.786 171.264,273.807 171.203,274.435 171.203 C 275.068 171.203,275.082 171.158,275.082 169.117 C 275.082 167.036,275.084 167.030,275.805 166.947 C 276.479 166.870,276.534 166.770,276.608 165.500 C 276.676 164.324,276.766 164.124,277.265 164.053 C 277.764 163.982,277.854 163.783,277.922 162.607 C 277.996 161.343,278.054 161.236,278.711 161.160 C 279.369 161.084,279.427 160.977,279.500 159.714 C 279.568 158.538,279.659 158.339,280.158 158.268 C 280.658 158.197,280.747 157.998,280.816 156.805 C 280.889 155.537,280.948 155.424,281.539 155.424 C 282.143 155.424,282.183 155.336,282.183 153.995 C 282.183 152.632,282.216 152.562,282.906 152.483 C 283.581 152.405,283.635 152.307,283.709 151.019 C 283.782 149.751,283.841 149.638,284.432 149.638 C 285.036 149.638,285.076 149.550,285.076 148.209 C 285.076 146.846,285.109 146.777,285.799 146.697 C 286.473 146.620,286.527 146.521,286.602 145.233 C 286.675 143.966,286.734 143.853,287.325 143.853 C 287.865 143.853,287.968 143.726,287.968 143.064 C 287.968 142.362,288.056 142.275,288.757 142.275 C 289.538 142.275,289.546 142.260,289.546 140.828 C 289.546 139.461,289.582 139.382,290.204 139.382 C 290.725 139.382,290.861 139.249,290.861 138.742 C 290.861 138.239,291.016 138.084,291.584 138.019 C 292.259 137.941,292.313 137.843,292.387 136.555 C 292.460 135.287,292.519 135.174,293.110 135.174 C 293.650 135.174,293.754 135.047,293.754 134.385 C 293.754 133.684,293.842 133.596,294.543 133.596 C 295.209 133.596,295.332 133.494,295.332 132.939 C 295.332 132.413,295.464 132.281,295.989 132.281 C 296.610 132.281,296.647 132.201,296.647 130.852 C 296.647 129.489,296.680 129.420,297.370 129.340 C 297.938 129.275,298.111 129.102,298.177 128.534 C 298.242 127.966,298.397 127.811,298.900 127.811 C 299.402 127.811,299.540 127.673,299.540 127.171 C 299.540 126.668,299.695 126.513,300.263 126.447 C 300.938 126.370,300.992 126.271,301.066 124.984 C 301.139 123.716,301.198 123.603,301.789 123.603 C 302.329 123.603,302.433 123.476,302.433 122.814 C 302.433 122.113,302.520 122.025,303.222 122.025 C 303.888 122.025,304.011 121.923,304.011 121.368 C 304.011 120.842,304.142 120.710,304.668 120.710 C 305.223 120.710,305.325 120.587,305.325 119.921 C 305.325 119.220,305.413 119.132,306.114 119.132 C 306.781 119.132,306.903 119.030,306.903 118.475 C 306.903 117.949,307.035 117.817,307.561 117.817 C 308.116 117.817,308.218 117.694,308.218 117.028 C 308.218 116.327,308.306 116.239,309.007 116.239 C 309.673 116.239,309.796 116.137,309.796 115.582 C 309.796 115.056,309.928 114.924,310.454 114.924 C 311.009 114.924,311.111 114.802,311.111 114.135 C 311.111 113.354,311.126 113.346,312.558 113.346 C 313.925 113.346,314.004 113.311,314.004 112.689 C 314.004 112.134,314.127 112.032,314.793 112.032 C 315.459 112.032,315.582 112.134,315.582 112.689 C 315.582 113.335,315.618 113.346,317.668 113.346 C 319.749 113.346,319.755 113.349,319.838 114.070 C 319.916 114.744,320.014 114.798,321.302 114.872 C 322.570 114.945,322.682 115.004,322.682 115.596 C 322.682 116.239,322.682 116.239,325.558 116.239 L 328.433 116.239 328.516 116.963 L 328.600 117.686 341.552 117.754 L 354.504 117.822 354.504 117.031 L 354.504 116.239 358.054 116.239 L 361.604 116.239 361.604 115.592 C 361.604 114.964,361.665 114.944,363.774 114.869 C 365.924 114.794,365.944 114.786,366.027 114.070 C 366.106 113.380,366.175 113.346,367.539 113.346 C 368.880 113.346,368.968 113.307,368.968 112.703 C 368.968 112.112,369.081 112.053,370.348 111.980 C 371.636 111.905,371.735 111.851,371.812 111.177 C 371.892 110.487,371.961 110.454,373.325 110.454 C 374.673 110.454,374.753 110.417,374.753 109.796 C 374.753 109.270,374.885 109.139,375.411 109.139 C 375.966 109.139,376.068 109.016,376.068 108.350 C 376.068 107.569,376.083 107.561,377.515 107.561 C 378.882 107.561,378.961 107.525,378.961 106.903 C 378.961 106.348,379.084 106.246,379.750 106.246 C 380.451 106.246,380.539 106.158,380.539 105.457 C 380.539 104.791,380.641 104.668,381.197 104.668 C 381.723 104.668,381.854 104.536,381.854 104.011 C 381.854 103.455,381.977 103.353,382.643 103.353 C 383.344 103.353,383.432 103.265,383.432 102.564 C 383.432 101.898,383.534 101.775,384.089 101.775 C 384.611 101.775,384.747 101.642,384.747 101.135 C 384.747 100.632,384.902 100.477,385.470 100.412 C 386.038 100.347,386.211 100.174,386.277 99.606 C 386.342 99.037,386.497 98.882,387.000 98.882 C 387.502 98.882,387.640 98.745,387.640 98.242 C 387.640 97.740,387.795 97.584,388.363 97.519 C 388.931 97.454,389.104 97.281,389.169 96.713 C 389.235 96.145,389.390 95.989,389.893 95.989 C 390.493 95.989,390.533 95.900,390.533 94.543 C 390.533 93.111,390.541 93.097,391.321 93.097 C 391.988 93.097,392.110 92.994,392.110 92.439 C 392.110 91.913,392.242 91.782,392.768 91.782 C 393.389 91.782,393.425 91.702,393.425 90.353 C 393.425 88.989,393.459 88.920,394.149 88.841 C 394.823 88.763,394.877 88.664,394.951 87.377 C 395.024 86.109,395.083 85.996,395.674 85.996 C 396.278 85.996,396.318 85.908,396.318 84.567 C 396.318 83.204,396.351 83.134,397.041 83.055 C 397.716 82.977,397.770 82.879,397.844 81.591 C 397.917 80.323,397.976 80.210,398.567 80.210 C 399.200 80.210,399.211 80.171,399.211 77.975 C 399.211 76.163,399.286 75.740,399.606 75.740 C 399.952 75.740,400.000 73.650,400.000 58.514 C 400.000 43.378,399.952 41.289,399.606 41.289 C 399.286 41.289,399.211 40.865,399.211 39.053 C 399.211 36.844,399.203 36.818,398.554 36.818 C 397.907 36.818,397.896 36.783,397.896 34.714 L 397.896 32.610 397.107 32.610 C 396.326 32.610,396.318 32.596,396.318 31.164 C 396.318 29.796,396.282 29.717,395.661 29.717 C 395.039 29.717,395.003 29.638,395.003 28.271 C 395.003 26.839,394.995 26.824,394.214 26.824 C 393.513 26.824,393.425 26.737,393.425 26.036 C 393.425 25.374,393.322 25.247,392.782 25.247 C 392.191 25.247,392.131 25.134,392.058 23.866 C 391.984 22.578,391.930 22.480,391.256 22.402 C 390.688 22.337,390.533 22.181,390.533 21.679 C 390.533 21.176,390.395 21.039,389.893 21.039 C 389.390 21.039,389.235 20.884,389.169 20.316 C 389.104 19.748,388.931 19.575,388.363 19.509 C 387.673 19.430,387.640 19.360,387.640 17.997 C 387.640 16.648,387.603 16.568,386.982 16.568 C 386.456 16.568,386.325 16.437,386.325 15.911 C 386.325 15.355,386.202 15.253,385.536 15.253 C 384.835 15.253,384.747 15.165,384.747 14.464 C 384.747 13.683,384.732 13.675,383.300 13.675 C 381.933 13.675,381.854 13.639,381.854 13.018 C 381.854 12.497,381.721 12.360,381.214 12.360 C 380.711 12.360,380.556 12.205,380.491 11.637 C 380.425 11.069,380.252 10.896,379.684 10.831 C 379.116 10.765,378.961 10.610,378.961 10.107 C 378.961 9.507,378.872 9.467,377.515 9.467 C 376.083 9.467,376.068 9.459,376.068 8.679 C 376.068 8.012,375.966 7.890,375.411 7.890 C 374.885 7.890,374.753 7.758,374.753 7.232 C 374.753 6.611,374.673 6.575,373.325 6.575 C 371.961 6.575,371.892 6.541,371.812 5.851 C 371.735 5.177,371.636 5.123,370.348 5.049 C 369.081 4.976,368.968 4.917,368.968 4.326 C 368.968 3.722,368.880 3.682,367.539 3.682 C 366.175 3.682,366.106 3.649,366.027 2.959 C 365.944 2.242,365.924 2.235,363.774 2.159 C 361.665 2.085,361.604 2.064,361.604 1.436 C 361.604 0.803,361.560 0.789,359.500 0.789 C 357.806 0.789,357.396 0.712,357.396 0.394 C 357.396 0.048,355.541 0.000,342.275 0.000 C 329.009 0.000,327.153 0.048,327.153 0.394 M49.836 122.814 C 49.672 123.557,49.589 123.603,48.397 123.603 C 47.266 123.603,47.114 123.673,46.966 124.260 C 46.818 124.852,46.669 124.918,45.491 124.918 C 44.211 124.918,44.181 124.936,44.181 125.707 C 44.181 126.408,44.094 126.496,43.393 126.496 C 42.726 126.496,42.604 126.598,42.604 127.153 C 42.604 127.679,42.472 127.811,41.946 127.811 C 41.391 127.811,41.289 127.933,41.289 128.600 C 41.289 129.301,41.201 129.389,40.500 129.389 C 39.833 129.389,39.711 129.491,39.711 130.046 C 39.711 130.572,39.579 130.703,39.053 130.703 C 38.498 130.703,38.396 130.826,38.396 131.492 C 38.396 132.194,38.308 132.281,37.607 132.281 C 36.826 132.281,36.818 132.296,36.818 133.728 C 36.818 135.095,36.782 135.174,36.160 135.174 L 35.503 135.174 35.503 138.067 L 35.503 140.960 34.709 140.960 L 33.915 140.960 33.986 146.680 L 34.057 152.400 34.780 152.483 C 35.501 152.566,35.503 152.572,35.503 154.653 C 35.503 156.703,35.514 156.739,36.160 156.739 C 36.782 156.739,36.818 156.818,36.818 158.185 C 36.818 159.617,36.826 159.632,37.607 159.632 C 38.388 159.632,38.396 159.646,38.396 161.078 C 38.396 162.435,38.435 162.525,39.036 162.525 C 39.538 162.525,39.694 162.680,39.759 163.248 C 39.824 163.816,39.997 163.989,40.565 164.054 C 41.133 164.120,41.289 164.275,41.289 164.777 C 41.289 165.280,41.426 165.417,41.929 165.417 C 42.431 165.417,42.586 165.573,42.652 166.141 C 42.717 166.709,42.890 166.882,43.458 166.947 C 44.026 167.012,44.181 167.168,44.181 167.670 C 44.181 168.263,44.278 168.310,45.503 168.310 C 46.761 168.310,46.832 168.348,46.982 169.099 L 47.140 169.888 49.211 169.888 C 51.245 169.888,51.282 169.900,51.282 170.546 L 51.282 171.203 58.514 171.203 L 65.746 171.203 65.746 170.546 C 65.746 169.899,65.781 169.888,67.850 169.888 L 69.954 169.888 69.954 169.099 C 69.954 168.318,69.969 168.310,71.400 168.310 C 72.757 168.310,72.847 168.271,72.847 167.670 C 72.847 167.168,73.002 167.012,73.570 166.947 C 74.138 166.882,74.311 166.709,74.376 166.141 C 74.456 165.451,74.525 165.417,75.889 165.417 L 77.318 165.417 77.318 163.971 C 77.318 162.604,77.353 162.525,77.975 162.525 C 78.496 162.525,78.632 162.392,78.632 161.885 C 78.632 161.382,78.788 161.227,79.356 161.161 C 80.030 161.084,80.084 160.985,80.158 159.698 C 80.231 158.430,80.290 158.317,80.882 158.317 C 81.486 158.317,81.525 158.229,81.525 156.888 C 81.525 155.525,81.559 155.455,82.249 155.376 L 82.972 155.293 83.041 146.680 L 83.110 138.067 82.318 138.067 L 81.525 138.067 81.525 135.832 C 81.525 133.623,81.518 133.596,80.868 133.596 C 80.342 133.596,80.210 133.465,80.210 132.939 C 80.210 132.384,80.088 132.281,79.421 132.281 C 78.640 132.281,78.632 132.267,78.632 130.835 C 78.632 129.478,78.593 129.389,77.992 129.389 C 77.490 129.389,77.335 129.233,77.269 128.665 C 77.204 128.097,77.031 127.924,76.463 127.859 C 75.895 127.794,75.740 127.638,75.740 127.136 C 75.740 126.535,75.650 126.496,74.293 126.496 C 72.861 126.496,72.847 126.488,72.847 125.707 C 72.847 125.041,72.745 124.918,72.189 124.918 C 71.663 124.918,71.532 124.786,71.532 124.260 C 71.532 123.611,71.506 123.603,69.297 123.603 L 67.061 123.603 67.061 122.814 L 67.061 122.025 58.535 122.025 L 50.009 122.025 49.836 122.814 M15.253 176.316 C 15.253 176.950,15.196 176.970,13.083 177.044 C 10.934 177.120,10.913 177.127,10.831 177.844 C 10.751 178.534,10.682 178.567,9.318 178.567 C 7.970 178.567,7.890 178.604,7.890 179.224 C 7.890 179.750,7.758 179.882,7.232 179.882 C 6.677 179.882,6.575 180.004,6.575 180.671 C 6.575 181.372,6.487 181.460,5.786 181.460 C 5.119 181.460,4.997 181.562,4.997 182.117 C 4.997 182.643,4.865 182.774,4.339 182.774 C 3.784 182.774,3.682 182.897,3.682 183.563 C 3.682 184.265,3.594 184.352,2.893 184.352 C 2.227 184.352,2.104 184.455,2.104 185.010 C 2.104 185.536,1.972 185.667,1.446 185.667 C 0.825 185.667,0.789 185.746,0.789 187.114 C 0.789 188.224,0.697 188.560,0.394 188.560 C 0.050 188.560,0.000 190.021,0.000 200.131 C 0.000 210.242,0.050 211.703,0.394 211.703 C 0.697 211.703,0.789 212.039,0.789 213.149 C 0.789 214.517,0.825 214.596,1.446 214.596 C 1.972 214.596,2.104 214.727,2.104 215.253 C 2.104 215.808,2.227 215.911,2.893 215.911 C 3.594 215.911,3.682 215.998,3.682 216.700 C 3.682 217.366,3.784 217.488,4.339 217.488 C 4.865 217.488,4.997 217.620,4.997 218.146 C 4.997 218.701,5.119 218.803,5.786 218.803 C 6.487 218.803,6.575 218.891,6.575 219.592 C 6.575 220.259,6.677 220.381,7.232 220.381 C 7.758 220.381,7.890 220.513,7.890 221.039 C 7.890 221.659,7.970 221.696,9.318 221.696 C 10.682 221.696,10.751 221.729,10.831 222.419 C 10.913 223.136,10.934 223.143,13.083 223.219 C 15.192 223.293,15.253 223.314,15.253 223.942 L 15.253 224.589 22.485 224.589 L 29.717 224.589 29.717 223.932 C 29.717 223.285,29.752 223.274,31.821 223.274 L 33.925 223.274 33.925 222.485 C 33.925 221.704,33.940 221.696,35.371 221.696 C 36.728 221.696,36.818 221.657,36.818 221.056 C 36.818 220.554,36.973 220.398,37.541 220.333 C 38.109 220.268,38.282 220.095,38.348 219.527 C 38.426 218.847,38.508 218.803,39.728 218.803 L 41.026 218.803 41.026 217.357 C 41.026 215.925,41.034 215.911,41.815 215.911 C 42.481 215.911,42.604 215.808,42.604 215.253 C 42.604 214.727,42.735 214.596,43.261 214.596 C 43.883 214.596,43.918 214.517,43.918 213.149 C 43.918 211.717,43.926 211.703,44.707 211.703 C 45.488 211.703,45.496 211.688,45.496 210.256 C 45.496 208.889,45.532 208.810,46.154 208.810 L 46.811 208.810 46.811 200.920 L 46.811 193.031 46.154 193.031 C 45.504 193.031,45.496 193.005,45.496 190.796 L 45.496 188.560 44.707 188.560 C 43.926 188.560,43.918 188.546,43.918 187.114 C 43.918 185.746,43.883 185.667,43.261 185.667 C 42.735 185.667,42.604 185.536,42.604 185.010 C 42.604 184.455,42.481 184.352,41.815 184.352 C 41.113 184.352,41.026 184.265,41.026 183.563 C 41.026 182.897,40.923 182.774,40.368 182.774 C 39.842 182.774,39.711 182.643,39.711 182.117 C 39.711 181.596,39.578 181.460,39.071 181.460 C 38.568 181.460,38.413 181.304,38.348 180.736 C 38.282 180.168,38.109 179.995,37.541 179.930 C 36.973 179.865,36.818 179.709,36.818 179.207 C 36.818 178.606,36.728 178.567,35.371 178.567 C 33.940 178.567,33.925 178.559,33.925 177.778 L 33.925 176.989 31.839 176.989 C 29.877 176.989,29.749 176.954,29.670 176.397 L 29.586 175.805 22.419 175.735 L 15.253 175.665 15.253 176.316 " stroke="none" fill="#ffffff" fill-rule="evenodd"></path><path id="path1" d="M327.153 0.394 C 327.153 0.714,326.729 0.789,324.918 0.789 C 322.709 0.789,322.682 0.797,322.682 1.446 C 322.682 2.093,322.647 2.104,320.579 2.104 L 318.475 2.104 318.475 2.893 C 318.475 3.674,318.460 3.682,317.028 3.682 C 315.661 3.682,315.582 3.718,315.582 4.339 C 315.582 4.961,315.503 4.997,314.135 4.997 C 312.704 4.997,312.689 5.005,312.689 5.786 C 312.689 6.567,312.674 6.575,311.243 6.575 C 309.875 6.575,309.796 6.610,309.796 7.232 C 309.796 7.854,309.717 7.890,308.350 7.890 C 306.925 7.890,306.903 7.901,306.903 8.661 C 306.903 9.307,306.786 9.446,306.180 9.516 C 305.662 9.575,305.433 9.767,305.373 10.191 C 305.312 10.619,305.112 10.782,304.650 10.782 C 304.118 10.782,304.011 10.912,304.011 11.554 C 304.011 12.200,303.893 12.339,303.287 12.409 C 302.775 12.468,302.540 12.661,302.482 13.070 C 302.411 13.569,302.211 13.660,301.035 13.728 C 299.766 13.801,299.666 13.857,299.588 14.530 C 299.523 15.098,299.368 15.253,298.865 15.253 C 298.358 15.253,298.225 15.389,298.225 15.911 C 298.225 16.429,298.091 16.568,297.596 16.568 C 296.866 16.568,296.647 16.997,296.647 18.430 C 296.647 19.354,296.579 19.461,295.989 19.461 C 295.434 19.461,295.332 19.584,295.332 20.250 C 295.332 20.914,295.229 21.039,294.680 21.039 C 294.203 21.039,293.983 21.216,293.862 21.696 C 293.744 22.168,293.520 22.354,293.068 22.354 C 292.481 22.354,292.439 22.450,292.439 23.800 C 292.439 25.155,292.399 25.247,291.803 25.247 C 291.309 25.247,291.127 25.424,290.993 26.036 C 290.858 26.647,290.676 26.824,290.183 26.824 C 289.587 26.824,289.546 26.916,289.546 28.271 C 289.546 29.620,289.504 29.717,288.920 29.717 C 288.236 29.717,287.978 30.271,287.972 31.755 C 287.969 32.491,287.877 32.610,287.311 32.610 C 286.664 32.610,286.654 32.645,286.654 34.714 C 286.654 36.753,286.634 36.818,286.029 36.818 C 285.306 36.818,285.076 37.558,285.076 39.875 C 285.076 41.208,285.038 41.289,284.418 41.289 L 283.761 41.289 283.761 44.839 L 283.761 48.389 283.103 48.389 L 282.446 48.389 282.446 57.725 L 282.446 67.061 283.103 67.061 L 283.761 67.061 283.761 71.395 L 283.761 75.730 283.103 75.895 C 282.631 76.013,282.446 76.237,282.446 76.689 C 282.446 77.212,282.313 77.318,281.657 77.318 C 280.992 77.318,280.868 77.420,280.868 77.970 C 280.868 78.447,280.691 78.667,280.210 78.787 C 279.738 78.906,279.553 79.130,279.553 79.581 C 279.553 80.105,279.421 80.210,278.764 80.210 C 278.107 80.210,277.975 80.316,277.975 80.839 C 277.975 81.291,277.790 81.515,277.318 81.633 C 276.837 81.754,276.660 81.974,276.660 82.451 C 276.660 83.000,276.536 83.103,275.871 83.103 C 275.214 83.103,275.082 83.209,275.082 83.732 C 275.082 84.184,274.897 84.408,274.425 84.526 C 273.944 84.647,273.767 84.867,273.767 85.344 C 273.767 85.893,273.643 85.996,272.978 85.996 C 272.318 85.996,272.189 86.100,272.189 86.635 C 272.189 87.098,272.026 87.298,271.598 87.358 C 271.174 87.419,270.982 87.648,270.923 88.166 C 270.853 88.771,270.714 88.889,270.068 88.889 C 269.426 88.889,269.297 88.996,269.297 89.528 C 269.297 89.991,269.133 90.190,268.705 90.251 C 268.281 90.311,268.089 90.541,268.030 91.059 C 267.960 91.664,267.821 91.782,267.175 91.782 C 266.533 91.782,266.404 91.889,266.404 92.421 C 266.404 92.884,266.240 93.083,265.812 93.144 C 265.299 93.217,265.210 93.407,265.142 94.578 C 265.069 95.840,265.012 95.939,264.287 96.084 C 263.673 96.207,263.511 96.378,263.511 96.903 C 263.511 97.436,263.381 97.567,262.853 97.567 C 262.332 97.567,262.196 97.700,262.196 98.207 C 262.196 98.710,262.041 98.865,261.473 98.931 C 260.905 98.996,260.732 99.169,260.666 99.737 C 260.601 100.305,260.446 100.460,259.943 100.460 C 259.343 100.460,259.303 100.550,259.303 101.907 C 259.303 103.338,259.295 103.353,258.514 103.353 C 257.854 103.353,257.725 103.457,257.725 103.992 C 257.725 104.455,257.562 104.655,257.133 104.715 C 256.710 104.776,256.518 105.005,256.459 105.523 C 256.389 106.128,256.250 106.246,255.604 106.246 C 254.844 106.246,254.832 106.268,254.832 107.692 C 254.832 109.060,254.796 109.139,254.175 109.139 C 253.654 109.139,253.517 109.271,253.517 109.779 C 253.517 110.281,253.362 110.437,252.794 110.502 C 252.121 110.579,252.066 110.679,251.992 111.949 C 251.924 113.125,251.833 113.325,251.335 113.396 C 250.925 113.454,250.732 113.689,250.673 114.201 C 250.603 114.807,250.464 114.924,249.818 114.924 C 249.058 114.924,249.047 114.946,249.047 116.371 C 249.047 117.738,249.011 117.817,248.389 117.817 C 247.768 117.817,247.732 117.896,247.732 119.264 C 247.732 120.695,247.724 120.710,246.943 120.710 C 246.277 120.710,246.154 120.812,246.154 121.368 C 246.154 121.893,246.022 122.025,245.496 122.025 C 244.876 122.025,244.839 122.105,244.839 123.454 C 244.839 124.817,244.806 124.887,244.116 124.966 C 243.441 125.044,243.387 125.142,243.313 126.430 C 243.240 127.698,243.181 127.811,242.590 127.811 C 241.986 127.811,241.946 127.899,241.946 129.240 C 241.946 130.603,241.913 130.672,241.223 130.752 C 240.548 130.829,240.494 130.928,240.420 132.216 C 240.347 133.484,240.288 133.596,239.697 133.596 C 239.093 133.596,239.053 133.685,239.053 135.025 C 239.053 136.389,239.020 136.458,238.330 136.537 C 237.656 136.615,237.601 136.714,237.527 138.001 C 237.454 139.269,237.395 139.382,236.804 139.382 C 236.200 139.382,236.160 139.470,236.160 140.811 C 236.160 142.174,236.127 142.244,235.437 142.323 C 234.721 142.406,234.713 142.426,234.638 144.576 C 234.563 146.685,234.543 146.746,233.914 146.746 C 233.307 146.746,233.268 146.832,233.268 148.175 C 233.268 149.538,233.234 149.607,232.544 149.687 C 231.832 149.769,231.820 149.802,231.744 151.808 C 231.671 153.764,231.642 153.846,231.035 153.846 C 230.457 153.846,230.395 153.726,230.323 152.465 C 230.249 151.178,230.195 151.079,229.520 151.002 C 228.830 150.922,228.797 150.853,228.797 149.489 C 228.797 148.141,228.760 148.060,228.139 148.060 C 227.613 148.060,227.482 147.929,227.482 147.403 C 227.482 146.848,227.359 146.746,226.693 146.746 C 225.912 146.746,225.904 146.731,225.904 145.299 C 225.904 143.942,225.864 143.853,225.264 143.853 C 224.761 143.853,224.606 143.698,224.541 143.130 C 224.475 142.561,224.302 142.388,223.734 142.323 C 223.044 142.244,223.011 142.174,223.011 140.811 C 223.011 139.462,222.974 139.382,222.354 139.382 C 221.828 139.382,221.696 139.250,221.696 138.725 C 221.696 138.169,221.574 138.067,220.907 138.067 C 220.126 138.067,220.118 138.052,220.118 136.621 C 220.118 135.264,220.079 135.174,219.478 135.174 C 218.976 135.174,218.821 135.019,218.755 134.451 C 218.690 133.883,218.517 133.710,217.949 133.645 C 217.381 133.579,217.226 133.424,217.226 132.921 C 217.226 132.419,217.088 132.281,216.586 132.281 C 216.083 132.281,215.928 132.126,215.862 131.558 C 215.797 130.990,215.624 130.817,215.056 130.752 C 214.488 130.686,214.333 130.531,214.333 130.029 C 214.333 129.526,214.195 129.389,213.693 129.389 C 213.190 129.389,213.035 129.233,212.969 128.665 C 212.904 128.097,212.731 127.924,212.163 127.859 C 211.595 127.794,211.440 127.638,211.440 127.136 C 211.440 126.633,211.303 126.496,210.800 126.496 C 210.297 126.496,210.142 126.341,210.077 125.773 C 210.011 125.204,209.838 125.031,209.270 124.966 C 208.702 124.901,208.547 124.746,208.547 124.243 C 208.547 123.740,208.410 123.603,207.907 123.603 C 207.404 123.603,207.249 123.448,207.184 122.880 C 207.118 122.312,206.945 122.139,206.377 122.073 C 205.809 122.008,205.654 121.853,205.654 121.350 C 205.654 120.847,205.517 120.710,205.014 120.710 C 204.512 120.710,204.356 120.555,204.291 119.987 C 204.226 119.419,204.053 119.246,203.485 119.180 C 202.917 119.115,202.761 118.960,202.761 118.457 C 202.761 117.955,202.624 117.817,202.121 117.817 C 201.619 117.817,201.463 117.662,201.398 117.094 C 201.321 116.419,201.222 116.365,199.934 116.291 C 198.666 116.218,198.554 116.159,198.554 115.568 C 198.554 115.061,198.417 114.924,197.914 114.924 C 197.411 114.924,197.256 114.769,197.190 114.201 C 197.125 113.633,196.952 113.460,196.384 113.395 C 195.816 113.329,195.661 113.174,195.661 112.672 C 195.661 112.072,195.570 112.032,194.232 112.032 C 192.868 112.032,192.799 111.998,192.720 111.308 C 192.661 110.797,192.467 110.561,192.061 110.503 C 191.702 110.452,191.454 110.204,191.403 109.846 C 191.333 109.351,191.131 109.259,189.957 109.191 C 188.693 109.118,188.586 109.060,188.511 108.402 C 188.435 107.745,188.328 107.686,187.065 107.613 C 185.889 107.545,185.689 107.455,185.618 106.956 C 185.547 106.457,185.348 106.367,184.171 106.298 C 182.908 106.225,182.801 106.167,182.725 105.510 C 182.649 104.852,182.542 104.794,181.279 104.721 C 180.103 104.653,179.903 104.562,179.832 104.063 C 179.761 103.563,179.562 103.474,178.369 103.405 C 177.120 103.333,176.989 103.267,176.989 102.710 C 176.989 101.923,176.570 101.775,174.337 101.775 C 172.572 101.775,172.518 101.756,172.518 101.118 C 172.518 100.471,172.483 100.460,170.414 100.460 C 168.370 100.460,168.310 100.442,168.310 99.831 C 168.310 98.966,167.950 98.882,164.213 98.882 L 160.947 98.882 160.947 98.225 L 160.947 97.567 155.179 97.567 L 149.410 97.567 149.327 96.844 L 149.244 96.121 140.991 96.051 C 132.419 95.979,132.018 96.025,132.018 97.074 C 132.018 97.541,131.720 97.567,126.364 97.567 L 120.710 97.567 120.710 98.217 L 120.710 98.867 117.094 98.941 L 113.478 99.014 113.395 99.737 L 113.312 100.460 110.436 100.460 C 107.561 100.460,107.561 100.460,107.561 101.104 C 107.561 101.695,107.448 101.754,106.180 101.827 C 104.892 101.901,104.794 101.955,104.716 102.630 C 104.651 103.198,104.496 103.353,103.993 103.353 C 103.490 103.353,103.353 103.490,103.353 103.993 C 103.353 104.496,103.198 104.651,102.630 104.716 C 102.062 104.782,101.889 104.955,101.823 105.523 C 101.758 106.091,101.603 106.246,101.100 106.246 C 100.598 106.246,100.460 106.383,100.460 106.886 C 100.460 107.389,100.305 107.544,99.737 107.609 C 99.169 107.674,98.996 107.847,98.931 108.416 C 98.865 108.984,98.710 109.139,98.207 109.139 C 97.607 109.139,97.567 109.228,97.567 110.585 C 97.567 112.018,97.560 112.032,96.775 112.032 L 95.983 112.032 96.052 122.091 L 96.121 132.150 96.844 132.233 C 97.534 132.313,97.567 132.382,97.567 133.745 C 97.567 135.086,97.607 135.174,98.211 135.174 C 98.802 135.174,98.861 135.287,98.934 136.555 C 99.008 137.843,99.062 137.941,99.737 138.019 C 100.305 138.084,100.460 138.239,100.460 138.742 C 100.460 139.245,100.598 139.382,101.100 139.382 C 101.603 139.382,101.758 139.537,101.823 140.105 C 101.901 140.780,102.000 140.834,103.287 140.908 C 104.555 140.981,104.668 141.040,104.668 141.631 C 104.668 142.171,104.795 142.275,105.457 142.275 C 106.158 142.275,106.246 142.362,106.246 143.064 L 106.246 143.853 108.350 143.853 C 110.419 143.853,110.454 143.864,110.454 144.510 L 110.454 145.168 117.686 145.168 L 124.918 145.168 124.918 144.510 L 124.918 143.853 128.468 143.853 L 132.018 143.853 132.018 143.064 L 132.018 142.275 140.022 142.275 L 148.026 142.275 148.109 142.998 L 148.192 143.721 151.019 143.796 C 153.829 143.870,153.846 143.875,153.846 144.519 C 153.846 145.154,153.890 145.168,155.933 145.168 C 158.013 145.168,158.019 145.170,158.102 145.891 C 158.180 146.565,158.278 146.619,159.566 146.694 C 160.834 146.767,160.947 146.826,160.947 147.417 C 160.947 148.021,161.035 148.060,162.376 148.060 C 163.739 148.060,163.808 148.094,163.888 148.784 C 163.965 149.458,164.064 149.512,165.352 149.586 C 166.620 149.659,166.732 149.718,166.732 150.310 C 166.732 150.846,166.861 150.953,167.504 150.953 C 168.150 150.953,168.289 151.071,168.359 151.677 C 168.436 152.351,168.535 152.405,169.822 152.479 C 171.090 152.552,171.203 152.611,171.203 153.202 C 171.203 153.709,171.339 153.846,171.843 153.846 C 172.346 153.846,172.501 154.001,172.566 154.569 C 172.632 155.137,172.805 155.310,173.373 155.376 C 173.941 155.441,174.096 155.596,174.096 156.099 C 174.096 156.602,174.233 156.739,174.736 156.739 C 175.239 156.739,175.394 156.894,175.459 157.462 C 175.525 158.030,175.698 158.203,176.266 158.269 C 176.834 158.334,176.989 158.489,176.989 158.992 C 176.989 159.495,177.126 159.632,177.629 159.632 C 178.131 159.632,178.287 159.787,178.352 160.355 C 178.417 160.923,178.590 161.096,179.158 161.161 C 179.726 161.227,179.882 161.382,179.882 161.885 C 179.882 162.387,180.019 162.525,180.522 162.525 C 181.024 162.525,181.179 162.680,181.245 163.248 C 181.310 163.812,181.484 163.989,182.038 164.053 C 182.696 164.129,182.754 164.236,182.827 165.499 C 182.896 166.686,182.983 166.875,183.498 166.948 C 183.926 167.009,184.089 167.209,184.089 167.671 C 184.089 168.206,184.218 168.310,184.878 168.310 C 185.659 168.310,185.667 168.325,185.667 169.757 C 185.667 171.114,185.707 171.203,186.307 171.203 C 186.810 171.203,186.965 171.358,187.031 171.926 C 187.095 172.491,187.270 172.668,187.824 172.732 C 188.481 172.807,188.540 172.914,188.613 174.178 C 188.681 175.364,188.769 175.553,189.283 175.626 C 189.712 175.687,189.875 175.887,189.875 176.350 C 189.875 176.885,190.004 176.989,190.664 176.989 C 191.445 176.989,191.453 177.003,191.453 178.435 C 191.453 179.803,191.489 179.882,192.110 179.882 C 192.732 179.882,192.768 179.961,192.768 181.328 C 192.768 182.760,192.776 182.774,193.557 182.774 C 194.338 182.774,194.346 182.789,194.346 184.221 C 194.346 185.588,194.382 185.667,195.003 185.667 C 195.625 185.667,195.661 185.746,195.661 187.114 C 195.661 188.546,195.669 188.560,196.450 188.560 C 197.231 188.560,197.239 188.575,197.239 190.007 C 197.239 191.374,197.275 191.453,197.896 191.453 C 198.518 191.453,198.554 191.532,198.554 192.899 C 198.554 194.331,198.562 194.346,199.343 194.346 L 200.131 194.346 200.131 196.450 C 200.131 198.519,200.142 198.554,200.789 198.554 C 201.439 198.554,201.446 198.580,201.446 200.789 L 201.446 203.024 202.235 203.024 C 203.016 203.024,203.024 203.039,203.024 204.471 C 203.024 205.838,203.060 205.917,203.682 205.917 C 204.328 205.917,204.339 205.952,204.339 208.021 C 204.339 210.090,204.350 210.125,204.997 210.125 C 205.616 210.125,205.654 210.206,205.654 211.538 C 205.654 213.856,205.885 214.596,206.607 214.596 C 207.227 214.596,207.232 214.619,207.232 217.488 L 207.232 220.381 207.890 220.381 C 208.523 220.381,208.547 220.444,208.547 222.069 C 208.547 224.174,208.703 224.589,209.496 224.589 C 210.121 224.589,210.125 224.606,210.125 227.482 L 210.125 230.375 210.782 230.375 L 211.440 230.375 211.443 233.465 C 211.448 237.237,211.559 237.738,212.391 237.738 C 213.013 237.738,213.018 237.759,213.018 240.631 L 213.018 243.524 213.675 243.524 L 214.333 243.524 214.333 246.658 C 214.333 250.259,214.420 250.625,215.281 250.625 C 215.869 250.625,215.911 250.721,215.911 252.071 C 215.911 253.430,215.949 253.517,216.554 253.517 C 217.145 253.517,217.205 253.630,217.278 254.898 C 217.352 256.186,217.406 256.284,218.080 256.362 C 218.686 256.432,218.803 256.571,218.803 257.217 C 218.803 257.858,218.911 257.988,219.443 257.988 C 219.905 257.988,220.105 258.152,220.166 258.580 C 220.226 259.004,220.455 259.195,220.973 259.255 C 221.579 259.325,221.696 259.463,221.696 260.110 C 221.696 260.869,221.718 260.881,223.143 260.881 C 224.510 260.881,224.589 260.917,224.589 261.538 C 224.589 262.160,224.668 262.196,226.036 262.196 C 227.146 262.196,227.482 262.288,227.482 262.590 C 227.482 262.934,228.695 262.985,236.818 262.985 C 244.941 262.985,246.154 262.934,246.154 262.590 C 246.154 262.288,246.490 262.196,247.600 262.196 C 248.968 262.196,249.047 262.160,249.047 261.538 C 249.047 260.917,249.126 260.881,250.493 260.881 C 251.925 260.881,251.940 260.873,251.940 260.092 C 251.940 259.391,252.027 259.303,252.728 259.303 C 253.395 259.303,253.517 259.201,253.517 258.646 C 253.517 258.120,253.649 257.988,254.175 257.988 C 254.730 257.988,254.832 257.865,254.832 257.199 C 254.832 256.498,254.920 256.410,255.621 256.410 C 256.402 256.410,256.410 256.396,256.410 254.964 C 256.410 253.596,256.446 253.517,257.068 253.517 C 257.689 253.517,257.725 253.439,257.725 252.071 C 257.725 250.639,257.733 250.625,258.514 250.625 L 259.303 250.625 259.303 244.181 L 259.303 237.738 259.961 237.738 L 260.618 237.738 260.618 230.524 L 260.618 223.309 261.341 223.226 L 262.064 223.143 262.137 218.869 L 262.209 214.596 262.860 214.596 L 263.511 214.596 263.511 210.274 L 263.511 205.952 264.234 205.869 L 264.957 205.786 265.032 202.959 C 265.106 200.149,265.111 200.131,265.755 200.131 L 266.404 200.131 266.404 197.256 L 266.404 194.381 267.127 194.298 L 267.850 194.214 267.925 191.387 C 267.999 188.578,268.003 188.560,268.648 188.560 C 269.283 188.560,269.297 188.516,269.297 186.474 C 269.297 184.393,269.299 184.387,270.020 184.304 L 270.743 184.221 270.817 181.411 C 270.888 178.736,270.920 178.597,271.475 178.518 C 271.979 178.446,272.069 178.250,272.137 177.071 C 272.210 175.807,272.268 175.700,272.926 175.624 C 273.626 175.544,273.637 175.512,273.712 173.373 C 273.786 171.264,273.807 171.203,274.435 171.203 C 275.068 171.203,275.082 171.158,275.082 169.117 C 275.082 167.036,275.084 167.030,275.805 166.947 C 276.479 166.870,276.534 166.770,276.608 165.500 C 276.676 164.324,276.766 164.124,277.265 164.053 C 277.764 163.982,277.854 163.783,277.922 162.607 C 277.996 161.343,278.054 161.236,278.711 161.160 C 279.369 161.084,279.427 160.977,279.500 159.714 C 279.568 158.538,279.659 158.339,280.158 158.268 C 280.658 158.197,280.747 157.998,280.816 156.805 C 280.889 155.537,280.948 155.424,281.539 155.424 C 282.143 155.424,282.183 155.336,282.183 153.995 C 282.183 152.632,282.216 152.562,282.906 152.483 C 283.581 152.405,283.635 152.307,283.709 151.019 C 283.782 149.751,283.841 149.638,284.432 149.638 C 285.036 149.638,285.076 149.550,285.076 148.209 C 285.076 146.846,285.109 146.777,285.799 146.697 C 286.473 146.620,286.527 146.521,286.602 145.233 C 286.675 143.966,286.734 143.853,287.325 143.853 C 287.865 143.853,287.968 143.726,287.968 143.064 C 287.968 142.362,288.056 142.275,288.757 142.275 C 289.538 142.275,289.546 142.260,289.546 140.828 C 289.546 139.461,289.582 139.382,290.204 139.382 C 290.725 139.382,290.861 139.249,290.861 138.742 C 290.861 138.239,291.016 138.084,291.584 138.019 C 292.259 137.941,292.313 137.843,292.387 136.555 C 292.460 135.287,292.519 135.174,293.110 135.174 C 293.650 135.174,293.754 135.047,293.754 134.385 C 293.754 133.684,293.842 133.596,294.543 133.596 C 295.209 133.596,295.332 133.494,295.332 132.939 C 295.332 132.413,295.464 132.281,295.989 132.281 C 296.610 132.281,296.647 132.201,296.647 130.852 C 296.647 129.489,296.680 129.420,297.370 129.340 C 297.938 129.275,298.111 129.102,298.177 128.534 C 298.242 127.966,298.397 127.811,298.900 127.811 C 299.402 127.811,299.540 127.673,299.540 127.171 C 299.540 126.668,299.695 126.513,300.263 126.447 C 300.938 126.370,300.992 126.271,301.066 124.984 C 301.139 123.716,301.198 123.603,301.789 123.603 C 302.329 123.603,302.433 123.476,302.433 122.814 C 302.433 122.113,302.520 122.025,303.222 122.025 C 303.888 122.025,304.011 121.923,304.011 121.368 C 304.011 120.842,304.142 120.710,304.668 120.710 C 305.223 120.710,305.325 120.587,305.325 119.921 C 305.325 119.220,305.413 119.132,306.114 119.132 C 306.781 119.132,306.903 119.030,306.903 118.475 C 306.903 117.949,307.035 117.817,307.561 117.817 C 308.116 117.817,308.218 117.694,308.218 117.028 C 308.218 116.327,308.306 116.239,309.007 116.239 C 309.673 116.239,309.796 116.137,309.796 115.582 C 309.796 115.056,309.928 114.924,310.454 114.924 C 311.009 114.924,311.111 114.802,311.111 114.135 C 311.111 113.354,311.126 113.346,312.558 113.346 C 313.925 113.346,314.004 113.311,314.004 112.689 C 314.004 112.134,314.127 112.032,314.793 112.032 C 315.459 112.032,315.582 112.134,315.582 112.689 C 315.582 113.335,315.618 113.346,317.668 113.346 C 319.749 113.346,319.755 113.349,319.838 114.070 C 319.916 114.744,320.014 114.798,321.302 114.872 C 322.570 114.945,322.682 115.004,322.682 115.596 C 322.682 116.239,322.682 116.239,325.558 116.239 L 328.433 116.239 328.516 116.963 L 328.600 117.686 341.552 117.754 L 354.504 117.822 354.504 117.031 L 354.504 116.239 358.054 116.239 L 361.604 116.239 361.604 115.592 C 361.604 114.964,361.665 114.944,363.774 114.869 C 365.924 114.794,365.944 114.786,366.027 114.070 C 366.106 113.380,366.175 113.346,367.539 113.346 C 368.880 113.346,368.968 113.307,368.968 112.703 C 368.968 112.112,369.081 112.053,370.348 111.980 C 371.636 111.905,371.735 111.851,371.812 111.177 C 371.892 110.487,371.961 110.454,373.325 110.454 C 374.673 110.454,374.753 110.417,374.753 109.796 C 374.753 109.270,374.885 109.139,375.411 109.139 C 375.966 109.139,376.068 109.016,376.068 108.350 C 376.068 107.569,376.083 107.561,377.515 107.561 C 378.882 107.561,378.961 107.525,378.961 106.903 C 378.961 106.348,379.084 106.246,379.750 106.246 C 380.451 106.246,380.539 106.158,380.539 105.457 C 380.539 104.791,380.641 104.668,381.197 104.668 C 381.723 104.668,381.854 104.536,381.854 104.011 C 381.854 103.455,381.977 103.353,382.643 103.353 C 383.344 103.353,383.432 103.265,383.432 102.564 C 383.432 101.898,383.534 101.775,384.089 101.775 C 384.611 101.775,384.747 101.642,384.747 101.135 C 384.747 100.632,384.902 100.477,385.470 100.412 C 386.038 100.347,386.211 100.174,386.277 99.606 C 386.342 99.037,386.497 98.882,387.000 98.882 C 387.502 98.882,387.640 98.745,387.640 98.242 C 387.640 97.740,387.795 97.584,388.363 97.519 C 388.931 97.454,389.104 97.281,389.169 96.713 C 389.235 96.145,389.390 95.989,389.893 95.989 C 390.493 95.989,390.533 95.900,390.533 94.543 C 390.533 93.111,390.541 93.097,391.321 93.097 C 391.988 93.097,392.110 92.994,392.110 92.439 C 392.110 91.913,392.242 91.782,392.768 91.782 C 393.389 91.782,393.425 91.702,393.425 90.353 C 393.425 88.989,393.459 88.920,394.149 88.841 C 394.823 88.763,394.877 88.664,394.951 87.377 C 395.024 86.109,395.083 85.996,395.674 85.996 C 396.278 85.996,396.318 85.908,396.318 84.567 C 396.318 83.204,396.351 83.134,397.041 83.055 C 397.716 82.977,397.770 82.879,397.844 81.591 C 397.917 80.323,397.976 80.210,398.567 80.210 C 399.200 80.210,399.211 80.171,399.211 77.975 C 399.211 76.163,399.286 75.740,399.606 75.740 C 399.952 75.740,400.000 73.650,400.000 58.514 C 400.000 43.378,399.952 41.289,399.606 41.289 C 399.286 41.289,399.211 40.865,399.211 39.053 C 399.211 36.844,399.203 36.818,398.554 36.818 C 397.907 36.818,397.896 36.783,397.896 34.714 L 397.896 32.610 397.107 32.610 C 396.326 32.610,396.318 32.596,396.318 31.164 C 396.318 29.796,396.282 29.717,395.661 29.717 C 395.039 29.717,395.003 29.638,395.003 28.271 C 395.003 26.839,394.995 26.824,394.214 26.824 C 393.513 26.824,393.425 26.737,393.425 26.036 C 393.425 25.374,393.322 25.247,392.782 25.247 C 392.191 25.247,392.131 25.134,392.058 23.866 C 391.984 22.578,391.930 22.480,391.256 22.402 C 390.688 22.337,390.533 22.181,390.533 21.679 C 390.533 21.176,390.395 21.039,389.893 21.039 C 389.390 21.039,389.235 20.884,389.169 20.316 C 389.104 19.748,388.931 19.575,388.363 19.509 C 387.673 19.430,387.640 19.360,387.640 17.997 C 387.640 16.648,387.603 16.568,386.982 16.568 C 386.456 16.568,386.325 16.437,386.325 15.911 C 386.325 15.355,386.202 15.253,385.536 15.253 C 384.835 15.253,384.747 15.165,384.747 14.464 C 384.747 13.683,384.732 13.675,383.300 13.675 C 381.933 13.675,381.854 13.639,381.854 13.018 C 381.854 12.497,381.721 12.360,381.214 12.360 C 380.711 12.360,380.556 12.205,380.491 11.637 C 380.425 11.069,380.252 10.896,379.684 10.831 C 379.116 10.765,378.961 10.610,378.961 10.107 C 378.961 9.507,378.872 9.467,377.515 9.467 C 376.083 9.467,376.068 9.459,376.068 8.679 C 376.068 8.012,375.966 7.890,375.411 7.890 C 374.885 7.890,374.753 7.758,374.753 7.232 C 374.753 6.611,374.673 6.575,373.325 6.575 C 371.961 6.575,371.892 6.541,371.812 5.851 C 371.735 5.177,371.636 5.123,370.348 5.049 C 369.081 4.976,368.968 4.917,368.968 4.326 C 368.968 3.722,368.880 3.682,367.539 3.682 C 366.175 3.682,366.106 3.649,366.027 2.959 C 365.944 2.242,365.924 2.235,363.774 2.159 C 361.665 2.085,361.604 2.064,361.604 1.436 C 361.604 0.803,361.560 0.789,359.500 0.789 C 357.806 0.789,357.396 0.712,357.396 0.394 C 357.396 0.048,355.541 0.000,342.275 0.000 C 329.009 0.000,327.153 0.048,327.153 0.394 M49.836 122.814 C 49.672 123.557,49.589 123.603,48.397 123.603 C 47.266 123.603,47.114 123.673,46.966 124.260 C 46.818 124.852,46.669 124.918,45.491 124.918 C 44.211 124.918,44.181 124.936,44.181 125.707 C 44.181 126.408,44.094 126.496,43.393 126.496 C 42.726 126.496,42.604 126.598,42.604 127.153 C 42.604 127.679,42.472 127.811,41.946 127.811 C 41.391 127.811,41.289 127.933,41.289 128.600 C 41.289 129.301,41.201 129.389,40.500 129.389 C 39.833 129.389,39.711 129.491,39.711 130.046 C 39.711 130.572,39.579 130.703,39.053 130.703 C 38.498 130.703,38.396 130.826,38.396 131.492 C 38.396 132.194,38.308 132.281,37.607 132.281 C 36.826 132.281,36.818 132.296,36.818 133.728 C 36.818 135.095,36.782 135.174,36.160 135.174 L 35.503 135.174 35.503 138.067 L 35.503 140.960 34.709 140.960 L 33.915 140.960 33.986 146.680 L 34.057 152.400 34.780 152.483 C 35.501 152.566,35.503 152.572,35.503 154.653 C 35.503 156.703,35.514 156.739,36.160 156.739 C 36.782 156.739,36.818 156.818,36.818 158.185 C 36.818 159.617,36.826 159.632,37.607 159.632 C 38.388 159.632,38.396 159.646,38.396 161.078 C 38.396 162.435,38.435 162.525,39.036 162.525 C 39.538 162.525,39.694 162.680,39.759 163.248 C 39.824 163.816,39.997 163.989,40.565 164.054 C 41.133 164.120,41.289 164.275,41.289 164.777 C 41.289 165.280,41.426 165.417,41.929 165.417 C 42.431 165.417,42.586 165.573,42.652 166.141 C 42.717 166.709,42.890 166.882,43.458 166.947 C 44.026 167.012,44.181 167.168,44.181 167.670 C 44.181 168.263,44.278 168.310,45.503 168.310 C 46.761 168.310,46.832 168.348,46.982 169.099 L 47.140 169.888 49.211 169.888 C 51.245 169.888,51.282 169.900,51.282 170.546 L 51.282 171.203 58.514 171.203 L 65.746 171.203 65.746 170.546 C 65.746 169.899,65.781 169.888,67.850 169.888 L 69.954 169.888 69.954 169.099 C 69.954 168.318,69.969 168.310,71.400 168.310 C 72.757 168.310,72.847 168.271,72.847 167.670 C 72.847 167.168,73.002 167.012,73.570 166.947 C 74.138 166.882,74.311 166.709,74.376 166.141 C 74.456 165.451,74.525 165.417,75.889 165.417 L 77.318 165.417 77.318 163.971 C 77.318 162.604,77.353 162.525,77.975 162.525 C 78.496 162.525,78.632 162.392,78.632 161.885 C 78.632 161.382,78.788 161.227,79.356 161.161 C 80.030 161.084,80.084 160.985,80.158 159.698 C 80.231 158.430,80.290 158.317,80.882 158.317 C 81.486 158.317,81.525 158.229,81.525 156.888 C 81.525 155.525,81.559 155.455,82.249 155.376 L 82.972 155.293 83.041 146.680 L 83.110 138.067 82.318 138.067 L 81.525 138.067 81.525 135.832 C 81.525 133.623,81.518 133.596,80.868 133.596 C 80.342 133.596,80.210 133.465,80.210 132.939 C 80.210 132.384,80.088 132.281,79.421 132.281 C 78.640 132.281,78.632 132.267,78.632 130.835 C 78.632 129.478,78.593 129.389,77.992 129.389 C 77.490 129.389,77.335 129.233,77.269 128.665 C 77.204 128.097,77.031 127.924,76.463 127.859 C 75.895 127.794,75.740 127.638,75.740 127.136 C 75.740 126.535,75.650 126.496,74.293 126.496 C 72.861 126.496,72.847 126.488,72.847 125.707 C 72.847 125.041,72.745 124.918,72.189 124.918 C 71.663 124.918,71.532 124.786,71.532 124.260 C 71.532 123.611,71.506 123.603,69.297 123.603 L 67.061 123.603 67.061 122.814 L 67.061 122.025 58.535 122.025 L 50.009 122.025 49.836 122.814 M15.253 176.316 C 15.253 176.950,15.196 176.970,13.083 177.044 C 10.934 177.120,10.913 177.127,10.831 177.844 C 10.751 178.534,10.682 178.567,9.318 178.567 C 7.970 178.567,7.890 178.604,7.890 179.224 C 7.890 179.750,7.758 179.882,7.232 179.882 C 6.677 179.882,6.575 180.004,6.575 180.671 C 6.575 181.372,6.487 181.460,5.786 181.460 C 5.119 181.460,4.997 181.562,4.997 182.117 C 4.997 182.643,4.865 182.774,4.339 182.774 C 3.784 182.774,3.682 182.897,3.682 183.563 C 3.682 184.265,3.594 184.352,2.893 184.352 C 2.227 184.352,2.104 184.455,2.104 185.010 C 2.104 185.536,1.972 185.667,1.446 185.667 C 0.825 185.667,0.789 185.746,0.789 187.114 C 0.789 188.224,0.697 188.560,0.394 188.560 C 0.050 188.560,0.000 190.021,0.000 200.131 C 0.000 210.242,0.050 211.703,0.394 211.703 C 0.697 211.703,0.789 212.039,0.789 213.149 C 0.789 214.517,0.825 214.596,1.446 214.596 C 1.972 214.596,2.104 214.727,2.104 215.253 C 2.104 215.808,2.227 215.911,2.893 215.911 C 3.594 215.911,3.682 215.998,3.682 216.700 C 3.682 217.366,3.784 217.488,4.339 217.488 C 4.865 217.488,4.997 217.620,4.997 218.146 C 4.997 218.701,5.119 218.803,5.786 218.803 C 6.487 218.803,6.575 218.891,6.575 219.592 C 6.575 220.259,6.677 220.381,7.232 220.381 C 7.758 220.381,7.890 220.513,7.890 221.039 C 7.890 221.659,7.970 221.696,9.318 221.696 C 10.682 221.696,10.751 221.729,10.831 222.419 C 10.913 223.136,10.934 223.143,13.083 223.219 C 15.192 223.293,15.253 223.314,15.253 223.942 L 15.253 224.589 22.485 224.589 L 29.717 224.589 29.717 223.932 C 29.717 223.285,29.752 223.274,31.821 223.274 L 33.925 223.274 33.925 222.485 C 33.925 221.704,33.940 221.696,35.371 221.696 C 36.728 221.696,36.818 221.657,36.818 221.056 C 36.818 220.554,36.973 220.398,37.541 220.333 C 38.109 220.268,38.282 220.095,38.348 219.527 C 38.426 218.847,38.508 218.803,39.728 218.803 L 41.026 218.803 41.026 217.357 C 41.026 215.925,41.034 215.911,41.815 215.911 C 42.481 215.911,42.604 215.808,42.604 215.253 C 42.604 214.727,42.735 214.596,43.261 214.596 C 43.883 214.596,43.918 214.517,43.918 213.149 C 43.918 211.717,43.926 211.703,44.707 211.703 C 45.488 211.703,45.496 211.688,45.496 210.256 C 45.496 208.889,45.532 208.810,46.154 208.810 L 46.811 208.810 46.811 200.920 L 46.811 193.031 46.154 193.031 C 45.504 193.031,45.496 193.005,45.496 190.796 L 45.496 188.560 44.707 188.560 C 43.926 188.560,43.918 188.546,43.918 187.114 C 43.918 185.746,43.883 185.667,43.261 185.667 C 42.735 185.667,42.604 185.536,42.604 185.010 C 42.604 184.455,42.481 184.352,41.815 184.352 C 41.113 184.352,41.026 184.265,41.026 183.563 C 41.026 182.897,40.923 182.774,40.368 182.774 C 39.842 182.774,39.711 182.643,39.711 182.117 C 39.711 181.596,39.578 181.460,39.071 181.460 C 38.568 181.460,38.413 181.304,38.348 180.736 C 38.282 180.168,38.109 179.995,37.541 179.930 C 36.973 179.865,36.818 179.709,36.818 179.207 C 36.818 178.606,36.728 178.567,35.371 178.567 C 33.940 178.567,33.925 178.559,33.925 177.778 L 33.925 176.989 31.839 176.989 C 29.877 176.989,29.749 176.954,29.670 176.397 L 29.586 175.805 22.419 175.735 L 15.253 175.665 15.253 176.316 " stroke="none" fill="#ffffff" fill-rule="evenodd"></path></g></svg>