<svg id="svg" version="1.1" xmlns="http://www.w3.org/2000/svg" xmlns:xlink="http://www.w3.org/1999/xlink" width="400" height="701.4492753623189" viewBox="0, 0, 400,701.4492753623189"><g id="svgg"><path id="path0" d="M39.200 0.800 C 39.200 1.563,38.933 1.600,33.400 1.600 L 27.600 1.600 27.600 3.000 L 27.600 4.400 24.843 4.400 C 21.972 4.400,21.600 4.630,21.600 6.407 C 21.600 6.952,21.254 7.183,20.300 7.275 C 19.157 7.385,18.985 7.557,18.875 8.700 C 18.750 9.989,18.732 10.000,16.607 10.000 C 13.638 10.000,13.200 10.237,13.200 11.843 C 13.200 13.119,13.119 13.200,11.843 13.200 C 10.237 13.200,10.000 13.638,10.000 16.607 C 10.000 18.732,9.989 18.750,8.700 18.875 C 7.557 18.985,7.385 19.157,7.275 20.300 C 7.183 21.254,6.952 21.600,6.407 21.600 C 4.630 21.600,4.400 21.972,4.400 24.843 L 4.400 27.600 3.000 27.600 L 1.600 27.600 1.600 33.400 C 1.600 38.933,1.563 39.200,0.800 39.200 C 0.018 39.200,0.000 39.467,0.000 50.800 C 0.000 62.133,0.018 62.400,0.800 62.400 C 1.549 62.400,1.600 62.667,1.600 66.600 L 1.600 70.800 3.000 70.800 L 4.400 70.800 4.400 73.800 L 4.400 76.800 5.800 76.800 L 7.200 76.800 7.200 79.600 L 7.200 82.400 8.600 82.400 C 9.867 82.400,10.000 82.507,10.000 83.520 C 10.000 84.941,10.659 85.600,12.080 85.600 C 13.093 85.600,13.200 85.733,13.200 87.000 C 13.200 88.333,13.267 88.400,14.600 88.400 C 15.933 88.400,16.000 88.467,16.000 89.800 C 16.000 91.133,16.067 91.200,17.400 91.200 C 18.733 91.200,18.800 91.267,18.800 92.600 C 18.800 93.933,18.867 94.000,20.200 94.000 C 21.467 94.000,21.600 94.107,21.600 95.120 C 21.600 96.541,22.259 97.200,23.680 97.200 C 24.693 97.200,24.800 97.333,24.800 98.600 C 24.800 99.933,24.867 100.000,26.200 100.000 C 27.533 100.000,27.600 100.067,27.600 101.400 C 27.600 102.733,27.667 102.800,29.000 102.800 C 30.333 102.800,30.400 102.867,30.400 104.200 C 30.400 105.533,30.467 105.600,31.800 105.600 C 33.067 105.600,33.200 105.707,33.200 106.720 C 33.200 108.141,33.859 108.800,35.280 108.800 C 36.293 108.800,36.400 108.933,36.400 110.200 C 36.400 111.533,36.467 111.600,37.800 111.600 C 39.133 111.600,39.200 111.667,39.200 113.000 C 39.200 114.333,39.267 114.400,40.600 114.400 C 41.933 114.400,42.000 114.467,42.000 115.800 C 42.000 117.133,42.067 117.200,43.400 117.200 C 44.667 117.200,44.800 117.307,44.800 118.320 C 44.800 119.741,45.459 120.400,46.880 120.400 C 47.893 120.400,48.000 120.533,48.000 121.800 C 48.000 123.133,48.067 123.200,49.400 123.200 C 50.733 123.200,50.800 123.267,50.800 124.600 C 50.800 125.933,50.867 126.000,52.200 126.000 C 53.533 126.000,53.600 126.067,53.600 127.400 C 53.600 128.733,53.667 128.800,55.000 128.800 C 56.267 128.800,56.400 128.907,56.400 129.920 C 56.400 131.341,57.059 132.000,58.480 132.000 C 59.493 132.000,59.600 132.133,59.600 133.400 C 59.600 134.733,59.667 134.800,61.000 134.800 C 62.333 134.800,62.400 134.867,62.400 136.200 C 62.400 137.533,62.467 137.600,63.800 137.600 C 65.133 137.600,65.200 137.667,65.200 139.000 C 65.200 140.333,65.267 140.400,66.600 140.400 C 67.867 140.400,68.000 140.507,68.000 141.520 C 68.000 142.934,68.658 143.600,70.055 143.600 C 70.997 143.600,71.167 143.781,71.275 144.900 C 71.385 146.043,71.557 146.215,72.700 146.325 C 73.890 146.440,74.000 146.567,74.000 147.825 C 74.000 149.130,74.072 149.200,75.400 149.200 C 76.733 149.200,76.800 149.267,76.800 150.600 C 76.800 151.933,76.867 152.000,78.200 152.000 C 79.467 152.000,79.600 152.107,79.600 153.120 C 79.600 154.534,80.258 155.200,81.655 155.200 C 82.597 155.200,82.767 155.381,82.875 156.500 C 82.985 157.643,83.157 157.815,84.300 157.925 C 85.490 158.040,85.600 158.167,85.600 159.425 C 85.600 160.730,85.672 160.800,87.000 160.800 C 88.333 160.800,88.400 160.867,88.400 162.200 C 88.400 163.533,88.467 163.600,89.800 163.600 C 91.067 163.600,91.200 163.707,91.200 164.720 C 91.200 166.134,91.858 166.800,93.255 166.800 C 94.197 166.800,94.367 166.981,94.475 168.100 C 94.585 169.243,94.757 169.415,95.900 169.525 C 97.090 169.640,97.200 169.767,97.200 171.025 C 97.200 172.330,97.272 172.400,98.600 172.400 C 99.933 172.400,100.000 172.467,100.000 173.800 C 100.000 175.128,100.070 175.200,101.375 175.200 C 102.633 175.200,102.760 175.310,102.875 176.500 C 102.989 177.683,103.133 177.811,104.477 177.923 C 105.865 178.038,105.962 178.135,106.077 179.523 C 106.189 180.867,106.317 181.011,107.500 181.125 C 108.690 181.240,108.800 181.367,108.800 182.625 C 108.800 183.930,108.872 184.000,110.200 184.000 C 111.533 184.000,111.600 184.067,111.600 185.400 C 111.600 186.728,111.670 186.800,112.975 186.800 C 114.233 186.800,114.360 186.910,114.475 188.100 C 114.589 189.283,114.733 189.411,116.077 189.523 C 117.465 189.638,117.562 189.735,117.677 191.123 C 117.789 192.467,117.917 192.611,119.100 192.725 C 120.290 192.840,120.400 192.967,120.400 194.225 C 120.400 195.530,120.472 195.600,121.800 195.600 C 123.133 195.600,123.200 195.667,123.200 197.000 C 123.200 198.328,123.270 198.400,124.575 198.400 C 125.833 198.400,125.960 198.510,126.075 199.700 C 126.189 200.883,126.333 201.011,127.677 201.123 C 129.065 201.238,129.162 201.335,129.277 202.723 C 129.389 204.067,129.517 204.211,130.700 204.325 C 131.890 204.440,132.000 204.567,132.000 205.825 C 132.000 207.130,132.072 207.200,133.400 207.200 C 134.733 207.200,134.800 207.267,134.800 208.600 C 134.800 209.928,134.870 210.000,136.175 210.000 C 137.433 210.000,137.560 210.110,137.675 211.300 C 137.785 212.443,137.957 212.615,139.099 212.725 C 140.138 212.825,140.444 213.066,140.632 213.925 C 141.058 215.874,141.164 216.000,142.387 216.000 C 143.507 216.000,143.600 216.108,143.600 217.400 C 143.600 218.733,143.667 218.800,145.000 218.800 C 146.333 218.800,146.400 218.867,146.400 220.200 C 146.400 221.528,146.470 221.600,147.775 221.600 C 149.033 221.600,149.160 221.710,149.275 222.900 C 149.385 224.043,149.557 224.215,150.699 224.325 C 151.738 224.425,152.044 224.666,152.232 225.525 C 152.658 227.474,152.764 227.600,153.987 227.600 C 155.107 227.600,155.200 227.708,155.200 229.000 C 155.200 230.333,155.267 230.400,156.600 230.400 C 157.933 230.400,158.000 230.467,158.000 231.800 C 158.000 233.133,158.067 233.200,159.400 233.200 C 160.733 233.200,160.800 233.267,160.800 234.600 C 160.800 235.919,160.877 236.000,162.129 236.000 C 163.333 236.000,163.494 236.142,163.829 237.500 C 164.152 238.807,164.367 239.016,165.500 239.125 C 166.690 239.240,166.800 239.367,166.800 240.625 C 166.800 241.930,166.872 242.000,168.200 242.000 C 169.533 242.000,169.600 242.067,169.600 243.400 C 169.600 244.728,169.670 244.800,170.975 244.800 C 172.233 244.800,172.360 244.910,172.475 246.100 C 172.583 247.227,172.764 247.416,173.834 247.520 C 174.889 247.623,175.122 247.856,175.434 249.120 C 175.750 250.399,175.974 250.617,177.076 250.724 C 178.188 250.831,178.369 251.012,178.476 252.124 C 178.585 253.240,178.762 253.416,179.900 253.525 C 181.090 253.640,181.200 253.767,181.200 255.025 C 181.200 256.330,181.272 256.400,182.600 256.400 C 183.933 256.400,184.000 256.467,184.000 257.800 C 184.000 259.133,184.067 259.200,185.400 259.200 C 186.548 259.200,186.800 259.349,186.800 260.026 C 186.800 261.499,187.555 262.400,188.789 262.400 C 189.806 262.400,189.965 262.561,190.075 263.700 C 190.185 264.843,190.357 265.015,191.500 265.125 C 192.690 265.240,192.800 265.367,192.800 266.625 C 192.800 267.930,192.872 268.000,194.200 268.000 C 195.533 268.000,195.600 268.067,195.600 269.400 C 195.600 270.733,195.667 270.800,197.000 270.800 C 198.148 270.800,198.400 270.949,198.400 271.626 C 198.400 273.099,199.155 274.000,200.389 274.000 C 201.406 274.000,201.565 274.161,201.675 275.300 C 201.785 276.443,201.957 276.615,203.100 276.725 C 204.290 276.840,204.400 276.967,204.400 278.225 C 204.400 279.530,204.472 279.600,205.800 279.600 C 207.133 279.600,207.200 279.667,207.200 281.000 C 207.200 282.333,207.267 282.400,208.600 282.400 C 209.748 282.400,210.000 282.549,210.000 283.226 C 210.000 284.699,210.755 285.600,211.989 285.600 C 213.006 285.600,213.165 285.761,213.275 286.900 C 213.385 288.043,213.557 288.215,214.700 288.325 C 215.890 288.440,216.000 288.567,216.000 289.825 C 216.000 291.130,216.072 291.200,217.400 291.200 C 218.733 291.200,218.800 291.267,218.800 292.600 C 218.800 293.933,218.867 294.000,220.200 294.000 C 221.313 294.000,221.600 294.157,221.600 294.767 C 221.600 296.289,222.057 296.800,223.419 296.800 C 224.670 296.800,224.759 296.892,224.876 298.300 C 224.989 299.669,225.113 299.811,226.300 299.925 C 227.490 300.040,227.600 300.167,227.600 301.425 C 227.600 302.730,227.672 302.800,229.000 302.800 C 230.333 302.800,230.400 302.867,230.400 304.200 C 230.400 305.528,230.470 305.600,231.775 305.600 C 233.033 305.600,233.160 305.710,233.275 306.900 C 233.389 308.083,233.533 308.211,234.877 308.323 C 236.265 308.438,236.362 308.535,236.477 309.923 C 236.589 311.267,236.717 311.411,237.900 311.525 C 239.090 311.640,239.200 311.767,239.200 313.025 C 239.200 314.330,239.272 314.400,240.600 314.400 C 241.933 314.400,242.000 314.467,242.000 315.800 C 242.000 317.128,242.070 317.200,243.375 317.200 C 244.633 317.200,244.760 317.310,244.875 318.500 C 244.989 319.683,245.133 319.811,246.477 319.923 C 247.865 320.038,247.962 320.135,248.077 321.523 C 248.188 322.861,248.320 323.012,249.476 323.124 C 250.588 323.231,250.769 323.412,250.876 324.524 C 250.985 325.640,251.162 325.816,252.300 325.925 C 253.490 326.040,253.600 326.167,253.600 327.425 C 253.600 328.725,253.675 328.800,254.975 328.800 C 256.233 328.800,256.360 328.910,256.475 330.100 C 256.589 331.283,256.733 331.411,258.077 331.523 C 259.465 331.638,259.562 331.735,259.677 333.123 C 259.788 334.461,259.920 334.612,261.076 334.724 C 262.188 334.831,262.369 335.012,262.476 336.124 C 262.585 337.240,262.762 337.416,263.900 337.525 C 265.090 337.640,265.200 337.767,265.200 339.025 C 265.200 340.325,265.275 340.400,266.575 340.400 C 267.833 340.400,267.960 340.510,268.075 341.700 C 268.189 342.883,268.333 343.011,269.677 343.123 C 271.065 343.238,271.162 343.335,271.277 344.723 C 271.388 346.061,271.520 346.212,272.676 346.324 C 273.788 346.431,273.969 346.612,274.076 347.724 C 274.185 348.840,274.362 349.016,275.500 349.125 C 276.685 349.240,276.800 349.370,276.800 350.600 C 276.800 351.830,276.685 351.960,275.500 352.075 C 274.362 352.184,274.185 352.360,274.076 353.476 C 273.969 354.588,273.788 354.769,272.676 354.876 C 271.520 354.988,271.388 355.139,271.277 356.477 C 271.162 357.865,271.065 357.962,269.677 358.077 C 268.333 358.189,268.189 358.317,268.075 359.500 C 267.960 360.690,267.833 360.800,266.575 360.800 C 265.275 360.800,265.200 360.875,265.200 362.175 C 265.200 363.433,265.090 363.560,263.900 363.675 C 262.762 363.784,262.585 363.960,262.476 365.076 C 262.369 366.188,262.188 366.369,261.076 366.476 C 259.920 366.588,259.788 366.739,259.677 368.077 C 259.562 369.465,259.465 369.562,258.077 369.677 C 256.733 369.789,256.589 369.917,256.475 371.100 C 256.360 372.290,256.233 372.400,254.975 372.400 C 253.670 372.400,253.600 372.472,253.600 373.800 C 253.600 375.133,253.533 375.200,252.200 375.200 C 250.872 375.200,250.800 375.270,250.800 376.575 C 250.800 377.833,250.690 377.960,249.500 378.075 C 248.317 378.189,248.189 378.333,248.077 379.677 C 247.962 381.065,247.865 381.162,246.477 381.277 C 245.133 381.389,244.989 381.517,244.875 382.700 C 244.760 383.890,244.633 384.000,243.375 384.000 C 242.070 384.000,242.000 384.072,242.000 385.400 C 242.000 386.733,241.933 386.800,240.600 386.800 C 239.272 386.800,239.200 386.870,239.200 388.175 C 239.200 389.433,239.090 389.560,237.900 389.675 C 236.717 389.789,236.589 389.933,236.477 391.277 C 236.362 392.665,236.265 392.762,234.877 392.877 C 233.533 392.989,233.389 393.117,233.275 394.300 C 233.160 395.490,233.033 395.600,231.775 395.600 C 230.470 395.600,230.400 395.672,230.400 397.000 C 230.400 398.333,230.333 398.400,229.000 398.400 C 227.672 398.400,227.600 398.470,227.600 399.775 C 227.600 401.033,227.490 401.160,226.300 401.275 C 225.113 401.389,224.989 401.531,224.876 402.900 C 224.759 404.308,224.670 404.400,223.419 404.400 C 222.057 404.400,221.600 404.911,221.600 406.433 C 221.600 407.043,221.313 407.200,220.200 407.200 C 218.867 407.200,218.800 407.267,218.800 408.600 C 218.800 409.933,218.733 410.000,217.400 410.000 C 216.072 410.000,216.000 410.070,216.000 411.375 C 216.000 412.633,215.890 412.760,214.700 412.875 C 213.517 412.989,213.389 413.133,213.277 414.477 C 213.162 415.865,213.065 415.962,211.677 416.077 C 210.333 416.189,210.189 416.317,210.075 417.500 C 209.960 418.690,209.833 418.800,208.575 418.800 C 207.270 418.800,207.200 418.872,207.200 420.200 C 207.200 421.533,207.133 421.600,205.800 421.600 C 204.472 421.600,204.400 421.670,204.400 422.975 C 204.400 424.233,204.290 424.360,203.100 424.475 C 201.913 424.589,201.789 424.731,201.676 426.100 C 201.559 427.508,201.470 427.600,200.219 427.600 C 198.857 427.600,198.400 428.111,198.400 429.633 C 198.400 430.243,198.113 430.400,197.000 430.400 C 195.667 430.400,195.600 430.467,195.600 431.800 C 195.600 433.133,195.533 433.200,194.200 433.200 C 192.872 433.200,192.800 433.270,192.800 434.575 C 192.800 435.833,192.690 435.960,191.500 436.075 C 190.363 436.184,190.185 436.360,190.077 437.473 C 189.973 438.542,189.748 438.791,188.677 439.024 C 187.234 439.337,186.815 439.802,186.806 441.100 C 186.801 441.861,186.583 442.000,185.400 442.000 C 184.067 442.000,184.000 442.067,184.000 443.400 C 184.000 444.733,183.933 444.800,182.600 444.800 C 181.272 444.800,181.200 444.870,181.200 446.175 C 181.200 447.433,181.090 447.560,179.900 447.675 C 178.767 447.784,178.584 447.961,178.478 449.060 C 178.373 450.141,178.163 450.356,176.993 450.575 C 175.833 450.793,175.593 451.033,175.375 452.193 C 175.156 453.363,174.941 453.573,173.860 453.678 C 172.761 453.784,172.584 453.967,172.475 455.100 C 172.360 456.290,172.233 456.400,170.975 456.400 C 169.670 456.400,169.600 456.472,169.600 457.800 C 169.600 459.133,169.533 459.200,168.200 459.200 C 166.867 459.200,166.800 459.267,166.800 460.600 C 166.800 461.713,166.643 462.000,166.033 462.000 C 164.605 462.000,164.023 462.473,163.766 463.839 C 163.536 465.069,163.381 465.200,162.155 465.200 C 160.873 465.200,160.800 465.275,160.800 466.600 C 160.800 467.933,160.733 468.000,159.400 468.000 C 158.067 468.000,158.000 468.067,158.000 469.400 C 158.000 470.733,157.933 470.800,156.600 470.800 C 155.272 470.800,155.200 470.870,155.200 472.175 C 155.200 473.430,155.088 473.560,153.913 473.675 C 152.794 473.784,152.580 473.994,152.278 475.277 C 151.978 476.554,151.760 476.771,150.666 476.877 C 149.561 476.984,149.384 477.165,149.275 478.300 C 149.160 479.490,149.033 479.600,147.775 479.600 C 146.470 479.600,146.400 479.672,146.400 481.000 C 146.400 482.333,146.333 482.400,145.000 482.400 C 143.672 482.400,143.600 482.470,143.600 483.775 C 143.600 485.030,143.488 485.160,142.313 485.275 C 141.194 485.384,140.980 485.594,140.678 486.877 C 140.378 488.154,140.160 488.371,139.066 488.477 C 137.961 488.584,137.784 488.765,137.675 489.900 C 137.560 491.090,137.433 491.200,136.175 491.200 C 134.870 491.200,134.800 491.272,134.800 492.600 C 134.800 493.933,134.733 494.000,133.400 494.000 C 132.072 494.000,132.000 494.070,132.000 495.375 C 132.000 496.633,131.890 496.760,130.700 496.875 C 129.517 496.989,129.389 497.133,129.277 498.477 C 129.162 499.865,129.065 499.962,127.677 500.077 C 126.333 500.189,126.189 500.317,126.075 501.500 C 125.960 502.690,125.833 502.800,124.575 502.800 C 123.270 502.800,123.200 502.872,123.200 504.200 C 123.200 505.533,123.133 505.600,121.800 505.600 C 120.472 505.600,120.400 505.670,120.400 506.975 C 120.400 508.233,120.290 508.360,119.100 508.475 C 117.917 508.589,117.789 508.733,117.677 510.077 C 117.562 511.465,117.465 511.562,116.077 511.677 C 114.733 511.789,114.589 511.917,114.475 513.100 C 114.360 514.290,114.233 514.400,112.975 514.400 C 111.670 514.400,111.600 514.472,111.600 515.800 C 111.600 517.133,111.533 517.200,110.200 517.200 C 108.872 517.200,108.800 517.270,108.800 518.575 C 108.800 519.833,108.690 519.960,107.500 520.075 C 106.317 520.189,106.189 520.333,106.077 521.677 C 105.962 523.065,105.865 523.162,104.477 523.277 C 103.133 523.389,102.989 523.517,102.875 524.700 C 102.760 525.890,102.633 526.000,101.375 526.000 C 100.070 526.000,100.000 526.072,100.000 527.400 C 100.000 528.733,99.933 528.800,98.600 528.800 C 97.272 528.800,97.200 528.870,97.200 530.175 C 97.200 531.433,97.090 531.560,95.900 531.675 C 94.717 531.789,94.589 531.933,94.477 533.277 C 94.362 534.665,94.265 534.762,92.877 534.877 C 91.533 534.989,91.389 535.117,91.275 536.300 C 91.160 537.490,91.033 537.600,89.775 537.600 C 88.470 537.600,88.400 537.672,88.400 539.000 C 88.400 540.333,88.333 540.400,87.000 540.400 C 85.672 540.400,85.600 540.470,85.600 541.775 C 85.600 543.033,85.490 543.160,84.300 543.275 C 83.165 543.384,82.984 543.561,82.877 544.666 C 82.771 545.760,82.554 545.978,81.277 546.278 C 79.994 546.580,79.784 546.794,79.675 547.913 C 79.560 549.088,79.430 549.200,78.175 549.200 C 76.870 549.200,76.800 549.272,76.800 550.600 C 76.800 551.933,76.733 552.000,75.400 552.000 C 74.067 552.000,74.000 552.067,74.000 553.400 C 74.000 554.733,73.933 554.800,72.600 554.800 C 71.274 554.800,71.200 554.872,71.200 556.160 C 71.200 557.403,71.070 557.551,69.700 557.873 C 68.392 558.180,68.184 558.390,68.075 559.513 C 67.960 560.688,67.830 560.800,66.575 560.800 C 65.270 560.800,65.200 560.872,65.200 562.200 C 65.200 563.533,65.133 563.600,63.800 563.600 C 62.467 563.600,62.400 563.667,62.400 565.000 C 62.400 566.333,62.333 566.400,61.000 566.400 C 59.681 566.400,59.600 566.477,59.600 567.729 C 59.600 568.933,59.458 569.094,58.100 569.429 C 56.793 569.752,56.584 569.967,56.475 571.100 C 56.360 572.290,56.233 572.400,54.975 572.400 C 53.670 572.400,53.600 572.472,53.600 573.800 C 53.600 575.133,53.533 575.200,52.200 575.200 C 50.867 575.200,50.800 575.267,50.800 576.600 C 50.800 577.933,50.733 578.000,49.400 578.000 C 48.067 578.000,48.000 578.067,48.000 579.400 C 48.000 580.548,47.851 580.800,47.174 580.800 C 45.688 580.800,44.800 581.553,44.800 582.814 C 44.800 583.903,44.685 584.000,43.400 584.000 C 42.067 584.000,42.000 584.067,42.000 585.400 C 42.000 586.733,41.933 586.800,40.600 586.800 C 39.267 586.800,39.200 586.867,39.200 588.200 C 39.200 589.533,39.133 589.600,37.800 589.600 C 36.467 589.600,36.400 589.667,36.400 591.000 C 36.400 592.267,36.293 592.400,35.280 592.400 C 33.859 592.400,33.200 593.059,33.200 594.480 C 33.200 595.493,33.067 595.600,31.800 595.600 C 30.467 595.600,30.400 595.667,30.400 597.000 C 30.400 598.333,30.333 598.400,29.000 598.400 C 27.667 598.400,27.600 598.467,27.600 599.800 C 27.600 601.133,27.533 601.200,26.200 601.200 C 24.867 601.200,24.800 601.267,24.800 602.600 C 24.800 603.867,24.693 604.000,23.680 604.000 C 22.259 604.000,21.600 604.659,21.600 606.080 C 21.600 607.093,21.467 607.200,20.200 607.200 C 18.867 607.200,18.800 607.267,18.800 608.600 C 18.800 609.933,18.733 610.000,17.400 610.000 C 16.067 610.000,16.000 610.067,16.000 611.400 C 16.000 612.733,15.933 612.800,14.600 612.800 C 13.267 612.800,13.200 612.867,13.200 614.200 C 13.200 615.467,13.093 615.600,12.080 615.600 C 10.659 615.600,10.000 616.259,10.000 617.680 C 10.000 618.693,9.867 618.800,8.600 618.800 L 7.200 618.800 7.200 621.600 L 7.200 624.400 5.800 624.400 L 4.400 624.400 4.400 627.400 L 4.400 630.400 3.000 630.400 L 1.600 630.400 1.600 634.600 C 1.600 638.533,1.549 638.800,0.800 638.800 C 0.018 638.800,0.000 639.067,0.000 650.400 C 0.000 661.733,0.018 662.000,0.800 662.000 C 1.563 662.000,1.600 662.267,1.600 667.800 L 1.600 673.600 3.000 673.600 L 4.400 673.600 4.400 676.357 C 4.400 679.228,4.630 679.600,6.407 679.600 C 6.952 679.600,7.183 679.946,7.275 680.900 C 7.384 682.038,7.560 682.215,8.676 682.324 C 9.788 682.431,9.969 682.612,10.076 683.724 C 10.189 684.884,10.337 685.011,11.700 685.124 C 13.119 685.242,13.200 685.323,13.200 686.624 C 13.200 687.925,13.275 688.000,14.576 688.000 C 15.877 688.000,15.958 688.081,16.076 689.500 C 16.189 690.863,16.316 691.011,17.476 691.124 C 18.588 691.231,18.769 691.412,18.876 692.524 C 18.985 693.640,19.162 693.816,20.300 693.925 C 21.254 694.017,21.600 694.248,21.600 694.793 C 21.600 696.570,21.972 696.800,24.843 696.800 L 27.600 696.800 27.600 698.200 L 27.600 699.600 34.800 699.600 C 41.733 699.600,42.000 699.630,42.000 700.400 C 42.000 701.176,42.267 701.200,50.800 701.200 C 59.293 701.200,59.600 701.172,59.600 700.411 C 59.600 699.668,59.931 699.616,65.300 699.511 L 71.000 699.400 71.125 698.100 L 71.251 696.800 74.025 696.800 L 76.800 696.800 76.800 695.400 C 76.800 694.067,76.867 694.000,78.200 694.000 C 79.533 694.000,79.600 693.933,79.600 692.600 L 79.600 691.200 82.120 691.200 C 84.919 691.200,85.600 690.793,85.600 689.120 C 85.600 688.107,85.733 688.000,87.000 688.000 C 88.333 688.000,88.400 687.933,88.400 686.600 C 88.400 685.267,88.467 685.200,89.800 685.200 C 91.129 685.200,91.200 685.130,91.200 683.824 C 91.200 682.523,91.281 682.442,92.700 682.324 C 94.063 682.211,94.211 682.084,94.324 680.924 C 94.431 679.812,94.612 679.631,95.724 679.524 C 96.884 679.411,97.011 679.263,97.124 677.900 C 97.242 676.481,97.323 676.400,98.624 676.400 C 99.930 676.400,100.000 676.329,100.000 675.000 C 100.000 673.667,100.067 673.600,101.400 673.600 C 102.733 673.600,102.800 673.533,102.800 672.200 C 102.800 670.867,102.867 670.800,104.200 670.800 C 105.529 670.800,105.600 670.730,105.600 669.424 C 105.600 668.123,105.681 668.042,107.100 667.924 C 108.519 667.807,108.607 667.719,108.724 666.300 C 108.842 664.881,108.923 664.800,110.224 664.800 C 111.530 664.800,111.600 664.729,111.600 663.400 C 111.600 662.067,111.667 662.000,113.000 662.000 C 114.333 662.000,114.400 661.933,114.400 660.600 C 114.400 659.267,114.467 659.200,115.800 659.200 C 117.129 659.200,117.200 659.130,117.200 657.824 C 117.200 656.523,117.281 656.442,118.700 656.324 C 120.119 656.207,120.207 656.119,120.324 654.700 C 120.442 653.281,120.523 653.200,121.824 653.200 C 123.130 653.200,123.200 653.129,123.200 651.800 C 123.200 650.467,123.267 650.400,124.600 650.400 C 125.933 650.400,126.000 650.333,126.000 649.000 C 126.000 647.667,126.067 647.600,127.400 647.600 C 128.729 647.600,128.800 647.530,128.800 646.224 C 128.800 644.923,128.881 644.842,130.300 644.724 C 131.663 644.611,131.811 644.484,131.924 643.324 C 132.031 642.212,132.212 642.031,133.324 641.924 C 134.484 641.811,134.611 641.663,134.724 640.300 C 134.842 638.881,134.923 638.800,136.224 638.800 C 137.530 638.800,137.600 638.729,137.600 637.400 C 137.600 636.067,137.667 636.000,139.000 636.000 C 140.329 636.000,140.400 635.930,140.400 634.624 C 140.400 633.323,140.481 633.242,141.900 633.124 C 143.263 633.011,143.411 632.884,143.524 631.724 C 143.631 630.612,143.812 630.431,144.924 630.324 C 146.084 630.211,146.211 630.063,146.324 628.700 C 146.442 627.281,146.523 627.200,147.824 627.200 C 149.130 627.200,149.200 627.129,149.200 625.800 C 149.200 624.467,149.267 624.400,150.600 624.400 C 151.929 624.400,152.000 624.330,152.000 623.024 C 152.000 621.723,152.081 621.642,153.500 621.524 C 154.863 621.411,155.011 621.284,155.124 620.124 C 155.231 619.012,155.412 618.831,156.524 618.724 C 157.684 618.611,157.811 618.463,157.924 617.100 C 158.042 615.681,158.123 615.600,159.424 615.600 C 160.730 615.600,160.800 615.529,160.800 614.200 C 160.800 612.867,160.867 612.800,162.200 612.800 C 163.529 612.800,163.600 612.730,163.600 611.424 C 163.600 610.123,163.681 610.042,165.100 609.924 C 166.463 609.811,166.611 609.684,166.724 608.524 C 166.831 607.412,167.012 607.231,168.124 607.124 C 169.284 607.011,169.411 606.863,169.524 605.500 C 169.642 604.081,169.723 604.000,171.024 604.000 C 172.330 604.000,172.400 603.929,172.400 602.600 C 172.400 601.267,172.467 601.200,173.800 601.200 C 175.129 601.200,175.200 601.130,175.200 599.824 C 175.200 598.523,175.281 598.442,176.700 598.324 C 178.063 598.211,178.211 598.084,178.324 596.924 C 178.431 595.812,178.612 595.631,179.724 595.524 C 180.884 595.411,181.011 595.263,181.124 593.900 C 181.242 592.481,181.323 592.400,182.624 592.400 C 183.930 592.400,184.000 592.329,184.000 591.000 C 184.000 589.667,184.067 589.600,185.400 589.600 C 186.729 589.600,186.800 589.530,186.800 588.224 C 186.800 586.923,186.881 586.842,188.300 586.724 C 189.663 586.611,189.811 586.484,189.924 585.324 C 190.031 584.212,190.212 584.031,191.324 583.924 C 192.484 583.811,192.611 583.663,192.724 582.300 C 192.842 580.881,192.923 580.800,194.224 580.800 C 195.530 580.800,195.600 580.729,195.600 579.400 C 195.600 578.067,195.667 578.000,197.000 578.000 C 198.329 578.000,198.400 577.930,198.400 576.624 C 198.400 575.323,198.481 575.242,199.900 575.124 C 201.263 575.011,201.411 574.884,201.524 573.724 C 201.631 572.612,201.812 572.431,202.924 572.324 C 204.084 572.211,204.211 572.063,204.324 570.700 C 204.442 569.281,204.523 569.200,205.824 569.200 C 207.130 569.200,207.200 569.129,207.200 567.800 C 207.200 566.467,207.267 566.400,208.600 566.400 C 209.929 566.400,210.000 566.330,210.000 565.024 C 210.000 563.723,210.081 563.642,211.500 563.524 C 212.863 563.411,213.011 563.284,213.124 562.124 C 213.231 561.012,213.412 560.831,214.524 560.724 C 215.684 560.611,215.811 560.463,215.924 559.100 C 216.042 557.681,216.123 557.600,217.424 557.600 C 218.730 557.600,218.800 557.529,218.800 556.200 C 218.800 554.867,218.867 554.800,220.200 554.800 C 221.529 554.800,221.600 554.730,221.600 553.424 C 221.600 552.123,221.681 552.042,223.100 551.924 C 224.463 551.811,224.611 551.684,224.724 550.524 C 224.831 549.412,225.012 549.231,226.124 549.124 C 227.284 549.011,227.411 548.863,227.524 547.500 C 227.642 546.081,227.723 546.000,229.024 546.000 C 230.330 546.000,230.400 545.929,230.400 544.600 C 230.400 543.267,230.467 543.200,231.800 543.200 C 233.129 543.200,233.200 543.130,233.200 541.824 C 233.200 540.523,233.281 540.442,234.700 540.324 C 236.063 540.211,236.211 540.084,236.324 538.924 C 236.431 537.812,236.612 537.631,237.724 537.524 C 238.884 537.411,239.011 537.263,239.124 535.900 C 239.242 534.481,239.323 534.400,240.624 534.400 C 241.930 534.400,242.000 534.329,242.000 533.000 C 242.000 531.667,242.067 531.600,243.400 531.600 C 244.729 531.600,244.800 531.530,244.800 530.224 C 244.800 528.923,244.881 528.842,246.300 528.724 C 247.663 528.611,247.811 528.484,247.924 527.324 C 248.031 526.212,248.212 526.031,249.324 525.924 C 250.435 525.816,250.616 525.635,250.724 524.524 C 250.831 523.412,251.012 523.231,252.124 523.124 C 253.284 523.011,253.411 522.863,253.524 521.500 C 253.642 520.081,253.723 520.000,255.024 520.000 C 256.325 520.000,256.400 519.925,256.400 518.624 C 256.400 517.323,256.481 517.242,257.900 517.124 C 259.263 517.011,259.411 516.884,259.524 515.724 C 259.631 514.612,259.812 514.431,260.924 514.324 C 262.035 514.216,262.216 514.035,262.324 512.924 C 262.431 511.812,262.612 511.631,263.724 511.524 C 264.884 511.411,265.011 511.263,265.124 509.900 C 265.242 508.481,265.323 508.400,266.624 508.400 C 267.925 508.400,268.000 508.325,268.000 507.024 C 268.000 505.723,268.081 505.642,269.500 505.524 C 270.863 505.411,271.011 505.284,271.124 504.124 C 271.231 503.012,271.412 502.831,272.524 502.724 C 273.635 502.616,273.816 502.435,273.924 501.324 C 274.031 500.212,274.212 500.031,275.324 499.924 C 276.484 499.811,276.611 499.663,276.724 498.300 C 276.842 496.881,276.923 496.800,278.224 496.800 C 279.525 496.800,279.600 496.725,279.600 495.424 C 279.600 494.123,279.681 494.042,281.100 493.924 C 282.463 493.811,282.611 493.684,282.724 492.524 C 282.831 491.412,283.012 491.231,284.124 491.124 C 285.235 491.016,285.416 490.835,285.524 489.724 C 285.631 488.612,285.812 488.431,286.924 488.324 C 288.084 488.211,288.211 488.063,288.324 486.700 C 288.442 485.281,288.523 485.200,289.824 485.200 C 291.125 485.200,291.200 485.125,291.200 483.824 C 291.200 482.523,291.281 482.442,292.700 482.324 C 294.063 482.211,294.211 482.084,294.324 480.924 C 294.431 479.812,294.612 479.631,295.724 479.524 C 296.835 479.416,297.016 479.235,297.124 478.124 C 297.231 477.012,297.412 476.831,298.524 476.724 C 299.684 476.611,299.811 476.463,299.924 475.100 C 300.042 473.681,300.123 473.600,301.424 473.600 C 302.730 473.600,302.800 473.529,302.800 472.200 C 302.800 470.867,302.867 470.800,304.200 470.800 C 305.529 470.800,305.600 470.730,305.600 469.424 C 305.600 468.123,305.681 468.042,307.100 467.924 C 308.463 467.811,308.611 467.684,308.724 466.524 C 308.831 465.412,309.012 465.231,310.124 465.124 C 311.284 465.011,311.411 464.863,311.524 463.500 C 311.642 462.081,311.723 462.000,313.024 462.000 C 314.330 462.000,314.400 461.929,314.400 460.600 C 314.400 459.267,314.467 459.200,315.800 459.200 C 317.129 459.200,317.200 459.130,317.200 457.824 C 317.200 456.523,317.281 456.442,318.700 456.324 C 320.063 456.211,320.211 456.084,320.324 454.924 C 320.431 453.812,320.612 453.631,321.724 453.524 C 322.884 453.411,323.011 453.263,323.124 451.900 C 323.242 450.481,323.323 450.400,324.624 450.400 C 325.930 450.400,326.000 450.329,326.000 449.000 C 326.000 447.667,326.067 447.600,327.400 447.600 C 328.729 447.600,328.800 447.530,328.800 446.224 C 328.800 444.923,328.881 444.842,330.300 444.724 C 331.663 444.611,331.811 444.484,331.924 443.324 C 332.031 442.212,332.212 442.031,333.324 441.924 C 334.484 441.811,334.611 441.663,334.724 440.300 C 334.842 438.881,334.923 438.800,336.224 438.800 C 337.530 438.800,337.600 438.729,337.600 437.400 C 337.600 436.067,337.667 436.000,339.000 436.000 C 340.329 436.000,340.400 435.930,340.400 434.624 C 340.400 433.323,340.481 433.242,341.900 433.124 C 343.263 433.011,343.411 432.884,343.524 431.724 C 343.631 430.612,343.812 430.431,344.924 430.324 C 346.084 430.211,346.211 430.063,346.324 428.700 C 346.442 427.281,346.523 427.200,347.824 427.200 C 349.130 427.200,349.200 427.129,349.200 425.800 C 349.200 424.467,349.267 424.400,350.600 424.400 C 351.929 424.400,352.000 424.330,352.000 423.024 C 352.000 421.723,352.081 421.642,353.500 421.524 C 354.863 421.411,355.011 421.284,355.124 420.124 C 355.231 419.012,355.412 418.831,356.524 418.724 C 357.684 418.611,357.811 418.463,357.924 417.100 C 358.042 415.681,358.123 415.600,359.424 415.600 C 360.730 415.600,360.800 415.529,360.800 414.200 C 360.800 412.867,360.867 412.800,362.200 412.800 C 363.529 412.800,363.600 412.730,363.600 411.424 C 363.600 410.123,363.681 410.042,365.100 409.924 C 366.463 409.811,366.611 409.684,366.724 408.524 C 366.831 407.412,367.012 407.231,368.124 407.124 C 369.235 407.016,369.416 406.835,369.524 405.724 C 369.631 404.612,369.812 404.431,370.924 404.324 C 372.084 404.211,372.211 404.063,372.324 402.700 C 372.442 401.281,372.523 401.200,373.824 401.200 C 375.125 401.200,375.200 401.125,375.200 399.824 C 375.200 398.523,375.281 398.442,376.700 398.324 C 378.063 398.211,378.211 398.084,378.324 396.924 C 378.431 395.812,378.612 395.631,379.724 395.524 C 380.835 395.416,381.016 395.235,381.124 394.124 C 381.231 393.012,381.412 392.831,382.524 392.724 C 383.684 392.611,383.811 392.463,383.924 391.100 C 384.042 389.681,384.123 389.600,385.424 389.600 C 386.725 389.600,386.800 389.525,386.800 388.224 C 386.800 386.923,386.881 386.842,388.300 386.724 C 389.663 386.611,389.811 386.484,389.924 385.324 C 390.031 384.212,390.212 384.031,391.324 383.924 L 392.600 383.800 392.718 380.900 L 392.835 378.000 394.218 378.000 L 395.600 378.000 395.600 375.200 L 395.600 372.400 397.000 372.400 L 398.400 372.400 398.400 368.000 C 398.400 363.867,398.448 363.600,399.200 363.600 C 399.982 363.600,400.000 363.333,400.000 352.000 C 400.000 340.667,399.982 340.400,399.200 340.400 C 398.437 340.400,398.400 340.133,398.400 334.600 L 398.400 328.800 397.000 328.800 L 395.600 328.800 395.600 326.000 L 395.600 323.200 394.218 323.200 L 392.835 323.200 392.718 320.300 L 392.600 317.400 391.324 317.276 C 390.212 317.169,390.031 316.988,389.924 315.876 C 389.811 314.716,389.663 314.589,388.300 314.476 C 386.881 314.358,386.800 314.277,386.800 312.976 C 386.800 311.670,386.729 311.600,385.400 311.600 C 384.067 311.600,384.000 311.533,384.000 310.200 C 384.000 308.871,383.930 308.800,382.624 308.800 C 381.323 308.800,381.242 308.719,381.124 307.300 C 381.011 305.937,380.884 305.789,379.724 305.676 C 378.612 305.569,378.431 305.388,378.324 304.276 C 378.211 303.116,378.063 302.989,376.700 302.876 C 375.281 302.758,375.200 302.677,375.200 301.376 C 375.200 300.070,375.129 300.000,373.800 300.000 C 372.467 300.000,372.400 299.933,372.400 298.600 C 372.400 297.271,372.330 297.200,371.024 297.200 C 369.723 297.200,369.642 297.119,369.524 295.700 C 369.411 294.337,369.284 294.189,368.124 294.076 C 367.012 293.969,366.831 293.788,366.724 292.676 C 366.611 291.516,366.463 291.389,365.100 291.276 C 363.681 291.158,363.600 291.077,363.600 289.776 C 363.600 288.470,363.529 288.400,362.200 288.400 C 360.867 288.400,360.800 288.333,360.800 287.000 C 360.800 285.671,360.730 285.600,359.424 285.600 C 358.123 285.600,358.042 285.519,357.924 284.100 C 357.811 282.737,357.684 282.589,356.524 282.476 C 355.412 282.369,355.231 282.188,355.124 281.076 C 355.011 279.916,354.863 279.789,353.500 279.676 C 352.081 279.558,352.000 279.477,352.000 278.176 C 352.000 276.870,351.929 276.800,350.600 276.800 C 349.267 276.800,349.200 276.733,349.200 275.400 C 349.200 274.067,349.133 274.000,347.800 274.000 C 346.475 274.000,346.400 273.927,346.400 272.643 C 346.400 271.262,345.896 270.800,344.393 270.800 C 343.848 270.800,343.617 270.454,343.525 269.500 C 343.411 268.313,343.269 268.189,341.900 268.076 C 340.481 267.958,340.400 267.877,340.400 266.576 C 340.400 265.270,340.329 265.200,339.000 265.200 C 337.667 265.200,337.600 265.133,337.600 263.800 C 337.600 262.467,337.533 262.400,336.200 262.400 C 334.875 262.400,334.800 262.327,334.800 261.043 C 334.800 259.662,334.296 259.200,332.793 259.200 C 332.248 259.200,332.017 258.854,331.925 257.900 C 331.811 256.713,331.669 256.589,330.300 256.476 C 328.881 256.358,328.800 256.277,328.800 254.976 C 328.800 253.670,328.729 253.600,327.400 253.600 C 326.067 253.600,326.000 253.533,326.000 252.200 C 326.000 250.867,325.933 250.800,324.600 250.800 C 323.275 250.800,323.200 250.727,323.200 249.443 C 323.200 248.062,322.696 247.600,321.193 247.600 C 320.648 247.600,320.417 247.254,320.325 246.300 C 320.211 245.113,320.069 244.989,318.700 244.876 C 317.281 244.758,317.200 244.677,317.200 243.376 C 317.200 242.070,317.129 242.000,315.800 242.000 C 314.467 242.000,314.400 241.933,314.400 240.600 C 314.400 239.267,314.333 239.200,313.000 239.200 C 311.675 239.200,311.600 239.127,311.600 237.843 C 311.600 236.462,311.096 236.000,309.593 236.000 C 309.048 236.000,308.817 235.654,308.725 234.700 C 308.611 233.513,308.469 233.389,307.100 233.276 C 305.681 233.158,305.600 233.077,305.600 231.776 C 305.600 230.470,305.529 230.400,304.200 230.400 C 302.867 230.400,302.800 230.333,302.800 229.000 C 302.800 227.667,302.733 227.600,301.400 227.600 C 300.070 227.600,300.000 227.531,300.000 226.218 C 300.000 224.960,299.877 224.813,298.622 224.578 C 297.436 224.355,297.228 224.144,297.122 223.060 C 297.016 221.967,296.831 221.784,295.724 221.676 C 294.612 221.569,294.431 221.388,294.324 220.276 C 294.211 219.116,294.063 218.989,292.700 218.876 C 291.281 218.758,291.200 218.677,291.200 217.376 C 291.200 216.070,291.129 216.000,289.800 216.000 C 288.470 216.000,288.400 215.931,288.400 214.618 C 288.400 213.360,288.277 213.213,287.022 212.978 C 285.836 212.755,285.628 212.544,285.522 211.460 C 285.416 210.367,285.231 210.184,284.124 210.076 C 283.012 209.969,282.831 209.788,282.724 208.676 C 282.611 207.516,282.463 207.389,281.100 207.276 C 279.681 207.158,279.600 207.077,279.600 205.776 C 279.600 204.470,279.529 204.400,278.200 204.400 C 276.867 204.400,276.800 204.333,276.800 203.000 C 276.800 201.817,276.661 201.599,275.900 201.594 C 274.575 201.585,274.088 201.140,273.936 199.799 C 273.820 198.778,273.610 198.582,272.524 198.476 C 271.412 198.369,271.231 198.188,271.124 197.076 C 271.011 195.916,270.863 195.789,269.500 195.676 C 268.081 195.558,268.000 195.477,268.000 194.176 C 268.000 192.870,267.929 192.800,266.600 192.800 C 265.267 192.800,265.200 192.733,265.200 191.400 C 265.200 190.071,265.130 190.000,263.824 190.000 C 262.523 190.000,262.442 189.919,262.324 188.500 C 262.211 187.137,262.084 186.989,260.924 186.876 C 259.812 186.769,259.631 186.588,259.524 185.476 C 259.411 184.316,259.263 184.189,257.900 184.076 C 256.481 183.958,256.400 183.877,256.400 182.576 C 256.400 181.270,256.329 181.200,255.000 181.200 C 253.667 181.200,253.600 181.133,253.600 179.800 C 253.600 178.471,253.530 178.400,252.224 178.400 C 250.923 178.400,250.842 178.319,250.724 176.900 C 250.611 175.537,250.484 175.389,249.324 175.276 C 248.212 175.169,248.031 174.988,247.924 173.876 C 247.811 172.716,247.663 172.589,246.300 172.476 C 244.881 172.358,244.800 172.277,244.800 170.976 C 244.800 169.670,244.729 169.600,243.400 169.600 C 242.067 169.600,242.000 169.533,242.000 168.200 C 242.000 166.867,241.933 166.800,240.600 166.800 C 239.275 166.800,239.200 166.727,239.200 165.443 C 239.200 164.062,238.696 163.600,237.193 163.600 C 236.648 163.600,236.417 163.254,236.325 162.300 C 236.211 161.113,236.069 160.989,234.700 160.876 C 233.281 160.758,233.200 160.677,233.200 159.376 C 233.200 158.070,233.129 158.000,231.800 158.000 C 230.467 158.000,230.400 157.933,230.400 156.600 C 230.400 155.267,230.333 155.200,229.000 155.200 C 227.675 155.200,227.600 155.127,227.600 153.843 C 227.600 152.462,227.096 152.000,225.593 152.000 C 225.048 152.000,224.817 151.654,224.725 150.700 C 224.611 149.513,224.469 149.389,223.100 149.276 C 221.681 149.158,221.600 149.077,221.600 147.776 C 221.600 146.470,221.529 146.400,220.200 146.400 C 218.867 146.400,218.800 146.333,218.800 145.000 C 218.800 143.667,218.733 143.600,217.400 143.600 C 216.075 143.600,216.000 143.527,216.000 142.243 C 216.000 140.862,215.496 140.400,213.993 140.400 C 213.448 140.400,213.217 140.054,213.125 139.100 C 213.011 137.913,212.869 137.789,211.500 137.676 C 210.081 137.558,210.000 137.477,210.000 136.176 C 210.000 134.870,209.929 134.800,208.600 134.800 C 207.267 134.800,207.200 134.733,207.200 133.400 C 207.200 132.067,207.133 132.000,205.800 132.000 C 204.475 132.000,204.400 131.927,204.400 130.643 C 204.400 129.262,203.896 128.800,202.393 128.800 C 201.848 128.800,201.617 128.454,201.525 127.500 C 201.411 126.313,201.269 126.189,199.900 126.076 C 198.481 125.958,198.400 125.877,198.400 124.576 C 198.400 123.270,198.329 123.200,197.000 123.200 C 195.667 123.200,195.600 123.133,195.600 121.800 C 195.600 120.467,195.533 120.400,194.200 120.400 C 192.870 120.400,192.800 120.331,192.800 119.018 C 192.800 117.760,192.677 117.613,191.422 117.378 C 190.236 117.155,190.028 116.944,189.922 115.860 C 189.812 114.719,189.658 114.588,188.300 114.476 C 186.881 114.358,186.800 114.277,186.800 112.976 C 186.800 111.670,186.729 111.600,185.400 111.600 C 184.067 111.600,184.000 111.533,184.000 110.200 C 184.000 108.867,183.933 108.800,182.600 108.800 C 181.270 108.800,181.200 108.731,181.200 107.418 C 181.200 106.156,181.079 106.014,179.800 105.774 C 178.813 105.589,178.400 105.298,178.400 104.788 C 178.400 103.304,177.932 102.800,176.557 102.800 C 175.273 102.800,175.200 102.725,175.200 101.400 C 175.200 100.067,175.133 100.000,173.800 100.000 C 172.467 100.000,172.400 99.933,172.400 98.600 C 172.400 97.267,172.333 97.200,171.000 97.200 C 169.675 97.200,169.600 97.127,169.600 95.845 C 169.600 94.612,169.473 94.465,168.200 94.226 C 167.192 94.037,166.800 93.754,166.800 93.215 C 166.800 91.704,166.339 91.200,164.957 91.200 C 163.673 91.200,163.600 91.125,163.600 89.800 C 163.600 88.467,163.533 88.400,162.200 88.400 C 160.867 88.400,160.800 88.333,160.800 87.000 C 160.800 85.667,160.733 85.600,159.400 85.600 C 158.067 85.600,158.000 85.533,158.000 84.200 C 158.000 83.087,157.843 82.800,157.233 82.800 C 155.951 82.800,155.200 82.353,155.200 81.590 C 155.200 80.104,154.733 79.600,153.357 79.600 C 152.073 79.600,152.000 79.525,152.000 78.200 C 152.000 76.867,151.933 76.800,150.600 76.800 C 149.267 76.800,149.200 76.733,149.200 75.400 C 149.200 74.067,149.133 74.000,147.800 74.000 C 146.467 74.000,146.400 73.933,146.400 72.600 C 146.400 71.267,146.333 71.200,145.000 71.200 C 143.786 71.200,143.600 71.072,143.600 70.233 C 143.600 68.496,143.191 68.000,141.757 68.000 C 140.473 68.000,140.400 67.925,140.400 66.600 C 140.400 65.267,140.333 65.200,139.000 65.200 C 137.667 65.200,137.600 65.133,137.600 63.800 C 137.600 62.467,137.533 62.400,136.200 62.400 C 134.867 62.400,134.800 62.333,134.800 61.000 C 134.800 59.667,134.733 59.600,133.400 59.600 C 132.186 59.600,132.000 59.472,132.000 58.633 C 132.000 56.896,131.591 56.400,130.157 56.400 C 128.873 56.400,128.800 56.325,128.800 55.000 C 128.800 53.667,128.733 53.600,127.400 53.600 C 126.067 53.600,126.000 53.533,126.000 52.200 C 126.000 50.867,125.933 50.800,124.600 50.800 C 123.267 50.800,123.200 50.733,123.200 49.400 C 123.200 48.067,123.133 48.000,121.800 48.000 C 120.533 48.000,120.400 47.893,120.400 46.880 C 120.400 45.459,119.741 44.800,118.320 44.800 C 117.307 44.800,117.200 44.667,117.200 43.400 C 117.200 42.067,117.133 42.000,115.800 42.000 C 114.467 42.000,114.400 41.933,114.400 40.600 C 114.400 39.267,114.333 39.200,113.000 39.200 C 111.667 39.200,111.600 39.133,111.600 37.800 C 111.600 36.467,111.533 36.400,110.200 36.400 C 108.933 36.400,108.800 36.293,108.800 35.280 C 108.800 33.859,108.141 33.200,106.720 33.200 C 105.707 33.200,105.600 33.067,105.600 31.800 C 105.600 30.467,105.533 30.400,104.200 30.400 C 102.867 30.400,102.800 30.333,102.800 29.000 C 102.800 27.667,102.733 27.600,101.400 27.600 C 100.067 27.600,100.000 27.533,100.000 26.200 C 100.000 24.867,99.933 24.800,98.600 24.800 C 97.275 24.800,97.200 24.727,97.200 23.443 C 97.200 22.062,96.696 21.600,95.193 21.600 C 94.648 21.600,94.417 21.254,94.325 20.300 C 94.211 19.113,94.069 18.989,92.700 18.876 C 91.281 18.758,91.200 18.677,91.200 17.376 C 91.200 16.070,91.129 16.000,89.800 16.000 C 88.467 16.000,88.400 15.933,88.400 14.600 C 88.400 13.267,88.333 13.200,87.000 13.200 C 85.675 13.200,85.600 13.127,85.600 11.843 C 85.600 10.456,85.097 10.000,83.567 10.000 C 83.078 10.000,82.800 9.722,82.800 9.233 C 82.800 7.428,82.437 7.200,79.557 7.200 L 76.800 7.200 76.800 5.800 L 76.800 4.400 74.025 4.400 L 71.251 4.400 71.125 3.100 L 71.000 1.800 65.300 1.689 C 59.931 1.584,59.600 1.532,59.600 0.789 C 59.600 0.024,59.286 0.000,49.400 0.000 C 39.467 0.000,39.200 0.021,39.200 0.800 " stroke="none" fill="#ffffff" fill-rule="evenodd"></path><path id="path1" d="M39.200 0.800 C 39.200 1.563,38.933 1.600,33.400 1.600 L 27.600 1.600 27.600 3.000 L 27.600 4.400 24.843 4.400 C 21.972 4.400,21.600 4.630,21.600 6.407 C 21.600 6.952,21.254 7.183,20.300 7.275 C 19.157 7.385,18.985 7.557,18.875 8.700 C 18.750 9.989,18.732 10.000,16.607 10.000 C 13.638 10.000,13.200 10.237,13.200 11.843 C 13.200 13.119,13.119 13.200,11.843 13.200 C 10.237 13.200,10.000 13.638,10.000 16.607 C 10.000 18.732,9.989 18.750,8.700 18.875 C 7.557 18.985,7.385 19.157,7.275 20.300 C 7.183 21.254,6.952 21.600,6.407 21.600 C 4.630 21.600,4.400 21.972,4.400 24.843 L 4.400 27.600 3.000 27.600 L 1.600 27.600 1.600 33.400 C 1.600 38.933,1.563 39.200,0.800 39.200 C 0.018 39.200,0.000 39.467,0.000 50.800 C 0.000 62.133,0.018 62.400,0.800 62.400 C 1.549 62.400,1.600 62.667,1.600 66.600 L 1.600 70.800 3.000 70.800 L 4.400 70.800 4.400 73.800 L 4.400 76.800 5.800 76.800 L 7.200 76.800 7.200 79.600 L 7.200 82.400 8.600 82.400 C 9.867 82.400,10.000 82.507,10.000 83.520 C 10.000 84.941,10.659 85.600,12.080 85.600 C 13.093 85.600,13.200 85.733,13.200 87.000 C 13.200 88.333,13.267 88.400,14.600 88.400 C 15.933 88.400,16.000 88.467,16.000 89.800 C 16.000 91.133,16.067 91.200,17.400 91.200 C 18.733 91.200,18.800 91.267,18.800 92.600 C 18.800 93.933,18.867 94.000,20.200 94.000 C 21.467 94.000,21.600 94.107,21.600 95.120 C 21.600 96.541,22.259 97.200,23.680 97.200 C 24.693 97.200,24.800 97.333,24.800 98.600 C 24.800 99.933,24.867 100.000,26.200 100.000 C 27.533 100.000,27.600 100.067,27.600 101.400 C 27.600 102.733,27.667 102.800,29.000 102.800 C 30.333 102.800,30.400 102.867,30.400 104.200 C 30.400 105.533,30.467 105.600,31.800 105.600 C 33.067 105.600,33.200 105.707,33.200 106.720 C 33.200 108.141,33.859 108.800,35.280 108.800 C 36.293 108.800,36.400 108.933,36.400 110.200 C 36.400 111.533,36.467 111.600,37.800 111.600 C 39.133 111.600,39.200 111.667,39.200 113.000 C 39.200 114.333,39.267 114.400,40.600 114.400 C 41.933 114.400,42.000 114.467,42.000 115.800 C 42.000 117.133,42.067 117.200,43.400 117.200 C 44.667 117.200,44.800 117.307,44.800 118.320 C 44.800 119.741,45.459 120.400,46.880 120.400 C 47.893 120.400,48.000 120.533,48.000 121.800 C 48.000 123.133,48.067 123.200,49.400 123.200 C 50.733 123.200,50.800 123.267,50.800 124.600 C 50.800 125.933,50.867 126.000,52.200 126.000 C 53.533 126.000,53.600 126.067,53.600 127.400 C 53.600 128.733,53.667 128.800,55.000 128.800 C 56.267 128.800,56.400 128.907,56.400 129.920 C 56.400 131.341,57.059 132.000,58.480 132.000 C 59.493 132.000,59.600 132.133,59.600 133.400 C 59.600 134.733,59.667 134.800,61.000 134.800 C 62.333 134.800,62.400 134.867,62.400 136.200 C 62.400 137.533,62.467 137.600,63.800 137.600 C 65.133 137.600,65.200 137.667,65.200 139.000 C 65.200 140.333,65.267 140.400,66.600 140.400 C 67.867 140.400,68.000 140.507,68.000 141.520 C 68.000 142.934,68.658 143.600,70.055 143.600 C 70.997 143.600,71.167 143.781,71.275 144.900 C 71.385 146.043,71.557 146.215,72.700 146.325 C 73.890 146.440,74.000 146.567,74.000 147.825 C 74.000 149.130,74.072 149.200,75.400 149.200 C 76.733 149.200,76.800 149.267,76.800 150.600 C 76.800 151.933,76.867 152.000,78.200 152.000 C 79.467 152.000,79.600 152.107,79.600 153.120 C 79.600 154.534,80.258 155.200,81.655 155.200 C 82.597 155.200,82.767 155.381,82.875 156.500 C 82.985 157.643,83.157 157.815,84.300 157.925 C 85.490 158.040,85.600 158.167,85.600 159.425 C 85.600 160.730,85.672 160.800,87.000 160.800 C 88.333 160.800,88.400 160.867,88.400 162.200 C 88.400 163.533,88.467 163.600,89.800 163.600 C 91.067 163.600,91.200 163.707,91.200 164.720 C 91.200 166.134,91.858 166.800,93.255 166.800 C 94.197 166.800,94.367 166.981,94.475 168.100 C 94.585 169.243,94.757 169.415,95.900 169.525 C 97.090 169.640,97.200 169.767,97.200 171.025 C 97.200 172.330,97.272 172.400,98.600 172.400 C 99.933 172.400,100.000 172.467,100.000 173.800 C 100.000 175.128,100.070 175.200,101.375 175.200 C 102.633 175.200,102.760 175.310,102.875 176.500 C 102.989 177.683,103.133 177.811,104.477 177.923 C 105.865 178.038,105.962 178.135,106.077 179.523 C 106.189 180.867,106.317 181.011,107.500 181.125 C 108.690 181.240,108.800 181.367,108.800 182.625 C 108.800 183.930,108.872 184.000,110.200 184.000 C 111.533 184.000,111.600 184.067,111.600 185.400 C 111.600 186.728,111.670 186.800,112.975 186.800 C 114.233 186.800,114.360 186.910,114.475 188.100 C 114.589 189.283,114.733 189.411,116.077 189.523 C 117.465 189.638,117.562 189.735,117.677 191.123 C 117.789 192.467,117.917 192.611,119.100 192.725 C 120.290 192.840,120.400 192.967,120.400 194.225 C 120.400 195.530,120.472 195.600,121.800 195.600 C 123.133 195.600,123.200 195.667,123.200 197.000 C 123.200 198.328,123.270 198.400,124.575 198.400 C 125.833 198.400,125.960 198.510,126.075 199.700 C 126.189 200.883,126.333 201.011,127.677 201.123 C 129.065 201.238,129.162 201.335,129.277 202.723 C 129.389 204.067,129.517 204.211,130.700 204.325 C 131.890 204.440,132.000 204.567,132.000 205.825 C 132.000 207.130,132.072 207.200,133.400 207.200 C 134.733 207.200,134.800 207.267,134.800 208.600 C 134.800 209.928,134.870 210.000,136.175 210.000 C 137.433 210.000,137.560 210.110,137.675 211.300 C 137.785 212.443,137.957 212.615,139.099 212.725 C 140.138 212.825,140.444 213.066,140.632 213.925 C 141.058 215.874,141.164 216.000,142.387 216.000 C 143.507 216.000,143.600 216.108,143.600 217.400 C 143.600 218.733,143.667 218.800,145.000 218.800 C 146.333 218.800,146.400 218.867,146.400 220.200 C 146.400 221.528,146.470 221.600,147.775 221.600 C 149.033 221.600,149.160 221.710,149.275 222.900 C 149.385 224.043,149.557 224.215,150.699 224.325 C 151.738 224.425,152.044 224.666,152.232 225.525 C 152.658 227.474,152.764 227.600,153.987 227.600 C 155.107 227.600,155.200 227.708,155.200 229.000 C 155.200 230.333,155.267 230.400,156.600 230.400 C 157.933 230.400,158.000 230.467,158.000 231.800 C 158.000 233.133,158.067 233.200,159.400 233.200 C 160.733 233.200,160.800 233.267,160.800 234.600 C 160.800 235.919,160.877 236.000,162.129 236.000 C 163.333 236.000,163.494 236.142,163.829 237.500 C 164.152 238.807,164.367 239.016,165.500 239.125 C 166.690 239.240,166.800 239.367,166.800 240.625 C 166.800 241.930,166.872 242.000,168.200 242.000 C 169.533 242.000,169.600 242.067,169.600 243.400 C 169.600 244.728,169.670 244.800,170.975 244.800 C 172.233 244.800,172.360 244.910,172.475 246.100 C 172.583 247.227,172.764 247.416,173.834 247.520 C 174.889 247.623,175.122 247.856,175.434 249.120 C 175.750 250.399,175.974 250.617,177.076 250.724 C 178.188 250.831,178.369 251.012,178.476 252.124 C 178.585 253.240,178.762 253.416,179.900 253.525 C 181.090 253.640,181.200 253.767,181.200 255.025 C 181.200 256.330,181.272 256.400,182.600 256.400 C 183.933 256.400,184.000 256.467,184.000 257.800 C 184.000 259.133,184.067 259.200,185.400 259.200 C 186.548 259.200,186.800 259.349,186.800 260.026 C 186.800 261.499,187.555 262.400,188.789 262.400 C 189.806 262.400,189.965 262.561,190.075 263.700 C 190.185 264.843,190.357 265.015,191.500 265.125 C 192.690 265.240,192.800 265.367,192.800 266.625 C 192.800 267.930,192.872 268.000,194.200 268.000 C 195.533 268.000,195.600 268.067,195.600 269.400 C 195.600 270.733,195.667 270.800,197.000 270.800 C 198.148 270.800,198.400 270.949,198.400 271.626 C 198.400 273.099,199.155 274.000,200.389 274.000 C 201.406 274.000,201.565 274.161,201.675 275.300 C 201.785 276.443,201.957 276.615,203.100 276.725 C 204.290 276.840,204.400 276.967,204.400 278.225 C 204.400 279.530,204.472 279.600,205.800 279.600 C 207.133 279.600,207.200 279.667,207.200 281.000 C 207.200 282.333,207.267 282.400,208.600 282.400 C 209.748 282.400,210.000 282.549,210.000 283.226 C 210.000 284.699,210.755 285.600,211.989 285.600 C 213.006 285.600,213.165 285.761,213.275 286.900 C 213.385 288.043,213.557 288.215,214.700 288.325 C 215.890 288.440,216.000 288.567,216.000 289.825 C 216.000 291.130,216.072 291.200,217.400 291.200 C 218.733 291.200,218.800 291.267,218.800 292.600 C 218.800 293.933,218.867 294.000,220.200 294.000 C 221.313 294.000,221.600 294.157,221.600 294.767 C 221.600 296.289,222.057 296.800,223.419 296.800 C 224.670 296.800,224.759 296.892,224.876 298.300 C 224.989 299.669,225.113 299.811,226.300 299.925 C 227.490 300.040,227.600 300.167,227.600 301.425 C 227.600 302.730,227.672 302.800,229.000 302.800 C 230.333 302.800,230.400 302.867,230.400 304.200 C 230.400 305.528,230.470 305.600,231.775 305.600 C 233.033 305.600,233.160 305.710,233.275 306.900 C 233.389 308.083,233.533 308.211,234.877 308.323 C 236.265 308.438,236.362 308.535,236.477 309.923 C 236.589 311.267,236.717 311.411,237.900 311.525 C 239.090 311.640,239.200 311.767,239.200 313.025 C 239.200 314.330,239.272 314.400,240.600 314.400 C 241.933 314.400,242.000 314.467,242.000 315.800 C 242.000 317.128,242.070 317.200,243.375 317.200 C 244.633 317.200,244.760 317.310,244.875 318.500 C 244.989 319.683,245.133 319.811,246.477 319.923 C 247.865 320.038,247.962 320.135,248.077 321.523 C 248.188 322.861,248.320 323.012,249.476 323.124 C 250.588 323.231,250.769 323.412,250.876 324.524 C 250.985 325.640,251.162 325.816,252.300 325.925 C 253.490 326.040,253.600 326.167,253.600 327.425 C 253.600 328.725,253.675 328.800,254.975 328.800 C 256.233 328.800,256.360 328.910,256.475 330.100 C 256.589 331.283,256.733 331.411,258.077 331.523 C 259.465 331.638,259.562 331.735,259.677 333.123 C 259.788 334.461,259.920 334.612,261.076 334.724 C 262.188 334.831,262.369 335.012,262.476 336.124 C 262.585 337.240,262.762 337.416,263.900 337.525 C 265.090 337.640,265.200 337.767,265.200 339.025 C 265.200 340.325,265.275 340.400,266.575 340.400 C 267.833 340.400,267.960 340.510,268.075 341.700 C 268.189 342.883,268.333 343.011,269.677 343.123 C 271.065 343.238,271.162 343.335,271.277 344.723 C 271.388 346.061,271.520 346.212,272.676 346.324 C 273.788 346.431,273.969 346.612,274.076 347.724 C 274.185 348.840,274.362 349.016,275.500 349.125 C 276.685 349.240,276.800 349.370,276.800 350.600 C 276.800 351.830,276.685 351.960,275.500 352.075 C 274.362 352.184,274.185 352.360,274.076 353.476 C 273.969 354.588,273.788 354.769,272.676 354.876 C 271.520 354.988,271.388 355.139,271.277 356.477 C 271.162 357.865,271.065 357.962,269.677 358.077 C 268.333 358.189,268.189 358.317,268.075 359.500 C 267.960 360.690,267.833 360.800,266.575 360.800 C 265.275 360.800,265.200 360.875,265.200 362.175 C 265.200 363.433,265.090 363.560,263.900 363.675 C 262.762 363.784,262.585 363.960,262.476 365.076 C 262.369 366.188,262.188 366.369,261.076 366.476 C 259.920 366.588,259.788 366.739,259.677 368.077 C 259.562 369.465,259.465 369.562,258.077 369.677 C 256.733 369.789,256.589 369.917,256.475 371.100 C 256.360 372.290,256.233 372.400,254.975 372.400 C 253.670 372.400,253.600 372.472,253.600 373.800 C 253.600 375.133,253.533 375.200,252.200 375.200 C 250.872 375.200,250.800 375.270,250.800 376.575 C 250.800 377.833,250.690 377.960,249.500 378.075 C 248.317 378.189,248.189 378.333,248.077 379.677 C 247.962 381.065,247.865 381.162,246.477 381.277 C 245.133 381.389,244.989 381.517,244.875 382.700 C 244.760 383.890,244.633 384.000,243.375 384.000 C 242.070 384.000,242.000 384.072,242.000 385.400 C 242.000 386.733,241.933 386.800,240.600 386.800 C 239.272 386.800,239.200 386.870,239.200 388.175 C 239.200 389.433,239.090 389.560,237.900 389.675 C 236.717 389.789,236.589 389.933,236.477 391.277 C 236.362 392.665,236.265 392.762,234.877 392.877 C 233.533 392.989,233.389 393.117,233.275 394.300 C 233.160 395.490,233.033 395.600,231.775 395.600 C 230.470 395.600,230.400 395.672,230.400 397.000 C 230.400 398.333,230.333 398.400,229.000 398.400 C 227.672 398.400,227.600 398.470,227.600 399.775 C 227.600 401.033,227.490 401.160,226.300 401.275 C 225.113 401.389,224.989 401.531,224.876 402.900 C 224.759 404.308,224.670 404.400,223.419 404.400 C 222.057 404.400,221.600 404.911,221.600 406.433 C 221.600 407.043,221.313 407.200,220.200 407.200 C 218.867 407.200,218.800 407.267,218.800 408.600 C 218.800 409.933,218.733 410.000,217.400 410.000 C 216.072 410.000,216.000 410.070,216.000 411.375 C 216.000 412.633,215.890 412.760,214.700 412.875 C 213.517 412.989,213.389 413.133,213.277 414.477 C 213.162 415.865,213.065 415.962,211.677 416.077 C 210.333 416.189,210.189 416.317,210.075 417.500 C 209.960 418.690,209.833 418.800,208.575 418.800 C 207.270 418.800,207.200 418.872,207.200 420.200 C 207.200 421.533,207.133 421.600,205.800 421.600 C 204.472 421.600,204.400 421.670,204.400 422.975 C 204.400 424.233,204.290 424.360,203.100 424.475 C 201.913 424.589,201.789 424.731,201.676 426.100 C 201.559 427.508,201.470 427.600,200.219 427.600 C 198.857 427.600,198.400 428.111,198.400 429.633 C 198.400 430.243,198.113 430.400,197.000 430.400 C 195.667 430.400,195.600 430.467,195.600 431.800 C 195.600 433.133,195.533 433.200,194.200 433.200 C 192.872 433.200,192.800 433.270,192.800 434.575 C 192.800 435.833,192.690 435.960,191.500 436.075 C 190.363 436.184,190.185 436.360,190.077 437.473 C 189.973 438.542,189.748 438.791,188.677 439.024 C 187.234 439.337,186.815 439.802,186.806 441.100 C 186.801 441.861,186.583 442.000,185.400 442.000 C 184.067 442.000,184.000 442.067,184.000 443.400 C 184.000 444.733,183.933 444.800,182.600 444.800 C 181.272 444.800,181.200 444.870,181.200 446.175 C 181.200 447.433,181.090 447.560,179.900 447.675 C 178.767 447.784,178.584 447.961,178.478 449.060 C 178.373 450.141,178.163 450.356,176.993 450.575 C 175.833 450.793,175.593 451.033,175.375 452.193 C 175.156 453.363,174.941 453.573,173.860 453.678 C 172.761 453.784,172.584 453.967,172.475 455.100 C 172.360 456.290,172.233 456.400,170.975 456.400 C 169.670 456.400,169.600 456.472,169.600 457.800 C 169.600 459.133,169.533 459.200,168.200 459.200 C 166.867 459.200,166.800 459.267,166.800 460.600 C 166.800 461.713,166.643 462.000,166.033 462.000 C 164.605 462.000,164.023 462.473,163.766 463.839 C 163.536 465.069,163.381 465.200,162.155 465.200 C 160.873 465.200,160.800 465.275,160.800 466.600 C 160.800 467.933,160.733 468.000,159.400 468.000 C 158.067 468.000,158.000 468.067,158.000 469.400 C 158.000 470.733,157.933 470.800,156.600 470.800 C 155.272 470.800,155.200 470.870,155.200 472.175 C 155.200 473.430,155.088 473.560,153.913 473.675 C 152.794 473.784,152.580 473.994,152.278 475.277 C 151.978 476.554,151.760 476.771,150.666 476.877 C 149.561 476.984,149.384 477.165,149.275 478.300 C 149.160 479.490,149.033 479.600,147.775 479.600 C 146.470 479.600,146.400 479.672,146.400 481.000 C 146.400 482.333,146.333 482.400,145.000 482.400 C 143.672 482.400,143.600 482.470,143.600 483.775 C 143.600 485.030,143.488 485.160,142.313 485.275 C 141.194 485.384,140.980 485.594,140.678 486.877 C 140.378 488.154,140.160 488.371,139.066 488.477 C 137.961 488.584,137.784 488.765,137.675 489.900 C 137.560 491.090,137.433 491.200,136.175 491.200 C 134.870 491.200,134.800 491.272,134.800 492.600 C 134.800 493.933,134.733 494.000,133.400 494.000 C 132.072 494.000,132.000 494.070,132.000 495.375 C 132.000 496.633,131.890 496.760,130.700 496.875 C 129.517 496.989,129.389 497.133,129.277 498.477 C 129.162 499.865,129.065 499.962,127.677 500.077 C 126.333 500.189,126.189 500.317,126.075 501.500 C 125.960 502.690,125.833 502.800,124.575 502.800 C 123.270 502.800,123.200 502.872,123.200 504.200 C 123.200 505.533,123.133 505.600,121.800 505.600 C 120.472 505.600,120.400 505.670,120.400 506.975 C 120.400 508.233,120.290 508.360,119.100 508.475 C 117.917 508.589,117.789 508.733,117.677 510.077 C 117.562 511.465,117.465 511.562,116.077 511.677 C 114.733 511.789,114.589 511.917,114.475 513.100 C 114.360 514.290,114.233 514.400,112.975 514.400 C 111.670 514.400,111.600 514.472,111.600 515.800 C 111.600 517.133,111.533 517.200,110.200 517.200 C 108.872 517.200,108.800 517.270,108.800 518.575 C 108.800 519.833,108.690 519.960,107.500 520.075 C 106.317 520.189,106.189 520.333,106.077 521.677 C 105.962 523.065,105.865 523.162,104.477 523.277 C 103.133 523.389,102.989 523.517,102.875 524.700 C 102.760 525.890,102.633 526.000,101.375 526.000 C 100.070 526.000,100.000 526.072,100.000 527.400 C 100.000 528.733,99.933 528.800,98.600 528.800 C 97.272 528.800,97.200 528.870,97.200 530.175 C 97.200 531.433,97.090 531.560,95.900 531.675 C 94.717 531.789,94.589 531.933,94.477 533.277 C 94.362 534.665,94.265 534.762,92.877 534.877 C 91.533 534.989,91.389 535.117,91.275 536.300 C 91.160 537.490,91.033 537.600,89.775 537.600 C 88.470 537.600,88.400 537.672,88.400 539.000 C 88.400 540.333,88.333 540.400,87.000 540.400 C 85.672 540.400,85.600 540.470,85.600 541.775 C 85.600 543.033,85.490 543.160,84.300 543.275 C 83.165 543.384,82.984 543.561,82.877 544.666 C 82.771 545.760,82.554 545.978,81.277 546.278 C 79.994 546.580,79.784 546.794,79.675 547.913 C 79.560 549.088,79.430 549.200,78.175 549.200 C 76.870 549.200,76.800 549.272,76.800 550.600 C 76.800 551.933,76.733 552.000,75.400 552.000 C 74.067 552.000,74.000 552.067,74.000 553.400 C 74.000 554.733,73.933 554.800,72.600 554.800 C 71.274 554.800,71.200 554.872,71.200 556.160 C 71.200 557.403,71.070 557.551,69.700 557.873 C 68.392 558.180,68.184 558.390,68.075 559.513 C 67.960 560.688,67.830 560.800,66.575 560.800 C 65.270 560.800,65.200 560.872,65.200 562.200 C 65.200 563.533,65.133 563.600,63.800 563.600 C 62.467 563.600,62.400 563.667,62.400 565.000 C 62.400 566.333,62.333 566.400,61.000 566.400 C 59.681 566.400,59.600 566.477,59.600 567.729 C 59.600 568.933,59.458 569.094,58.100 569.429 C 56.793 569.752,56.584 569.967,56.475 571.100 C 56.360 572.290,56.233 572.400,54.975 572.400 C 53.670 572.400,53.600 572.472,53.600 573.800 C 53.600 575.133,53.533 575.200,52.200 575.200 C 50.867 575.200,50.800 575.267,50.800 576.600 C 50.800 577.933,50.733 578.000,49.400 578.000 C 48.067 578.000,48.000 578.067,48.000 579.400 C 48.000 580.548,47.851 580.800,47.174 580.800 C 45.688 580.800,44.800 581.553,44.800 582.814 C 44.800 583.903,44.685 584.000,43.400 584.000 C 42.067 584.000,42.000 584.067,42.000 585.400 C 42.000 586.733,41.933 586.800,40.600 586.800 C 39.267 586.800,39.200 586.867,39.200 588.200 C 39.200 589.533,39.133 589.600,37.800 589.600 C 36.467 589.600,36.400 589.667,36.400 591.000 C 36.400 592.267,36.293 592.400,35.280 592.400 C 33.859 592.400,33.200 593.059,33.200 594.480 C 33.200 595.493,33.067 595.600,31.800 595.600 C 30.467 595.600,30.400 595.667,30.400 597.000 C 30.400 598.333,30.333 598.400,29.000 598.400 C 27.667 598.400,27.600 598.467,27.600 599.800 C 27.600 601.133,27.533 601.200,26.200 601.200 C 24.867 601.200,24.800 601.267,24.800 602.600 C 24.800 603.867,24.693 604.000,23.680 604.000 C 22.259 604.000,21.600 604.659,21.600 606.080 C 21.600 607.093,21.467 607.200,20.200 607.200 C 18.867 607.200,18.800 607.267,18.800 608.600 C 18.800 609.933,18.733 610.000,17.400 610.000 C 16.067 610.000,16.000 610.067,16.000 611.400 C 16.000 612.733,15.933 612.800,14.600 612.800 C 13.267 612.800,13.200 612.867,13.200 614.200 C 13.200 615.467,13.093 615.600,12.080 615.600 C 10.659 615.600,10.000 616.259,10.000 617.680 C 10.000 618.693,9.867 618.800,8.600 618.800 L 7.200 618.800 7.200 621.600 L 7.200 624.400 5.800 624.400 L 4.400 624.400 4.400 627.400 L 4.400 630.400 3.000 630.400 L 1.600 630.400 1.600 634.600 C 1.600 638.533,1.549 638.800,0.800 638.800 C 0.018 638.800,0.000 639.067,0.000 650.400 C 0.000 661.733,0.018 662.000,0.800 662.000 C 1.563 662.000,1.600 662.267,1.600 667.800 L 1.600 673.600 3.000 673.600 L 4.400 673.600 4.400 676.357 C 4.400 679.228,4.630 679.600,6.407 679.600 C 6.952 679.600,7.183 679.946,7.275 680.900 C 7.384 682.038,7.560 682.215,8.676 682.324 C 9.788 682.431,9.969 682.612,10.076 683.724 C 10.189 684.884,10.337 685.011,11.700 685.124 C 13.119 685.242,13.200 685.323,13.200 686.624 C 13.200 687.925,13.275 688.000,14.576 688.000 C 15.877 688.000,15.958 688.081,16.076 689.500 C 16.189 690.863,16.316 691.011,17.476 691.124 C 18.588 691.231,18.769 691.412,18.876 692.524 C 18.985 693.640,19.162 693.816,20.300 693.925 C 21.254 694.017,21.600 694.248,21.600 694.793 C 21.600 696.570,21.972 696.800,24.843 696.800 L 27.600 696.800 27.600 698.200 L 27.600 699.600 34.800 699.600 C 41.733 699.600,42.000 699.630,42.000 700.400 C 42.000 701.176,42.267 701.200,50.800 701.200 C 59.293 701.200,59.600 701.172,59.600 700.411 C 59.600 699.668,59.931 699.616,65.300 699.511 L 71.000 699.400 71.125 698.100 L 71.251 696.800 74.025 696.800 L 76.800 696.800 76.800 695.400 C 76.800 694.067,76.867 694.000,78.200 694.000 C 79.533 694.000,79.600 693.933,79.600 692.600 L 79.600 691.200 82.120 691.200 C 84.919 691.200,85.600 690.793,85.600 689.120 C 85.600 688.107,85.733 688.000,87.000 688.000 C 88.333 688.000,88.400 687.933,88.400 686.600 C 88.400 685.267,88.467 685.200,89.800 685.200 C 91.129 685.200,91.200 685.130,91.200 683.824 C 91.200 682.523,91.281 682.442,92.700 682.324 C 94.063 682.211,94.211 682.084,94.324 680.924 C 94.431 679.812,94.612 679.631,95.724 679.524 C 96.884 679.411,97.011 679.263,97.124 677.900 C 97.242 676.481,97.323 676.400,98.624 676.400 C 99.930 676.400,100.000 676.329,100.000 675.000 C 100.000 673.667,100.067 673.600,101.400 673.600 C 102.733 673.600,102.800 673.533,102.800 672.200 C 102.800 670.867,102.867 670.800,104.200 670.800 C 105.529 670.800,105.600 670.730,105.600 669.424 C 105.600 668.123,105.681 668.042,107.100 667.924 C 108.519 667.807,108.607 667.719,108.724 666.300 C 108.842 664.881,108.923 664.800,110.224 664.800 C 111.530 664.800,111.600 664.729,111.600 663.400 C 111.600 662.067,111.667 662.000,113.000 662.000 C 114.333 662.000,114.400 661.933,114.400 660.600 C 114.400 659.267,114.467 659.200,115.800 659.200 C 117.129 659.200,117.200 659.130,117.200 657.824 C 117.200 656.523,117.281 656.442,118.700 656.324 C 120.119 656.207,120.207 656.119,120.324 654.700 C 120.442 653.281,120.523 653.200,121.824 653.200 C 123.130 653.200,123.200 653.129,123.200 651.800 C 123.200 650.467,123.267 650.400,124.600 650.400 C 125.933 650.400,126.000 650.333,126.000 649.000 C 126.000 647.667,126.067 647.600,127.400 647.600 C 128.729 647.600,128.800 647.530,128.800 646.224 C 128.800 644.923,128.881 644.842,130.300 644.724 C 131.663 644.611,131.811 644.484,131.924 643.324 C 132.031 642.212,132.212 642.031,133.324 641.924 C 134.484 641.811,134.611 641.663,134.724 640.300 C 134.842 638.881,134.923 638.800,136.224 638.800 C 137.530 638.800,137.600 638.729,137.600 637.400 C 137.600 636.067,137.667 636.000,139.000 636.000 C 140.329 636.000,140.400 635.930,140.400 634.624 C 140.400 633.323,140.481 633.242,141.900 633.124 C 143.263 633.011,143.411 632.884,143.524 631.724 C 143.631 630.612,143.812 630.431,144.924 630.324 C 146.084 630.211,146.211 630.063,146.324 628.700 C 146.442 627.281,146.523 627.200,147.824 627.200 C 149.130 627.200,149.200 627.129,149.200 625.800 C 149.200 624.467,149.267 624.400,150.600 624.400 C 151.929 624.400,152.000 624.330,152.000 623.024 C 152.000 621.723,152.081 621.642,153.500 621.524 C 154.863 621.411,155.011 621.284,155.124 620.124 C 155.231 619.012,155.412 618.831,156.524 618.724 C 157.684 618.611,157.811 618.463,157.924 617.100 C 158.042 615.681,158.123 615.600,159.424 615.600 C 160.730 615.600,160.800 615.529,160.800 614.200 C 160.800 612.867,160.867 612.800,162.200 612.800 C 163.529 612.800,163.600 612.730,163.600 611.424 C 163.600 610.123,163.681 610.042,165.100 609.924 C 166.463 609.811,166.611 609.684,166.724 608.524 C 166.831 607.412,167.012 607.231,168.124 607.124 C 169.284 607.011,169.411 606.863,169.524 605.500 C 169.642 604.081,169.723 604.000,171.024 604.000 C 172.330 604.000,172.400 603.929,172.400 602.600 C 172.400 601.267,172.467 601.200,173.800 601.200 C 175.129 601.200,175.200 601.130,175.200 599.824 C 175.200 598.523,175.281 598.442,176.700 598.324 C 178.063 598.211,178.211 598.084,178.324 596.924 C 178.431 595.812,178.612 595.631,179.724 595.524 C 180.884 595.411,181.011 595.263,181.124 593.900 C 181.242 592.481,181.323 592.400,182.624 592.400 C 183.930 592.400,184.000 592.329,184.000 591.000 C 184.000 589.667,184.067 589.600,185.400 589.600 C 186.729 589.600,186.800 589.530,186.800 588.224 C 186.800 586.923,186.881 586.842,188.300 586.724 C 189.663 586.611,189.811 586.484,189.924 585.324 C 190.031 584.212,190.212 584.031,191.324 583.924 C 192.484 583.811,192.611 583.663,192.724 582.300 C 192.842 580.881,192.923 580.800,194.224 580.800 C 195.530 580.800,195.600 580.729,195.600 579.400 C 195.600 578.067,195.667 578.000,197.000 578.000 C 198.329 578.000,198.400 577.930,198.400 576.624 C 198.400 575.323,198.481 575.242,199.900 575.124 C 201.263 575.011,201.411 574.884,201.524 573.724 C 201.631 572.612,201.812 572.431,202.924 572.324 C 204.084 572.211,204.211 572.063,204.324 570.700 C 204.442 569.281,204.523 569.200,205.824 569.200 C 207.130 569.200,207.200 569.129,207.200 567.800 C 207.200 566.467,207.267 566.400,208.600 566.400 C 209.929 566.400,210.000 566.330,210.000 565.024 C 210.000 563.723,210.081 563.642,211.500 563.524 C 212.863 563.411,213.011 563.284,213.124 562.124 C 213.231 561.012,213.412 560.831,214.524 560.724 C 215.684 560.611,215.811 560.463,215.924 559.100 C 216.042 557.681,216.123 557.600,217.424 557.600 C 218.730 557.600,218.800 557.529,218.800 556.200 C 218.800 554.867,218.867 554.800,220.200 554.800 C 221.529 554.800,221.600 554.730,221.600 553.424 C 221.600 552.123,221.681 552.042,223.100 551.924 C 224.463 551.811,224.611 551.684,224.724 550.524 C 224.831 549.412,225.012 549.231,226.124 549.124 C 227.284 549.011,227.411 548.863,227.524 547.500 C 227.642 546.081,227.723 546.000,229.024 546.000 C 230.330 546.000,230.400 545.929,230.400 544.600 C 230.400 543.267,230.467 543.200,231.800 543.200 C 233.129 543.200,233.200 543.130,233.200 541.824 C 233.200 540.523,233.281 540.442,234.700 540.324 C 236.063 540.211,236.211 540.084,236.324 538.924 C 236.431 537.812,236.612 537.631,237.724 537.524 C 238.884 537.411,239.011 537.263,239.124 535.900 C 239.242 534.481,239.323 534.400,240.624 534.400 C 241.930 534.400,242.000 534.329,242.000 533.000 C 242.000 531.667,242.067 531.600,243.400 531.600 C 244.729 531.600,244.800 531.530,244.800 530.224 C 244.800 528.923,244.881 528.842,246.300 528.724 C 247.663 528.611,247.811 528.484,247.924 527.324 C 248.031 526.212,248.212 526.031,249.324 525.924 C 250.435 525.816,250.616 525.635,250.724 524.524 C 250.831 523.412,251.012 523.231,252.124 523.124 C 253.284 523.011,253.411 522.863,253.524 521.500 C 253.642 520.081,253.723 520.000,255.024 520.000 C 256.325 520.000,256.400 519.925,256.400 518.624 C 256.400 517.323,256.481 517.242,257.900 517.124 C 259.263 517.011,259.411 516.884,259.524 515.724 C 259.631 514.612,259.812 514.431,260.924 514.324 C 262.035 514.216,262.216 514.035,262.324 512.924 C 262.431 511.812,262.612 511.631,263.724 511.524 C 264.884 511.411,265.011 511.263,265.124 509.900 C 265.242 508.481,265.323 508.400,266.624 508.400 C 267.925 508.400,268.000 508.325,268.000 507.024 C 268.000 505.723,268.081 505.642,269.500 505.524 C 270.863 505.411,271.011 505.284,271.124 504.124 C 271.231 503.012,271.412 502.831,272.524 502.724 C 273.635 502.616,273.816 502.435,273.924 501.324 C 274.031 500.212,274.212 500.031,275.324 499.924 C 276.484 499.811,276.611 499.663,276.724 498.300 C 276.842 496.881,276.923 496.800,278.224 496.800 C 279.525 496.800,279.600 496.725,279.600 495.424 C 279.600 494.123,279.681 494.042,281.100 493.924 C 282.463 493.811,282.611 493.684,282.724 492.524 C 282.831 491.412,283.012 491.231,284.124 491.124 C 285.235 491.016,285.416 490.835,285.524 489.724 C 285.631 488.612,285.812 488.431,286.924 488.324 C 288.084 488.211,288.211 488.063,288.324 486.700 C 288.442 485.281,288.523 485.200,289.824 485.200 C 291.125 485.200,291.200 485.125,291.200 483.824 C 291.200 482.523,291.281 482.442,292.700 482.324 C 294.063 482.211,294.211 482.084,294.324 480.924 C 294.431 479.812,294.612 479.631,295.724 479.524 C 296.835 479.416,297.016 479.235,297.124 478.124 C 297.231 477.012,297.412 476.831,298.524 476.724 C 299.684 476.611,299.811 476.463,299.924 475.100 C 300.042 473.681,300.123 473.600,301.424 473.600 C 302.730 473.600,302.800 473.529,302.800 472.200 C 302.800 470.867,302.867 470.800,304.200 470.800 C 305.529 470.800,305.600 470.730,305.600 469.424 C 305.600 468.123,305.681 468.042,307.100 467.924 C 308.463 467.811,308.611 467.684,308.724 466.524 C 308.831 465.412,309.012 465.231,310.124 465.124 C 311.284 465.011,311.411 464.863,311.524 463.500 C 311.642 462.081,311.723 462.000,313.024 462.000 C 314.330 462.000,314.400 461.929,314.400 460.600 C 314.400 459.267,314.467 459.200,315.800 459.200 C 317.129 459.200,317.200 459.130,317.200 457.824 C 317.200 456.523,317.281 456.442,318.700 456.324 C 320.063 456.211,320.211 456.084,320.324 454.924 C 320.431 453.812,320.612 453.631,321.724 453.524 C 322.884 453.411,323.011 453.263,323.124 451.900 C 323.242 450.481,323.323 450.400,324.624 450.400 C 325.930 450.400,326.000 450.329,326.000 449.000 C 326.000 447.667,326.067 447.600,327.400 447.600 C 328.729 447.600,328.800 447.530,328.800 446.224 C 328.800 444.923,328.881 444.842,330.300 444.724 C 331.663 444.611,331.811 444.484,331.924 443.324 C 332.031 442.212,332.212 442.031,333.324 441.924 C 334.484 441.811,334.611 441.663,334.724 440.300 C 334.842 438.881,334.923 438.800,336.224 438.800 C 337.530 438.800,337.600 438.729,337.600 437.400 C 337.600 436.067,337.667 436.000,339.000 436.000 C 340.329 436.000,340.400 435.930,340.400 434.624 C 340.400 433.323,340.481 433.242,341.900 433.124 C 343.263 433.011,343.411 432.884,343.524 431.724 C 343.631 430.612,343.812 430.431,344.924 430.324 C 346.084 430.211,346.211 430.063,346.324 428.700 C 346.442 427.281,346.523 427.200,347.824 427.200 C 349.130 427.200,349.200 427.129,349.200 425.800 C 349.200 424.467,349.267 424.400,350.600 424.400 C 351.929 424.400,352.000 424.330,352.000 423.024 C 352.000 421.723,352.081 421.642,353.500 421.524 C 354.863 421.411,355.011 421.284,355.124 420.124 C 355.231 419.012,355.412 418.831,356.524 418.724 C 357.684 418.611,357.811 418.463,357.924 417.100 C 358.042 415.681,358.123 415.600,359.424 415.600 C 360.730 415.600,360.800 415.529,360.800 414.200 C 360.800 412.867,360.867 412.800,362.200 412.800 C 363.529 412.800,363.600 412.730,363.600 411.424 C 363.600 410.123,363.681 410.042,365.100 409.924 C 366.463 409.811,366.611 409.684,366.724 408.524 C 366.831 407.412,367.012 407.231,368.124 407.124 C 369.235 407.016,369.416 406.835,369.524 405.724 C 369.631 404.612,369.812 404.431,370.924 404.324 C 372.084 404.211,372.211 404.063,372.324 402.700 C 372.442 401.281,372.523 401.200,373.824 401.200 C 375.125 401.200,375.200 401.125,375.200 399.824 C 375.200 398.523,375.281 398.442,376.700 398.324 C 378.063 398.211,378.211 398.084,378.324 396.924 C 378.431 395.812,378.612 395.631,379.724 395.524 C 380.835 395.416,381.016 395.235,381.124 394.124 C 381.231 393.012,381.412 392.831,382.524 392.724 C 383.684 392.611,383.811 392.463,383.924 391.100 C 384.042 389.681,384.123 389.600,385.424 389.600 C 386.725 389.600,386.800 389.525,386.800 388.224 C 386.800 386.923,386.881 386.842,388.300 386.724 C 389.663 386.611,389.811 386.484,389.924 385.324 C 390.031 384.212,390.212 384.031,391.324 383.924 L 392.600 383.800 392.718 380.900 L 392.835 378.000 394.218 378.000 L 395.600 378.000 395.600 375.200 L 395.600 372.400 397.000 372.400 L 398.400 372.400 398.400 368.000 C 398.400 363.867,398.448 363.600,399.200 363.600 C 399.982 363.600,400.000 363.333,400.000 352.000 C 400.000 340.667,399.982 340.400,399.200 340.400 C 398.437 340.400,398.400 340.133,398.400 334.600 L 398.400 328.800 397.000 328.800 L 395.600 328.800 395.600 326.000 L 395.600 323.200 394.218 323.200 L 392.835 323.200 392.718 320.300 L 392.600 317.400 391.324 317.276 C 390.212 317.169,390.031 316.988,389.924 315.876 C 389.811 314.716,389.663 314.589,388.300 314.476 C 386.881 314.358,386.800 314.277,386.800 312.976 C 386.800 311.670,386.729 311.600,385.400 311.600 C 384.067 311.600,384.000 311.533,384.000 310.200 C 384.000 308.871,383.930 308.800,382.624 308.800 C 381.323 308.800,381.242 308.719,381.124 307.300 C 381.011 305.937,380.884 305.789,379.724 305.676 C 378.612 305.569,378.431 305.388,378.324 304.276 C 378.211 303.116,378.063 302.989,376.700 302.876 C 375.281 302.758,375.200 302.677,375.200 301.376 C 375.200 300.070,375.129 300.000,373.800 300.000 C 372.467 300.000,372.400 299.933,372.400 298.600 C 372.400 297.271,372.330 297.200,371.024 297.200 C 369.723 297.200,369.642 297.119,369.524 295.700 C 369.411 294.337,369.284 294.189,368.124 294.076 C 367.012 293.969,366.831 293.788,366.724 292.676 C 366.611 291.516,366.463 291.389,365.100 291.276 C 363.681 291.158,363.600 291.077,363.600 289.776 C 363.600 288.470,363.529 288.400,362.200 288.400 C 360.867 288.400,360.800 288.333,360.800 287.000 C 360.800 285.671,360.730 285.600,359.424 285.600 C 358.123 285.600,358.042 285.519,357.924 284.100 C 357.811 282.737,357.684 282.589,356.524 282.476 C 355.412 282.369,355.231 282.188,355.124 281.076 C 355.011 279.916,354.863 279.789,353.500 279.676 C 352.081 279.558,352.000 279.477,352.000 278.176 C 352.000 276.870,351.929 276.800,350.600 276.800 C 349.267 276.800,349.200 276.733,349.200 275.400 C 349.200 274.067,349.133 274.000,347.800 274.000 C 346.475 274.000,346.400 273.927,346.400 272.643 C 346.400 271.262,345.896 270.800,344.393 270.800 C 343.848 270.800,343.617 270.454,343.525 269.500 C 343.411 268.313,343.269 268.189,341.900 268.076 C 340.481 267.958,340.400 267.877,340.400 266.576 C 340.400 265.270,340.329 265.200,339.000 265.200 C 337.667 265.200,337.600 265.133,337.600 263.800 C 337.600 262.467,337.533 262.400,336.200 262.400 C 334.875 262.400,334.800 262.327,334.800 261.043 C 334.800 259.662,334.296 259.200,332.793 259.200 C 332.248 259.200,332.017 258.854,331.925 257.900 C 331.811 256.713,331.669 256.589,330.300 256.476 C 328.881 256.358,328.800 256.277,328.800 254.976 C 328.800 253.670,328.729 253.600,327.400 253.600 C 326.067 253.600,326.000 253.533,326.000 252.200 C 326.000 250.867,325.933 250.800,324.600 250.800 C 323.275 250.800,323.200 250.727,323.200 249.443 C 323.200 248.062,322.696 247.600,321.193 247.600 C 320.648 247.600,320.417 247.254,320.325 246.300 C 320.211 245.113,320.069 244.989,318.700 244.876 C 317.281 244.758,317.200 244.677,317.200 243.376 C 317.200 242.070,317.129 242.000,315.800 242.000 C 314.467 242.000,314.400 241.933,314.400 240.600 C 314.400 239.267,314.333 239.200,313.000 239.200 C 311.675 239.200,311.600 239.127,311.600 237.843 C 311.600 236.462,311.096 236.000,309.593 236.000 C 309.048 236.000,308.817 235.654,308.725 234.700 C 308.611 233.513,308.469 233.389,307.100 233.276 C 305.681 233.158,305.600 233.077,305.600 231.776 C 305.600 230.470,305.529 230.400,304.200 230.400 C 302.867 230.400,302.800 230.333,302.800 229.000 C 302.800 227.667,302.733 227.600,301.400 227.600 C 300.070 227.600,300.000 227.531,300.000 226.218 C 300.000 224.960,299.877 224.813,298.622 224.578 C 297.436 224.355,297.228 224.144,297.122 223.060 C 297.016 221.967,296.831 221.784,295.724 221.676 C 294.612 221.569,294.431 221.388,294.324 220.276 C 294.211 219.116,294.063 218.989,292.700 218.876 C 291.281 218.758,291.200 218.677,291.200 217.376 C 291.200 216.070,291.129 216.000,289.800 216.000 C 288.470 216.000,288.400 215.931,288.400 214.618 C 288.400 213.360,288.277 213.213,287.022 212.978 C 285.836 212.755,285.628 212.544,285.522 211.460 C 285.416 210.367,285.231 210.184,284.124 210.076 C 283.012 209.969,282.831 209.788,282.724 208.676 C 282.611 207.516,282.463 207.389,281.100 207.276 C 279.681 207.158,279.600 207.077,279.600 205.776 C 279.600 204.470,279.529 204.400,278.200 204.400 C 276.867 204.400,276.800 204.333,276.800 203.000 C 276.800 201.817,276.661 201.599,275.900 201.594 C 274.575 201.585,274.088 201.140,273.936 199.799 C 273.820 198.778,273.610 198.582,272.524 198.476 C 271.412 198.369,271.231 198.188,271.124 197.076 C 271.011 195.916,270.863 195.789,269.500 195.676 C 268.081 195.558,268.000 195.477,268.000 194.176 C 268.000 192.870,267.929 192.800,266.600 192.800 C 265.267 192.800,265.200 192.733,265.200 191.400 C 265.200 190.071,265.130 190.000,263.824 190.000 C 262.523 190.000,262.442 189.919,262.324 188.500 C 262.211 187.137,262.084 186.989,260.924 186.876 C 259.812 186.769,259.631 186.588,259.524 185.476 C 259.411 184.316,259.263 184.189,257.900 184.076 C 256.481 183.958,256.400 183.877,256.400 182.576 C 256.400 181.270,256.329 181.200,255.000 181.200 C 253.667 181.200,253.600 181.133,253.600 179.800 C 253.600 178.471,253.530 178.400,252.224 178.400 C 250.923 178.400,250.842 178.319,250.724 176.900 C 250.611 175.537,250.484 175.389,249.324 175.276 C 248.212 175.169,248.031 174.988,247.924 173.876 C 247.811 172.716,247.663 172.589,246.300 172.476 C 244.881 172.358,244.800 172.277,244.800 170.976 C 244.800 169.670,244.729 169.600,243.400 169.600 C 242.067 169.600,242.000 169.533,242.000 168.200 C 242.000 166.867,241.933 166.800,240.600 166.800 C 239.275 166.800,239.200 166.727,239.200 165.443 C 239.200 164.062,238.696 163.600,237.193 163.600 C 236.648 163.600,236.417 163.254,236.325 162.300 C 236.211 161.113,236.069 160.989,234.700 160.876 C 233.281 160.758,233.200 160.677,233.200 159.376 C 233.200 158.070,233.129 158.000,231.800 158.000 C 230.467 158.000,230.400 157.933,230.400 156.600 C 230.400 155.267,230.333 155.200,229.000 155.200 C 227.675 155.200,227.600 155.127,227.600 153.843 C 227.600 152.462,227.096 152.000,225.593 152.000 C 225.048 152.000,224.817 151.654,224.725 150.700 C 224.611 149.513,224.469 149.389,223.100 149.276 C 221.681 149.158,221.600 149.077,221.600 147.776 C 221.600 146.470,221.529 146.400,220.200 146.400 C 218.867 146.400,218.800 146.333,218.800 145.000 C 218.800 143.667,218.733 143.600,217.400 143.600 C 216.075 143.600,216.000 143.527,216.000 142.243 C 216.000 140.862,215.496 140.400,213.993 140.400 C 213.448 140.400,213.217 140.054,213.125 139.100 C 213.011 137.913,212.869 137.789,211.500 137.676 C 210.081 137.558,210.000 137.477,210.000 136.176 C 210.000 134.870,209.929 134.800,208.600 134.800 C 207.267 134.800,207.200 134.733,207.200 133.400 C 207.200 132.067,207.133 132.000,205.800 132.000 C 204.475 132.000,204.400 131.927,204.400 130.643 C 204.400 129.262,203.896 128.800,202.393 128.800 C 201.848 128.800,201.617 128.454,201.525 127.500 C 201.411 126.313,201.269 126.189,199.900 126.076 C 198.481 125.958,198.400 125.877,198.400 124.576 C 198.400 123.270,198.329 123.200,197.000 123.200 C 195.667 123.200,195.600 123.133,195.600 121.800 C 195.600 120.467,195.533 120.400,194.200 120.400 C 192.870 120.400,192.800 120.331,192.800 119.018 C 192.800 117.760,192.677 117.613,191.422 117.378 C 190.236 117.155,190.028 116.944,189.922 115.860 C 189.812 114.719,189.658 114.588,188.300 114.476 C 186.881 114.358,186.800 114.277,186.800 112.976 C 186.800 111.670,186.729 111.600,185.400 111.600 C 184.067 111.600,184.000 111.533,184.000 110.200 C 184.000 108.867,183.933 108.800,182.600 108.800 C 181.270 108.800,181.200 108.731,181.200 107.418 C 181.200 106.156,181.079 106.014,179.800 105.774 C 178.813 105.589,178.400 105.298,178.400 104.788 C 178.400 103.304,177.932 102.800,176.557 102.800 C 175.273 102.800,175.200 102.725,175.200 101.400 C 175.200 100.067,175.133 100.000,173.800 100.000 C 172.467 100.000,172.400 99.933,172.400 98.600 C 172.400 97.267,172.333 97.200,171.000 97.200 C 169.675 97.200,169.600 97.127,169.600 95.845 C 169.600 94.612,169.473 94.465,168.200 94.226 C 167.192 94.037,166.800 93.754,166.800 93.215 C 166.800 91.704,166.339 91.200,164.957 91.200 C 163.673 91.200,163.600 91.125,163.600 89.800 C 163.600 88.467,163.533 88.400,162.200 88.400 C 160.867 88.400,160.800 88.333,160.800 87.000 C 160.800 85.667,160.733 85.600,159.400 85.600 C 158.067 85.600,158.000 85.533,158.000 84.200 C 158.000 83.087,157.843 82.800,157.233 82.800 C 155.951 82.800,155.200 82.353,155.200 81.590 C 155.200 80.104,154.733 79.600,153.357 79.600 C 152.073 79.600,152.000 79.525,152.000 78.200 C 152.000 76.867,151.933 76.800,150.600 76.800 C 149.267 76.800,149.200 76.733,149.200 75.400 C 149.200 74.067,149.133 74.000,147.800 74.000 C 146.467 74.000,146.400 73.933,146.400 72.600 C 146.400 71.267,146.333 71.200,145.000 71.200 C 143.786 71.200,143.600 71.072,143.600 70.233 C 143.600 68.496,143.191 68.000,141.757 68.000 C 140.473 68.000,140.400 67.925,140.400 66.600 C 140.400 65.267,140.333 65.200,139.000 65.200 C 137.667 65.200,137.600 65.133,137.600 63.800 C 137.600 62.467,137.533 62.400,136.200 62.400 C 134.867 62.400,134.800 62.333,134.800 61.000 C 134.800 59.667,134.733 59.600,133.400 59.600 C 132.186 59.600,132.000 59.472,132.000 58.633 C 132.000 56.896,131.591 56.400,130.157 56.400 C 128.873 56.400,128.800 56.325,128.800 55.000 C 128.800 53.667,128.733 53.600,127.400 53.600 C 126.067 53.600,126.000 53.533,126.000 52.200 C 126.000 50.867,125.933 50.800,124.600 50.800 C 123.267 50.800,123.200 50.733,123.200 49.400 C 123.200 48.067,123.133 48.000,121.800 48.000 C 120.533 48.000,120.400 47.893,120.400 46.880 C 120.400 45.459,119.741 44.800,118.320 44.800 C 117.307 44.800,117.200 44.667,117.200 43.400 C 117.200 42.067,117.133 42.000,115.800 42.000 C 114.467 42.000,114.400 41.933,114.400 40.600 C 114.400 39.267,114.333 39.200,113.000 39.200 C 111.667 39.200,111.600 39.133,111.600 37.800 C 111.600 36.467,111.533 36.400,110.200 36.400 C 108.933 36.400,108.800 36.293,108.800 35.280 C 108.800 33.859,108.141 33.200,106.720 33.200 C 105.707 33.200,105.600 33.067,105.600 31.800 C 105.600 30.467,105.533 30.400,104.200 30.400 C 102.867 30.400,102.800 30.333,102.800 29.000 C 102.800 27.667,102.733 27.600,101.400 27.600 C 100.067 27.600,100.000 27.533,100.000 26.200 C 100.000 24.867,99.933 24.800,98.600 24.800 C 97.275 24.800,97.200 24.727,97.200 23.443 C 97.200 22.062,96.696 21.600,95.193 21.600 C 94.648 21.600,94.417 21.254,94.325 20.300 C 94.211 19.113,94.069 18.989,92.700 18.876 C 91.281 18.758,91.200 18.677,91.200 17.376 C 91.200 16.070,91.129 16.000,89.800 16.000 C 88.467 16.000,88.400 15.933,88.400 14.600 C 88.400 13.267,88.333 13.200,87.000 13.200 C 85.675 13.200,85.600 13.127,85.600 11.843 C 85.600 10.456,85.097 10.000,83.567 10.000 C 83.078 10.000,82.800 9.722,82.800 9.233 C 82.800 7.428,82.437 7.200,79.557 7.200 L 76.800 7.200 76.800 5.800 L 76.800 4.400 74.025 4.400 L 71.251 4.400 71.125 3.100 L 71.000 1.800 65.300 1.689 C 59.931 1.584,59.600 1.532,59.600 0.789 C 59.600 0.024,59.286 0.000,49.400 0.000 C 39.467 0.000,39.200 0.021,39.200 0.800 " stroke="none" fill="#ffffff" fill-rule="evenodd"></path></g></svg>