<?xml version="1.0" encoding="UTF-8" standalone="no"?><!DOCTYPE svg PUBLIC "-//W3C//DTD SVG 1.1//EN" "http://www.w3.org/Graphics/SVG/1.1/DTD/svg11.dtd"><svg width="100%" height="100%" viewBox="0 0 100 100" version="1.1" xmlns="http://www.w3.org/2000/svg" xmlns:xlink="http://www.w3.org/1999/xlink" xml:space="preserve" xmlns:serif="http://www.serif.com/" style="fill-rule:evenodd;clip-rule:evenodd;stroke-linejoin:round;stroke-miterlimit:2;fill:#ffffff"><g><path d="M94.989,94.989c4.973,-4.974 4.973,-13.05 -0,-18.023l-71.955,-71.955c-4.973,-4.973 -13.049,-4.973 -18.023,0c-4.973,4.974 -4.973,13.05 0,18.023l71.955,71.955c4.973,4.973 13.049,4.973 18.023,-0Z"/></g><g><path d="M5.011,94.989c-4.973,-4.974 -4.973,-13.05 0,-18.023l71.955,-71.955c4.973,-4.973 13.049,-4.973 18.023,0c4.973,4.974 4.973,13.05 -0,18.023l-71.955,71.955c-4.973,4.973 -13.049,4.973 -18.023,-0Z"/></g></svg>