<svg id="svg" version="1.1" xmlns="http://www.w3.org/2000/svg" xmlns:xlink="http://www.w3.org/1999/xlink" width="400" height="404.3321299638989" viewBox="0, 0, 400,404.3321299638989"><g id="svgg"><path id="path0" d="M230.400 0.400 C 230.400 0.641,228.748 0.800,226.243 0.800 C 222.916 0.800,222.040 0.920,221.855 1.400 C 221.682 1.851,220.951 2.001,218.913 2.005 C 215.661 2.012,214.400 2.303,214.400 3.047 C 214.400 3.462,213.741 3.600,211.763 3.600 C 209.462 3.600,209.098 3.702,208.916 4.400 C 208.742 5.063,208.370 5.200,206.741 5.200 C 205.362 5.200,204.706 5.379,204.545 5.800 C 204.383 6.222,203.724 6.400,202.320 6.400 C 200.662 6.400,200.290 6.535,200.116 7.200 C 199.947 7.845,199.570 8.000,198.174 8.000 C 196.375 8.000,194.414 9.267,194.388 10.446 C 194.379 10.828,194.249 10.783,193.968 10.300 C 193.469 9.443,192.059 9.380,191.745 10.200 C 191.618 10.530,191.174 10.800,190.757 10.800 C 190.341 10.800,189.640 11.160,189.200 11.600 C 188.752 12.048,187.867 12.400,187.187 12.400 C 186.479 12.400,185.879 12.649,185.745 13.000 C 185.618 13.330,185.270 13.600,184.971 13.600 C 184.673 13.600,184.235 13.960,184.000 14.400 C 183.720 14.924,183.162 15.200,182.386 15.200 C 181.467 15.200,181.200 15.380,181.200 16.000 C 181.200 16.648,180.933 16.800,179.800 16.800 C 178.822 16.800,178.400 16.981,178.400 17.400 C 178.400 17.804,177.996 18.000,177.163 18.000 C 176.262 18.000,175.868 18.217,175.716 18.800 C 175.600 19.243,175.170 19.600,174.753 19.600 C 174.339 19.600,174.000 19.870,174.000 20.200 C 174.000 20.604,173.596 20.800,172.763 20.800 C 171.862 20.800,171.468 21.017,171.316 21.600 C 171.166 22.174,170.770 22.400,169.916 22.400 C 169.062 22.400,168.666 22.626,168.516 23.200 C 168.400 23.643,167.970 24.000,167.553 24.000 C 167.139 24.000,166.800 24.249,166.800 24.553 C 166.800 24.858,166.440 25.201,166.000 25.316 C 165.560 25.431,165.200 25.812,165.200 26.163 C 165.200 26.599,164.835 26.800,164.043 26.800 C 163.406 26.800,162.791 27.047,162.675 27.349 C 162.559 27.650,161.964 28.023,161.353 28.176 C 160.241 28.455,158.400 30.104,158.400 30.821 C 158.400 31.029,158.040 31.200,157.600 31.200 C 157.156 31.200,156.800 31.467,156.800 31.800 C 156.800 32.133,156.444 32.400,156.000 32.400 C 155.467 32.400,155.200 32.667,155.200 33.200 C 155.200 33.644,154.933 34.000,154.600 34.000 C 154.270 34.000,154.000 34.258,154.000 34.573 C 154.000 34.888,153.640 35.260,153.200 35.400 C 152.760 35.540,152.400 35.912,152.400 36.227 C 152.400 36.542,152.040 36.800,151.600 36.800 C 151.067 36.800,150.800 37.067,150.800 37.600 C 150.800 38.216,150.533 38.400,149.643 38.400 C 148.466 38.400,148.000 38.977,148.000 40.433 C 148.000 41.024,147.716 41.200,146.763 41.200 C 145.862 41.200,145.468 41.417,145.316 42.000 C 145.201 42.440,144.877 42.800,144.596 42.800 C 144.031 42.800,143.600 43.668,143.600 44.806 C 143.600 45.317,143.258 45.586,142.500 45.673 C 141.651 45.771,141.313 46.097,141.017 47.100 C 140.807 47.815,140.385 48.400,140.080 48.400 C 139.775 48.400,139.431 48.760,139.316 49.200 C 139.201 49.640,138.858 50.000,138.553 50.000 C 138.249 50.000,138.000 50.270,138.000 50.600 C 138.000 50.930,137.713 51.200,137.363 51.200 C 137.012 51.200,136.631 51.560,136.516 52.000 C 136.401 52.440,136.058 52.800,135.753 52.800 C 135.449 52.800,135.200 53.120,135.200 53.511 C 135.200 53.902,134.840 54.530,134.400 54.907 C 133.960 55.284,133.600 55.954,133.600 56.396 C 133.600 56.851,133.334 57.200,132.987 57.200 C 132.651 57.200,132.271 57.470,132.145 57.800 C 132.018 58.130,131.664 58.400,131.357 58.400 C 131.051 58.400,130.800 58.760,130.800 59.200 C 130.800 59.733,130.533 60.000,130.000 60.000 C 129.420 60.000,129.200 60.267,129.200 60.971 C 129.200 61.506,128.930 62.213,128.600 62.543 C 128.270 62.873,128.000 63.426,128.000 63.771 C 128.000 64.117,127.749 64.400,127.443 64.400 C 126.831 64.400,126.400 65.241,126.400 66.433 C 126.400 66.933,126.122 67.200,125.600 67.200 C 125.082 67.200,124.800 67.467,124.800 67.957 C 124.800 68.374,124.530 68.818,124.200 68.945 C 123.849 69.079,123.600 69.679,123.600 70.387 C 123.600 71.161,123.397 71.600,123.039 71.600 C 122.731 71.600,122.298 72.095,122.077 72.700 C 121.857 73.305,121.119 74.396,120.438 75.125 C 119.635 75.984,119.200 76.863,119.200 77.625 C 119.200 78.363,118.993 78.800,118.643 78.800 C 117.923 78.800,117.600 79.678,117.600 81.633 C 117.600 82.759,117.431 83.200,117.000 83.200 C 116.581 83.200,116.400 83.622,116.400 84.600 C 116.400 85.733,116.248 86.000,115.600 86.000 C 114.958 86.000,114.800 86.267,114.800 87.353 C 114.800 88.370,114.601 88.759,114.000 88.916 C 113.332 89.091,113.200 89.462,113.200 91.163 C 113.200 92.707,113.055 93.200,112.600 93.200 C 112.237 93.200,112.000 93.571,112.000 94.138 C 112.000 94.654,111.640 95.402,111.200 95.800 C 110.753 96.204,110.400 97.032,110.400 97.675 C 110.400 98.328,110.141 98.925,109.800 99.055 C 109.386 99.214,109.200 99.861,109.200 101.147 C 109.200 102.574,109.014 103.124,108.400 103.507 C 107.687 103.953,107.600 104.440,107.600 108.003 C 107.600 111.733,107.547 112.000,106.800 112.000 C 106.152 112.000,106.000 112.267,106.000 113.400 C 106.000 114.378,105.819 114.800,105.400 114.800 C 104.899 114.800,104.800 115.617,104.800 119.753 C 104.800 124.370,104.746 124.721,104.000 124.916 C 103.227 125.118,103.200 125.462,103.200 135.163 C 103.200 143.818,103.117 145.200,102.600 145.200 C 102.114 145.200,102.000 145.844,102.000 148.600 C 102.000 151.356,102.114 152.000,102.600 152.000 C 103.117 152.000,103.200 153.330,103.200 161.567 C 103.200 171.425,103.294 172.400,104.243 172.400 C 104.558 172.400,104.795 172.792,104.788 173.300 C 104.777 174.104,104.732 174.125,104.368 173.500 C 103.992 172.854,102.856 172.800,89.630 172.800 C 72.268 172.800,72.800 172.871,72.800 170.537 C 72.800 169.340,72.608 168.701,72.200 168.545 C 71.719 168.360,71.600 167.479,71.600 164.120 C 71.600 160.262,71.536 159.908,70.800 159.716 C 70.135 159.542,70.000 159.170,70.000 157.516 C 70.000 155.862,69.865 155.490,69.200 155.316 C 68.498 155.132,68.400 154.770,68.400 152.353 C 68.400 150.173,68.275 149.600,67.800 149.600 C 67.334 149.600,67.200 149.070,67.200 147.233 C 67.200 144.503,66.941 143.600,66.157 143.600 C 65.734 143.600,65.600 142.927,65.600 140.800 L 65.600 138.000 32.800 138.000 L 0.000 138.000 0.000 153.800 C 0.000 163.128,0.150 169.600,0.367 169.600 C 1.188 169.600,2.000 169.081,2.000 168.557 C 2.000 168.089,5.025 168.000,20.992 168.000 L 39.985 168.000 40.236 169.000 C 40.374 169.550,40.647 170.000,40.843 170.000 C 41.040 170.000,41.200 170.827,41.200 171.837 C 41.200 173.338,41.346 173.713,42.000 173.884 C 42.662 174.057,42.800 174.430,42.800 176.047 C 42.800 177.516,42.949 178.000,43.400 178.000 C 43.894 178.000,44.001 178.725,44.005 182.100 C 44.012 186.703,44.241 188.000,45.047 188.000 C 45.351 188.000,45.600 188.360,45.600 188.800 C 45.600 189.240,45.844 189.600,46.143 189.600 C 46.538 189.600,46.747 190.495,46.911 192.882 C 47.071 195.214,47.318 196.297,47.768 196.626 C 48.225 196.960,48.400 197.766,48.400 199.530 C 48.400 201.562,48.534 202.044,49.200 202.400 C 49.879 202.763,50.000 203.238,50.000 205.538 C 50.000 207.301,50.205 208.518,50.587 209.024 C 50.910 209.451,51.180 210.402,51.187 211.137 C 51.197 212.132,51.405 212.528,52.000 212.684 C 52.663 212.858,52.800 213.230,52.800 214.859 C 52.800 216.238,52.979 216.894,53.400 217.055 C 53.877 217.238,54.000 218.093,54.000 221.229 C 54.000 224.762,54.083 225.216,54.800 225.600 C 55.435 225.940,55.600 226.438,55.600 228.014 C 55.600 229.733,55.707 230.000,56.400 230.000 C 57.123 230.000,57.200 230.267,57.200 232.757 C 57.200 234.839,57.347 235.571,57.800 235.745 C 58.232 235.910,58.400 236.586,58.400 238.155 C 58.400 240.702,58.672 241.600,59.443 241.600 C 59.868 241.600,60.001 242.289,60.002 244.500 C 60.004 246.141,60.238 247.846,60.541 248.427 C 60.835 248.991,61.198 249.936,61.346 250.527 C 61.494 251.117,61.882 251.600,62.208 251.600 C 62.659 251.600,62.800 252.124,62.800 253.800 C 62.800 255.733,62.897 256.000,63.600 256.000 C 64.357 256.000,64.400 256.267,64.400 261.000 C 64.400 265.178,64.499 266.000,65.000 266.000 C 65.422 266.000,65.600 266.426,65.600 267.437 C 65.600 268.538,65.787 268.924,66.400 269.084 C 67.109 269.270,67.200 269.630,67.200 272.251 C 67.200 274.713,67.334 275.322,68.000 275.893 C 68.641 276.442,68.800 277.073,68.800 279.069 C 68.800 280.738,68.978 281.666,69.341 281.880 C 69.679 282.080,69.973 283.325,70.126 285.194 C 70.289 287.204,70.572 288.336,70.985 288.638 C 71.343 288.901,71.600 289.695,71.600 290.544 C 71.600 291.572,71.777 292.000,72.200 292.000 C 72.655 292.000,72.800 292.493,72.800 294.037 C 72.800 295.738,72.932 296.109,73.600 296.284 C 74.336 296.477,74.400 296.830,74.400 300.684 C 74.400 304.538,74.464 304.892,75.200 305.084 C 75.862 305.257,76.000 305.630,76.000 307.247 C 76.000 308.716,76.149 309.200,76.600 309.200 C 77.066 309.200,77.200 309.730,77.200 311.567 C 77.200 314.278,77.459 315.200,78.222 315.200 C 78.587 315.200,78.797 315.871,78.879 317.300 L 79.000 319.400 186.067 319.400 C 244.953 319.400,293.268 319.265,293.433 319.101 C 293.597 318.936,293.816 317.361,293.918 315.601 C 294.054 313.246,294.248 312.400,294.651 312.400 C 295.065 312.400,295.200 311.700,295.200 309.563 C 295.200 307.062,295.295 306.700,296.000 306.516 C 296.758 306.318,296.800 305.970,296.800 299.953 C 296.800 294.573,296.892 293.600,297.400 293.600 C 297.819 293.600,298.000 293.178,298.000 292.200 C 298.000 290.860,298.061 290.800,299.437 290.800 C 300.538 290.800,300.924 290.613,301.084 290.000 C 301.260 289.327,301.630 289.200,303.418 289.200 C 304.666 289.200,305.765 288.978,306.081 288.661 C 306.378 288.365,307.272 288.000,308.070 287.851 C 308.867 287.701,309.740 287.314,310.009 286.989 C 310.278 286.665,310.914 286.400,311.422 286.400 C 311.995 286.400,312.443 286.096,312.600 285.600 C 312.795 284.984,313.205 284.800,314.378 284.800 C 315.245 284.800,316.117 284.541,316.400 284.200 C 316.674 283.870,317.236 283.600,317.649 283.600 C 318.062 283.600,318.760 283.240,319.200 282.800 C 319.640 282.360,320.270 282.000,320.600 282.000 C 320.930 282.000,321.200 281.730,321.200 281.400 C 321.200 280.981,321.622 280.800,322.600 280.800 C 323.733 280.800,324.000 280.648,324.000 280.000 C 324.000 279.348,324.267 279.200,325.437 279.200 C 326.538 279.200,326.924 279.013,327.084 278.400 C 327.220 277.879,327.630 277.600,328.259 277.600 C 328.790 277.600,329.329 277.330,329.455 277.000 C 329.582 276.670,330.043 276.400,330.480 276.400 C 330.938 276.400,331.363 276.061,331.484 275.600 C 331.633 275.031,332.030 274.800,332.859 274.800 C 333.500 274.800,334.122 274.546,334.241 274.236 C 334.361 273.926,334.890 273.564,335.417 273.431 C 335.945 273.299,336.568 272.833,336.803 272.395 C 337.045 271.942,337.639 271.600,338.184 271.600 C 338.796 271.600,339.870 270.879,341.162 269.600 C 342.273 268.500,343.358 267.600,343.572 267.600 C 343.785 267.600,344.104 267.356,344.280 267.059 C 344.456 266.761,345.140 266.342,345.800 266.128 C 346.752 265.819,347.026 265.476,347.125 264.469 C 347.227 263.437,347.427 263.200,348.197 263.200 C 348.717 263.200,349.381 262.965,349.671 262.678 C 349.962 262.390,350.515 262.036,350.900 261.890 C 351.285 261.744,351.600 261.349,351.600 261.013 C 351.600 260.676,351.849 260.400,352.153 260.400 C 352.458 260.400,352.801 260.040,352.916 259.600 C 353.031 259.160,353.412 258.800,353.763 258.800 C 354.113 258.800,354.400 258.530,354.400 258.200 C 354.400 257.867,354.756 257.600,355.200 257.600 C 355.733 257.600,356.000 257.333,356.000 256.800 C 356.000 256.360,356.200 256.000,356.444 256.000 C 357.058 256.000,358.785 254.310,358.793 253.700 C 358.797 253.425,359.160 253.200,359.600 253.200 C 360.133 253.200,360.400 252.933,360.400 252.400 C 360.400 251.956,360.667 251.600,361.000 251.600 C 361.330 251.600,361.600 251.330,361.600 251.000 C 361.600 250.670,361.887 250.400,362.237 250.400 C 362.588 250.400,362.969 250.040,363.084 249.600 C 363.199 249.160,363.472 248.800,363.690 248.800 C 364.244 248.800,365.985 247.097,365.993 246.547 C 365.997 246.297,366.360 245.999,366.800 245.884 C 367.375 245.734,367.600 245.338,367.600 244.481 C 367.600 243.544,367.813 243.233,368.588 243.039 C 369.132 242.902,369.787 242.388,370.043 241.895 C 370.299 241.403,370.844 240.678,371.254 240.284 C 371.664 239.891,372.000 239.036,372.000 238.384 C 372.000 237.598,372.202 237.200,372.600 237.200 C 372.930 237.200,373.200 237.032,373.200 236.827 C 373.200 236.622,373.560 236.340,374.000 236.200 C 374.440 236.060,374.800 235.598,374.800 235.173 C 374.800 234.748,375.070 234.400,375.400 234.400 C 375.730 234.400,376.000 234.061,376.000 233.647 C 376.000 233.230,376.357 232.800,376.800 232.684 C 377.450 232.514,377.600 232.138,377.600 230.682 C 377.600 228.950,377.647 228.880,379.000 228.626 C 380.279 228.386,380.400 228.244,380.400 226.982 C 380.400 226.072,380.589 225.600,380.953 225.600 C 381.560 225.600,381.986 224.413,381.995 222.700 C 381.998 221.991,382.213 221.600,382.600 221.600 C 382.933 221.600,383.200 221.244,383.200 220.800 C 383.200 220.267,383.467 220.000,384.000 220.000 C 384.642 220.000,384.800 219.733,384.800 218.647 C 384.800 217.630,384.999 217.241,385.600 217.084 C 386.128 216.946,386.400 216.538,386.400 215.886 C 386.400 215.343,386.670 214.674,387.000 214.400 C 387.330 214.126,387.600 213.294,387.600 212.551 C 387.600 211.635,387.788 211.200,388.182 211.200 C 388.530 211.200,388.869 210.638,389.026 209.800 C 389.171 209.030,389.520 208.400,389.802 208.400 C 390.376 208.400,390.800 207.530,390.800 206.355 C 390.800 205.926,391.070 205.471,391.400 205.345 C 391.846 205.174,392.000 204.464,392.000 202.584 C 392.000 200.405,392.111 200.019,392.800 199.800 C 393.240 199.660,393.606 199.243,393.613 198.873 C 393.620 198.503,393.890 197.851,394.213 197.424 C 394.536 196.996,394.800 195.802,394.800 194.770 C 394.800 193.230,394.943 192.856,395.600 192.684 C 396.267 192.510,396.400 192.138,396.400 190.457 C 396.400 188.969,396.580 188.339,397.084 188.057 C 397.641 187.745,397.799 186.920,397.931 183.637 C 398.055 180.544,398.222 179.600,398.647 179.600 C 399.065 179.600,399.200 178.918,399.200 176.800 C 399.200 175.200,399.371 174.000,399.600 174.000 C 399.862 174.000,400.000 165.267,400.000 148.600 C 400.000 131.933,399.862 123.200,399.600 123.200 C 399.372 123.200,399.200 122.014,399.200 120.443 C 399.200 118.493,399.041 117.625,398.658 117.478 C 398.266 117.327,398.058 116.029,397.903 112.762 C 397.737 109.253,397.546 108.150,397.045 107.783 C 396.661 107.503,396.400 106.736,396.400 105.889 C 396.400 104.073,396.061 103.200,395.357 103.200 C 394.957 103.200,394.800 102.649,394.800 101.243 C 394.800 99.872,394.620 99.217,394.200 99.055 C 393.870 98.929,393.600 98.474,393.600 98.045 C 393.600 96.841,393.171 96.000,392.557 96.000 C 392.150 96.000,392.000 95.420,392.000 93.843 C 392.000 92.396,391.821 91.617,391.457 91.477 C 391.159 91.363,390.812 90.503,390.686 89.567 C 390.561 88.630,390.175 87.706,389.829 87.512 C 389.483 87.319,389.200 86.899,389.200 86.580 C 389.200 86.261,388.840 86.000,388.400 86.000 C 387.706 86.000,387.600 85.733,387.600 83.987 C 387.600 82.630,387.417 81.905,387.039 81.760 C 386.731 81.641,386.363 80.927,386.221 80.172 C 386.068 79.356,385.728 78.800,385.382 78.800 C 384.998 78.800,384.800 78.379,384.800 77.563 C 384.800 76.662,384.583 76.268,384.000 76.116 C 383.557 76.000,383.200 75.570,383.200 75.153 C 383.200 74.739,382.930 74.400,382.600 74.400 C 382.189 74.400,382.000 73.988,382.000 73.096 C 382.000 72.226,381.734 71.626,381.200 71.293 C 380.760 71.018,380.400 70.443,380.400 70.015 C 380.400 69.217,378.667 67.200,377.982 67.200 C 377.772 67.200,377.600 66.570,377.600 65.800 C 377.600 64.667,377.448 64.400,376.800 64.400 C 376.267 64.400,376.000 64.133,376.000 63.600 C 376.000 63.160,375.741 62.800,375.425 62.800 C 375.069 62.800,374.803 62.305,374.725 61.500 C 374.615 60.357,374.443 60.185,373.300 60.075 C 372.110 59.960,372.000 59.833,372.000 58.575 C 372.000 57.733,371.690 56.890,371.200 56.400 C 370.760 55.960,370.400 55.313,370.400 54.963 C 370.400 54.612,370.040 54.231,369.600 54.116 C 369.160 54.001,368.800 53.658,368.800 53.353 C 368.800 53.049,368.569 52.800,368.288 52.800 C 368.006 52.800,367.552 52.305,367.280 51.700 C 366.360 49.658,365.558 48.400,365.178 48.400 C 364.970 48.400,364.440 48.040,364.000 47.600 C 363.560 47.160,362.840 46.800,362.400 46.800 C 361.772 46.800,361.600 46.533,361.600 45.563 C 361.600 44.662,361.383 44.268,360.800 44.116 C 360.360 44.001,360.000 43.672,360.000 43.385 C 360.000 43.098,359.472 42.748,358.826 42.606 C 357.944 42.412,357.588 42.056,357.394 41.174 C 357.252 40.528,356.893 40.000,356.595 40.000 C 356.297 40.000,355.940 39.640,355.800 39.200 C 355.660 38.760,355.328 38.400,355.062 38.400 C 354.796 38.400,354.270 38.040,353.893 37.600 C 353.516 37.160,352.857 36.800,352.429 36.800 C 351.843 36.800,351.620 36.478,351.525 35.500 C 351.415 34.357,351.243 34.185,350.100 34.075 C 349.254 33.993,348.800 33.735,348.800 33.337 C 348.800 33.001,348.440 32.631,348.000 32.516 C 347.560 32.401,347.200 32.058,347.200 31.753 C 347.200 31.388,346.725 31.200,345.800 31.200 C 344.842 31.200,344.400 31.016,344.400 30.618 C 344.400 29.996,342.589 28.000,342.025 28.000 C 341.838 28.000,341.582 27.730,341.455 27.400 C 341.329 27.070,340.970 26.800,340.659 26.800 C 340.348 26.800,339.999 26.440,339.884 26.000 C 339.732 25.417,339.338 25.200,338.437 25.200 C 337.604 25.200,337.200 25.004,337.200 24.600 C 337.200 23.518,335.676 22.400,334.200 22.400 C 333.251 22.400,332.800 22.215,332.800 21.827 C 332.800 21.512,332.457 21.145,332.037 21.012 C 331.617 20.879,331.173 20.506,331.050 20.185 C 330.921 19.850,330.307 19.600,329.613 19.600 C 328.827 19.600,328.400 19.398,328.400 19.027 C 328.400 18.712,328.057 18.345,327.637 18.212 C 327.217 18.079,326.773 17.706,326.650 17.385 C 326.503 17.003,325.854 16.800,324.775 16.800 C 323.462 16.800,323.082 16.637,322.916 16.000 C 322.801 15.560,322.433 15.200,322.097 15.200 C 321.762 15.200,321.277 14.912,321.020 14.559 C 320.757 14.200,319.727 13.826,318.676 13.707 C 317.457 13.570,316.800 13.304,316.800 12.948 C 316.800 12.588,316.319 12.400,315.400 12.400 C 314.267 12.400,314.000 12.248,314.000 11.600 C 314.000 10.952,313.733 10.800,312.600 10.800 C 311.661 10.800,311.200 10.614,311.200 10.235 C 311.200 9.888,310.584 9.566,309.600 9.400 C 308.616 9.234,308.000 8.912,308.000 8.565 C 308.000 8.154,307.459 8.000,306.020 8.000 C 304.618 8.000,303.935 7.813,303.680 7.358 C 303.464 6.971,302.580 6.632,301.460 6.506 C 300.254 6.370,299.600 6.103,299.600 5.748 C 299.600 5.388,299.119 5.200,298.200 5.200 C 297.333 5.200,296.495 4.895,296.000 4.400 C 295.361 3.761,294.667 3.600,292.544 3.600 C 290.544 3.600,289.770 3.438,289.409 2.944 C 289.059 2.467,288.068 2.234,285.764 2.091 C 283.685 1.961,282.490 1.706,282.280 1.347 C 282.045 0.946,280.954 0.800,278.180 0.800 C 275.927 0.800,274.400 0.638,274.400 0.400 C 274.400 0.138,266.800 0.000,252.400 0.000 C 238.000 0.000,230.400 0.138,230.400 0.400 M268.511 36.005 C 268.890 36.447,269.200 36.981,269.200 37.190 C 269.200 37.400,269.560 37.765,270.000 38.000 C 270.440 38.235,270.800 38.692,270.800 39.014 C 270.800 39.336,271.160 39.600,271.600 39.600 C 272.040 39.600,272.403 39.825,272.407 40.100 C 272.415 40.710,274.142 42.400,274.756 42.400 C 275.000 42.400,275.200 42.760,275.200 43.200 C 275.200 43.652,275.467 44.000,275.813 44.000 C 276.149 44.000,276.527 44.265,276.651 44.589 C 276.776 44.913,277.490 45.293,278.239 45.434 C 279.543 45.678,279.600 45.763,279.600 47.457 C 279.600 48.660,279.792 49.299,280.200 49.455 C 280.530 49.582,280.800 49.953,280.800 50.280 C 280.800 50.607,281.160 50.969,281.600 51.084 C 282.040 51.199,282.400 51.548,282.400 51.859 C 282.400 52.170,282.670 52.529,283.000 52.655 C 283.330 52.782,283.600 53.212,283.600 53.610 C 283.600 54.762,284.039 55.600,284.643 55.600 C 284.993 55.600,285.200 56.038,285.200 56.782 C 285.200 57.924,286.760 60.000,287.618 60.000 C 287.828 60.000,288.000 60.270,288.000 60.600 C 288.000 60.930,288.360 61.560,288.800 62.000 C 289.286 62.486,289.600 63.333,289.600 64.160 L 289.600 65.520 286.041 65.660 C 283.356 65.766,282.293 65.972,281.710 66.500 C 281.068 67.081,280.157 67.200,276.345 67.200 C 272.927 67.200,271.554 67.350,270.976 67.787 C 270.549 68.110,269.345 68.380,268.300 68.387 L 266.400 68.400 266.400 51.800 C 266.400 33.817,266.432 33.577,268.511 36.005 M236.000 52.652 L 236.000 68.503 233.900 68.227 C 232.745 68.075,231.740 67.782,231.667 67.575 C 231.593 67.369,229.568 67.200,227.167 67.200 C 223.728 67.200,222.800 67.083,222.800 66.650 C 222.800 65.940,221.036 65.600,217.350 65.600 C 214.261 65.600,213.403 64.962,215.200 64.000 C 215.812 63.672,216.000 63.162,216.000 61.829 C 216.000 60.648,216.194 60.011,216.600 59.855 C 216.930 59.729,217.200 59.349,217.200 59.013 C 217.200 58.667,217.548 58.400,218.000 58.400 C 218.475 58.400,218.800 58.133,218.800 57.744 C 218.800 57.383,219.082 56.882,219.427 56.630 C 219.771 56.378,220.155 55.413,220.279 54.486 C 220.420 53.436,220.712 52.800,221.053 52.800 C 221.354 52.800,221.600 52.440,221.600 52.000 C 221.600 51.560,221.851 51.200,222.157 51.200 C 222.769 51.200,223.200 50.359,223.200 49.167 C 223.200 48.745,223.470 48.400,223.800 48.400 C 224.882 48.400,226.000 46.876,226.000 45.400 C 226.000 44.175,226.124 44.000,226.997 44.000 C 227.560 44.000,228.210 43.652,228.493 43.200 C 228.768 42.760,229.153 42.400,229.350 42.400 C 229.691 42.400,231.600 40.533,231.600 40.200 C 231.600 39.815,233.536 38.000,233.946 38.000 C 234.196 38.000,234.400 37.730,234.400 37.400 C 234.400 37.067,234.756 36.800,235.200 36.800 C 235.987 36.800,236.000 37.067,236.000 52.652 M318.629 49.600 C 319.733 49.600,320.000 49.756,320.000 50.400 C 320.000 50.840,320.249 51.200,320.553 51.200 C 320.858 51.200,321.201 51.560,321.316 52.000 C 321.431 52.440,321.812 52.800,322.163 52.800 C 322.513 52.800,322.800 53.070,322.800 53.400 C 322.800 53.733,323.156 54.000,323.600 54.000 C 324.133 54.000,324.400 54.267,324.400 54.800 C 324.400 55.240,324.625 55.614,324.900 55.632 C 325.300 55.657,325.300 55.704,324.900 55.865 C 324.625 55.976,324.400 56.322,324.400 56.633 C 324.400 57.034,323.899 57.200,322.696 57.200 C 320.823 57.200,320.307 56.710,319.813 54.460 C 319.654 53.737,319.272 53.049,318.962 52.930 C 318.653 52.812,318.400 52.374,318.400 51.957 C 318.400 51.467,318.118 51.200,317.600 51.200 C 316.934 51.200,316.808 50.949,316.846 49.700 C 316.872 48.875,316.975 48.515,317.076 48.900 C 317.205 49.395,317.660 49.600,318.629 49.600 M187.200 50.400 C 187.200 50.933,186.933 51.200,186.400 51.200 C 185.758 51.200,185.600 51.467,185.600 52.553 C 185.600 53.570,185.401 53.959,184.800 54.116 C 184.132 54.291,184.000 54.662,184.000 56.363 C 184.000 57.907,183.855 58.400,183.400 58.400 C 183.070 58.400,182.800 58.130,182.800 57.800 C 182.800 57.432,182.426 57.200,181.833 57.200 C 180.474 57.200,179.600 56.805,179.600 56.191 C 179.600 55.902,179.375 55.576,179.100 55.465 C 178.825 55.354,179.021 55.249,179.535 55.232 C 180.187 55.210,180.604 54.845,180.913 54.026 C 181.156 53.381,181.681 52.768,182.078 52.664 C 182.475 52.560,182.800 52.188,182.800 51.837 C 182.800 51.392,183.172 51.200,184.037 51.200 C 184.938 51.200,185.332 50.983,185.484 50.400 C 185.600 49.957,186.030 49.600,186.447 49.600 C 186.933 49.600,187.200 49.883,187.200 50.400 M156.800 80.800 C 156.800 81.448,157.067 81.600,158.200 81.600 C 159.178 81.600,159.600 81.781,159.600 82.200 C 159.600 82.611,160.012 82.800,160.904 82.800 C 161.774 82.800,162.374 83.066,162.707 83.600 C 163.083 84.202,163.640 84.400,164.957 84.400 C 166.370 84.400,166.747 84.554,166.916 85.200 C 167.075 85.807,167.462 86.000,168.520 86.000 C 169.390 86.000,170.001 86.225,170.145 86.600 C 170.302 87.011,170.945 87.200,172.187 87.200 L 174.000 87.200 174.000 89.400 C 174.000 91.081,173.860 91.600,173.405 91.600 C 173.021 91.600,172.720 92.160,172.558 93.175 C 172.419 94.042,172.057 94.846,171.753 94.963 C 171.336 95.123,171.200 96.112,171.200 98.987 C 171.200 102.267,171.088 102.912,170.400 103.600 C 169.767 104.233,169.600 104.933,169.600 106.954 C 169.600 108.442,169.351 109.987,169.002 110.654 C 168.517 111.584,168.399 113.870,168.371 122.800 C 168.352 128.850,168.234 133.530,168.108 133.200 C 167.983 132.870,167.682 132.468,167.440 132.306 C 166.642 131.773,134.620 131.940,134.080 132.480 C 133.816 132.744,133.600 132.809,133.600 132.624 C 133.600 132.439,133.902 132.068,134.271 131.798 C 134.734 131.459,134.998 130.524,135.125 128.771 C 135.226 127.376,135.554 125.989,135.854 125.689 C 136.252 125.291,136.400 123.900,136.400 120.571 C 136.400 116.267,136.447 116.000,137.200 116.000 C 137.843 116.000,138.000 115.733,138.000 114.643 C 138.000 113.805,138.230 113.197,138.600 113.055 C 139.023 112.893,139.200 112.232,139.200 110.813 C 139.200 109.067,139.306 108.800,140.000 108.800 C 140.677 108.800,140.800 108.533,140.800 107.062 C 140.800 105.832,141.034 105.112,141.600 104.600 C 142.166 104.088,142.400 103.368,142.400 102.138 C 142.400 100.860,142.559 100.400,143.000 100.400 C 143.330 100.400,143.600 100.061,143.600 99.647 C 143.600 99.230,143.957 98.800,144.400 98.684 C 144.840 98.569,145.200 98.175,145.200 97.809 C 145.200 97.443,145.470 96.873,145.800 96.543 C 146.186 96.157,146.400 95.168,146.400 93.771 C 146.400 91.867,146.498 91.600,147.200 91.600 C 147.733 91.600,148.000 91.333,148.000 90.800 C 148.000 90.356,148.267 90.000,148.600 90.000 C 148.930 90.000,149.200 89.713,149.200 89.363 C 149.200 89.012,149.560 88.631,150.000 88.516 C 150.601 88.359,150.800 87.970,150.800 86.953 C 150.800 86.068,150.991 85.600,151.353 85.600 C 151.960 85.600,152.386 84.413,152.395 82.700 C 152.399 81.884,152.598 81.600,153.167 81.600 C 154.359 81.600,155.200 81.169,155.200 80.557 C 155.200 80.251,155.560 80.000,156.000 80.000 C 156.533 80.000,156.800 80.267,156.800 80.800 M350.226 81.400 C 350.377 82.202,350.726 82.800,351.045 82.800 C 351.350 82.800,351.600 83.160,351.600 83.600 C 351.600 84.133,351.867 84.400,352.400 84.400 C 353.067 84.400,353.200 84.667,353.200 86.004 C 353.200 87.113,353.447 87.819,354.000 88.293 C 354.440 88.670,354.800 89.208,354.800 89.489 C 354.800 89.770,355.070 90.000,355.400 90.000 C 355.730 90.000,356.000 90.345,356.000 90.767 C 356.000 91.959,356.431 92.800,357.043 92.800 C 357.349 92.800,357.600 93.160,357.600 93.600 C 357.600 94.044,357.867 94.400,358.200 94.400 C 358.633 94.400,358.800 94.844,358.800 96.000 C 358.800 97.067,359.067 97.867,359.600 98.400 C 360.040 98.840,360.400 99.656,360.400 100.213 C 360.400 100.769,360.670 101.329,361.000 101.455 C 361.330 101.582,361.600 102.012,361.600 102.410 C 361.600 103.562,362.039 104.400,362.643 104.400 C 363.046 104.400,363.200 104.963,363.200 106.437 C 363.200 108.138,363.332 108.509,364.000 108.684 C 364.603 108.842,364.800 109.230,364.800 110.259 C 364.800 111.104,365.029 111.713,365.400 111.855 C 365.839 112.024,366.000 112.716,366.000 114.439 C 366.000 116.360,366.147 116.885,366.800 117.293 C 367.334 117.626,367.600 118.226,367.600 119.096 C 367.600 119.988,367.789 120.400,368.200 120.400 C 368.691 120.400,368.800 121.083,368.800 124.150 C 368.800 128.604,369.102 130.400,369.850 130.400 C 370.153 130.400,370.400 130.760,370.400 131.200 C 370.400 131.987,370.133 132.000,353.800 132.000 L 337.200 132.000 337.200 127.633 C 337.200 122.938,337.026 122.000,336.157 122.000 C 335.716 122.000,335.600 121.121,335.600 117.787 C 335.600 114.412,335.481 113.529,335.000 113.345 C 334.518 113.160,334.400 112.267,334.400 108.807 C 334.400 103.814,334.120 102.000,333.350 102.000 C 332.950 102.000,332.800 101.400,332.800 99.800 C 332.800 98.111,332.661 97.600,332.200 97.600 C 331.715 97.600,331.600 96.962,331.600 94.256 C 331.600 92.417,331.486 90.077,331.346 89.056 L 331.091 87.200 332.358 87.200 C 333.067 87.200,333.719 86.957,333.837 86.647 C 333.954 86.343,334.758 85.981,335.625 85.842 C 336.640 85.680,337.200 85.379,337.200 84.995 C 337.200 84.546,337.700 84.400,339.237 84.400 C 340.938 84.400,341.309 84.268,341.484 83.600 C 341.647 82.979,342.030 82.800,343.198 82.800 C 344.047 82.800,344.919 82.539,345.200 82.200 C 345.474 81.870,346.036 81.600,346.449 81.600 C 346.933 81.600,347.200 81.316,347.200 80.800 C 347.200 79.177,349.910 79.714,350.226 81.400 M208.046 96.000 C 210.858 96.000,211.674 96.129,211.855 96.600 C 212.044 97.092,213.050 97.200,217.443 97.200 C 222.267 97.200,222.880 97.280,223.600 98.000 C 224.326 98.726,224.933 98.800,230.200 98.800 L 236.000 98.800 236.000 115.400 L 236.000 132.000 217.200 132.000 L 198.400 132.000 198.400 128.003 C 198.400 124.440,198.487 123.953,199.200 123.507 C 199.939 123.046,200.000 122.574,200.000 117.304 C 200.000 112.760,200.111 111.600,200.544 111.600 C 201.141 111.600,201.591 108.901,201.597 105.287 C 201.599 103.781,201.772 103.109,202.200 102.945 C 202.667 102.765,202.800 101.972,202.800 99.357 C 202.800 96.640,202.914 96.000,203.400 96.000 C 203.730 96.000,204.014 95.775,204.032 95.500 C 204.057 95.100,204.104 95.100,204.265 95.500 C 204.405 95.848,205.557 96.000,208.046 96.000 M299.600 96.600 C 299.600 96.933,299.956 97.200,300.400 97.200 C 301.103 97.200,301.200 97.467,301.200 99.400 C 301.200 100.979,301.352 101.600,301.739 101.600 C 302.158 101.600,302.331 102.963,302.512 107.686 C 302.700 112.559,302.871 113.863,303.373 114.230 C 303.859 114.585,304.000 115.472,304.000 118.182 C 304.000 121.338,304.077 121.695,304.800 121.884 C 305.546 122.079,305.600 122.430,305.600 127.047 L 305.600 132.000 286.420 132.000 C 268.575 132.000,267.211 132.049,266.832 132.700 C 266.550 133.183,266.421 128.048,266.412 116.100 L 266.400 98.800 273.600 98.800 C 280.533 98.800,280.800 98.770,280.800 98.000 C 280.800 97.238,281.067 97.200,286.413 97.200 C 291.032 97.200,292.066 97.094,292.255 96.600 C 292.436 96.129,293.250 96.000,296.043 96.000 C 298.938 96.000,299.600 96.112,299.600 96.600 M168.400 168.200 L 168.400 172.800 152.400 172.800 C 137.230 172.800,136.400 172.762,136.400 172.076 C 136.400 171.679,136.136 171.004,135.813 170.576 C 135.490 170.149,135.220 169.050,135.213 168.133 C 135.197 166.073,134.883 165.200,134.157 165.200 C 133.851 165.200,133.600 164.840,133.600 164.400 C 133.600 163.612,133.867 163.600,151.000 163.600 L 168.400 163.600 168.400 168.200 M236.000 167.944 L 236.000 172.289 233.900 172.541 C 231.219 172.863,200.498 172.869,199.300 172.548 C 198.437 172.316,198.400 172.130,198.400 167.953 L 198.400 163.600 217.200 163.600 L 236.000 163.600 236.000 167.944 M305.568 168.900 C 305.551 171.815,305.434 173.930,305.308 173.600 C 304.874 172.459,304.120 172.412,285.929 172.406 C 269.846 172.401,267.582 172.475,267.029 173.029 C 266.457 173.600,266.400 173.200,266.400 168.629 L 266.400 163.600 286.000 163.600 L 305.600 163.600 305.568 168.900 M370.400 165.200 C 370.400 166.301,370.226 166.800,369.843 166.800 C 368.994 166.800,368.800 167.729,368.800 171.790 C 368.800 174.732,368.674 175.563,368.200 175.745 C 367.849 175.879,367.600 176.479,367.600 177.187 C 367.600 177.953,367.396 178.400,367.047 178.400 C 366.359 178.400,366.013 179.631,366.005 182.100 C 366.001 183.520,365.848 184.000,365.400 184.000 C 364.956 184.000,364.800 184.466,364.800 185.797 C 364.800 187.160,364.607 187.714,364.000 188.093 C 363.368 188.487,363.200 189.026,363.200 190.650 C 363.200 192.370,363.069 192.741,362.400 192.916 C 361.817 193.068,361.600 193.462,361.600 194.363 C 361.600 195.196,361.404 195.600,361.000 195.600 C 360.585 195.600,360.400 196.017,360.400 196.953 C 360.400 197.970,360.201 198.359,359.600 198.516 C 358.932 198.691,358.800 199.062,358.800 200.763 C 358.800 201.883,358.621 202.800,358.403 202.800 C 357.398 202.800,356.000 204.588,356.000 205.872 C 356.000 206.933,355.839 207.200,355.200 207.200 C 354.682 207.200,354.400 207.467,354.400 207.957 C 354.400 208.374,354.130 208.818,353.800 208.945 C 353.449 209.079,353.200 209.679,353.200 210.387 C 353.200 211.333,353.024 211.600,352.400 211.600 C 351.752 211.600,351.600 211.867,351.600 213.000 C 351.600 213.770,351.428 214.400,351.218 214.400 C 350.722 214.400,348.800 216.322,348.800 216.818 C 348.800 217.028,348.440 217.200,348.000 217.200 C 347.467 217.200,347.200 216.933,347.200 216.400 C 347.200 215.752,346.933 215.600,345.800 215.600 C 344.822 215.600,344.400 215.419,344.400 215.000 C 344.400 214.667,344.044 214.400,343.600 214.400 C 343.160 214.400,342.800 214.149,342.800 213.843 C 342.800 213.143,341.929 212.800,340.155 212.800 C 339.323 212.800,338.687 212.571,338.554 212.225 C 338.420 211.875,337.481 211.543,336.167 211.379 C 334.718 211.198,334.000 210.924,334.000 210.554 C 334.000 210.183,333.518 210.000,332.543 210.000 L 331.086 210.000 331.343 207.541 C 331.484 206.189,331.600 203.849,331.600 202.341 C 331.600 200.171,331.725 199.600,332.200 199.600 C 332.676 199.600,332.800 199.022,332.800 196.800 C 332.800 194.673,332.934 194.000,333.357 194.000 C 334.247 194.000,334.400 193.053,334.400 187.567 C 334.400 183.241,334.498 182.400,335.000 182.400 C 335.489 182.400,335.600 181.733,335.600 178.800 C 335.600 175.733,335.719 175.081,336.400 174.400 C 337.115 173.685,337.200 173.067,337.200 168.600 L 337.200 163.600 353.800 163.600 L 370.400 163.600 370.400 165.200 M283.029 204.629 C 282.530 205.127,282.400 206.206,282.400 209.829 C 282.400 214.133,282.353 214.400,281.600 214.400 C 280.897 214.400,280.800 214.667,280.800 216.600 C 280.800 218.289,280.661 218.800,280.200 218.800 C 279.692 218.800,279.600 219.778,279.600 225.200 C 279.600 231.333,279.567 231.600,278.800 231.600 C 278.097 231.600,278.000 231.867,278.000 233.800 C 278.000 235.406,277.851 236.000,277.447 236.000 C 276.799 236.000,276.413 237.209,276.405 239.267 C 276.402 240.080,276.177 240.807,275.900 240.899 C 275.542 241.018,275.363 242.603,275.270 246.494 C 275.151 251.456,275.073 251.940,274.370 252.124 C 273.697 252.300,273.600 252.701,273.600 255.314 C 273.600 257.482,273.435 258.439,273.000 258.800 C 272.549 259.174,272.400 260.180,272.400 262.849 C 272.400 266.133,272.340 266.400,271.600 266.400 C 270.876 266.400,270.800 266.667,270.800 269.200 C 270.800 271.327,270.666 272.000,270.243 272.000 C 269.342 272.000,269.200 272.952,269.200 278.990 C 269.200 283.709,269.095 284.755,268.600 284.945 C 268.223 285.089,268.000 285.701,268.000 286.587 L 268.000 288.000 185.600 288.000 C 103.467 288.000,103.200 287.997,103.200 287.200 C 103.200 286.760,102.953 286.400,102.651 286.400 C 102.247 286.400,102.053 285.544,101.914 283.140 C 101.774 280.725,101.554 279.755,101.063 279.396 C 100.568 279.035,100.400 278.278,100.400 276.418 C 100.400 274.262,100.292 273.897,99.600 273.716 C 98.897 273.532,98.800 273.170,98.800 270.741 C 98.800 268.651,98.653 267.919,98.200 267.745 C 97.771 267.580,97.600 266.909,97.600 265.390 C 97.600 262.896,97.324 262.000,96.557 262.000 C 96.128 262.000,96.000 261.276,96.000 258.854 C 96.000 256.314,95.846 255.512,95.200 254.691 C 94.734 254.099,94.400 253.068,94.400 252.224 C 94.400 251.305,94.181 250.691,93.800 250.545 C 93.430 250.403,93.200 249.795,93.200 248.957 C 93.200 247.867,93.043 247.600,92.400 247.600 C 91.648 247.600,91.600 247.333,91.600 243.200 C 91.600 239.556,91.497 238.800,91.000 238.800 C 90.569 238.800,90.400 238.359,90.400 237.233 C 90.400 235.278,90.077 234.400,89.357 234.400 C 88.937 234.400,88.800 233.750,88.800 231.763 C 88.800 229.462,88.698 229.098,88.000 228.916 C 87.297 228.732,87.200 228.370,87.200 225.941 C 87.200 223.851,87.053 223.119,86.600 222.945 C 86.148 222.771,86.000 222.043,86.000 219.990 C 86.000 216.911,85.762 216.000,84.957 216.000 C 84.565 216.000,84.400 215.476,84.400 214.229 C 84.400 213.187,84.153 212.210,83.800 211.857 C 83.470 211.527,83.200 210.687,83.200 209.991 C 83.200 209.062,82.987 208.670,82.400 208.516 C 81.725 208.339,81.600 207.970,81.600 206.153 L 81.600 204.000 182.629 204.000 C 274.473 204.000,283.600 204.057,283.029 204.629 M324.700 240.782 C 325.674 240.801,325.981 241.600,325.014 241.600 C 324.692 241.600,324.235 241.960,324.000 242.400 C 323.765 242.840,323.226 243.200,322.804 243.200 C 322.015 243.200,320.000 244.937,320.000 245.618 C 320.000 245.828,319.640 246.000,319.200 246.000 C 318.667 246.000,318.400 246.267,318.400 246.800 C 318.400 247.333,318.133 247.600,317.600 247.600 C 317.013 247.600,316.800 247.333,316.800 246.600 C 316.800 246.003,317.029 245.600,317.368 245.600 C 317.681 245.600,318.055 245.060,318.200 244.400 C 318.345 243.740,318.711 243.200,319.014 243.200 C 319.334 243.200,319.679 242.572,319.840 241.700 C 320.190 239.792,320.526 239.595,322.330 240.240 C 323.139 240.529,324.205 240.773,324.700 240.782 M107.300 322.812 C 106.805 323.011,106.400 323.360,106.400 323.587 C 106.400 323.819,105.474 324.000,104.289 324.000 C 103.096 324.000,101.819 324.251,101.353 324.578 C 100.900 324.895,99.584 325.281,98.430 325.434 C 97.249 325.590,96.241 325.950,96.123 326.256 C 96.008 326.555,95.685 326.800,95.404 326.800 C 95.123 326.800,94.799 327.160,94.684 327.600 C 94.531 328.185,94.138 328.400,93.225 328.400 C 92.483 328.400,91.881 328.644,91.745 329.000 C 91.618 329.330,91.264 329.600,90.957 329.600 C 90.651 329.600,90.400 329.960,90.400 330.400 C 90.400 330.933,90.133 331.200,89.600 331.200 C 89.160 331.200,88.800 331.450,88.800 331.755 C 88.800 332.074,88.202 332.423,87.400 332.574 C 86.562 332.731,86.000 333.070,86.000 333.418 C 86.000 333.738,85.640 334.000,85.200 334.000 C 84.667 334.000,84.400 334.267,84.400 334.800 C 84.400 335.244,84.133 335.600,83.800 335.600 C 83.470 335.600,83.200 335.858,83.200 336.173 C 83.200 336.488,82.840 336.860,82.400 337.000 C 81.960 337.140,81.600 337.519,81.600 337.844 C 81.600 338.168,81.240 338.820,80.800 339.292 C 80.360 339.764,80.000 340.387,80.000 340.675 C 80.000 340.964,79.730 341.200,79.400 341.200 C 78.983 341.200,78.800 341.619,78.800 342.573 C 78.800 343.595,78.595 344.011,78.000 344.200 C 77.405 344.389,77.200 344.805,77.200 345.827 C 77.200 346.781,77.017 347.200,76.600 347.200 C 76.181 347.200,76.000 347.622,76.000 348.600 C 76.000 349.733,75.848 350.000,75.200 350.000 C 74.415 350.000,74.400 350.267,74.400 364.237 C 74.400 378.138,74.419 378.480,75.200 378.684 C 75.801 378.841,76.000 379.230,76.000 380.247 C 76.000 381.183,76.185 381.600,76.600 381.600 C 76.930 381.600,77.200 381.945,77.200 382.367 C 77.200 383.559,77.631 384.400,78.243 384.400 C 78.613 384.400,78.800 384.870,78.800 385.800 C 78.800 386.778,78.981 387.200,79.400 387.200 C 79.730 387.200,80.000 387.482,80.000 387.827 C 80.000 388.881,82.513 391.585,83.500 391.593 C 84.224 391.599,84.400 391.826,84.400 392.754 C 84.400 393.503,84.716 394.122,85.300 394.518 C 85.795 394.854,86.796 395.684,87.525 396.364 C 88.253 397.044,89.198 397.600,89.625 397.600 C 90.051 397.600,90.400 397.870,90.400 398.200 C 90.400 398.619,90.822 398.800,91.800 398.800 C 92.933 398.800,93.200 398.952,93.200 399.600 C 93.200 400.133,93.467 400.400,94.000 400.400 C 94.440 400.400,94.800 400.662,94.800 400.982 C 94.800 401.328,95.356 401.668,96.172 401.821 C 96.927 401.963,97.641 402.331,97.760 402.639 C 97.914 403.041,98.716 403.200,100.587 403.200 C 102.062 403.200,103.200 403.374,103.200 403.600 C 103.200 403.857,107.333 404.000,114.800 404.000 C 122.267 404.000,126.400 403.857,126.400 403.600 C 126.400 403.380,127.306 403.200,128.413 403.200 C 129.780 403.200,130.495 403.018,130.643 402.633 C 130.767 402.310,131.706 401.950,132.830 401.796 C 134.031 401.631,134.800 401.324,134.800 401.009 C 134.800 400.725,135.160 400.399,135.600 400.284 C 136.040 400.169,136.400 399.788,136.400 399.437 C 136.400 398.994,136.770 398.800,137.613 398.800 C 138.298 398.800,138.921 398.550,139.046 398.224 C 139.167 397.908,139.807 397.530,140.468 397.385 C 141.305 397.201,141.788 396.779,142.062 395.993 C 142.279 395.372,142.713 394.765,143.028 394.645 C 143.343 394.524,143.600 394.149,143.600 393.813 C 143.600 393.476,143.886 393.200,144.236 393.200 C 145.221 393.200,146.372 391.541,146.387 390.100 C 146.399 388.887,146.492 388.800,147.782 388.800 C 149.044 388.800,149.186 388.679,149.426 387.400 C 149.577 386.598,149.926 386.000,150.245 386.000 C 150.611 386.000,150.800 385.532,150.800 384.627 C 150.800 383.605,151.005 383.189,151.600 383.000 C 152.258 382.791,152.400 382.395,152.400 380.773 C 152.400 379.286,152.548 378.800,153.000 378.800 C 153.417 378.800,153.600 378.381,153.600 377.427 C 153.600 376.405,153.805 375.989,154.400 375.800 C 155.037 375.598,155.200 375.195,155.200 373.822 C 155.200 372.777,155.436 371.902,155.800 371.600 C 156.687 370.864,156.687 357.136,155.800 356.400 C 155.470 356.126,155.200 355.474,155.200 354.951 L 155.200 354.000 186.200 354.000 C 216.933 354.000,217.200 354.007,217.200 354.800 C 217.200 355.244,216.933 355.600,216.600 355.600 C 216.085 355.600,216.000 356.822,216.000 364.200 C 216.000 371.578,216.085 372.800,216.600 372.800 C 217.022 372.800,217.200 373.226,217.200 374.237 C 217.200 375.338,217.387 375.724,218.000 375.884 C 218.716 376.071,218.800 376.430,218.800 379.284 C 218.800 382.138,218.884 382.497,219.600 382.684 C 220.043 382.800,220.400 383.230,220.400 383.647 C 220.400 384.061,220.670 384.400,221.000 384.400 C 221.330 384.400,221.600 384.745,221.600 385.167 C 221.600 386.359,222.031 387.200,222.643 387.200 C 222.949 387.200,223.200 387.560,223.200 388.000 C 223.200 388.444,223.467 388.800,223.800 388.800 C 224.130 388.800,224.400 389.145,224.400 389.567 C 224.400 390.730,224.826 391.600,225.396 391.600 C 225.677 391.600,226.001 391.960,226.116 392.400 C 226.268 392.983,226.662 393.200,227.563 393.200 C 228.679 393.200,228.800 393.321,228.800 394.437 C 228.800 395.319,229.020 395.732,229.563 395.874 C 229.983 395.984,230.416 396.417,230.526 396.837 C 230.668 397.380,231.081 397.600,231.963 397.600 C 232.796 397.600,233.200 397.796,233.200 398.200 C 233.200 398.530,233.539 398.800,233.953 398.800 C 234.370 398.800,234.800 399.157,234.916 399.600 C 235.068 400.183,235.462 400.400,236.363 400.400 C 237.152 400.400,237.600 400.601,237.600 400.955 C 237.600 401.274,238.198 401.623,239.000 401.774 C 239.838 401.931,240.400 402.270,240.400 402.618 C 240.400 403.063,240.967 403.200,242.800 403.200 C 244.133 403.200,245.200 403.378,245.200 403.600 C 245.200 403.857,249.267 404.000,256.600 404.000 C 263.933 404.000,268.000 403.857,268.000 403.600 C 268.000 403.374,269.138 403.200,270.613 403.200 C 272.566 403.200,273.283 403.049,273.455 402.600 C 273.589 402.252,274.187 402.000,274.880 402.000 C 275.738 402.000,276.134 401.775,276.284 401.200 C 276.428 400.650,276.830 400.400,277.571 400.400 C 278.164 400.400,279.036 400.040,279.508 399.600 C 279.980 399.160,280.734 398.800,281.183 398.800 C 281.632 398.800,282.000 398.646,282.000 398.458 C 282.000 397.966,283.888 396.000,284.360 396.000 C 284.926 396.000,286.800 394.198,286.800 393.654 C 286.800 393.404,287.070 393.200,287.400 393.200 C 287.733 393.200,288.000 392.844,288.000 392.400 C 288.000 391.956,288.267 391.600,288.600 391.600 C 289.329 391.600,290.800 390.193,290.800 389.496 C 290.800 389.219,291.160 388.768,291.600 388.493 C 292.040 388.218,292.400 387.564,292.400 387.039 C 292.400 386.515,292.653 385.988,292.962 385.870 C 293.272 385.751,293.643 385.117,293.787 384.460 C 293.931 383.804,294.308 383.167,294.624 383.046 C 294.975 382.912,295.200 382.272,295.200 381.413 C 295.200 380.267,295.351 380.000,296.000 380.000 C 296.741 380.000,296.800 379.733,296.800 376.400 C 296.800 373.467,296.911 372.800,297.400 372.800 C 297.915 372.800,298.000 371.578,298.000 364.200 C 298.000 356.822,297.915 355.600,297.400 355.600 C 296.906 355.600,296.800 354.885,296.800 351.563 C 296.800 347.862,296.733 347.508,296.000 347.316 C 295.557 347.200,295.200 346.770,295.200 346.353 C 295.200 345.939,294.930 345.600,294.600 345.600 C 294.270 345.600,294.000 345.255,294.000 344.833 C 294.000 343.641,293.569 342.800,292.957 342.800 C 292.587 342.800,292.400 342.330,292.400 341.400 C 292.400 340.267,292.248 340.000,291.600 340.000 C 291.067 340.000,290.800 339.733,290.800 339.200 C 290.800 338.760,290.567 338.400,290.283 338.400 C 289.998 338.400,289.593 337.815,289.383 337.100 C 289.092 336.113,288.745 335.770,287.940 335.677 C 287.092 335.579,286.830 335.288,286.630 334.220 C 286.417 333.084,286.173 332.846,284.990 332.624 C 284.160 332.469,283.600 332.129,283.600 331.782 C 283.600 331.462,283.330 331.200,283.000 331.200 C 282.670 331.200,282.400 330.926,282.400 330.590 C 282.400 330.255,281.967 329.816,281.439 329.615 C 280.910 329.414,280.360 329.058,280.215 328.825 C 280.071 328.591,279.513 328.400,278.976 328.400 C 277.978 328.400,276.726 327.427,276.301 326.319 C 276.137 325.892,275.248 325.613,273.432 325.418 C 271.557 325.217,270.800 324.973,270.800 324.568 C 270.800 324.139,270.202 324.000,268.363 324.000 C 266.532 324.000,265.673 323.801,264.909 323.200 C 263.797 322.325,109.457 321.945,107.300 322.812 M119.100 355.209 C 120.035 355.690,120.800 356.335,120.800 356.642 C 120.800 356.949,121.051 357.200,121.357 357.200 C 121.664 357.200,122.018 357.470,122.145 357.800 C 122.271 358.130,122.651 358.400,122.987 358.400 C 123.403 358.400,123.600 358.790,123.600 359.613 C 123.600 360.321,123.849 360.921,124.200 361.055 C 124.658 361.231,124.800 361.983,124.800 364.243 C 124.800 366.605,124.679 367.200,124.200 367.200 C 123.781 367.200,123.600 367.622,123.600 368.600 C 123.600 369.670,123.434 370.000,122.896 370.000 C 122.509 370.000,121.474 370.692,120.596 371.538 C 119.718 372.383,118.505 373.197,117.900 373.345 C 117.295 373.494,116.800 373.792,116.800 374.008 C 116.800 374.231,115.425 374.400,113.600 374.400 C 111.089 374.400,110.400 374.277,110.400 373.827 C 110.400 373.512,110.040 373.140,109.600 373.000 C 109.160 372.860,108.800 372.488,108.800 372.173 C 108.800 371.785,108.349 371.600,107.400 371.600 C 106.038 371.600,106.000 371.558,106.000 370.029 C 106.000 369.164,105.730 368.187,105.400 367.857 C 105.070 367.527,104.800 366.974,104.800 366.629 C 104.800 366.283,104.467 365.667,104.059 365.259 C 103.338 364.538,103.338 364.506,104.059 364.056 C 104.581 363.730,104.800 363.117,104.800 361.984 C 104.800 360.923,105.004 360.297,105.400 360.145 C 105.765 360.005,106.000 359.400,106.000 358.602 C 106.000 357.418,106.138 357.263,107.400 357.026 C 108.238 356.869,108.800 356.530,108.800 356.182 C 108.800 355.838,109.184 355.600,109.738 355.600 C 110.254 355.600,111.019 355.220,111.438 354.755 C 112.435 353.649,116.543 353.892,119.100 355.209 M259.550 354.250 C 260.238 354.388,260.800 354.748,260.800 355.050 C 260.800 355.412,261.279 355.600,262.200 355.600 C 262.978 355.600,263.600 355.802,263.600 356.054 C 263.600 356.588,265.470 358.400,266.021 358.400 C 266.229 358.400,266.400 358.732,266.400 359.138 C 266.400 359.544,266.760 360.202,267.200 360.600 C 267.640 360.998,268.000 361.656,268.000 362.062 C 268.000 362.468,268.270 362.800,268.600 362.800 C 268.933 362.800,269.200 363.156,269.200 363.600 C 269.200 364.044,268.933 364.400,268.600 364.400 C 268.181 364.400,268.000 364.822,268.000 365.800 C 268.000 366.791,267.821 367.200,267.387 367.200 C 267.051 367.200,266.657 367.515,266.512 367.900 C 266.368 368.285,266.035 368.780,265.773 369.000 C 265.511 369.220,265.181 369.895,265.040 370.500 C 264.900 371.105,264.537 371.600,264.235 371.600 C 263.933 371.600,263.592 371.844,263.477 372.143 C 263.363 372.442,262.713 372.797,262.034 372.933 C 261.303 373.079,260.800 373.428,260.800 373.790 C 260.800 374.517,255.828 374.692,255.388 373.981 C 255.213 373.697,254.931 373.725,254.521 374.065 C 254.027 374.476,253.828 374.457,253.457 373.966 C 253.206 373.634,252.415 373.124,251.700 372.833 C 250.985 372.541,250.400 372.068,250.400 371.780 C 250.400 371.492,250.165 371.019,249.878 370.729 C 249.590 370.438,249.236 369.885,249.090 369.500 C 248.944 369.115,248.549 368.800,248.213 368.800 C 247.867 368.800,247.600 368.452,247.600 368.000 C 247.600 367.556,247.333 367.200,247.000 367.200 C 246.524 367.200,246.400 366.621,246.400 364.387 C 246.400 362.256,246.545 361.519,247.000 361.345 C 247.370 361.203,247.600 360.595,247.600 359.757 C 247.600 358.473,247.675 358.400,249.000 358.400 C 249.978 358.400,250.400 358.219,250.400 357.800 C 250.400 357.470,250.760 356.840,251.200 356.400 C 251.640 355.960,252.270 355.600,252.600 355.600 C 252.930 355.600,253.200 355.341,253.200 355.024 C 253.200 354.262,257.182 353.776,259.550 354.250 " stroke="none" fill="#ffffff" fill-rule="evenodd"></path><path id="path1" d="M230.400 0.400 C 230.400 0.641,228.748 0.800,226.243 0.800 C 222.916 0.800,222.040 0.920,221.855 1.400 C 221.682 1.851,220.951 2.001,218.913 2.005 C 215.661 2.012,214.400 2.303,214.400 3.047 C 214.400 3.462,213.741 3.600,211.763 3.600 C 209.462 3.600,209.098 3.702,208.916 4.400 C 208.742 5.063,208.370 5.200,206.741 5.200 C 205.362 5.200,204.706 5.379,204.545 5.800 C 204.383 6.222,203.724 6.400,202.320 6.400 C 200.662 6.400,200.290 6.535,200.116 7.200 C 199.947 7.845,199.570 8.000,198.174 8.000 C 196.375 8.000,194.414 9.267,194.388 10.446 C 194.379 10.828,194.249 10.783,193.968 10.300 C 193.469 9.443,192.059 9.380,191.745 10.200 C 191.618 10.530,191.174 10.800,190.757 10.800 C 190.341 10.800,189.640 11.160,189.200 11.600 C 188.752 12.048,187.867 12.400,187.187 12.400 C 186.479 12.400,185.879 12.649,185.745 13.000 C 185.618 13.330,185.270 13.600,184.971 13.600 C 184.673 13.600,184.235 13.960,184.000 14.400 C 183.720 14.924,183.162 15.200,182.386 15.200 C 181.467 15.200,181.200 15.380,181.200 16.000 C 181.200 16.648,180.933 16.800,179.800 16.800 C 178.822 16.800,178.400 16.981,178.400 17.400 C 178.400 17.804,177.996 18.000,177.163 18.000 C 176.262 18.000,175.868 18.217,175.716 18.800 C 175.600 19.243,175.170 19.600,174.753 19.600 C 174.339 19.600,174.000 19.870,174.000 20.200 C 174.000 20.604,173.596 20.800,172.763 20.800 C 171.862 20.800,171.468 21.017,171.316 21.600 C 171.166 22.174,170.770 22.400,169.916 22.400 C 169.062 22.400,168.666 22.626,168.516 23.200 C 168.400 23.643,167.970 24.000,167.553 24.000 C 167.139 24.000,166.800 24.249,166.800 24.553 C 166.800 24.858,166.440 25.201,166.000 25.316 C 165.560 25.431,165.200 25.812,165.200 26.163 C 165.200 26.599,164.835 26.800,164.043 26.800 C 163.406 26.800,162.791 27.047,162.675 27.349 C 162.559 27.650,161.964 28.023,161.353 28.176 C 160.241 28.455,158.400 30.104,158.400 30.821 C 158.400 31.029,158.040 31.200,157.600 31.200 C 157.156 31.200,156.800 31.467,156.800 31.800 C 156.800 32.133,156.444 32.400,156.000 32.400 C 155.467 32.400,155.200 32.667,155.200 33.200 C 155.200 33.644,154.933 34.000,154.600 34.000 C 154.270 34.000,154.000 34.258,154.000 34.573 C 154.000 34.888,153.640 35.260,153.200 35.400 C 152.760 35.540,152.400 35.912,152.400 36.227 C 152.400 36.542,152.040 36.800,151.600 36.800 C 151.067 36.800,150.800 37.067,150.800 37.600 C 150.800 38.216,150.533 38.400,149.643 38.400 C 148.466 38.400,148.000 38.977,148.000 40.433 C 148.000 41.024,147.716 41.200,146.763 41.200 C 145.862 41.200,145.468 41.417,145.316 42.000 C 145.201 42.440,144.877 42.800,144.596 42.800 C 144.031 42.800,143.600 43.668,143.600 44.806 C 143.600 45.317,143.258 45.586,142.500 45.673 C 141.651 45.771,141.313 46.097,141.017 47.100 C 140.807 47.815,140.385 48.400,140.080 48.400 C 139.775 48.400,139.431 48.760,139.316 49.200 C 139.201 49.640,138.858 50.000,138.553 50.000 C 138.249 50.000,138.000 50.270,138.000 50.600 C 138.000 50.930,137.713 51.200,137.363 51.200 C 137.012 51.200,136.631 51.560,136.516 52.000 C 136.401 52.440,136.058 52.800,135.753 52.800 C 135.449 52.800,135.200 53.120,135.200 53.511 C 135.200 53.902,134.840 54.530,134.400 54.907 C 133.960 55.284,133.600 55.954,133.600 56.396 C 133.600 56.851,133.334 57.200,132.987 57.200 C 132.651 57.200,132.271 57.470,132.145 57.800 C 132.018 58.130,131.664 58.400,131.357 58.400 C 131.051 58.400,130.800 58.760,130.800 59.200 C 130.800 59.733,130.533 60.000,130.000 60.000 C 129.420 60.000,129.200 60.267,129.200 60.971 C 129.200 61.506,128.930 62.213,128.600 62.543 C 128.270 62.873,128.000 63.426,128.000 63.771 C 128.000 64.117,127.749 64.400,127.443 64.400 C 126.831 64.400,126.400 65.241,126.400 66.433 C 126.400 66.933,126.122 67.200,125.600 67.200 C 125.082 67.200,124.800 67.467,124.800 67.957 C 124.800 68.374,124.530 68.818,124.200 68.945 C 123.849 69.079,123.600 69.679,123.600 70.387 C 123.600 71.161,123.397 71.600,123.039 71.600 C 122.731 71.600,122.298 72.095,122.077 72.700 C 121.857 73.305,121.119 74.396,120.438 75.125 C 119.635 75.984,119.200 76.863,119.200 77.625 C 119.200 78.363,118.993 78.800,118.643 78.800 C 117.923 78.800,117.600 79.678,117.600 81.633 C 117.600 82.759,117.431 83.200,117.000 83.200 C 116.581 83.200,116.400 83.622,116.400 84.600 C 116.400 85.733,116.248 86.000,115.600 86.000 C 114.958 86.000,114.800 86.267,114.800 87.353 C 114.800 88.370,114.601 88.759,114.000 88.916 C 113.332 89.091,113.200 89.462,113.200 91.163 C 113.200 92.707,113.055 93.200,112.600 93.200 C 112.237 93.200,112.000 93.571,112.000 94.138 C 112.000 94.654,111.640 95.402,111.200 95.800 C 110.753 96.204,110.400 97.032,110.400 97.675 C 110.400 98.328,110.141 98.925,109.800 99.055 C 109.386 99.214,109.200 99.861,109.200 101.147 C 109.200 102.574,109.014 103.124,108.400 103.507 C 107.687 103.953,107.600 104.440,107.600 108.003 C 107.600 111.733,107.547 112.000,106.800 112.000 C 106.152 112.000,106.000 112.267,106.000 113.400 C 106.000 114.378,105.819 114.800,105.400 114.800 C 104.899 114.800,104.800 115.617,104.800 119.753 C 104.800 124.370,104.746 124.721,104.000 124.916 C 103.227 125.118,103.200 125.462,103.200 135.163 C 103.200 143.818,103.117 145.200,102.600 145.200 C 102.114 145.200,102.000 145.844,102.000 148.600 C 102.000 151.356,102.114 152.000,102.600 152.000 C 103.117 152.000,103.200 153.330,103.200 161.567 C 103.200 171.425,103.294 172.400,104.243 172.400 C 104.558 172.400,104.795 172.792,104.788 173.300 C 104.777 174.104,104.732 174.125,104.368 173.500 C 103.992 172.854,102.856 172.800,89.630 172.800 C 72.268 172.800,72.800 172.871,72.800 170.537 C 72.800 169.340,72.608 168.701,72.200 168.545 C 71.719 168.360,71.600 167.479,71.600 164.120 C 71.600 160.262,71.536 159.908,70.800 159.716 C 70.135 159.542,70.000 159.170,70.000 157.516 C 70.000 155.862,69.865 155.490,69.200 155.316 C 68.498 155.132,68.400 154.770,68.400 152.353 C 68.400 150.173,68.275 149.600,67.800 149.600 C 67.334 149.600,67.200 149.070,67.200 147.233 C 67.200 144.503,66.941 143.600,66.157 143.600 C 65.734 143.600,65.600 142.927,65.600 140.800 L 65.600 138.000 32.800 138.000 L 0.000 138.000 0.000 153.800 C 0.000 163.128,0.150 169.600,0.367 169.600 C 1.188 169.600,2.000 169.081,2.000 168.557 C 2.000 168.089,5.025 168.000,20.992 168.000 L 39.985 168.000 40.236 169.000 C 40.374 169.550,40.647 170.000,40.843 170.000 C 41.040 170.000,41.200 170.827,41.200 171.837 C 41.200 173.338,41.346 173.713,42.000 173.884 C 42.662 174.057,42.800 174.430,42.800 176.047 C 42.800 177.516,42.949 178.000,43.400 178.000 C 43.894 178.000,44.001 178.725,44.005 182.100 C 44.012 186.703,44.241 188.000,45.047 188.000 C 45.351 188.000,45.600 188.360,45.600 188.800 C 45.600 189.240,45.844 189.600,46.143 189.600 C 46.538 189.600,46.747 190.495,46.911 192.882 C 47.071 195.214,47.318 196.297,47.768 196.626 C 48.225 196.960,48.400 197.766,48.400 199.530 C 48.400 201.562,48.534 202.044,49.200 202.400 C 49.879 202.763,50.000 203.238,50.000 205.538 C 50.000 207.301,50.205 208.518,50.587 209.024 C 50.910 209.451,51.180 210.402,51.187 211.137 C 51.197 212.132,51.405 212.528,52.000 212.684 C 52.663 212.858,52.800 213.230,52.800 214.859 C 52.800 216.238,52.979 216.894,53.400 217.055 C 53.877 217.238,54.000 218.093,54.000 221.229 C 54.000 224.762,54.083 225.216,54.800 225.600 C 55.435 225.940,55.600 226.438,55.600 228.014 C 55.600 229.733,55.707 230.000,56.400 230.000 C 57.123 230.000,57.200 230.267,57.200 232.757 C 57.200 234.839,57.347 235.571,57.800 235.745 C 58.232 235.910,58.400 236.586,58.400 238.155 C 58.400 240.702,58.672 241.600,59.443 241.600 C 59.868 241.600,60.001 242.289,60.002 244.500 C 60.004 246.141,60.238 247.846,60.541 248.427 C 60.835 248.991,61.198 249.936,61.346 250.527 C 61.494 251.117,61.882 251.600,62.208 251.600 C 62.659 251.600,62.800 252.124,62.800 253.800 C 62.800 255.733,62.897 256.000,63.600 256.000 C 64.357 256.000,64.400 256.267,64.400 261.000 C 64.400 265.178,64.499 266.000,65.000 266.000 C 65.422 266.000,65.600 266.426,65.600 267.437 C 65.600 268.538,65.787 268.924,66.400 269.084 C 67.109 269.270,67.200 269.630,67.200 272.251 C 67.200 274.713,67.334 275.322,68.000 275.893 C 68.641 276.442,68.800 277.073,68.800 279.069 C 68.800 280.738,68.978 281.666,69.341 281.880 C 69.679 282.080,69.973 283.325,70.126 285.194 C 70.289 287.204,70.572 288.336,70.985 288.638 C 71.343 288.901,71.600 289.695,71.600 290.544 C 71.600 291.572,71.777 292.000,72.200 292.000 C 72.655 292.000,72.800 292.493,72.800 294.037 C 72.800 295.738,72.932 296.109,73.600 296.284 C 74.336 296.477,74.400 296.830,74.400 300.684 C 74.400 304.538,74.464 304.892,75.200 305.084 C 75.862 305.257,76.000 305.630,76.000 307.247 C 76.000 308.716,76.149 309.200,76.600 309.200 C 77.066 309.200,77.200 309.730,77.200 311.567 C 77.200 314.278,77.459 315.200,78.222 315.200 C 78.587 315.200,78.797 315.871,78.879 317.300 L 79.000 319.400 186.067 319.400 C 244.953 319.400,293.268 319.265,293.433 319.101 C 293.597 318.936,293.816 317.361,293.918 315.601 C 294.054 313.246,294.248 312.400,294.651 312.400 C 295.065 312.400,295.200 311.700,295.200 309.563 C 295.200 307.062,295.295 306.700,296.000 306.516 C 296.758 306.318,296.800 305.970,296.800 299.953 C 296.800 294.573,296.892 293.600,297.400 293.600 C 297.819 293.600,298.000 293.178,298.000 292.200 C 298.000 290.860,298.061 290.800,299.437 290.800 C 300.538 290.800,300.924 290.613,301.084 290.000 C 301.260 289.327,301.630 289.200,303.418 289.200 C 304.666 289.200,305.765 288.978,306.081 288.661 C 306.378 288.365,307.272 288.000,308.070 287.851 C 308.867 287.701,309.740 287.314,310.009 286.989 C 310.278 286.665,310.914 286.400,311.422 286.400 C 311.995 286.400,312.443 286.096,312.600 285.600 C 312.795 284.984,313.205 284.800,314.378 284.800 C 315.245 284.800,316.117 284.541,316.400 284.200 C 316.674 283.870,317.236 283.600,317.649 283.600 C 318.062 283.600,318.760 283.240,319.200 282.800 C 319.640 282.360,320.270 282.000,320.600 282.000 C 320.930 282.000,321.200 281.730,321.200 281.400 C 321.200 280.981,321.622 280.800,322.600 280.800 C 323.733 280.800,324.000 280.648,324.000 280.000 C 324.000 279.348,324.267 279.200,325.437 279.200 C 326.538 279.200,326.924 279.013,327.084 278.400 C 327.220 277.879,327.630 277.600,328.259 277.600 C 328.790 277.600,329.329 277.330,329.455 277.000 C 329.582 276.670,330.043 276.400,330.480 276.400 C 330.938 276.400,331.363 276.061,331.484 275.600 C 331.633 275.031,332.030 274.800,332.859 274.800 C 333.500 274.800,334.122 274.546,334.241 274.236 C 334.361 273.926,334.890 273.564,335.417 273.431 C 335.945 273.299,336.568 272.833,336.803 272.395 C 337.045 271.942,337.639 271.600,338.184 271.600 C 338.796 271.600,339.870 270.879,341.162 269.600 C 342.273 268.500,343.358 267.600,343.572 267.600 C 343.785 267.600,344.104 267.356,344.280 267.059 C 344.456 266.761,345.140 266.342,345.800 266.128 C 346.752 265.819,347.026 265.476,347.125 264.469 C 347.227 263.437,347.427 263.200,348.197 263.200 C 348.717 263.200,349.381 262.965,349.671 262.678 C 349.962 262.390,350.515 262.036,350.900 261.890 C 351.285 261.744,351.600 261.349,351.600 261.013 C 351.600 260.676,351.849 260.400,352.153 260.400 C 352.458 260.400,352.801 260.040,352.916 259.600 C 353.031 259.160,353.412 258.800,353.763 258.800 C 354.113 258.800,354.400 258.530,354.400 258.200 C 354.400 257.867,354.756 257.600,355.200 257.600 C 355.733 257.600,356.000 257.333,356.000 256.800 C 356.000 256.360,356.200 256.000,356.444 256.000 C 357.058 256.000,358.785 254.310,358.793 253.700 C 358.797 253.425,359.160 253.200,359.600 253.200 C 360.133 253.200,360.400 252.933,360.400 252.400 C 360.400 251.956,360.667 251.600,361.000 251.600 C 361.330 251.600,361.600 251.330,361.600 251.000 C 361.600 250.670,361.887 250.400,362.237 250.400 C 362.588 250.400,362.969 250.040,363.084 249.600 C 363.199 249.160,363.472 248.800,363.690 248.800 C 364.244 248.800,365.985 247.097,365.993 246.547 C 365.997 246.297,366.360 245.999,366.800 245.884 C 367.375 245.734,367.600 245.338,367.600 244.481 C 367.600 243.544,367.813 243.233,368.588 243.039 C 369.132 242.902,369.787 242.388,370.043 241.895 C 370.299 241.403,370.844 240.678,371.254 240.284 C 371.664 239.891,372.000 239.036,372.000 238.384 C 372.000 237.598,372.202 237.200,372.600 237.200 C 372.930 237.200,373.200 237.032,373.200 236.827 C 373.200 236.622,373.560 236.340,374.000 236.200 C 374.440 236.060,374.800 235.598,374.800 235.173 C 374.800 234.748,375.070 234.400,375.400 234.400 C 375.730 234.400,376.000 234.061,376.000 233.647 C 376.000 233.230,376.357 232.800,376.800 232.684 C 377.450 232.514,377.600 232.138,377.600 230.682 C 377.600 228.950,377.647 228.880,379.000 228.626 C 380.279 228.386,380.400 228.244,380.400 226.982 C 380.400 226.072,380.589 225.600,380.953 225.600 C 381.560 225.600,381.986 224.413,381.995 222.700 C 381.998 221.991,382.213 221.600,382.600 221.600 C 382.933 221.600,383.200 221.244,383.200 220.800 C 383.200 220.267,383.467 220.000,384.000 220.000 C 384.642 220.000,384.800 219.733,384.800 218.647 C 384.800 217.630,384.999 217.241,385.600 217.084 C 386.128 216.946,386.400 216.538,386.400 215.886 C 386.400 215.343,386.670 214.674,387.000 214.400 C 387.330 214.126,387.600 213.294,387.600 212.551 C 387.600 211.635,387.788 211.200,388.182 211.200 C 388.530 211.200,388.869 210.638,389.026 209.800 C 389.171 209.030,389.520 208.400,389.802 208.400 C 390.376 208.400,390.800 207.530,390.800 206.355 C 390.800 205.926,391.070 205.471,391.400 205.345 C 391.846 205.174,392.000 204.464,392.000 202.584 C 392.000 200.405,392.111 200.019,392.800 199.800 C 393.240 199.660,393.606 199.243,393.613 198.873 C 393.620 198.503,393.890 197.851,394.213 197.424 C 394.536 196.996,394.800 195.802,394.800 194.770 C 394.800 193.230,394.943 192.856,395.600 192.684 C 396.267 192.510,396.400 192.138,396.400 190.457 C 396.400 188.969,396.580 188.339,397.084 188.057 C 397.641 187.745,397.799 186.920,397.931 183.637 C 398.055 180.544,398.222 179.600,398.647 179.600 C 399.065 179.600,399.200 178.918,399.200 176.800 C 399.200 175.200,399.371 174.000,399.600 174.000 C 399.862 174.000,400.000 165.267,400.000 148.600 C 400.000 131.933,399.862 123.200,399.600 123.200 C 399.372 123.200,399.200 122.014,399.200 120.443 C 399.200 118.493,399.041 117.625,398.658 117.478 C 398.266 117.327,398.058 116.029,397.903 112.762 C 397.737 109.253,397.546 108.150,397.045 107.783 C 396.661 107.503,396.400 106.736,396.400 105.889 C 396.400 104.073,396.061 103.200,395.357 103.200 C 394.957 103.200,394.800 102.649,394.800 101.243 C 394.800 99.872,394.620 99.217,394.200 99.055 C 393.870 98.929,393.600 98.474,393.600 98.045 C 393.600 96.841,393.171 96.000,392.557 96.000 C 392.150 96.000,392.000 95.420,392.000 93.843 C 392.000 92.396,391.821 91.617,391.457 91.477 C 391.159 91.363,390.812 90.503,390.686 89.567 C 390.561 88.630,390.175 87.706,389.829 87.512 C 389.483 87.319,389.200 86.899,389.200 86.580 C 389.200 86.261,388.840 86.000,388.400 86.000 C 387.706 86.000,387.600 85.733,387.600 83.987 C 387.600 82.630,387.417 81.905,387.039 81.760 C 386.731 81.641,386.363 80.927,386.221 80.172 C 386.068 79.356,385.728 78.800,385.382 78.800 C 384.998 78.800,384.800 78.379,384.800 77.563 C 384.800 76.662,384.583 76.268,384.000 76.116 C 383.557 76.000,383.200 75.570,383.200 75.153 C 383.200 74.739,382.930 74.400,382.600 74.400 C 382.189 74.400,382.000 73.988,382.000 73.096 C 382.000 72.226,381.734 71.626,381.200 71.293 C 380.760 71.018,380.400 70.443,380.400 70.015 C 380.400 69.217,378.667 67.200,377.982 67.200 C 377.772 67.200,377.600 66.570,377.600 65.800 C 377.600 64.667,377.448 64.400,376.800 64.400 C 376.267 64.400,376.000 64.133,376.000 63.600 C 376.000 63.160,375.741 62.800,375.425 62.800 C 375.069 62.800,374.803 62.305,374.725 61.500 C 374.615 60.357,374.443 60.185,373.300 60.075 C 372.110 59.960,372.000 59.833,372.000 58.575 C 372.000 57.733,371.690 56.890,371.200 56.400 C 370.760 55.960,370.400 55.313,370.400 54.963 C 370.400 54.612,370.040 54.231,369.600 54.116 C 369.160 54.001,368.800 53.658,368.800 53.353 C 368.800 53.049,368.569 52.800,368.288 52.800 C 368.006 52.800,367.552 52.305,367.280 51.700 C 366.360 49.658,365.558 48.400,365.178 48.400 C 364.970 48.400,364.440 48.040,364.000 47.600 C 363.560 47.160,362.840 46.800,362.400 46.800 C 361.772 46.800,361.600 46.533,361.600 45.563 C 361.600 44.662,361.383 44.268,360.800 44.116 C 360.360 44.001,360.000 43.672,360.000 43.385 C 360.000 43.098,359.472 42.748,358.826 42.606 C 357.944 42.412,357.588 42.056,357.394 41.174 C 357.252 40.528,356.893 40.000,356.595 40.000 C 356.297 40.000,355.940 39.640,355.800 39.200 C 355.660 38.760,355.328 38.400,355.062 38.400 C 354.796 38.400,354.270 38.040,353.893 37.600 C 353.516 37.160,352.857 36.800,352.429 36.800 C 351.843 36.800,351.620 36.478,351.525 35.500 C 351.415 34.357,351.243 34.185,350.100 34.075 C 349.254 33.993,348.800 33.735,348.800 33.337 C 348.800 33.001,348.440 32.631,348.000 32.516 C 347.560 32.401,347.200 32.058,347.200 31.753 C 347.200 31.388,346.725 31.200,345.800 31.200 C 344.842 31.200,344.400 31.016,344.400 30.618 C 344.400 29.996,342.589 28.000,342.025 28.000 C 341.838 28.000,341.582 27.730,341.455 27.400 C 341.329 27.070,340.970 26.800,340.659 26.800 C 340.348 26.800,339.999 26.440,339.884 26.000 C 339.732 25.417,339.338 25.200,338.437 25.200 C 337.604 25.200,337.200 25.004,337.200 24.600 C 337.200 23.518,335.676 22.400,334.200 22.400 C 333.251 22.400,332.800 22.215,332.800 21.827 C 332.800 21.512,332.457 21.145,332.037 21.012 C 331.617 20.879,331.173 20.506,331.050 20.185 C 330.921 19.850,330.307 19.600,329.613 19.600 C 328.827 19.600,328.400 19.398,328.400 19.027 C 328.400 18.712,328.057 18.345,327.637 18.212 C 327.217 18.079,326.773 17.706,326.650 17.385 C 326.503 17.003,325.854 16.800,324.775 16.800 C 323.462 16.800,323.082 16.637,322.916 16.000 C 322.801 15.560,322.433 15.200,322.097 15.200 C 321.762 15.200,321.277 14.912,321.020 14.559 C 320.757 14.200,319.727 13.826,318.676 13.707 C 317.457 13.570,316.800 13.304,316.800 12.948 C 316.800 12.588,316.319 12.400,315.400 12.400 C 314.267 12.400,314.000 12.248,314.000 11.600 C 314.000 10.952,313.733 10.800,312.600 10.800 C 311.661 10.800,311.200 10.614,311.200 10.235 C 311.200 9.888,310.584 9.566,309.600 9.400 C 308.616 9.234,308.000 8.912,308.000 8.565 C 308.000 8.154,307.459 8.000,306.020 8.000 C 304.618 8.000,303.935 7.813,303.680 7.358 C 303.464 6.971,302.580 6.632,301.460 6.506 C 300.254 6.370,299.600 6.103,299.600 5.748 C 299.600 5.388,299.119 5.200,298.200 5.200 C 297.333 5.200,296.495 4.895,296.000 4.400 C 295.361 3.761,294.667 3.600,292.544 3.600 C 290.544 3.600,289.770 3.438,289.409 2.944 C 289.059 2.467,288.068 2.234,285.764 2.091 C 283.685 1.961,282.490 1.706,282.280 1.347 C 282.045 0.946,280.954 0.800,278.180 0.800 C 275.927 0.800,274.400 0.638,274.400 0.400 C 274.400 0.138,266.800 0.000,252.400 0.000 C 238.000 0.000,230.400 0.138,230.400 0.400 M268.511 36.005 C 268.890 36.447,269.200 36.981,269.200 37.190 C 269.200 37.400,269.560 37.765,270.000 38.000 C 270.440 38.235,270.800 38.692,270.800 39.014 C 270.800 39.336,271.160 39.600,271.600 39.600 C 272.040 39.600,272.403 39.825,272.407 40.100 C 272.415 40.710,274.142 42.400,274.756 42.400 C 275.000 42.400,275.200 42.760,275.200 43.200 C 275.200 43.652,275.467 44.000,275.813 44.000 C 276.149 44.000,276.527 44.265,276.651 44.589 C 276.776 44.913,277.490 45.293,278.239 45.434 C 279.543 45.678,279.600 45.763,279.600 47.457 C 279.600 48.660,279.792 49.299,280.200 49.455 C 280.530 49.582,280.800 49.953,280.800 50.280 C 280.800 50.607,281.160 50.969,281.600 51.084 C 282.040 51.199,282.400 51.548,282.400 51.859 C 282.400 52.170,282.670 52.529,283.000 52.655 C 283.330 52.782,283.600 53.212,283.600 53.610 C 283.600 54.762,284.039 55.600,284.643 55.600 C 284.993 55.600,285.200 56.038,285.200 56.782 C 285.200 57.924,286.760 60.000,287.618 60.000 C 287.828 60.000,288.000 60.270,288.000 60.600 C 288.000 60.930,288.360 61.560,288.800 62.000 C 289.286 62.486,289.600 63.333,289.600 64.160 L 289.600 65.520 286.041 65.660 C 283.356 65.766,282.293 65.972,281.710 66.500 C 281.068 67.081,280.157 67.200,276.345 67.200 C 272.927 67.200,271.554 67.350,270.976 67.787 C 270.549 68.110,269.345 68.380,268.300 68.387 L 266.400 68.400 266.400 51.800 C 266.400 33.817,266.432 33.577,268.511 36.005 M236.000 52.652 L 236.000 68.503 233.900 68.227 C 232.745 68.075,231.740 67.782,231.667 67.575 C 231.593 67.369,229.568 67.200,227.167 67.200 C 223.728 67.200,222.800 67.083,222.800 66.650 C 222.800 65.940,221.036 65.600,217.350 65.600 C 214.261 65.600,213.403 64.962,215.200 64.000 C 215.812 63.672,216.000 63.162,216.000 61.829 C 216.000 60.648,216.194 60.011,216.600 59.855 C 216.930 59.729,217.200 59.349,217.200 59.013 C 217.200 58.667,217.548 58.400,218.000 58.400 C 218.475 58.400,218.800 58.133,218.800 57.744 C 218.800 57.383,219.082 56.882,219.427 56.630 C 219.771 56.378,220.155 55.413,220.279 54.486 C 220.420 53.436,220.712 52.800,221.053 52.800 C 221.354 52.800,221.600 52.440,221.600 52.000 C 221.600 51.560,221.851 51.200,222.157 51.200 C 222.769 51.200,223.200 50.359,223.200 49.167 C 223.200 48.745,223.470 48.400,223.800 48.400 C 224.882 48.400,226.000 46.876,226.000 45.400 C 226.000 44.175,226.124 44.000,226.997 44.000 C 227.560 44.000,228.210 43.652,228.493 43.200 C 228.768 42.760,229.153 42.400,229.350 42.400 C 229.691 42.400,231.600 40.533,231.600 40.200 C 231.600 39.815,233.536 38.000,233.946 38.000 C 234.196 38.000,234.400 37.730,234.400 37.400 C 234.400 37.067,234.756 36.800,235.200 36.800 C 235.987 36.800,236.000 37.067,236.000 52.652 M318.629 49.600 C 319.733 49.600,320.000 49.756,320.000 50.400 C 320.000 50.840,320.249 51.200,320.553 51.200 C 320.858 51.200,321.201 51.560,321.316 52.000 C 321.431 52.440,321.812 52.800,322.163 52.800 C 322.513 52.800,322.800 53.070,322.800 53.400 C 322.800 53.733,323.156 54.000,323.600 54.000 C 324.133 54.000,324.400 54.267,324.400 54.800 C 324.400 55.240,324.625 55.614,324.900 55.632 C 325.300 55.657,325.300 55.704,324.900 55.865 C 324.625 55.976,324.400 56.322,324.400 56.633 C 324.400 57.034,323.899 57.200,322.696 57.200 C 320.823 57.200,320.307 56.710,319.813 54.460 C 319.654 53.737,319.272 53.049,318.962 52.930 C 318.653 52.812,318.400 52.374,318.400 51.957 C 318.400 51.467,318.118 51.200,317.600 51.200 C 316.934 51.200,316.808 50.949,316.846 49.700 C 316.872 48.875,316.975 48.515,317.076 48.900 C 317.205 49.395,317.660 49.600,318.629 49.600 M187.200 50.400 C 187.200 50.933,186.933 51.200,186.400 51.200 C 185.758 51.200,185.600 51.467,185.600 52.553 C 185.600 53.570,185.401 53.959,184.800 54.116 C 184.132 54.291,184.000 54.662,184.000 56.363 C 184.000 57.907,183.855 58.400,183.400 58.400 C 183.070 58.400,182.800 58.130,182.800 57.800 C 182.800 57.432,182.426 57.200,181.833 57.200 C 180.474 57.200,179.600 56.805,179.600 56.191 C 179.600 55.902,179.375 55.576,179.100 55.465 C 178.825 55.354,179.021 55.249,179.535 55.232 C 180.187 55.210,180.604 54.845,180.913 54.026 C 181.156 53.381,181.681 52.768,182.078 52.664 C 182.475 52.560,182.800 52.188,182.800 51.837 C 182.800 51.392,183.172 51.200,184.037 51.200 C 184.938 51.200,185.332 50.983,185.484 50.400 C 185.600 49.957,186.030 49.600,186.447 49.600 C 186.933 49.600,187.200 49.883,187.200 50.400 M156.800 80.800 C 156.800 81.448,157.067 81.600,158.200 81.600 C 159.178 81.600,159.600 81.781,159.600 82.200 C 159.600 82.611,160.012 82.800,160.904 82.800 C 161.774 82.800,162.374 83.066,162.707 83.600 C 163.083 84.202,163.640 84.400,164.957 84.400 C 166.370 84.400,166.747 84.554,166.916 85.200 C 167.075 85.807,167.462 86.000,168.520 86.000 C 169.390 86.000,170.001 86.225,170.145 86.600 C 170.302 87.011,170.945 87.200,172.187 87.200 L 174.000 87.200 174.000 89.400 C 174.000 91.081,173.860 91.600,173.405 91.600 C 173.021 91.600,172.720 92.160,172.558 93.175 C 172.419 94.042,172.057 94.846,171.753 94.963 C 171.336 95.123,171.200 96.112,171.200 98.987 C 171.200 102.267,171.088 102.912,170.400 103.600 C 169.767 104.233,169.600 104.933,169.600 106.954 C 169.600 108.442,169.351 109.987,169.002 110.654 C 168.517 111.584,168.399 113.870,168.371 122.800 C 168.352 128.850,168.234 133.530,168.108 133.200 C 167.983 132.870,167.682 132.468,167.440 132.306 C 166.642 131.773,134.620 131.940,134.080 132.480 C 133.816 132.744,133.600 132.809,133.600 132.624 C 133.600 132.439,133.902 132.068,134.271 131.798 C 134.734 131.459,134.998 130.524,135.125 128.771 C 135.226 127.376,135.554 125.989,135.854 125.689 C 136.252 125.291,136.400 123.900,136.400 120.571 C 136.400 116.267,136.447 116.000,137.200 116.000 C 137.843 116.000,138.000 115.733,138.000 114.643 C 138.000 113.805,138.230 113.197,138.600 113.055 C 139.023 112.893,139.200 112.232,139.200 110.813 C 139.200 109.067,139.306 108.800,140.000 108.800 C 140.677 108.800,140.800 108.533,140.800 107.062 C 140.800 105.832,141.034 105.112,141.600 104.600 C 142.166 104.088,142.400 103.368,142.400 102.138 C 142.400 100.860,142.559 100.400,143.000 100.400 C 143.330 100.400,143.600 100.061,143.600 99.647 C 143.600 99.230,143.957 98.800,144.400 98.684 C 144.840 98.569,145.200 98.175,145.200 97.809 C 145.200 97.443,145.470 96.873,145.800 96.543 C 146.186 96.157,146.400 95.168,146.400 93.771 C 146.400 91.867,146.498 91.600,147.200 91.600 C 147.733 91.600,148.000 91.333,148.000 90.800 C 148.000 90.356,148.267 90.000,148.600 90.000 C 148.930 90.000,149.200 89.713,149.200 89.363 C 149.200 89.012,149.560 88.631,150.000 88.516 C 150.601 88.359,150.800 87.970,150.800 86.953 C 150.800 86.068,150.991 85.600,151.353 85.600 C 151.960 85.600,152.386 84.413,152.395 82.700 C 152.399 81.884,152.598 81.600,153.167 81.600 C 154.359 81.600,155.200 81.169,155.200 80.557 C 155.200 80.251,155.560 80.000,156.000 80.000 C 156.533 80.000,156.800 80.267,156.800 80.800 M350.226 81.400 C 350.377 82.202,350.726 82.800,351.045 82.800 C 351.350 82.800,351.600 83.160,351.600 83.600 C 351.600 84.133,351.867 84.400,352.400 84.400 C 353.067 84.400,353.200 84.667,353.200 86.004 C 353.200 87.113,353.447 87.819,354.000 88.293 C 354.440 88.670,354.800 89.208,354.800 89.489 C 354.800 89.770,355.070 90.000,355.400 90.000 C 355.730 90.000,356.000 90.345,356.000 90.767 C 356.000 91.959,356.431 92.800,357.043 92.800 C 357.349 92.800,357.600 93.160,357.600 93.600 C 357.600 94.044,357.867 94.400,358.200 94.400 C 358.633 94.400,358.800 94.844,358.800 96.000 C 358.800 97.067,359.067 97.867,359.600 98.400 C 360.040 98.840,360.400 99.656,360.400 100.213 C 360.400 100.769,360.670 101.329,361.000 101.455 C 361.330 101.582,361.600 102.012,361.600 102.410 C 361.600 103.562,362.039 104.400,362.643 104.400 C 363.046 104.400,363.200 104.963,363.200 106.437 C 363.200 108.138,363.332 108.509,364.000 108.684 C 364.603 108.842,364.800 109.230,364.800 110.259 C 364.800 111.104,365.029 111.713,365.400 111.855 C 365.839 112.024,366.000 112.716,366.000 114.439 C 366.000 116.360,366.147 116.885,366.800 117.293 C 367.334 117.626,367.600 118.226,367.600 119.096 C 367.600 119.988,367.789 120.400,368.200 120.400 C 368.691 120.400,368.800 121.083,368.800 124.150 C 368.800 128.604,369.102 130.400,369.850 130.400 C 370.153 130.400,370.400 130.760,370.400 131.200 C 370.400 131.987,370.133 132.000,353.800 132.000 L 337.200 132.000 337.200 127.633 C 337.200 122.938,337.026 122.000,336.157 122.000 C 335.716 122.000,335.600 121.121,335.600 117.787 C 335.600 114.412,335.481 113.529,335.000 113.345 C 334.518 113.160,334.400 112.267,334.400 108.807 C 334.400 103.814,334.120 102.000,333.350 102.000 C 332.950 102.000,332.800 101.400,332.800 99.800 C 332.800 98.111,332.661 97.600,332.200 97.600 C 331.715 97.600,331.600 96.962,331.600 94.256 C 331.600 92.417,331.486 90.077,331.346 89.056 L 331.091 87.200 332.358 87.200 C 333.067 87.200,333.719 86.957,333.837 86.647 C 333.954 86.343,334.758 85.981,335.625 85.842 C 336.640 85.680,337.200 85.379,337.200 84.995 C 337.200 84.546,337.700 84.400,339.237 84.400 C 340.938 84.400,341.309 84.268,341.484 83.600 C 341.647 82.979,342.030 82.800,343.198 82.800 C 344.047 82.800,344.919 82.539,345.200 82.200 C 345.474 81.870,346.036 81.600,346.449 81.600 C 346.933 81.600,347.200 81.316,347.200 80.800 C 347.200 79.177,349.910 79.714,350.226 81.400 M208.046 96.000 C 210.858 96.000,211.674 96.129,211.855 96.600 C 212.044 97.092,213.050 97.200,217.443 97.200 C 222.267 97.200,222.880 97.280,223.600 98.000 C 224.326 98.726,224.933 98.800,230.200 98.800 L 236.000 98.800 236.000 115.400 L 236.000 132.000 217.200 132.000 L 198.400 132.000 198.400 128.003 C 198.400 124.440,198.487 123.953,199.200 123.507 C 199.939 123.046,200.000 122.574,200.000 117.304 C 200.000 112.760,200.111 111.600,200.544 111.600 C 201.141 111.600,201.591 108.901,201.597 105.287 C 201.599 103.781,201.772 103.109,202.200 102.945 C 202.667 102.765,202.800 101.972,202.800 99.357 C 202.800 96.640,202.914 96.000,203.400 96.000 C 203.730 96.000,204.014 95.775,204.032 95.500 C 204.057 95.100,204.104 95.100,204.265 95.500 C 204.405 95.848,205.557 96.000,208.046 96.000 M299.600 96.600 C 299.600 96.933,299.956 97.200,300.400 97.200 C 301.103 97.200,301.200 97.467,301.200 99.400 C 301.200 100.979,301.352 101.600,301.739 101.600 C 302.158 101.600,302.331 102.963,302.512 107.686 C 302.700 112.559,302.871 113.863,303.373 114.230 C 303.859 114.585,304.000 115.472,304.000 118.182 C 304.000 121.338,304.077 121.695,304.800 121.884 C 305.546 122.079,305.600 122.430,305.600 127.047 L 305.600 132.000 286.420 132.000 C 268.575 132.000,267.211 132.049,266.832 132.700 C 266.550 133.183,266.421 128.048,266.412 116.100 L 266.400 98.800 273.600 98.800 C 280.533 98.800,280.800 98.770,280.800 98.000 C 280.800 97.238,281.067 97.200,286.413 97.200 C 291.032 97.200,292.066 97.094,292.255 96.600 C 292.436 96.129,293.250 96.000,296.043 96.000 C 298.938 96.000,299.600 96.112,299.600 96.600 M168.400 168.200 L 168.400 172.800 152.400 172.800 C 137.230 172.800,136.400 172.762,136.400 172.076 C 136.400 171.679,136.136 171.004,135.813 170.576 C 135.490 170.149,135.220 169.050,135.213 168.133 C 135.197 166.073,134.883 165.200,134.157 165.200 C 133.851 165.200,133.600 164.840,133.600 164.400 C 133.600 163.612,133.867 163.600,151.000 163.600 L 168.400 163.600 168.400 168.200 M236.000 167.944 L 236.000 172.289 233.900 172.541 C 231.219 172.863,200.498 172.869,199.300 172.548 C 198.437 172.316,198.400 172.130,198.400 167.953 L 198.400 163.600 217.200 163.600 L 236.000 163.600 236.000 167.944 M305.568 168.900 C 305.551 171.815,305.434 173.930,305.308 173.600 C 304.874 172.459,304.120 172.412,285.929 172.406 C 269.846 172.401,267.582 172.475,267.029 173.029 C 266.457 173.600,266.400 173.200,266.400 168.629 L 266.400 163.600 286.000 163.600 L 305.600 163.600 305.568 168.900 M370.400 165.200 C 370.400 166.301,370.226 166.800,369.843 166.800 C 368.994 166.800,368.800 167.729,368.800 171.790 C 368.800 174.732,368.674 175.563,368.200 175.745 C 367.849 175.879,367.600 176.479,367.600 177.187 C 367.600 177.953,367.396 178.400,367.047 178.400 C 366.359 178.400,366.013 179.631,366.005 182.100 C 366.001 183.520,365.848 184.000,365.400 184.000 C 364.956 184.000,364.800 184.466,364.800 185.797 C 364.800 187.160,364.607 187.714,364.000 188.093 C 363.368 188.487,363.200 189.026,363.200 190.650 C 363.200 192.370,363.069 192.741,362.400 192.916 C 361.817 193.068,361.600 193.462,361.600 194.363 C 361.600 195.196,361.404 195.600,361.000 195.600 C 360.585 195.600,360.400 196.017,360.400 196.953 C 360.400 197.970,360.201 198.359,359.600 198.516 C 358.932 198.691,358.800 199.062,358.800 200.763 C 358.800 201.883,358.621 202.800,358.403 202.800 C 357.398 202.800,356.000 204.588,356.000 205.872 C 356.000 206.933,355.839 207.200,355.200 207.200 C 354.682 207.200,354.400 207.467,354.400 207.957 C 354.400 208.374,354.130 208.818,353.800 208.945 C 353.449 209.079,353.200 209.679,353.200 210.387 C 353.200 211.333,353.024 211.600,352.400 211.600 C 351.752 211.600,351.600 211.867,351.600 213.000 C 351.600 213.770,351.428 214.400,351.218 214.400 C 350.722 214.400,348.800 216.322,348.800 216.818 C 348.800 217.028,348.440 217.200,348.000 217.200 C 347.467 217.200,347.200 216.933,347.200 216.400 C 347.200 215.752,346.933 215.600,345.800 215.600 C 344.822 215.600,344.400 215.419,344.400 215.000 C 344.400 214.667,344.044 214.400,343.600 214.400 C 343.160 214.400,342.800 214.149,342.800 213.843 C 342.800 213.143,341.929 212.800,340.155 212.800 C 339.323 212.800,338.687 212.571,338.554 212.225 C 338.420 211.875,337.481 211.543,336.167 211.379 C 334.718 211.198,334.000 210.924,334.000 210.554 C 334.000 210.183,333.518 210.000,332.543 210.000 L 331.086 210.000 331.343 207.541 C 331.484 206.189,331.600 203.849,331.600 202.341 C 331.600 200.171,331.725 199.600,332.200 199.600 C 332.676 199.600,332.800 199.022,332.800 196.800 C 332.800 194.673,332.934 194.000,333.357 194.000 C 334.247 194.000,334.400 193.053,334.400 187.567 C 334.400 183.241,334.498 182.400,335.000 182.400 C 335.489 182.400,335.600 181.733,335.600 178.800 C 335.600 175.733,335.719 175.081,336.400 174.400 C 337.115 173.685,337.200 173.067,337.200 168.600 L 337.200 163.600 353.800 163.600 L 370.400 163.600 370.400 165.200 M283.029 204.629 C 282.530 205.127,282.400 206.206,282.400 209.829 C 282.400 214.133,282.353 214.400,281.600 214.400 C 280.897 214.400,280.800 214.667,280.800 216.600 C 280.800 218.289,280.661 218.800,280.200 218.800 C 279.692 218.800,279.600 219.778,279.600 225.200 C 279.600 231.333,279.567 231.600,278.800 231.600 C 278.097 231.600,278.000 231.867,278.000 233.800 C 278.000 235.406,277.851 236.000,277.447 236.000 C 276.799 236.000,276.413 237.209,276.405 239.267 C 276.402 240.080,276.177 240.807,275.900 240.899 C 275.542 241.018,275.363 242.603,275.270 246.494 C 275.151 251.456,275.073 251.940,274.370 252.124 C 273.697 252.300,273.600 252.701,273.600 255.314 C 273.600 257.482,273.435 258.439,273.000 258.800 C 272.549 259.174,272.400 260.180,272.400 262.849 C 272.400 266.133,272.340 266.400,271.600 266.400 C 270.876 266.400,270.800 266.667,270.800 269.200 C 270.800 271.327,270.666 272.000,270.243 272.000 C 269.342 272.000,269.200 272.952,269.200 278.990 C 269.200 283.709,269.095 284.755,268.600 284.945 C 268.223 285.089,268.000 285.701,268.000 286.587 L 268.000 288.000 185.600 288.000 C 103.467 288.000,103.200 287.997,103.200 287.200 C 103.200 286.760,102.953 286.400,102.651 286.400 C 102.247 286.400,102.053 285.544,101.914 283.140 C 101.774 280.725,101.554 279.755,101.063 279.396 C 100.568 279.035,100.400 278.278,100.400 276.418 C 100.400 274.262,100.292 273.897,99.600 273.716 C 98.897 273.532,98.800 273.170,98.800 270.741 C 98.800 268.651,98.653 267.919,98.200 267.745 C 97.771 267.580,97.600 266.909,97.600 265.390 C 97.600 262.896,97.324 262.000,96.557 262.000 C 96.128 262.000,96.000 261.276,96.000 258.854 C 96.000 256.314,95.846 255.512,95.200 254.691 C 94.734 254.099,94.400 253.068,94.400 252.224 C 94.400 251.305,94.181 250.691,93.800 250.545 C 93.430 250.403,93.200 249.795,93.200 248.957 C 93.200 247.867,93.043 247.600,92.400 247.600 C 91.648 247.600,91.600 247.333,91.600 243.200 C 91.600 239.556,91.497 238.800,91.000 238.800 C 90.569 238.800,90.400 238.359,90.400 237.233 C 90.400 235.278,90.077 234.400,89.357 234.400 C 88.937 234.400,88.800 233.750,88.800 231.763 C 88.800 229.462,88.698 229.098,88.000 228.916 C 87.297 228.732,87.200 228.370,87.200 225.941 C 87.200 223.851,87.053 223.119,86.600 222.945 C 86.148 222.771,86.000 222.043,86.000 219.990 C 86.000 216.911,85.762 216.000,84.957 216.000 C 84.565 216.000,84.400 215.476,84.400 214.229 C 84.400 213.187,84.153 212.210,83.800 211.857 C 83.470 211.527,83.200 210.687,83.200 209.991 C 83.200 209.062,82.987 208.670,82.400 208.516 C 81.725 208.339,81.600 207.970,81.600 206.153 L 81.600 204.000 182.629 204.000 C 274.473 204.000,283.600 204.057,283.029 204.629 M324.700 240.782 C 325.674 240.801,325.981 241.600,325.014 241.600 C 324.692 241.600,324.235 241.960,324.000 242.400 C 323.765 242.840,323.226 243.200,322.804 243.200 C 322.015 243.200,320.000 244.937,320.000 245.618 C 320.000 245.828,319.640 246.000,319.200 246.000 C 318.667 246.000,318.400 246.267,318.400 246.800 C 318.400 247.333,318.133 247.600,317.600 247.600 C 317.013 247.600,316.800 247.333,316.800 246.600 C 316.800 246.003,317.029 245.600,317.368 245.600 C 317.681 245.600,318.055 245.060,318.200 244.400 C 318.345 243.740,318.711 243.200,319.014 243.200 C 319.334 243.200,319.679 242.572,319.840 241.700 C 320.190 239.792,320.526 239.595,322.330 240.240 C 323.139 240.529,324.205 240.773,324.700 240.782 M107.300 322.812 C 106.805 323.011,106.400 323.360,106.400 323.587 C 106.400 323.819,105.474 324.000,104.289 324.000 C 103.096 324.000,101.819 324.251,101.353 324.578 C 100.900 324.895,99.584 325.281,98.430 325.434 C 97.249 325.590,96.241 325.950,96.123 326.256 C 96.008 326.555,95.685 326.800,95.404 326.800 C 95.123 326.800,94.799 327.160,94.684 327.600 C 94.531 328.185,94.138 328.400,93.225 328.400 C 92.483 328.400,91.881 328.644,91.745 329.000 C 91.618 329.330,91.264 329.600,90.957 329.600 C 90.651 329.600,90.400 329.960,90.400 330.400 C 90.400 330.933,90.133 331.200,89.600 331.200 C 89.160 331.200,88.800 331.450,88.800 331.755 C 88.800 332.074,88.202 332.423,87.400 332.574 C 86.562 332.731,86.000 333.070,86.000 333.418 C 86.000 333.738,85.640 334.000,85.200 334.000 C 84.667 334.000,84.400 334.267,84.400 334.800 C 84.400 335.244,84.133 335.600,83.800 335.600 C 83.470 335.600,83.200 335.858,83.200 336.173 C 83.200 336.488,82.840 336.860,82.400 337.000 C 81.960 337.140,81.600 337.519,81.600 337.844 C 81.600 338.168,81.240 338.820,80.800 339.292 C 80.360 339.764,80.000 340.387,80.000 340.675 C 80.000 340.964,79.730 341.200,79.400 341.200 C 78.983 341.200,78.800 341.619,78.800 342.573 C 78.800 343.595,78.595 344.011,78.000 344.200 C 77.405 344.389,77.200 344.805,77.200 345.827 C 77.200 346.781,77.017 347.200,76.600 347.200 C 76.181 347.200,76.000 347.622,76.000 348.600 C 76.000 349.733,75.848 350.000,75.200 350.000 C 74.415 350.000,74.400 350.267,74.400 364.237 C 74.400 378.138,74.419 378.480,75.200 378.684 C 75.801 378.841,76.000 379.230,76.000 380.247 C 76.000 381.183,76.185 381.600,76.600 381.600 C 76.930 381.600,77.200 381.945,77.200 382.367 C 77.200 383.559,77.631 384.400,78.243 384.400 C 78.613 384.400,78.800 384.870,78.800 385.800 C 78.800 386.778,78.981 387.200,79.400 387.200 C 79.730 387.200,80.000 387.482,80.000 387.827 C 80.000 388.881,82.513 391.585,83.500 391.593 C 84.224 391.599,84.400 391.826,84.400 392.754 C 84.400 393.503,84.716 394.122,85.300 394.518 C 85.795 394.854,86.796 395.684,87.525 396.364 C 88.253 397.044,89.198 397.600,89.625 397.600 C 90.051 397.600,90.400 397.870,90.400 398.200 C 90.400 398.619,90.822 398.800,91.800 398.800 C 92.933 398.800,93.200 398.952,93.200 399.600 C 93.200 400.133,93.467 400.400,94.000 400.400 C 94.440 400.400,94.800 400.662,94.800 400.982 C 94.800 401.328,95.356 401.668,96.172 401.821 C 96.927 401.963,97.641 402.331,97.760 402.639 C 97.914 403.041,98.716 403.200,100.587 403.200 C 102.062 403.200,103.200 403.374,103.200 403.600 C 103.200 403.857,107.333 404.000,114.800 404.000 C 122.267 404.000,126.400 403.857,126.400 403.600 C 126.400 403.380,127.306 403.200,128.413 403.200 C 129.780 403.200,130.495 403.018,130.643 402.633 C 130.767 402.310,131.706 401.950,132.830 401.796 C 134.031 401.631,134.800 401.324,134.800 401.009 C 134.800 400.725,135.160 400.399,135.600 400.284 C 136.040 400.169,136.400 399.788,136.400 399.437 C 136.400 398.994,136.770 398.800,137.613 398.800 C 138.298 398.800,138.921 398.550,139.046 398.224 C 139.167 397.908,139.807 397.530,140.468 397.385 C 141.305 397.201,141.788 396.779,142.062 395.993 C 142.279 395.372,142.713 394.765,143.028 394.645 C 143.343 394.524,143.600 394.149,143.600 393.813 C 143.600 393.476,143.886 393.200,144.236 393.200 C 145.221 393.200,146.372 391.541,146.387 390.100 C 146.399 388.887,146.492 388.800,147.782 388.800 C 149.044 388.800,149.186 388.679,149.426 387.400 C 149.577 386.598,149.926 386.000,150.245 386.000 C 150.611 386.000,150.800 385.532,150.800 384.627 C 150.800 383.605,151.005 383.189,151.600 383.000 C 152.258 382.791,152.400 382.395,152.400 380.773 C 152.400 379.286,152.548 378.800,153.000 378.800 C 153.417 378.800,153.600 378.381,153.600 377.427 C 153.600 376.405,153.805 375.989,154.400 375.800 C 155.037 375.598,155.200 375.195,155.200 373.822 C 155.200 372.777,155.436 371.902,155.800 371.600 C 156.687 370.864,156.687 357.136,155.800 356.400 C 155.470 356.126,155.200 355.474,155.200 354.951 L 155.200 354.000 186.200 354.000 C 216.933 354.000,217.200 354.007,217.200 354.800 C 217.200 355.244,216.933 355.600,216.600 355.600 C 216.085 355.600,216.000 356.822,216.000 364.200 C 216.000 371.578,216.085 372.800,216.600 372.800 C 217.022 372.800,217.200 373.226,217.200 374.237 C 217.200 375.338,217.387 375.724,218.000 375.884 C 218.716 376.071,218.800 376.430,218.800 379.284 C 218.800 382.138,218.884 382.497,219.600 382.684 C 220.043 382.800,220.400 383.230,220.400 383.647 C 220.400 384.061,220.670 384.400,221.000 384.400 C 221.330 384.400,221.600 384.745,221.600 385.167 C 221.600 386.359,222.031 387.200,222.643 387.200 C 222.949 387.200,223.200 387.560,223.200 388.000 C 223.200 388.444,223.467 388.800,223.800 388.800 C 224.130 388.800,224.400 389.145,224.400 389.567 C 224.400 390.730,224.826 391.600,225.396 391.600 C 225.677 391.600,226.001 391.960,226.116 392.400 C 226.268 392.983,226.662 393.200,227.563 393.200 C 228.679 393.200,228.800 393.321,228.800 394.437 C 228.800 395.319,229.020 395.732,229.563 395.874 C 229.983 395.984,230.416 396.417,230.526 396.837 C 230.668 397.380,231.081 397.600,231.963 397.600 C 232.796 397.600,233.200 397.796,233.200 398.200 C 233.200 398.530,233.539 398.800,233.953 398.800 C 234.370 398.800,234.800 399.157,234.916 399.600 C 235.068 400.183,235.462 400.400,236.363 400.400 C 237.152 400.400,237.600 400.601,237.600 400.955 C 237.600 401.274,238.198 401.623,239.000 401.774 C 239.838 401.931,240.400 402.270,240.400 402.618 C 240.400 403.063,240.967 403.200,242.800 403.200 C 244.133 403.200,245.200 403.378,245.200 403.600 C 245.200 403.857,249.267 404.000,256.600 404.000 C 263.933 404.000,268.000 403.857,268.000 403.600 C 268.000 403.374,269.138 403.200,270.613 403.200 C 272.566 403.200,273.283 403.049,273.455 402.600 C 273.589 402.252,274.187 402.000,274.880 402.000 C 275.738 402.000,276.134 401.775,276.284 401.200 C 276.428 400.650,276.830 400.400,277.571 400.400 C 278.164 400.400,279.036 400.040,279.508 399.600 C 279.980 399.160,280.734 398.800,281.183 398.800 C 281.632 398.800,282.000 398.646,282.000 398.458 C 282.000 397.966,283.888 396.000,284.360 396.000 C 284.926 396.000,286.800 394.198,286.800 393.654 C 286.800 393.404,287.070 393.200,287.400 393.200 C 287.733 393.200,288.000 392.844,288.000 392.400 C 288.000 391.956,288.267 391.600,288.600 391.600 C 289.329 391.600,290.800 390.193,290.800 389.496 C 290.800 389.219,291.160 388.768,291.600 388.493 C 292.040 388.218,292.400 387.564,292.400 387.039 C 292.400 386.515,292.653 385.988,292.962 385.870 C 293.272 385.751,293.643 385.117,293.787 384.460 C 293.931 383.804,294.308 383.167,294.624 383.046 C 294.975 382.912,295.200 382.272,295.200 381.413 C 295.200 380.267,295.351 380.000,296.000 380.000 C 296.741 380.000,296.800 379.733,296.800 376.400 C 296.800 373.467,296.911 372.800,297.400 372.800 C 297.915 372.800,298.000 371.578,298.000 364.200 C 298.000 356.822,297.915 355.600,297.400 355.600 C 296.906 355.600,296.800 354.885,296.800 351.563 C 296.800 347.862,296.733 347.508,296.000 347.316 C 295.557 347.200,295.200 346.770,295.200 346.353 C 295.200 345.939,294.930 345.600,294.600 345.600 C 294.270 345.600,294.000 345.255,294.000 344.833 C 294.000 343.641,293.569 342.800,292.957 342.800 C 292.587 342.800,292.400 342.330,292.400 341.400 C 292.400 340.267,292.248 340.000,291.600 340.000 C 291.067 340.000,290.800 339.733,290.800 339.200 C 290.800 338.760,290.567 338.400,290.283 338.400 C 289.998 338.400,289.593 337.815,289.383 337.100 C 289.092 336.113,288.745 335.770,287.940 335.677 C 287.092 335.579,286.830 335.288,286.630 334.220 C 286.417 333.084,286.173 332.846,284.990 332.624 C 284.160 332.469,283.600 332.129,283.600 331.782 C 283.600 331.462,283.330 331.200,283.000 331.200 C 282.670 331.200,282.400 330.926,282.400 330.590 C 282.400 330.255,281.967 329.816,281.439 329.615 C 280.910 329.414,280.360 329.058,280.215 328.825 C 280.071 328.591,279.513 328.400,278.976 328.400 C 277.978 328.400,276.726 327.427,276.301 326.319 C 276.137 325.892,275.248 325.613,273.432 325.418 C 271.557 325.217,270.800 324.973,270.800 324.568 C 270.800 324.139,270.202 324.000,268.363 324.000 C 266.532 324.000,265.673 323.801,264.909 323.200 C 263.797 322.325,109.457 321.945,107.300 322.812 M119.100 355.209 C 120.035 355.690,120.800 356.335,120.800 356.642 C 120.800 356.949,121.051 357.200,121.357 357.200 C 121.664 357.200,122.018 357.470,122.145 357.800 C 122.271 358.130,122.651 358.400,122.987 358.400 C 123.403 358.400,123.600 358.790,123.600 359.613 C 123.600 360.321,123.849 360.921,124.200 361.055 C 124.658 361.231,124.800 361.983,124.800 364.243 C 124.800 366.605,124.679 367.200,124.200 367.200 C 123.781 367.200,123.600 367.622,123.600 368.600 C 123.600 369.670,123.434 370.000,122.896 370.000 C 122.509 370.000,121.474 370.692,120.596 371.538 C 119.718 372.383,118.505 373.197,117.900 373.345 C 117.295 373.494,116.800 373.792,116.800 374.008 C 116.800 374.231,115.425 374.400,113.600 374.400 C 111.089 374.400,110.400 374.277,110.400 373.827 C 110.400 373.512,110.040 373.140,109.600 373.000 C 109.160 372.860,108.800 372.488,108.800 372.173 C 108.800 371.785,108.349 371.600,107.400 371.600 C 106.038 371.600,106.000 371.558,106.000 370.029 C 106.000 369.164,105.730 368.187,105.400 367.857 C 105.070 367.527,104.800 366.974,104.800 366.629 C 104.800 366.283,104.467 365.667,104.059 365.259 C 103.338 364.538,103.338 364.506,104.059 364.056 C 104.581 363.730,104.800 363.117,104.800 361.984 C 104.800 360.923,105.004 360.297,105.400 360.145 C 105.765 360.005,106.000 359.400,106.000 358.602 C 106.000 357.418,106.138 357.263,107.400 357.026 C 108.238 356.869,108.800 356.530,108.800 356.182 C 108.800 355.838,109.184 355.600,109.738 355.600 C 110.254 355.600,111.019 355.220,111.438 354.755 C 112.435 353.649,116.543 353.892,119.100 355.209 M259.550 354.250 C 260.238 354.388,260.800 354.748,260.800 355.050 C 260.800 355.412,261.279 355.600,262.200 355.600 C 262.978 355.600,263.600 355.802,263.600 356.054 C 263.600 356.588,265.470 358.400,266.021 358.400 C 266.229 358.400,266.400 358.732,266.400 359.138 C 266.400 359.544,266.760 360.202,267.200 360.600 C 267.640 360.998,268.000 361.656,268.000 362.062 C 268.000 362.468,268.270 362.800,268.600 362.800 C 268.933 362.800,269.200 363.156,269.200 363.600 C 269.200 364.044,268.933 364.400,268.600 364.400 C 268.181 364.400,268.000 364.822,268.000 365.800 C 268.000 366.791,267.821 367.200,267.387 367.200 C 267.051 367.200,266.657 367.515,266.512 367.900 C 266.368 368.285,266.035 368.780,265.773 369.000 C 265.511 369.220,265.181 369.895,265.040 370.500 C 264.900 371.105,264.537 371.600,264.235 371.600 C 263.933 371.600,263.592 371.844,263.477 372.143 C 263.363 372.442,262.713 372.797,262.034 372.933 C 261.303 373.079,260.800 373.428,260.800 373.790 C 260.800 374.517,255.828 374.692,255.388 373.981 C 255.213 373.697,254.931 373.725,254.521 374.065 C 254.027 374.476,253.828 374.457,253.457 373.966 C 253.206 373.634,252.415 373.124,251.700 372.833 C 250.985 372.541,250.400 372.068,250.400 371.780 C 250.400 371.492,250.165 371.019,249.878 370.729 C 249.590 370.438,249.236 369.885,249.090 369.500 C 248.944 369.115,248.549 368.800,248.213 368.800 C 247.867 368.800,247.600 368.452,247.600 368.000 C 247.600 367.556,247.333 367.200,247.000 367.200 C 246.524 367.200,246.400 366.621,246.400 364.387 C 246.400 362.256,246.545 361.519,247.000 361.345 C 247.370 361.203,247.600 360.595,247.600 359.757 C 247.600 358.473,247.675 358.400,249.000 358.400 C 249.978 358.400,250.400 358.219,250.400 357.800 C 250.400 357.470,250.760 356.840,251.200 356.400 C 251.640 355.960,252.270 355.600,252.600 355.600 C 252.930 355.600,253.200 355.341,253.200 355.024 C 253.200 354.262,257.182 353.776,259.550 354.250 " stroke="none" fill="#ffffff" fill-rule="evenodd"></path></g></svg>