<?xml version="1.0" encoding="UTF-8" standalone="no"?><!DOCTYPE svg PUBLIC "-//W3C//DTD SVG 1.1//EN" "http://www.w3.org/Graphics/SVG/1.1/DTD/svg11.dtd"><svg width="100%" height="100%" viewBox="0 0 100 100" version="1.1" xmlns="http://www.w3.org/2000/svg" xmlns:xlink="http://www.w3.org/1999/xlink" xml:space="preserve" xmlns:serif="http://www.serif.com/" style="fill-rule:evenodd;clip-rule:evenodd;stroke-linejoin:round;stroke-miterlimit:2;fill:#ffffff"><g><path d="M100,89.5c0,-5.795 -4.705,-10.5 -10.5,-10.5l-79,0c-5.795,0 -10.5,4.705 -10.5,10.5c0,5.795 4.705,10.5 10.5,10.5l79,0c5.795,0 10.5,-4.705 10.5,-10.5Z"/><path d="M100,49.5c0,-5.795 -4.705,-10.5 -10.5,-10.5l-79,0c-5.795,0 -10.5,4.705 -10.5,10.5c0,5.795 4.705,10.5 10.5,10.5l79,0c5.795,0 10.5,-4.705 10.5,-10.5Z"/><path d="M100,10.5c0,-5.795 -4.705,-10.5 -10.5,-10.5l-79,0c-5.795,0 -10.5,4.705 -10.5,10.5c0,5.795 4.705,10.5 10.5,10.5l79,0c5.795,0 10.5,-4.705 10.5,-10.5Z"/></g></svg>