<svg id="svg" version="1.1" xmlns="http://www.w3.org/2000/svg" xmlns:xlink="http://www.w3.org/1999/xlink" width="400" height="401.4440433212996" viewBox="0, 0, 400,401.4440433212996"><g id="svgg"><path id="path0" d="M275.200 0.400 C 275.200 0.637,273.733 0.800,271.600 0.800 C 268.801 0.800,268.000 0.923,268.000 1.353 C 268.000 1.752,267.259 1.954,265.352 2.075 C 263.467 2.195,262.560 2.440,262.208 2.922 C 261.865 3.390,261.139 3.600,259.859 3.600 C 258.440 3.600,257.890 3.787,257.507 4.400 C 257.135 4.997,256.574 5.200,255.304 5.200 C 254.056 5.200,253.600 5.361,253.600 5.800 C 253.600 6.222,253.174 6.400,252.163 6.400 C 251.062 6.400,250.676 6.587,250.516 7.200 C 250.363 7.784,249.969 8.001,249.053 8.003 C 248.364 8.004,247.260 8.363,246.600 8.800 C 245.940 9.237,245.079 9.596,244.687 9.597 C 244.296 9.599,243.871 9.870,243.745 10.200 C 243.618 10.530,243.174 10.800,242.757 10.800 C 242.267 10.800,242.000 11.082,242.000 11.600 C 242.000 12.248,241.733 12.400,240.600 12.400 C 239.622 12.400,239.200 12.581,239.200 13.000 C 239.200 13.400,238.800 13.600,238.003 13.600 C 237.240 13.600,236.626 13.890,236.307 14.400 C 236.032 14.840,235.402 15.200,234.907 15.200 C 234.412 15.200,233.782 15.560,233.507 16.000 C 233.232 16.440,232.775 16.800,232.491 16.800 C 232.207 16.800,231.871 17.070,231.745 17.400 C 231.618 17.730,231.292 18.000,231.019 18.000 C 230.747 18.000,230.198 18.360,229.800 18.800 C 229.402 19.240,228.828 19.600,228.525 19.600 C 228.223 19.600,227.874 19.863,227.750 20.185 C 227.627 20.506,227.183 20.879,226.763 21.012 C 226.343 21.145,226.000 21.512,226.000 21.827 C 226.000 22.142,225.713 22.400,225.363 22.400 C 225.012 22.400,224.631 22.760,224.516 23.200 C 224.369 23.763,223.970 24.000,223.171 24.000 C 222.191 24.000,222.001 24.191,221.774 25.400 C 221.560 26.541,221.332 26.800,220.545 26.800 C 219.578 26.800,216.000 29.941,216.000 30.789 C 216.000 31.015,215.742 31.200,215.427 31.200 C 215.112 31.200,214.750 31.526,214.624 31.925 C 214.497 32.324,213.765 33.337,212.997 34.176 C 212.229 35.014,211.600 35.948,211.600 36.250 C 211.600 36.553,211.240 36.800,210.800 36.800 C 210.267 36.800,210.000 37.067,210.000 37.600 C 210.000 38.044,209.733 38.400,209.400 38.400 C 208.983 38.400,208.800 38.819,208.800 39.775 C 208.800 41.030,208.688 41.160,207.513 41.275 C 206.447 41.378,206.162 41.624,205.855 42.700 C 205.651 43.415,205.240 44.000,204.942 44.000 C 204.644 44.000,204.400 44.339,204.400 44.753 C 204.400 45.170,204.043 45.600,203.600 45.716 C 203.017 45.868,202.800 46.262,202.800 47.163 C 202.800 47.996,202.604 48.400,202.200 48.400 C 201.870 48.400,201.600 48.739,201.600 49.153 C 201.600 49.570,201.243 50.000,200.800 50.116 C 200.347 50.234,200.000 50.662,200.000 51.101 C 200.000 51.527,199.640 52.202,199.200 52.600 C 198.610 53.134,198.400 53.832,198.400 55.262 C 198.400 56.718,198.251 57.200,197.800 57.200 C 197.470 57.200,197.200 57.449,197.200 57.753 C 197.200 58.058,196.840 58.401,196.400 58.516 C 195.825 58.666,195.600 59.062,195.600 59.920 C 195.600 60.613,195.348 61.211,195.000 61.345 C 194.577 61.507,194.400 62.168,194.400 63.587 C 194.400 65.333,194.294 65.600,193.600 65.600 C 193.013 65.600,192.800 65.867,192.800 66.600 C 192.800 67.150,192.649 67.600,192.464 67.600 C 191.887 67.600,191.200 69.567,191.200 71.219 C 191.200 72.358,191.032 72.800,190.600 72.800 C 190.167 72.800,190.000 73.244,190.000 74.400 C 190.000 75.501,189.826 76.000,189.443 76.000 C 188.602 76.000,188.400 76.926,188.400 80.790 C 188.400 83.554,188.271 84.364,187.800 84.545 C 187.345 84.719,187.200 85.456,187.200 87.587 C 187.200 90.133,187.124 90.400,186.400 90.400 C 185.613 90.400,185.600 90.667,185.600 107.004 C 185.600 123.113,185.624 123.628,186.400 124.293 C 186.994 124.802,187.200 125.473,187.200 126.901 C 187.200 128.242,187.382 128.895,187.800 129.055 C 188.278 129.239,188.400 130.098,188.400 133.280 C 188.400 136.938,188.467 137.293,189.200 137.484 C 189.827 137.648,190.000 138.030,190.000 139.247 C 190.000 140.361,190.170 140.800,190.600 140.800 C 191.061 140.800,191.200 141.311,191.200 143.000 C 191.200 145.160,191.179 145.200,190.043 145.200 C 188.866 145.200,188.400 145.777,188.400 147.233 C 188.400 147.824,188.116 148.000,187.163 148.000 C 186.281 148.000,185.868 148.220,185.726 148.763 C 185.616 149.183,185.183 149.616,184.763 149.726 C 184.220 149.868,184.000 150.281,184.000 151.163 C 184.000 152.310,183.898 152.400,182.600 152.400 C 181.622 152.400,181.200 152.581,181.200 153.000 C 181.200 153.330,180.930 153.600,180.600 153.600 C 180.267 153.600,180.000 153.956,180.000 154.400 C 180.000 154.933,179.733 155.200,179.200 155.200 C 178.667 155.200,178.400 155.467,178.400 156.000 C 178.400 156.533,178.133 156.800,177.600 156.800 C 177.156 156.800,176.800 157.067,176.800 157.400 C 176.800 157.730,176.530 158.000,176.200 158.000 C 175.867 158.000,175.600 158.356,175.600 158.800 C 175.600 159.333,175.333 159.600,174.800 159.600 C 174.360 159.600,174.000 159.831,174.000 160.112 C 174.000 160.394,173.459 160.829,172.797 161.079 C 171.926 161.407,171.525 161.874,171.347 162.766 C 171.176 163.618,170.868 164.000,170.350 164.000 C 169.938 164.000,169.600 164.270,169.600 164.600 C 169.600 164.930,169.330 165.200,169.000 165.200 C 168.667 165.200,168.400 165.556,168.400 166.000 C 168.400 166.646,168.133 166.800,167.018 166.800 C 165.756 166.800,165.614 166.921,165.374 168.200 C 165.161 169.334,164.930 169.600,164.159 169.600 C 163.635 169.600,162.982 169.960,162.707 170.400 C 162.432 170.840,161.981 171.200,161.704 171.200 C 161.395 171.200,161.200 171.741,161.200 172.600 C 161.200 173.933,161.133 174.000,159.800 174.000 C 158.851 174.000,158.400 174.185,158.400 174.573 C 158.400 174.888,158.040 175.260,157.600 175.400 C 157.160 175.540,156.800 175.891,156.800 176.180 C 156.800 176.470,156.440 176.801,156.000 176.916 C 155.560 177.031,155.200 177.412,155.200 177.763 C 155.200 178.113,154.930 178.400,154.600 178.400 C 154.270 178.400,154.000 178.670,154.000 179.000 C 154.000 179.330,153.738 179.600,153.418 179.600 C 152.756 179.600,151.039 181.200,150.671 182.160 C 150.536 182.512,150.239 182.800,150.013 182.800 C 149.786 182.800,149.600 183.070,149.600 183.400 C 149.600 183.733,149.244 184.000,148.800 184.000 C 148.267 184.000,148.000 184.267,148.000 184.800 C 148.000 185.252,147.733 185.600,147.387 185.600 C 147.051 185.600,146.671 185.870,146.545 186.200 C 146.418 186.530,146.064 186.800,145.757 186.800 C 145.451 186.800,145.200 187.160,145.200 187.600 C 145.200 188.040,144.945 188.400,144.633 188.400 C 143.764 188.400,140.800 191.235,140.800 192.066 C 140.800 192.620,140.496 192.800,139.563 192.800 C 138.662 192.800,138.268 193.017,138.116 193.600 C 138.001 194.040,137.703 194.407,137.453 194.415 C 137.204 194.424,136.637 195.009,136.194 195.715 C 135.750 196.422,134.985 197.058,134.494 197.128 C 134.002 197.198,133.600 197.513,133.600 197.828 C 133.600 198.143,133.324 198.400,132.987 198.400 C 132.651 198.400,132.256 198.711,132.110 199.091 C 131.805 199.885,130.050 201.600,129.542 201.600 C 129.354 201.600,129.200 201.870,129.200 202.200 C 129.200 202.530,128.930 202.800,128.600 202.800 C 128.267 202.800,128.000 203.156,128.000 203.600 C 128.000 204.133,127.733 204.400,127.200 204.400 C 126.756 204.400,126.400 204.667,126.400 205.000 C 126.400 205.330,126.113 205.600,125.763 205.600 C 125.412 205.600,125.031 205.960,124.916 206.400 C 124.801 206.840,124.458 207.200,124.153 207.200 C 123.849 207.200,123.600 207.470,123.600 207.800 C 123.600 208.130,123.313 208.400,122.963 208.400 C 122.612 208.400,122.231 208.760,122.116 209.200 C 122.001 209.640,121.670 210.000,121.380 210.000 C 121.091 210.000,120.740 210.360,120.600 210.800 C 120.423 211.357,119.995 211.600,119.191 211.600 C 118.188 211.600,118.002 211.784,117.774 213.000 C 117.623 213.802,117.274 214.400,116.955 214.400 C 116.650 214.400,116.400 214.568,116.400 214.773 C 116.400 214.978,116.040 215.260,115.600 215.400 C 115.160 215.540,114.800 216.002,114.800 216.427 C 114.800 216.868,114.526 217.200,114.163 217.200 C 113.812 217.200,113.431 217.560,113.316 218.000 C 113.180 218.521,112.770 218.800,112.141 218.800 C 111.610 218.800,111.071 219.070,110.945 219.400 C 110.818 219.730,110.374 220.000,109.957 220.000 C 109.467 220.000,109.200 220.282,109.200 220.800 C 109.200 221.252,108.933 221.600,108.587 221.600 C 108.251 221.600,107.859 221.901,107.718 222.269 C 107.342 223.250,106.091 224.400,105.400 224.400 C 105.067 224.400,104.800 224.756,104.800 225.200 C 104.800 225.733,104.533 226.000,104.000 226.000 C 103.560 226.000,103.200 226.251,103.200 226.557 C 103.200 226.864,102.930 227.218,102.600 227.345 C 102.270 227.471,102.000 227.851,102.000 228.187 C 102.000 228.533,101.652 228.800,101.200 228.800 C 100.760 228.800,100.400 229.058,100.400 229.373 C 100.400 229.688,100.040 230.060,99.600 230.200 C 99.160 230.340,98.800 230.712,98.800 231.027 C 98.800 231.342,98.530 231.600,98.200 231.600 C 97.867 231.600,97.600 231.956,97.600 232.400 C 97.600 232.933,97.333 233.200,96.800 233.200 C 96.356 233.200,96.000 233.467,96.000 233.800 C 96.000 234.130,95.742 234.400,95.427 234.400 C 95.112 234.400,94.740 234.760,94.600 235.200 C 94.460 235.640,94.088 236.000,93.773 236.000 C 93.458 236.000,93.200 236.338,93.200 236.750 C 93.200 237.264,92.821 237.576,91.992 237.742 C 91.047 237.931,90.731 238.247,90.542 239.192 C 90.376 240.021,90.064 240.400,89.550 240.400 C 89.138 240.400,88.800 240.670,88.800 241.000 C 88.800 241.330,88.513 241.600,88.163 241.600 C 87.812 241.600,87.434 241.950,87.322 242.378 C 87.185 242.901,86.707 243.195,85.859 243.278 C 84.761 243.384,84.584 243.567,84.475 244.700 C 84.363 245.853,84.212 246.000,83.137 246.000 C 82.262 246.000,81.867 246.222,81.716 246.800 C 81.601 247.240,81.277 247.600,80.996 247.600 C 80.426 247.600,80.000 248.470,80.000 249.633 C 80.000 250.224,79.716 250.400,78.763 250.400 C 77.862 250.400,77.468 250.617,77.316 251.200 C 77.201 251.640,76.858 252.000,76.553 252.000 C 76.249 252.000,76.000 252.270,76.000 252.600 C 76.000 252.933,75.644 253.200,75.200 253.200 C 74.667 253.200,74.400 253.467,74.400 254.000 C 74.400 254.452,74.133 254.800,73.787 254.800 C 73.451 254.800,73.071 255.070,72.945 255.400 C 72.818 255.730,72.562 256.000,72.375 256.000 C 71.811 256.000,70.000 257.996,70.000 258.618 C 70.000 258.938,69.730 259.200,69.400 259.200 C 69.070 259.200,68.800 259.470,68.800 259.800 C 68.800 260.133,68.444 260.400,68.000 260.400 C 67.560 260.400,66.871 260.729,66.469 261.131 C 66.068 261.532,65.438 261.977,65.069 262.118 C 64.647 262.280,64.400 262.823,64.400 263.587 C 64.400 264.671,64.271 264.800,63.187 264.800 C 62.393 264.800,61.890 265.042,61.728 265.500 C 61.369 266.517,59.947 268.000,59.330 268.000 C 59.039 268.000,58.800 268.270,58.800 268.600 C 58.800 268.933,58.444 269.200,58.000 269.200 C 57.467 269.200,57.200 269.467,57.200 270.000 C 57.200 270.533,56.933 270.800,56.400 270.800 C 55.960 270.800,55.600 271.051,55.600 271.357 C 55.600 271.664,55.330 272.018,55.000 272.145 C 54.670 272.271,54.400 272.651,54.400 272.987 C 54.400 273.333,54.052 273.600,53.600 273.600 C 53.160 273.600,52.800 273.849,52.800 274.153 C 52.800 274.458,52.440 274.801,52.000 274.916 C 51.560 275.031,51.200 275.412,51.200 275.763 C 51.200 276.113,50.930 276.400,50.600 276.400 C 50.267 276.400,50.000 276.756,50.000 277.200 C 50.000 277.640,49.739 278.000,49.421 278.000 C 48.716 278.000,46.800 279.715,46.800 280.346 C 46.800 280.596,46.530 280.800,46.200 280.800 C 45.870 280.800,45.600 281.049,45.600 281.353 C 45.600 281.658,45.240 282.001,44.800 282.116 C 44.360 282.231,44.000 282.612,44.000 282.963 C 44.000 283.313,43.730 283.600,43.400 283.600 C 43.067 283.600,42.800 283.956,42.800 284.400 C 42.800 284.933,42.533 285.200,42.000 285.200 C 41.560 285.200,41.200 285.368,41.200 285.573 C 41.200 285.778,40.840 286.060,40.400 286.200 C 39.960 286.340,39.600 286.790,39.600 287.202 C 39.600 287.753,39.258 287.982,38.300 288.075 C 37.157 288.185,36.985 288.357,36.875 289.500 C 36.763 290.653,36.612 290.800,35.537 290.800 C 34.662 290.800,34.267 291.022,34.116 291.600 C 34.001 292.040,33.652 292.400,33.341 292.400 C 33.030 292.400,32.671 292.670,32.545 293.000 C 32.418 293.330,32.064 293.600,31.757 293.600 C 31.451 293.600,31.200 293.960,31.200 294.400 C 31.200 294.933,30.933 295.200,30.400 295.200 C 29.960 295.200,29.600 295.426,29.600 295.702 C 29.600 295.978,28.970 296.730,28.200 297.372 C 27.430 298.014,26.800 298.778,26.800 299.070 C 26.800 299.361,26.524 299.600,26.187 299.600 C 25.851 299.600,25.471 299.870,25.345 300.200 C 25.218 300.530,24.864 300.800,24.557 300.800 C 24.251 300.800,24.000 301.160,24.000 301.600 C 24.000 302.133,23.733 302.400,23.200 302.400 C 22.667 302.400,22.400 302.667,22.400 303.200 C 22.400 303.733,22.133 304.000,21.600 304.000 C 21.156 304.000,20.800 304.267,20.800 304.600 C 20.800 304.930,20.530 305.200,20.200 305.200 C 19.870 305.200,19.600 305.538,19.600 305.950 C 19.600 306.464,19.221 306.776,18.392 306.942 C 17.447 307.131,17.131 307.447,16.942 308.392 C 16.732 309.440,16.527 309.600,15.395 309.600 C 14.219 309.600,14.063 309.740,13.826 311.000 C 13.669 311.838,13.330 312.400,12.982 312.400 C 12.662 312.400,12.400 312.760,12.400 313.200 C 12.400 313.733,12.133 314.000,11.600 314.000 C 11.156 314.000,10.800 314.267,10.800 314.600 C 10.800 314.930,10.530 315.200,10.200 315.200 C 9.870 315.200,9.600 315.520,9.600 315.911 C 9.600 316.302,9.240 316.930,8.800 317.307 C 8.360 317.684,8.000 318.354,8.000 318.796 C 8.000 319.238,7.749 319.600,7.443 319.600 C 6.831 319.600,6.400 320.441,6.400 321.633 C 6.400 322.055,6.130 322.400,5.800 322.400 C 5.470 322.400,5.200 322.739,5.200 323.153 C 5.200 323.570,4.843 324.000,4.400 324.116 C 3.704 324.298,3.600 324.662,3.600 326.916 C 3.600 329.170,3.496 329.534,2.800 329.716 C 2.187 329.876,2.000 330.262,2.000 331.363 C 2.000 332.374,1.822 332.800,1.400 332.800 C 0.981 332.800,0.800 333.222,0.800 334.200 C 0.800 334.970,0.620 335.600,0.400 335.600 C 0.142 335.600,0.000 340.133,0.000 348.400 C 0.000 356.667,0.142 361.200,0.400 361.200 C 0.620 361.200,0.800 362.190,0.800 363.400 C 0.800 365.011,0.949 365.600,1.355 365.600 C 1.671 365.600,2.021 366.189,2.166 366.961 C 2.307 367.710,2.687 368.424,3.011 368.549 C 3.422 368.706,3.600 369.384,3.600 370.784 C 3.600 372.360,3.772 372.901,4.400 373.293 C 4.840 373.568,5.200 374.205,5.200 374.709 C 5.200 375.213,5.470 375.729,5.800 375.855 C 6.130 375.982,6.400 376.302,6.400 376.567 C 6.400 376.832,6.760 377.436,7.200 377.908 C 7.640 378.380,8.000 378.978,8.000 379.237 C 8.000 379.760,9.850 381.600,10.376 381.600 C 10.560 381.600,10.827 382.217,10.968 382.971 C 11.176 384.078,11.454 384.392,12.413 384.603 C 13.402 384.820,13.600 385.060,13.600 386.044 C 13.600 386.804,13.850 387.317,14.300 387.482 C 14.685 387.624,15.144 387.978,15.320 388.270 C 15.496 388.561,15.901 388.800,16.220 388.800 C 16.539 388.800,16.803 389.025,16.807 389.300 C 16.817 390.043,18.511 391.512,19.701 391.811 C 20.274 391.955,20.839 392.326,20.959 392.636 C 21.078 392.946,21.430 393.200,21.741 393.200 C 22.052 393.200,22.401 393.560,22.516 394.000 C 22.631 394.440,23.025 394.800,23.391 394.800 C 23.757 394.800,24.327 395.070,24.657 395.400 C 24.987 395.730,25.604 396.000,26.029 396.000 C 26.453 396.000,27.160 396.360,27.600 396.800 C 28.085 397.285,28.933 397.600,29.753 397.600 C 30.770 397.600,31.159 397.799,31.316 398.400 C 31.466 398.975,31.862 399.200,32.720 399.200 C 33.413 399.200,34.011 399.452,34.145 399.800 C 34.311 400.233,34.990 400.400,36.587 400.400 C 37.804 400.400,38.800 400.580,38.800 400.800 C 38.800 401.059,43.533 401.200,52.200 401.200 C 60.867 401.200,65.600 401.059,65.600 400.800 C 65.600 400.572,66.786 400.400,68.357 400.400 C 70.439 400.400,71.171 400.253,71.345 399.800 C 71.471 399.470,72.032 399.200,72.591 399.200 C 73.150 399.200,73.916 398.840,74.293 398.400 C 74.673 397.956,75.473 397.600,76.089 397.600 C 76.700 397.600,77.560 397.240,78.000 396.800 C 78.440 396.360,79.256 396.000,79.813 396.000 C 80.369 396.000,80.929 395.730,81.055 395.400 C 81.182 395.070,81.614 394.800,82.016 394.800 C 82.417 394.800,82.860 394.440,83.000 394.000 C 83.140 393.560,83.493 393.200,83.784 393.200 C 84.076 393.200,84.418 392.930,84.545 392.600 C 84.671 392.270,85.006 392.000,85.288 392.000 C 85.570 392.000,86.588 391.280,87.551 390.400 C 88.513 389.520,89.439 388.800,89.608 388.800 C 89.776 388.800,90.018 388.530,90.145 388.200 C 90.271 387.870,90.651 387.600,90.987 387.600 C 91.417 387.600,91.600 387.195,91.600 386.245 C 91.600 385.012,91.727 384.865,93.000 384.626 C 93.838 384.469,94.400 384.130,94.400 383.782 C 94.400 383.462,94.760 383.200,95.200 383.200 C 95.733 383.200,96.000 382.933,96.000 382.400 C 96.000 381.960,96.258 381.600,96.573 381.600 C 96.888 381.600,97.255 381.257,97.388 380.837 C 97.521 380.417,97.894 379.973,98.215 379.850 C 98.550 379.721,98.800 379.107,98.800 378.413 C 98.800 377.621,99.001 377.200,99.379 377.200 C 100.084 377.200,102.000 375.485,102.000 374.854 C 102.000 374.604,102.270 374.400,102.600 374.400 C 102.930 374.400,103.200 374.130,103.200 373.800 C 103.200 373.470,103.532 373.200,103.938 373.200 C 104.906 373.200,106.000 371.963,106.000 370.869 C 106.000 370.267,106.246 370.000,106.800 370.000 C 107.240 370.000,107.600 369.751,107.600 369.447 C 107.600 369.142,107.960 368.799,108.400 368.684 C 108.840 368.569,109.200 368.188,109.200 367.837 C 109.200 367.487,109.470 367.200,109.800 367.200 C 110.130 367.200,110.400 366.942,110.400 366.627 C 110.400 366.312,110.760 365.940,111.200 365.800 C 111.640 365.660,112.000 365.307,112.000 365.016 C 112.000 364.724,112.270 364.382,112.600 364.255 C 112.930 364.129,113.200 363.749,113.200 363.413 C 113.200 363.067,113.548 362.800,114.000 362.800 C 114.444 362.800,114.800 362.533,114.800 362.200 C 114.800 361.870,115.051 361.600,115.357 361.600 C 115.963 361.600,116.400 360.761,116.400 359.599 C 116.400 359.109,116.796 358.777,117.587 358.603 C 118.546 358.392,118.824 358.078,119.032 356.971 C 119.178 356.191,119.529 355.600,119.845 355.600 C 120.150 355.600,120.400 355.330,120.400 355.000 C 120.400 354.667,120.756 354.400,121.200 354.400 C 121.733 354.400,122.000 354.133,122.000 353.600 C 122.000 353.067,122.267 352.800,122.800 352.800 C 123.244 352.800,123.600 352.533,123.600 352.200 C 123.600 351.870,123.789 351.600,124.019 351.600 C 124.568 351.600,126.371 349.544,126.387 348.900 C 126.394 348.625,126.670 348.400,127.000 348.400 C 127.330 348.400,127.600 348.130,127.600 347.800 C 127.600 347.467,127.956 347.200,128.400 347.200 C 128.917 347.200,129.200 346.933,129.200 346.447 C 129.200 346.030,129.557 345.600,130.000 345.484 C 130.440 345.369,130.800 344.988,130.800 344.637 C 130.800 344.287,131.070 344.000,131.400 344.000 C 131.730 344.000,132.000 343.751,132.000 343.447 C 132.000 343.142,132.360 342.799,132.800 342.684 C 133.240 342.569,133.600 342.188,133.600 341.837 C 133.600 341.487,133.870 341.200,134.200 341.200 C 134.530 341.200,134.800 340.958,134.800 340.661 C 134.800 339.880,136.188 338.400,136.920 338.400 C 137.264 338.400,137.660 338.040,137.800 337.600 C 137.940 337.160,138.312 336.800,138.627 336.800 C 139.015 336.800,139.200 336.349,139.200 335.400 C 139.200 334.267,139.352 334.000,140.000 334.000 C 140.440 334.000,140.800 333.751,140.800 333.447 C 140.800 333.142,141.160 332.799,141.600 332.684 C 142.040 332.569,142.400 332.188,142.400 331.837 C 142.400 331.487,142.670 331.200,143.000 331.200 C 143.333 331.200,143.600 330.844,143.600 330.400 C 143.600 329.867,143.867 329.600,144.400 329.600 C 144.844 329.600,145.200 329.333,145.200 329.000 C 145.200 328.670,145.470 328.400,145.800 328.400 C 146.133 328.400,146.400 328.044,146.400 327.600 C 146.400 327.067,146.667 326.800,147.200 326.800 C 147.644 326.800,148.000 326.533,148.000 326.200 C 148.000 325.870,148.276 325.600,148.613 325.600 C 148.949 325.600,149.341 325.285,149.482 324.900 C 149.624 324.515,149.978 324.056,150.270 323.880 C 150.561 323.704,150.800 323.299,150.800 322.980 C 150.800 322.661,151.004 322.400,151.254 322.400 C 152.045 322.400,153.600 320.398,153.600 319.379 C 153.600 318.667,153.818 318.400,154.400 318.400 C 154.840 318.400,155.529 318.071,155.931 317.669 C 156.332 317.268,156.962 316.823,157.331 316.682 C 157.699 316.541,158.000 316.189,158.000 315.901 C 158.000 315.613,158.360 315.070,158.800 314.693 C 159.240 314.316,159.600 313.646,159.600 313.204 C 159.600 312.749,159.866 312.400,160.213 312.400 C 160.549 312.400,160.929 312.130,161.055 311.800 C 161.182 311.470,161.536 311.200,161.843 311.200 C 162.149 311.200,162.400 310.840,162.400 310.400 C 162.400 309.867,162.667 309.600,163.200 309.600 C 163.733 309.600,164.000 309.333,164.000 308.800 C 164.000 308.356,164.267 308.000,164.600 308.000 C 164.930 308.000,165.200 307.751,165.200 307.447 C 165.200 307.142,165.560 306.799,166.000 306.684 C 166.440 306.569,166.800 306.188,166.800 305.837 C 166.800 305.487,167.058 305.200,167.373 305.200 C 167.688 305.200,168.060 304.840,168.200 304.400 C 168.340 303.960,168.712 303.600,169.027 303.600 C 169.342 303.600,169.603 303.375,169.607 303.100 C 169.615 302.490,171.342 300.800,171.956 300.800 C 172.200 300.800,172.400 300.170,172.400 299.400 C 172.400 298.267,172.552 298.000,173.200 298.000 C 173.640 298.000,174.360 297.640,174.800 297.200 C 175.240 296.760,175.870 296.400,176.200 296.400 C 176.619 296.400,176.800 295.978,176.800 295.000 C 176.800 293.867,176.952 293.600,177.600 293.600 C 178.044 293.600,178.400 293.333,178.400 293.000 C 178.400 292.670,178.670 292.400,179.000 292.400 C 179.330 292.400,179.600 292.060,179.600 291.645 C 179.600 291.101,179.984 290.817,180.971 290.632 C 182.067 290.426,182.393 290.143,182.595 289.221 C 182.735 288.586,183.108 287.967,183.424 287.846 C 183.741 287.724,184.000 287.349,184.000 287.013 C 184.000 286.667,184.348 286.400,184.800 286.400 C 185.240 286.400,185.600 286.173,185.600 285.896 C 185.600 285.619,185.960 285.168,186.400 284.893 C 186.840 284.618,187.200 284.215,187.200 283.997 C 187.200 283.566,188.646 282.000,189.044 282.000 C 189.480 282.000,191.186 280.212,191.193 279.747 C 191.197 279.497,191.560 279.199,192.000 279.084 C 192.583 278.932,192.800 278.538,192.800 277.637 C 192.800 276.684,192.976 276.400,193.567 276.400 C 194.612 276.400,195.600 275.991,195.600 275.557 C 195.600 275.361,195.960 274.840,196.400 274.400 C 196.840 273.960,197.200 273.240,197.200 272.800 C 197.200 272.360,197.372 272.000,197.582 272.000 C 198.078 272.000,200.000 270.078,200.000 269.582 C 200.000 269.372,200.287 269.200,200.637 269.200 C 200.988 269.200,201.369 268.840,201.484 268.400 C 201.599 267.960,201.942 267.600,202.247 267.600 C 202.551 267.600,202.800 267.330,202.800 267.000 C 202.800 266.670,203.087 266.400,203.437 266.400 C 203.788 266.400,204.169 266.040,204.284 265.600 C 204.399 265.160,204.742 264.800,205.047 264.800 C 205.351 264.800,205.600 264.440,205.600 264.000 C 205.600 263.560,205.851 263.200,206.157 263.200 C 206.464 263.200,206.818 262.930,206.945 262.600 C 207.071 262.270,207.438 262.000,207.760 262.000 C 208.083 262.000,208.460 261.640,208.600 261.200 C 208.740 260.760,209.112 260.400,209.427 260.400 C 209.742 260.400,210.000 260.130,210.000 259.800 C 210.000 259.470,210.360 258.840,210.800 258.400 C 211.240 257.960,211.600 257.240,211.600 256.800 C 211.600 256.356,211.867 256.000,212.200 256.000 C 212.530 256.000,212.800 255.730,212.800 255.400 C 212.800 255.010,213.191 254.800,213.920 254.800 C 215.280 254.800,216.000 254.149,216.000 252.920 C 216.000 252.369,216.241 252.000,216.600 252.000 C 216.933 252.000,217.200 251.644,217.200 251.200 C 217.200 250.692,217.467 250.400,217.930 250.400 C 218.709 250.400,220.400 248.837,220.400 248.117 C 220.400 247.880,220.670 247.582,221.000 247.455 C 221.330 247.329,221.600 246.949,221.600 246.613 C 221.600 246.267,221.948 246.000,222.400 246.000 C 222.840 246.000,223.200 245.749,223.200 245.443 C 223.200 245.136,223.470 244.782,223.800 244.655 C 224.130 244.529,224.400 244.149,224.400 243.813 C 224.400 243.476,224.687 243.200,225.037 243.200 C 225.388 243.200,225.769 242.840,225.884 242.400 C 225.999 241.960,226.342 241.600,226.647 241.600 C 226.951 241.600,227.200 241.330,227.200 241.000 C 227.200 240.670,227.487 240.400,227.837 240.400 C 228.188 240.400,228.565 240.057,228.674 239.637 C 228.784 239.217,229.217 238.784,229.637 238.674 C 230.165 238.536,230.400 238.120,230.400 237.320 C 230.400 236.363,230.622 236.100,231.700 235.783 C 232.703 235.487,233.029 235.149,233.127 234.300 C 233.203 233.635,233.495 233.200,233.864 233.200 C 234.200 233.200,234.569 232.840,234.684 232.400 C 234.799 231.960,235.142 231.600,235.447 231.600 C 235.751 231.600,236.000 231.240,236.000 230.800 C 236.000 230.267,236.267 230.000,236.800 230.000 C 237.244 230.000,237.600 229.733,237.600 229.400 C 237.600 229.070,237.772 228.800,237.982 228.800 C 238.478 228.800,240.400 226.878,240.400 226.382 C 240.400 226.172,240.687 226.000,241.037 226.000 C 241.388 226.000,241.769 225.640,241.884 225.200 C 241.999 224.760,242.342 224.400,242.647 224.400 C 242.951 224.400,243.200 224.040,243.200 223.600 C 243.200 223.067,243.467 222.800,244.000 222.800 C 244.452 222.800,244.800 222.533,244.800 222.187 C 244.800 221.851,245.070 221.471,245.400 221.345 C 245.730 221.218,246.000 220.864,246.000 220.557 C 246.000 220.251,246.360 220.000,246.800 220.000 C 247.240 220.000,247.600 219.742,247.600 219.427 C 247.600 219.112,247.960 218.740,248.400 218.600 C 248.840 218.460,249.200 218.083,249.200 217.760 C 249.200 217.438,249.470 217.071,249.800 216.945 C 250.142 216.813,250.400 216.217,250.400 215.557 C 250.400 214.626,250.575 214.399,251.300 214.394 C 252.566 214.385,253.094 213.960,253.412 212.696 C 253.563 212.093,253.937 211.600,254.243 211.600 C 254.550 211.600,254.800 211.240,254.800 210.800 C 254.800 209.926,255.228 209.835,258.600 209.987 C 259.723 210.038,260.905 210.349,261.296 210.697 C 261.679 211.038,262.939 211.405,264.096 211.513 C 265.265 211.621,266.342 211.951,266.520 212.254 C 266.748 212.643,267.757 212.800,270.020 212.800 C 271.769 212.800,273.200 212.962,273.200 213.161 C 273.200 213.904,275.849 214.400,279.817 214.400 C 283.193 214.400,283.957 214.512,284.158 215.036 C 284.482 215.879,304.418 215.747,304.700 214.900 C 304.819 214.543,306.045 214.400,308.979 214.400 C 312.486 214.400,313.242 214.282,314.109 213.600 C 314.845 213.021,315.732 212.800,317.314 212.800 C 318.771 212.800,319.668 212.600,320.000 212.200 C 320.294 211.846,321.175 211.598,322.149 211.595 C 324.381 211.587,325.600 211.219,325.600 210.553 C 325.600 210.152,326.179 210.000,327.704 210.000 C 329.374 210.000,329.910 209.835,330.307 209.200 C 330.672 208.615,331.240 208.400,332.416 208.400 C 333.477 208.400,334.103 208.196,334.255 207.800 C 334.397 207.430,335.005 207.200,335.843 207.200 C 336.933 207.200,337.200 207.043,337.200 206.400 C 337.200 205.763,337.467 205.600,338.511 205.600 C 339.232 205.600,340.186 205.345,340.631 205.033 C 341.077 204.721,342.107 204.341,342.920 204.189 C 343.783 204.027,344.400 203.679,344.400 203.355 C 344.400 203.050,344.745 202.800,345.167 202.800 C 346.359 202.800,347.200 202.369,347.200 201.757 C 347.200 201.451,347.560 201.200,348.000 201.200 C 348.444 201.200,348.800 200.933,348.800 200.600 C 348.800 200.270,349.145 200.000,349.567 200.000 C 350.759 200.000,351.600 199.569,351.600 198.957 C 351.600 198.630,352.011 198.400,352.597 198.400 C 353.160 198.400,353.810 198.052,354.093 197.600 C 354.368 197.160,354.909 196.800,355.296 196.800 C 355.683 196.800,356.000 196.551,356.000 196.247 C 356.000 195.942,356.360 195.599,356.800 195.484 C 357.240 195.369,357.600 194.988,357.600 194.637 C 357.600 194.287,357.870 194.000,358.200 194.000 C 358.530 194.000,358.800 193.730,358.800 193.400 C 358.800 192.996,359.204 192.800,360.037 192.800 C 360.938 192.800,361.332 192.583,361.484 192.000 C 361.599 191.560,362.001 191.200,362.377 191.200 C 363.115 191.200,364.800 189.617,364.800 188.924 C 364.800 188.691,365.324 188.395,365.964 188.267 C 366.850 188.090,367.192 187.749,367.391 186.843 C 367.586 185.954,367.941 185.589,368.793 185.402 C 369.420 185.264,370.033 184.892,370.154 184.576 C 370.276 184.259,370.651 184.000,370.987 184.000 C 371.324 184.000,371.600 183.736,371.600 183.414 C 371.600 183.092,371.960 182.635,372.400 182.400 C 372.840 182.165,373.200 181.708,373.200 181.386 C 373.200 181.064,373.456 180.800,373.768 180.800 C 374.081 180.800,374.450 180.283,374.589 179.652 C 374.776 178.798,375.169 178.411,376.120 178.139 C 377.175 177.839,377.422 177.549,377.525 176.487 C 377.594 175.779,377.811 175.200,378.007 175.200 C 378.435 175.200,380.400 173.287,380.400 172.871 C 380.400 172.710,380.760 172.270,381.200 171.893 C 381.640 171.516,382.000 170.846,382.000 170.404 C 382.000 169.956,382.266 169.600,382.600 169.600 C 382.930 169.600,383.200 169.283,383.200 168.896 C 383.200 168.509,383.560 167.968,384.000 167.693 C 384.452 167.410,384.800 166.760,384.800 166.197 C 384.800 165.467,385.014 165.200,385.600 165.200 C 386.118 165.200,386.400 164.933,386.400 164.443 C 386.400 164.026,386.670 163.582,387.000 163.455 C 387.408 163.299,387.600 162.660,387.600 161.459 C 387.600 160.030,387.752 159.653,388.400 159.484 C 388.840 159.369,389.200 158.988,389.200 158.637 C 389.200 158.287,389.451 158.000,389.757 158.000 C 390.361 158.000,390.800 157.162,390.800 156.010 C 390.800 155.612,391.070 155.182,391.400 155.055 C 391.823 154.893,392.000 154.232,392.000 152.813 C 392.000 151.067,392.106 150.800,392.800 150.800 C 393.318 150.800,393.600 150.533,393.600 150.043 C 393.600 149.626,393.870 149.182,394.200 149.055 C 394.608 148.899,394.800 148.260,394.800 147.059 C 394.800 145.630,394.952 145.253,395.600 145.084 C 396.213 144.924,396.400 144.538,396.400 143.437 C 396.400 142.484,396.585 142.000,396.950 142.000 C 397.624 142.000,398.000 140.263,398.000 137.150 C 398.000 135.328,398.135 134.800,398.600 134.800 C 399.061 134.800,399.200 134.289,399.200 132.600 C 399.200 131.390,399.380 130.400,399.600 130.400 C 399.861 130.400,400.000 123.667,400.000 111.000 C 400.000 98.333,399.861 91.600,399.600 91.600 C 399.380 91.600,399.200 91.330,399.200 91.000 C 399.200 90.670,398.942 90.400,398.627 90.400 C 398.312 90.400,397.940 90.040,397.800 89.600 C 397.660 89.160,397.281 88.800,396.956 88.800 C 396.632 88.800,395.980 88.440,395.508 88.000 C 394.212 86.792,386.832 86.792,386.516 88.000 C 386.359 88.601,385.970 88.800,384.953 88.800 C 383.867 88.800,383.600 88.958,383.600 89.600 C 383.600 90.133,383.333 90.400,382.800 90.400 C 382.360 90.400,382.000 90.649,382.000 90.953 C 382.000 91.258,381.640 91.601,381.200 91.716 C 380.617 91.868,380.400 92.262,380.400 93.163 C 380.400 94.116,380.224 94.400,379.633 94.400 C 378.441 94.400,377.600 94.831,377.600 95.443 C 377.600 95.749,377.342 96.000,377.027 96.000 C 376.712 96.000,376.340 96.360,376.200 96.800 C 376.060 97.240,375.688 97.600,375.373 97.600 C 375.058 97.600,374.800 97.772,374.800 97.982 C 374.800 98.478,372.878 100.400,372.382 100.400 C 372.172 100.400,372.000 100.670,372.000 101.000 C 372.000 101.330,371.726 101.600,371.390 101.600 C 371.055 101.600,370.609 102.050,370.400 102.600 C 370.191 103.150,369.835 103.600,369.610 103.600 C 369.384 103.600,369.200 103.870,369.200 104.200 C 369.200 104.533,368.844 104.800,368.400 104.800 C 367.956 104.800,367.600 105.067,367.600 105.400 C 367.600 105.730,367.313 106.000,366.963 106.000 C 366.612 106.000,366.231 106.360,366.116 106.800 C 366.001 107.240,365.679 107.600,365.400 107.600 C 365.121 107.600,364.799 107.960,364.684 108.400 C 364.569 108.840,364.188 109.200,363.837 109.200 C 363.487 109.200,363.200 109.470,363.200 109.800 C 363.200 110.130,362.913 110.400,362.563 110.400 C 362.212 110.400,361.831 110.760,361.716 111.200 C 361.601 111.640,361.258 112.000,360.953 112.000 C 360.649 112.000,360.400 112.172,360.400 112.382 C 360.400 112.852,358.490 114.800,358.028 114.800 C 357.844 114.800,357.599 115.160,357.484 115.600 C 357.369 116.040,356.988 116.400,356.637 116.400 C 356.267 116.400,356.000 116.735,356.000 117.200 C 356.000 117.644,355.733 118.000,355.400 118.000 C 355.070 118.000,354.800 118.270,354.800 118.600 C 354.800 118.933,354.444 119.200,354.000 119.200 C 353.556 119.200,353.200 119.467,353.200 119.800 C 353.200 120.130,352.913 120.400,352.563 120.400 C 352.212 120.400,351.831 120.760,351.716 121.200 C 351.601 121.640,351.279 122.000,351.000 122.000 C 350.721 122.000,350.399 122.360,350.284 122.800 C 350.169 123.240,349.788 123.600,349.437 123.600 C 349.087 123.600,348.800 123.870,348.800 124.200 C 348.800 124.530,348.513 124.800,348.163 124.800 C 347.812 124.800,347.431 125.160,347.316 125.600 C 347.201 126.040,346.858 126.400,346.553 126.400 C 346.249 126.400,346.000 126.658,346.000 126.973 C 346.000 127.288,345.640 127.660,345.200 127.800 C 344.760 127.940,344.400 128.312,344.400 128.627 C 344.400 128.942,344.142 129.200,343.827 129.200 C 343.512 129.200,343.140 129.560,343.000 130.000 C 342.860 130.440,342.488 130.800,342.173 130.800 C 341.858 130.800,341.600 130.972,341.600 131.182 C 341.600 131.392,341.142 132.022,340.582 132.582 C 340.022 133.142,339.392 133.600,339.182 133.600 C 338.972 133.600,338.800 133.870,338.800 134.200 C 338.800 134.530,338.524 134.800,338.187 134.800 C 337.851 134.800,337.459 135.115,337.318 135.500 C 337.176 135.885,336.822 136.344,336.530 136.520 C 336.239 136.696,336.000 137.101,336.000 137.420 C 336.000 137.739,335.640 138.000,335.200 138.000 C 334.756 138.000,334.400 138.267,334.400 138.600 C 334.400 138.933,334.044 139.200,333.600 139.200 C 333.067 139.200,332.800 139.467,332.800 140.000 C 332.800 141.163,329.163 141.163,328.000 140.000 C 327.474 139.474,326.667 139.200,325.643 139.200 C 324.628 139.200,324.005 138.991,323.855 138.600 C 323.683 138.151,322.966 138.000,321.013 138.000 C 318.667 138.000,318.400 137.918,318.400 137.200 C 318.400 136.499,318.133 136.400,316.247 136.400 C 314.430 136.400,314.061 136.275,313.884 135.600 C 313.709 134.932,313.338 134.800,311.637 134.800 C 310.093 134.800,309.600 134.655,309.600 134.200 C 309.600 133.741,309.094 133.600,307.447 133.600 C 305.630 133.600,305.261 133.475,305.084 132.800 C 304.910 132.135,304.538 132.000,302.880 132.000 C 301.476 132.000,300.817 131.822,300.655 131.400 C 300.493 130.977,299.832 130.800,298.413 130.800 C 296.959 130.800,296.400 130.645,296.400 130.243 C 296.400 129.510,295.517 129.200,293.429 129.200 C 292.232 129.200,291.508 128.962,291.000 128.400 C 290.486 127.832,289.768 127.600,288.525 127.600 C 287.338 127.600,286.701 127.407,286.545 127.000 C 286.384 126.583,285.733 126.400,284.404 126.400 C 282.830 126.400,282.456 126.259,282.284 125.600 C 282.110 124.935,281.738 124.800,280.080 124.800 C 278.676 124.800,278.017 124.622,277.855 124.200 C 277.729 123.870,277.349 123.600,277.013 123.600 C 276.583 123.600,276.400 123.195,276.400 122.243 C 276.400 121.405,276.170 120.797,275.800 120.655 C 275.444 120.519,275.200 119.917,275.200 119.175 C 275.200 118.284,274.982 117.868,274.441 117.727 C 273.790 117.556,273.660 117.064,273.535 114.295 C 273.439 112.199,273.214 111.005,272.894 110.898 C 272.622 110.807,272.400 110.101,272.400 109.329 C 272.400 108.262,272.208 107.875,271.600 107.716 C 270.942 107.544,270.800 107.170,270.800 105.607 C 270.800 104.314,270.545 103.384,270.000 102.691 C 269.560 102.131,269.200 101.387,269.200 101.037 C 269.200 100.687,268.930 100.400,268.600 100.400 C 268.123 100.400,268.000 99.818,268.000 97.563 C 268.000 95.062,267.905 94.700,267.200 94.516 C 266.504 94.334,266.400 93.970,266.400 91.716 C 266.400 89.462,266.296 89.098,265.600 88.916 C 264.999 88.759,264.800 88.370,264.800 87.353 C 264.800 86.417,264.615 86.000,264.200 86.000 C 263.713 86.000,263.600 85.351,263.600 82.563 C 263.600 79.462,263.522 79.105,262.800 78.916 C 262.199 78.759,262.000 78.370,262.000 77.353 C 262.000 76.473,261.808 76.000,261.451 76.000 C 261.084 76.000,260.838 75.335,260.709 73.996 C 260.603 72.894,260.220 71.665,259.858 71.264 C 259.047 70.367,258.977 68.400,259.757 68.400 C 260.064 68.400,260.418 68.130,260.545 67.800 C 260.671 67.470,261.051 67.200,261.387 67.200 C 261.733 67.200,262.000 66.852,262.000 66.400 C 262.000 65.867,262.267 65.600,262.800 65.600 C 263.333 65.600,263.600 65.333,263.600 64.800 C 263.600 64.356,263.867 64.000,264.200 64.000 C 264.530 64.000,264.800 63.730,264.800 63.400 C 264.800 63.067,265.156 62.800,265.600 62.800 C 266.133 62.800,266.400 62.533,266.400 62.000 C 266.400 61.535,266.667 61.200,267.037 61.200 C 267.388 61.200,267.769 60.840,267.884 60.400 C 267.999 59.960,268.342 59.600,268.647 59.600 C 268.951 59.600,269.200 59.330,269.200 59.000 C 269.200 58.667,269.556 58.400,270.000 58.400 C 270.444 58.400,270.800 58.133,270.800 57.800 C 270.800 57.470,271.087 57.200,271.437 57.200 C 271.788 57.200,272.166 56.852,272.277 56.428 C 272.388 56.003,272.731 55.559,273.039 55.440 C 273.348 55.322,273.600 54.949,273.600 54.613 C 273.600 54.276,273.876 54.000,274.213 54.000 C 274.549 54.000,274.929 53.730,275.055 53.400 C 275.182 53.070,275.536 52.800,275.843 52.800 C 276.149 52.800,276.400 52.440,276.400 52.000 C 276.400 51.467,276.667 51.200,277.200 51.200 C 277.733 51.200,278.000 50.933,278.000 50.400 C 278.000 49.956,278.267 49.600,278.600 49.600 C 278.930 49.600,279.200 49.330,279.200 49.000 C 279.200 48.667,279.556 48.400,280.000 48.400 C 280.533 48.400,280.800 48.133,280.800 47.600 C 280.800 47.067,281.067 46.800,281.600 46.800 C 282.040 46.800,282.400 46.549,282.400 46.243 C 282.400 45.936,282.670 45.582,283.000 45.455 C 283.330 45.329,283.600 44.949,283.600 44.613 C 283.600 44.267,283.948 44.000,284.400 44.000 C 284.933 44.000,285.200 43.733,285.200 43.200 C 285.200 42.760,285.404 42.400,285.654 42.400 C 286.188 42.400,288.000 40.530,288.000 39.979 C 288.000 39.771,288.276 39.600,288.613 39.600 C 288.949 39.600,289.329 39.330,289.455 39.000 C 289.582 38.670,289.936 38.400,290.243 38.400 C 290.549 38.400,290.800 38.040,290.800 37.600 C 290.800 37.067,291.067 36.800,291.600 36.800 C 292.133 36.800,292.400 36.533,292.400 36.000 C 292.400 35.548,292.667 35.200,293.013 35.200 C 293.349 35.200,293.729 34.930,293.855 34.600 C 293.982 34.270,294.336 34.000,294.643 34.000 C 294.949 34.000,295.200 33.640,295.200 33.200 C 295.200 32.667,295.467 32.400,296.000 32.400 C 296.533 32.400,296.800 32.133,296.800 31.600 C 296.800 31.156,297.067 30.800,297.400 30.800 C 297.730 30.800,298.000 30.530,298.000 30.200 C 298.000 29.867,298.356 29.600,298.800 29.600 C 299.333 29.600,299.600 29.333,299.600 28.800 C 299.600 28.267,299.867 28.000,300.400 28.000 C 300.844 28.000,301.200 27.733,301.200 27.400 C 301.200 26.625,302.625 25.200,303.400 25.200 C 303.730 25.200,304.000 25.028,304.000 24.818 C 304.000 24.322,305.922 22.400,306.418 22.400 C 306.628 22.400,306.800 22.040,306.800 21.600 C 306.800 21.148,307.067 20.800,307.413 20.800 C 307.749 20.800,308.129 20.530,308.255 20.200 C 308.382 19.870,308.736 19.600,309.043 19.600 C 309.349 19.600,309.600 19.240,309.600 18.800 C 309.600 18.267,309.867 18.000,310.400 18.000 C 311.048 18.000,311.200 17.733,311.200 16.600 C 311.200 15.670,311.387 15.200,311.757 15.200 C 313.147 15.200,313.381 5.677,312.000 5.316 C 311.410 5.162,311.200 4.770,311.200 3.825 C 311.200 2.480,309.755 0.800,308.597 0.800 C 308.269 0.800,308.000 0.620,308.000 0.400 C 308.000 0.140,302.267 0.000,291.600 0.000 C 280.933 0.000,275.200 0.140,275.200 0.400 M52.655 333.400 C 52.821 333.831,53.494 334.000,55.043 334.000 C 56.933 334.000,57.200 334.099,57.200 334.800 C 57.200 335.448,57.467 335.600,58.600 335.600 C 59.578 335.600,60.000 335.781,60.000 336.200 C 60.000 336.530,60.258 336.800,60.573 336.800 C 60.888 336.800,61.260 337.160,61.400 337.600 C 61.540 338.040,61.912 338.400,62.227 338.400 C 62.542 338.400,62.800 338.687,62.800 339.037 C 62.800 339.388,63.160 339.769,63.600 339.884 C 64.169 340.033,64.400 340.430,64.400 341.259 C 64.400 341.927,64.657 342.524,65.000 342.655 C 65.348 342.789,65.600 343.387,65.600 344.080 C 65.600 344.938,65.825 345.334,66.400 345.484 C 67.309 345.722,67.679 354.800,66.780 354.800 C 66.548 354.800,66.096 355.430,65.774 356.200 C 65.452 356.970,65.012 357.600,64.795 357.600 C 64.578 357.600,64.400 358.070,64.400 358.644 C 64.400 359.735,62.960 361.581,62.100 361.593 C 61.825 361.597,61.594 361.825,61.587 362.100 C 61.564 362.971,60.105 364.400,59.239 364.400 C 58.781 364.400,58.182 364.760,57.907 365.200 C 57.632 365.640,57.014 366.000,56.532 366.000 C 56.051 366.000,55.387 366.270,55.057 366.600 C 54.596 367.061,53.430 367.200,50.016 367.200 C 46.437 367.200,45.530 367.083,45.345 366.600 C 45.205 366.236,44.600 366.000,43.804 366.000 C 42.830 366.000,42.440 365.795,42.284 365.200 C 42.132 364.617,41.738 364.400,40.837 364.400 C 39.993 364.400,39.600 364.206,39.600 363.787 C 39.600 363.451,39.330 363.071,39.000 362.945 C 38.670 362.818,38.400 362.464,38.400 362.157 C 38.400 361.851,38.040 361.600,37.600 361.600 C 37.067 361.600,36.800 361.333,36.800 360.800 C 36.800 360.267,36.533 360.000,36.000 360.000 C 35.361 360.000,35.200 359.733,35.200 358.676 C 35.200 357.949,34.936 357.004,34.613 356.576 C 34.290 356.149,34.020 355.393,34.013 354.896 C 34.006 354.399,33.640 353.684,33.200 353.307 C 32.548 352.749,32.400 352.127,32.400 349.938 C 32.400 347.605,32.505 347.221,33.200 347.000 C 33.789 346.813,34.000 346.395,34.000 345.416 C 34.000 344.602,34.233 343.996,34.600 343.855 C 35.011 343.698,35.200 343.055,35.200 341.813 C 35.200 340.267,35.318 340.000,36.000 340.000 C 36.533 340.000,36.800 339.733,36.800 339.200 C 36.800 338.667,37.067 338.400,37.600 338.400 C 38.133 338.400,38.400 338.133,38.400 337.600 C 38.400 337.156,38.667 336.800,39.000 336.800 C 39.330 336.800,39.600 336.530,39.600 336.200 C 39.600 335.781,40.022 335.600,41.000 335.600 C 41.867 335.600,42.705 335.295,43.200 334.800 C 43.712 334.288,44.539 333.998,45.500 333.994 C 46.325 333.991,47.450 333.739,48.000 333.433 C 49.404 332.654,52.361 332.633,52.655 333.400 " stroke="none" fill="#ffffff" fill-rule="evenodd"></path><path id="path1" d="M275.200 0.400 C 275.200 0.637,273.733 0.800,271.600 0.800 C 268.801 0.800,268.000 0.923,268.000 1.353 C 268.000 1.752,267.259 1.954,265.352 2.075 C 263.467 2.195,262.560 2.440,262.208 2.922 C 261.865 3.390,261.139 3.600,259.859 3.600 C 258.440 3.600,257.890 3.787,257.507 4.400 C 257.135 4.997,256.574 5.200,255.304 5.200 C 254.056 5.200,253.600 5.361,253.600 5.800 C 253.600 6.222,253.174 6.400,252.163 6.400 C 251.062 6.400,250.676 6.587,250.516 7.200 C 250.363 7.784,249.969 8.001,249.053 8.003 C 248.364 8.004,247.260 8.363,246.600 8.800 C 245.940 9.237,245.079 9.596,244.687 9.597 C 244.296 9.599,243.871 9.870,243.745 10.200 C 243.618 10.530,243.174 10.800,242.757 10.800 C 242.267 10.800,242.000 11.082,242.000 11.600 C 242.000 12.248,241.733 12.400,240.600 12.400 C 239.622 12.400,239.200 12.581,239.200 13.000 C 239.200 13.400,238.800 13.600,238.003 13.600 C 237.240 13.600,236.626 13.890,236.307 14.400 C 236.032 14.840,235.402 15.200,234.907 15.200 C 234.412 15.200,233.782 15.560,233.507 16.000 C 233.232 16.440,232.775 16.800,232.491 16.800 C 232.207 16.800,231.871 17.070,231.745 17.400 C 231.618 17.730,231.292 18.000,231.019 18.000 C 230.747 18.000,230.198 18.360,229.800 18.800 C 229.402 19.240,228.828 19.600,228.525 19.600 C 228.223 19.600,227.874 19.863,227.750 20.185 C 227.627 20.506,227.183 20.879,226.763 21.012 C 226.343 21.145,226.000 21.512,226.000 21.827 C 226.000 22.142,225.713 22.400,225.363 22.400 C 225.012 22.400,224.631 22.760,224.516 23.200 C 224.369 23.763,223.970 24.000,223.171 24.000 C 222.191 24.000,222.001 24.191,221.774 25.400 C 221.560 26.541,221.332 26.800,220.545 26.800 C 219.578 26.800,216.000 29.941,216.000 30.789 C 216.000 31.015,215.742 31.200,215.427 31.200 C 215.112 31.200,214.750 31.526,214.624 31.925 C 214.497 32.324,213.765 33.337,212.997 34.176 C 212.229 35.014,211.600 35.948,211.600 36.250 C 211.600 36.553,211.240 36.800,210.800 36.800 C 210.267 36.800,210.000 37.067,210.000 37.600 C 210.000 38.044,209.733 38.400,209.400 38.400 C 208.983 38.400,208.800 38.819,208.800 39.775 C 208.800 41.030,208.688 41.160,207.513 41.275 C 206.447 41.378,206.162 41.624,205.855 42.700 C 205.651 43.415,205.240 44.000,204.942 44.000 C 204.644 44.000,204.400 44.339,204.400 44.753 C 204.400 45.170,204.043 45.600,203.600 45.716 C 203.017 45.868,202.800 46.262,202.800 47.163 C 202.800 47.996,202.604 48.400,202.200 48.400 C 201.870 48.400,201.600 48.739,201.600 49.153 C 201.600 49.570,201.243 50.000,200.800 50.116 C 200.347 50.234,200.000 50.662,200.000 51.101 C 200.000 51.527,199.640 52.202,199.200 52.600 C 198.610 53.134,198.400 53.832,198.400 55.262 C 198.400 56.718,198.251 57.200,197.800 57.200 C 197.470 57.200,197.200 57.449,197.200 57.753 C 197.200 58.058,196.840 58.401,196.400 58.516 C 195.825 58.666,195.600 59.062,195.600 59.920 C 195.600 60.613,195.348 61.211,195.000 61.345 C 194.577 61.507,194.400 62.168,194.400 63.587 C 194.400 65.333,194.294 65.600,193.600 65.600 C 193.013 65.600,192.800 65.867,192.800 66.600 C 192.800 67.150,192.649 67.600,192.464 67.600 C 191.887 67.600,191.200 69.567,191.200 71.219 C 191.200 72.358,191.032 72.800,190.600 72.800 C 190.167 72.800,190.000 73.244,190.000 74.400 C 190.000 75.501,189.826 76.000,189.443 76.000 C 188.602 76.000,188.400 76.926,188.400 80.790 C 188.400 83.554,188.271 84.364,187.800 84.545 C 187.345 84.719,187.200 85.456,187.200 87.587 C 187.200 90.133,187.124 90.400,186.400 90.400 C 185.613 90.400,185.600 90.667,185.600 107.004 C 185.600 123.113,185.624 123.628,186.400 124.293 C 186.994 124.802,187.200 125.473,187.200 126.901 C 187.200 128.242,187.382 128.895,187.800 129.055 C 188.278 129.239,188.400 130.098,188.400 133.280 C 188.400 136.938,188.467 137.293,189.200 137.484 C 189.827 137.648,190.000 138.030,190.000 139.247 C 190.000 140.361,190.170 140.800,190.600 140.800 C 191.061 140.800,191.200 141.311,191.200 143.000 C 191.200 145.160,191.179 145.200,190.043 145.200 C 188.866 145.200,188.400 145.777,188.400 147.233 C 188.400 147.824,188.116 148.000,187.163 148.000 C 186.281 148.000,185.868 148.220,185.726 148.763 C 185.616 149.183,185.183 149.616,184.763 149.726 C 184.220 149.868,184.000 150.281,184.000 151.163 C 184.000 152.310,183.898 152.400,182.600 152.400 C 181.622 152.400,181.200 152.581,181.200 153.000 C 181.200 153.330,180.930 153.600,180.600 153.600 C 180.267 153.600,180.000 153.956,180.000 154.400 C 180.000 154.933,179.733 155.200,179.200 155.200 C 178.667 155.200,178.400 155.467,178.400 156.000 C 178.400 156.533,178.133 156.800,177.600 156.800 C 177.156 156.800,176.800 157.067,176.800 157.400 C 176.800 157.730,176.530 158.000,176.200 158.000 C 175.867 158.000,175.600 158.356,175.600 158.800 C 175.600 159.333,175.333 159.600,174.800 159.600 C 174.360 159.600,174.000 159.831,174.000 160.112 C 174.000 160.394,173.459 160.829,172.797 161.079 C 171.926 161.407,171.525 161.874,171.347 162.766 C 171.176 163.618,170.868 164.000,170.350 164.000 C 169.938 164.000,169.600 164.270,169.600 164.600 C 169.600 164.930,169.330 165.200,169.000 165.200 C 168.667 165.200,168.400 165.556,168.400 166.000 C 168.400 166.646,168.133 166.800,167.018 166.800 C 165.756 166.800,165.614 166.921,165.374 168.200 C 165.161 169.334,164.930 169.600,164.159 169.600 C 163.635 169.600,162.982 169.960,162.707 170.400 C 162.432 170.840,161.981 171.200,161.704 171.200 C 161.395 171.200,161.200 171.741,161.200 172.600 C 161.200 173.933,161.133 174.000,159.800 174.000 C 158.851 174.000,158.400 174.185,158.400 174.573 C 158.400 174.888,158.040 175.260,157.600 175.400 C 157.160 175.540,156.800 175.891,156.800 176.180 C 156.800 176.470,156.440 176.801,156.000 176.916 C 155.560 177.031,155.200 177.412,155.200 177.763 C 155.200 178.113,154.930 178.400,154.600 178.400 C 154.270 178.400,154.000 178.670,154.000 179.000 C 154.000 179.330,153.738 179.600,153.418 179.600 C 152.756 179.600,151.039 181.200,150.671 182.160 C 150.536 182.512,150.239 182.800,150.013 182.800 C 149.786 182.800,149.600 183.070,149.600 183.400 C 149.600 183.733,149.244 184.000,148.800 184.000 C 148.267 184.000,148.000 184.267,148.000 184.800 C 148.000 185.252,147.733 185.600,147.387 185.600 C 147.051 185.600,146.671 185.870,146.545 186.200 C 146.418 186.530,146.064 186.800,145.757 186.800 C 145.451 186.800,145.200 187.160,145.200 187.600 C 145.200 188.040,144.945 188.400,144.633 188.400 C 143.764 188.400,140.800 191.235,140.800 192.066 C 140.800 192.620,140.496 192.800,139.563 192.800 C 138.662 192.800,138.268 193.017,138.116 193.600 C 138.001 194.040,137.703 194.407,137.453 194.415 C 137.204 194.424,136.637 195.009,136.194 195.715 C 135.750 196.422,134.985 197.058,134.494 197.128 C 134.002 197.198,133.600 197.513,133.600 197.828 C 133.600 198.143,133.324 198.400,132.987 198.400 C 132.651 198.400,132.256 198.711,132.110 199.091 C 131.805 199.885,130.050 201.600,129.542 201.600 C 129.354 201.600,129.200 201.870,129.200 202.200 C 129.200 202.530,128.930 202.800,128.600 202.800 C 128.267 202.800,128.000 203.156,128.000 203.600 C 128.000 204.133,127.733 204.400,127.200 204.400 C 126.756 204.400,126.400 204.667,126.400 205.000 C 126.400 205.330,126.113 205.600,125.763 205.600 C 125.412 205.600,125.031 205.960,124.916 206.400 C 124.801 206.840,124.458 207.200,124.153 207.200 C 123.849 207.200,123.600 207.470,123.600 207.800 C 123.600 208.130,123.313 208.400,122.963 208.400 C 122.612 208.400,122.231 208.760,122.116 209.200 C 122.001 209.640,121.670 210.000,121.380 210.000 C 121.091 210.000,120.740 210.360,120.600 210.800 C 120.423 211.357,119.995 211.600,119.191 211.600 C 118.188 211.600,118.002 211.784,117.774 213.000 C 117.623 213.802,117.274 214.400,116.955 214.400 C 116.650 214.400,116.400 214.568,116.400 214.773 C 116.400 214.978,116.040 215.260,115.600 215.400 C 115.160 215.540,114.800 216.002,114.800 216.427 C 114.800 216.868,114.526 217.200,114.163 217.200 C 113.812 217.200,113.431 217.560,113.316 218.000 C 113.180 218.521,112.770 218.800,112.141 218.800 C 111.610 218.800,111.071 219.070,110.945 219.400 C 110.818 219.730,110.374 220.000,109.957 220.000 C 109.467 220.000,109.200 220.282,109.200 220.800 C 109.200 221.252,108.933 221.600,108.587 221.600 C 108.251 221.600,107.859 221.901,107.718 222.269 C 107.342 223.250,106.091 224.400,105.400 224.400 C 105.067 224.400,104.800 224.756,104.800 225.200 C 104.800 225.733,104.533 226.000,104.000 226.000 C 103.560 226.000,103.200 226.251,103.200 226.557 C 103.200 226.864,102.930 227.218,102.600 227.345 C 102.270 227.471,102.000 227.851,102.000 228.187 C 102.000 228.533,101.652 228.800,101.200 228.800 C 100.760 228.800,100.400 229.058,100.400 229.373 C 100.400 229.688,100.040 230.060,99.600 230.200 C 99.160 230.340,98.800 230.712,98.800 231.027 C 98.800 231.342,98.530 231.600,98.200 231.600 C 97.867 231.600,97.600 231.956,97.600 232.400 C 97.600 232.933,97.333 233.200,96.800 233.200 C 96.356 233.200,96.000 233.467,96.000 233.800 C 96.000 234.130,95.742 234.400,95.427 234.400 C 95.112 234.400,94.740 234.760,94.600 235.200 C 94.460 235.640,94.088 236.000,93.773 236.000 C 93.458 236.000,93.200 236.338,93.200 236.750 C 93.200 237.264,92.821 237.576,91.992 237.742 C 91.047 237.931,90.731 238.247,90.542 239.192 C 90.376 240.021,90.064 240.400,89.550 240.400 C 89.138 240.400,88.800 240.670,88.800 241.000 C 88.800 241.330,88.513 241.600,88.163 241.600 C 87.812 241.600,87.434 241.950,87.322 242.378 C 87.185 242.901,86.707 243.195,85.859 243.278 C 84.761 243.384,84.584 243.567,84.475 244.700 C 84.363 245.853,84.212 246.000,83.137 246.000 C 82.262 246.000,81.867 246.222,81.716 246.800 C 81.601 247.240,81.277 247.600,80.996 247.600 C 80.426 247.600,80.000 248.470,80.000 249.633 C 80.000 250.224,79.716 250.400,78.763 250.400 C 77.862 250.400,77.468 250.617,77.316 251.200 C 77.201 251.640,76.858 252.000,76.553 252.000 C 76.249 252.000,76.000 252.270,76.000 252.600 C 76.000 252.933,75.644 253.200,75.200 253.200 C 74.667 253.200,74.400 253.467,74.400 254.000 C 74.400 254.452,74.133 254.800,73.787 254.800 C 73.451 254.800,73.071 255.070,72.945 255.400 C 72.818 255.730,72.562 256.000,72.375 256.000 C 71.811 256.000,70.000 257.996,70.000 258.618 C 70.000 258.938,69.730 259.200,69.400 259.200 C 69.070 259.200,68.800 259.470,68.800 259.800 C 68.800 260.133,68.444 260.400,68.000 260.400 C 67.560 260.400,66.871 260.729,66.469 261.131 C 66.068 261.532,65.438 261.977,65.069 262.118 C 64.647 262.280,64.400 262.823,64.400 263.587 C 64.400 264.671,64.271 264.800,63.187 264.800 C 62.393 264.800,61.890 265.042,61.728 265.500 C 61.369 266.517,59.947 268.000,59.330 268.000 C 59.039 268.000,58.800 268.270,58.800 268.600 C 58.800 268.933,58.444 269.200,58.000 269.200 C 57.467 269.200,57.200 269.467,57.200 270.000 C 57.200 270.533,56.933 270.800,56.400 270.800 C 55.960 270.800,55.600 271.051,55.600 271.357 C 55.600 271.664,55.330 272.018,55.000 272.145 C 54.670 272.271,54.400 272.651,54.400 272.987 C 54.400 273.333,54.052 273.600,53.600 273.600 C 53.160 273.600,52.800 273.849,52.800 274.153 C 52.800 274.458,52.440 274.801,52.000 274.916 C 51.560 275.031,51.200 275.412,51.200 275.763 C 51.200 276.113,50.930 276.400,50.600 276.400 C 50.267 276.400,50.000 276.756,50.000 277.200 C 50.000 277.640,49.739 278.000,49.421 278.000 C 48.716 278.000,46.800 279.715,46.800 280.346 C 46.800 280.596,46.530 280.800,46.200 280.800 C 45.870 280.800,45.600 281.049,45.600 281.353 C 45.600 281.658,45.240 282.001,44.800 282.116 C 44.360 282.231,44.000 282.612,44.000 282.963 C 44.000 283.313,43.730 283.600,43.400 283.600 C 43.067 283.600,42.800 283.956,42.800 284.400 C 42.800 284.933,42.533 285.200,42.000 285.200 C 41.560 285.200,41.200 285.368,41.200 285.573 C 41.200 285.778,40.840 286.060,40.400 286.200 C 39.960 286.340,39.600 286.790,39.600 287.202 C 39.600 287.753,39.258 287.982,38.300 288.075 C 37.157 288.185,36.985 288.357,36.875 289.500 C 36.763 290.653,36.612 290.800,35.537 290.800 C 34.662 290.800,34.267 291.022,34.116 291.600 C 34.001 292.040,33.652 292.400,33.341 292.400 C 33.030 292.400,32.671 292.670,32.545 293.000 C 32.418 293.330,32.064 293.600,31.757 293.600 C 31.451 293.600,31.200 293.960,31.200 294.400 C 31.200 294.933,30.933 295.200,30.400 295.200 C 29.960 295.200,29.600 295.426,29.600 295.702 C 29.600 295.978,28.970 296.730,28.200 297.372 C 27.430 298.014,26.800 298.778,26.800 299.070 C 26.800 299.361,26.524 299.600,26.187 299.600 C 25.851 299.600,25.471 299.870,25.345 300.200 C 25.218 300.530,24.864 300.800,24.557 300.800 C 24.251 300.800,24.000 301.160,24.000 301.600 C 24.000 302.133,23.733 302.400,23.200 302.400 C 22.667 302.400,22.400 302.667,22.400 303.200 C 22.400 303.733,22.133 304.000,21.600 304.000 C 21.156 304.000,20.800 304.267,20.800 304.600 C 20.800 304.930,20.530 305.200,20.200 305.200 C 19.870 305.200,19.600 305.538,19.600 305.950 C 19.600 306.464,19.221 306.776,18.392 306.942 C 17.447 307.131,17.131 307.447,16.942 308.392 C 16.732 309.440,16.527 309.600,15.395 309.600 C 14.219 309.600,14.063 309.740,13.826 311.000 C 13.669 311.838,13.330 312.400,12.982 312.400 C 12.662 312.400,12.400 312.760,12.400 313.200 C 12.400 313.733,12.133 314.000,11.600 314.000 C 11.156 314.000,10.800 314.267,10.800 314.600 C 10.800 314.930,10.530 315.200,10.200 315.200 C 9.870 315.200,9.600 315.520,9.600 315.911 C 9.600 316.302,9.240 316.930,8.800 317.307 C 8.360 317.684,8.000 318.354,8.000 318.796 C 8.000 319.238,7.749 319.600,7.443 319.600 C 6.831 319.600,6.400 320.441,6.400 321.633 C 6.400 322.055,6.130 322.400,5.800 322.400 C 5.470 322.400,5.200 322.739,5.200 323.153 C 5.200 323.570,4.843 324.000,4.400 324.116 C 3.704 324.298,3.600 324.662,3.600 326.916 C 3.600 329.170,3.496 329.534,2.800 329.716 C 2.187 329.876,2.000 330.262,2.000 331.363 C 2.000 332.374,1.822 332.800,1.400 332.800 C 0.981 332.800,0.800 333.222,0.800 334.200 C 0.800 334.970,0.620 335.600,0.400 335.600 C 0.142 335.600,0.000 340.133,0.000 348.400 C 0.000 356.667,0.142 361.200,0.400 361.200 C 0.620 361.200,0.800 362.190,0.800 363.400 C 0.800 365.011,0.949 365.600,1.355 365.600 C 1.671 365.600,2.021 366.189,2.166 366.961 C 2.307 367.710,2.687 368.424,3.011 368.549 C 3.422 368.706,3.600 369.384,3.600 370.784 C 3.600 372.360,3.772 372.901,4.400 373.293 C 4.840 373.568,5.200 374.205,5.200 374.709 C 5.200 375.213,5.470 375.729,5.800 375.855 C 6.130 375.982,6.400 376.302,6.400 376.567 C 6.400 376.832,6.760 377.436,7.200 377.908 C 7.640 378.380,8.000 378.978,8.000 379.237 C 8.000 379.760,9.850 381.600,10.376 381.600 C 10.560 381.600,10.827 382.217,10.968 382.971 C 11.176 384.078,11.454 384.392,12.413 384.603 C 13.402 384.820,13.600 385.060,13.600 386.044 C 13.600 386.804,13.850 387.317,14.300 387.482 C 14.685 387.624,15.144 387.978,15.320 388.270 C 15.496 388.561,15.901 388.800,16.220 388.800 C 16.539 388.800,16.803 389.025,16.807 389.300 C 16.817 390.043,18.511 391.512,19.701 391.811 C 20.274 391.955,20.839 392.326,20.959 392.636 C 21.078 392.946,21.430 393.200,21.741 393.200 C 22.052 393.200,22.401 393.560,22.516 394.000 C 22.631 394.440,23.025 394.800,23.391 394.800 C 23.757 394.800,24.327 395.070,24.657 395.400 C 24.987 395.730,25.604 396.000,26.029 396.000 C 26.453 396.000,27.160 396.360,27.600 396.800 C 28.085 397.285,28.933 397.600,29.753 397.600 C 30.770 397.600,31.159 397.799,31.316 398.400 C 31.466 398.975,31.862 399.200,32.720 399.200 C 33.413 399.200,34.011 399.452,34.145 399.800 C 34.311 400.233,34.990 400.400,36.587 400.400 C 37.804 400.400,38.800 400.580,38.800 400.800 C 38.800 401.059,43.533 401.200,52.200 401.200 C 60.867 401.200,65.600 401.059,65.600 400.800 C 65.600 400.572,66.786 400.400,68.357 400.400 C 70.439 400.400,71.171 400.253,71.345 399.800 C 71.471 399.470,72.032 399.200,72.591 399.200 C 73.150 399.200,73.916 398.840,74.293 398.400 C 74.673 397.956,75.473 397.600,76.089 397.600 C 76.700 397.600,77.560 397.240,78.000 396.800 C 78.440 396.360,79.256 396.000,79.813 396.000 C 80.369 396.000,80.929 395.730,81.055 395.400 C 81.182 395.070,81.614 394.800,82.016 394.800 C 82.417 394.800,82.860 394.440,83.000 394.000 C 83.140 393.560,83.493 393.200,83.784 393.200 C 84.076 393.200,84.418 392.930,84.545 392.600 C 84.671 392.270,85.006 392.000,85.288 392.000 C 85.570 392.000,86.588 391.280,87.551 390.400 C 88.513 389.520,89.439 388.800,89.608 388.800 C 89.776 388.800,90.018 388.530,90.145 388.200 C 90.271 387.870,90.651 387.600,90.987 387.600 C 91.417 387.600,91.600 387.195,91.600 386.245 C 91.600 385.012,91.727 384.865,93.000 384.626 C 93.838 384.469,94.400 384.130,94.400 383.782 C 94.400 383.462,94.760 383.200,95.200 383.200 C 95.733 383.200,96.000 382.933,96.000 382.400 C 96.000 381.960,96.258 381.600,96.573 381.600 C 96.888 381.600,97.255 381.257,97.388 380.837 C 97.521 380.417,97.894 379.973,98.215 379.850 C 98.550 379.721,98.800 379.107,98.800 378.413 C 98.800 377.621,99.001 377.200,99.379 377.200 C 100.084 377.200,102.000 375.485,102.000 374.854 C 102.000 374.604,102.270 374.400,102.600 374.400 C 102.930 374.400,103.200 374.130,103.200 373.800 C 103.200 373.470,103.532 373.200,103.938 373.200 C 104.906 373.200,106.000 371.963,106.000 370.869 C 106.000 370.267,106.246 370.000,106.800 370.000 C 107.240 370.000,107.600 369.751,107.600 369.447 C 107.600 369.142,107.960 368.799,108.400 368.684 C 108.840 368.569,109.200 368.188,109.200 367.837 C 109.200 367.487,109.470 367.200,109.800 367.200 C 110.130 367.200,110.400 366.942,110.400 366.627 C 110.400 366.312,110.760 365.940,111.200 365.800 C 111.640 365.660,112.000 365.307,112.000 365.016 C 112.000 364.724,112.270 364.382,112.600 364.255 C 112.930 364.129,113.200 363.749,113.200 363.413 C 113.200 363.067,113.548 362.800,114.000 362.800 C 114.444 362.800,114.800 362.533,114.800 362.200 C 114.800 361.870,115.051 361.600,115.357 361.600 C 115.963 361.600,116.400 360.761,116.400 359.599 C 116.400 359.109,116.796 358.777,117.587 358.603 C 118.546 358.392,118.824 358.078,119.032 356.971 C 119.178 356.191,119.529 355.600,119.845 355.600 C 120.150 355.600,120.400 355.330,120.400 355.000 C 120.400 354.667,120.756 354.400,121.200 354.400 C 121.733 354.400,122.000 354.133,122.000 353.600 C 122.000 353.067,122.267 352.800,122.800 352.800 C 123.244 352.800,123.600 352.533,123.600 352.200 C 123.600 351.870,123.789 351.600,124.019 351.600 C 124.568 351.600,126.371 349.544,126.387 348.900 C 126.394 348.625,126.670 348.400,127.000 348.400 C 127.330 348.400,127.600 348.130,127.600 347.800 C 127.600 347.467,127.956 347.200,128.400 347.200 C 128.917 347.200,129.200 346.933,129.200 346.447 C 129.200 346.030,129.557 345.600,130.000 345.484 C 130.440 345.369,130.800 344.988,130.800 344.637 C 130.800 344.287,131.070 344.000,131.400 344.000 C 131.730 344.000,132.000 343.751,132.000 343.447 C 132.000 343.142,132.360 342.799,132.800 342.684 C 133.240 342.569,133.600 342.188,133.600 341.837 C 133.600 341.487,133.870 341.200,134.200 341.200 C 134.530 341.200,134.800 340.958,134.800 340.661 C 134.800 339.880,136.188 338.400,136.920 338.400 C 137.264 338.400,137.660 338.040,137.800 337.600 C 137.940 337.160,138.312 336.800,138.627 336.800 C 139.015 336.800,139.200 336.349,139.200 335.400 C 139.200 334.267,139.352 334.000,140.000 334.000 C 140.440 334.000,140.800 333.751,140.800 333.447 C 140.800 333.142,141.160 332.799,141.600 332.684 C 142.040 332.569,142.400 332.188,142.400 331.837 C 142.400 331.487,142.670 331.200,143.000 331.200 C 143.333 331.200,143.600 330.844,143.600 330.400 C 143.600 329.867,143.867 329.600,144.400 329.600 C 144.844 329.600,145.200 329.333,145.200 329.000 C 145.200 328.670,145.470 328.400,145.800 328.400 C 146.133 328.400,146.400 328.044,146.400 327.600 C 146.400 327.067,146.667 326.800,147.200 326.800 C 147.644 326.800,148.000 326.533,148.000 326.200 C 148.000 325.870,148.276 325.600,148.613 325.600 C 148.949 325.600,149.341 325.285,149.482 324.900 C 149.624 324.515,149.978 324.056,150.270 323.880 C 150.561 323.704,150.800 323.299,150.800 322.980 C 150.800 322.661,151.004 322.400,151.254 322.400 C 152.045 322.400,153.600 320.398,153.600 319.379 C 153.600 318.667,153.818 318.400,154.400 318.400 C 154.840 318.400,155.529 318.071,155.931 317.669 C 156.332 317.268,156.962 316.823,157.331 316.682 C 157.699 316.541,158.000 316.189,158.000 315.901 C 158.000 315.613,158.360 315.070,158.800 314.693 C 159.240 314.316,159.600 313.646,159.600 313.204 C 159.600 312.749,159.866 312.400,160.213 312.400 C 160.549 312.400,160.929 312.130,161.055 311.800 C 161.182 311.470,161.536 311.200,161.843 311.200 C 162.149 311.200,162.400 310.840,162.400 310.400 C 162.400 309.867,162.667 309.600,163.200 309.600 C 163.733 309.600,164.000 309.333,164.000 308.800 C 164.000 308.356,164.267 308.000,164.600 308.000 C 164.930 308.000,165.200 307.751,165.200 307.447 C 165.200 307.142,165.560 306.799,166.000 306.684 C 166.440 306.569,166.800 306.188,166.800 305.837 C 166.800 305.487,167.058 305.200,167.373 305.200 C 167.688 305.200,168.060 304.840,168.200 304.400 C 168.340 303.960,168.712 303.600,169.027 303.600 C 169.342 303.600,169.603 303.375,169.607 303.100 C 169.615 302.490,171.342 300.800,171.956 300.800 C 172.200 300.800,172.400 300.170,172.400 299.400 C 172.400 298.267,172.552 298.000,173.200 298.000 C 173.640 298.000,174.360 297.640,174.800 297.200 C 175.240 296.760,175.870 296.400,176.200 296.400 C 176.619 296.400,176.800 295.978,176.800 295.000 C 176.800 293.867,176.952 293.600,177.600 293.600 C 178.044 293.600,178.400 293.333,178.400 293.000 C 178.400 292.670,178.670 292.400,179.000 292.400 C 179.330 292.400,179.600 292.060,179.600 291.645 C 179.600 291.101,179.984 290.817,180.971 290.632 C 182.067 290.426,182.393 290.143,182.595 289.221 C 182.735 288.586,183.108 287.967,183.424 287.846 C 183.741 287.724,184.000 287.349,184.000 287.013 C 184.000 286.667,184.348 286.400,184.800 286.400 C 185.240 286.400,185.600 286.173,185.600 285.896 C 185.600 285.619,185.960 285.168,186.400 284.893 C 186.840 284.618,187.200 284.215,187.200 283.997 C 187.200 283.566,188.646 282.000,189.044 282.000 C 189.480 282.000,191.186 280.212,191.193 279.747 C 191.197 279.497,191.560 279.199,192.000 279.084 C 192.583 278.932,192.800 278.538,192.800 277.637 C 192.800 276.684,192.976 276.400,193.567 276.400 C 194.612 276.400,195.600 275.991,195.600 275.557 C 195.600 275.361,195.960 274.840,196.400 274.400 C 196.840 273.960,197.200 273.240,197.200 272.800 C 197.200 272.360,197.372 272.000,197.582 272.000 C 198.078 272.000,200.000 270.078,200.000 269.582 C 200.000 269.372,200.287 269.200,200.637 269.200 C 200.988 269.200,201.369 268.840,201.484 268.400 C 201.599 267.960,201.942 267.600,202.247 267.600 C 202.551 267.600,202.800 267.330,202.800 267.000 C 202.800 266.670,203.087 266.400,203.437 266.400 C 203.788 266.400,204.169 266.040,204.284 265.600 C 204.399 265.160,204.742 264.800,205.047 264.800 C 205.351 264.800,205.600 264.440,205.600 264.000 C 205.600 263.560,205.851 263.200,206.157 263.200 C 206.464 263.200,206.818 262.930,206.945 262.600 C 207.071 262.270,207.438 262.000,207.760 262.000 C 208.083 262.000,208.460 261.640,208.600 261.200 C 208.740 260.760,209.112 260.400,209.427 260.400 C 209.742 260.400,210.000 260.130,210.000 259.800 C 210.000 259.470,210.360 258.840,210.800 258.400 C 211.240 257.960,211.600 257.240,211.600 256.800 C 211.600 256.356,211.867 256.000,212.200 256.000 C 212.530 256.000,212.800 255.730,212.800 255.400 C 212.800 255.010,213.191 254.800,213.920 254.800 C 215.280 254.800,216.000 254.149,216.000 252.920 C 216.000 252.369,216.241 252.000,216.600 252.000 C 216.933 252.000,217.200 251.644,217.200 251.200 C 217.200 250.692,217.467 250.400,217.930 250.400 C 218.709 250.400,220.400 248.837,220.400 248.117 C 220.400 247.880,220.670 247.582,221.000 247.455 C 221.330 247.329,221.600 246.949,221.600 246.613 C 221.600 246.267,221.948 246.000,222.400 246.000 C 222.840 246.000,223.200 245.749,223.200 245.443 C 223.200 245.136,223.470 244.782,223.800 244.655 C 224.130 244.529,224.400 244.149,224.400 243.813 C 224.400 243.476,224.687 243.200,225.037 243.200 C 225.388 243.200,225.769 242.840,225.884 242.400 C 225.999 241.960,226.342 241.600,226.647 241.600 C 226.951 241.600,227.200 241.330,227.200 241.000 C 227.200 240.670,227.487 240.400,227.837 240.400 C 228.188 240.400,228.565 240.057,228.674 239.637 C 228.784 239.217,229.217 238.784,229.637 238.674 C 230.165 238.536,230.400 238.120,230.400 237.320 C 230.400 236.363,230.622 236.100,231.700 235.783 C 232.703 235.487,233.029 235.149,233.127 234.300 C 233.203 233.635,233.495 233.200,233.864 233.200 C 234.200 233.200,234.569 232.840,234.684 232.400 C 234.799 231.960,235.142 231.600,235.447 231.600 C 235.751 231.600,236.000 231.240,236.000 230.800 C 236.000 230.267,236.267 230.000,236.800 230.000 C 237.244 230.000,237.600 229.733,237.600 229.400 C 237.600 229.070,237.772 228.800,237.982 228.800 C 238.478 228.800,240.400 226.878,240.400 226.382 C 240.400 226.172,240.687 226.000,241.037 226.000 C 241.388 226.000,241.769 225.640,241.884 225.200 C 241.999 224.760,242.342 224.400,242.647 224.400 C 242.951 224.400,243.200 224.040,243.200 223.600 C 243.200 223.067,243.467 222.800,244.000 222.800 C 244.452 222.800,244.800 222.533,244.800 222.187 C 244.800 221.851,245.070 221.471,245.400 221.345 C 245.730 221.218,246.000 220.864,246.000 220.557 C 246.000 220.251,246.360 220.000,246.800 220.000 C 247.240 220.000,247.600 219.742,247.600 219.427 C 247.600 219.112,247.960 218.740,248.400 218.600 C 248.840 218.460,249.200 218.083,249.200 217.760 C 249.200 217.438,249.470 217.071,249.800 216.945 C 250.142 216.813,250.400 216.217,250.400 215.557 C 250.400 214.626,250.575 214.399,251.300 214.394 C 252.566 214.385,253.094 213.960,253.412 212.696 C 253.563 212.093,253.937 211.600,254.243 211.600 C 254.550 211.600,254.800 211.240,254.800 210.800 C 254.800 209.926,255.228 209.835,258.600 209.987 C 259.723 210.038,260.905 210.349,261.296 210.697 C 261.679 211.038,262.939 211.405,264.096 211.513 C 265.265 211.621,266.342 211.951,266.520 212.254 C 266.748 212.643,267.757 212.800,270.020 212.800 C 271.769 212.800,273.200 212.962,273.200 213.161 C 273.200 213.904,275.849 214.400,279.817 214.400 C 283.193 214.400,283.957 214.512,284.158 215.036 C 284.482 215.879,304.418 215.747,304.700 214.900 C 304.819 214.543,306.045 214.400,308.979 214.400 C 312.486 214.400,313.242 214.282,314.109 213.600 C 314.845 213.021,315.732 212.800,317.314 212.800 C 318.771 212.800,319.668 212.600,320.000 212.200 C 320.294 211.846,321.175 211.598,322.149 211.595 C 324.381 211.587,325.600 211.219,325.600 210.553 C 325.600 210.152,326.179 210.000,327.704 210.000 C 329.374 210.000,329.910 209.835,330.307 209.200 C 330.672 208.615,331.240 208.400,332.416 208.400 C 333.477 208.400,334.103 208.196,334.255 207.800 C 334.397 207.430,335.005 207.200,335.843 207.200 C 336.933 207.200,337.200 207.043,337.200 206.400 C 337.200 205.763,337.467 205.600,338.511 205.600 C 339.232 205.600,340.186 205.345,340.631 205.033 C 341.077 204.721,342.107 204.341,342.920 204.189 C 343.783 204.027,344.400 203.679,344.400 203.355 C 344.400 203.050,344.745 202.800,345.167 202.800 C 346.359 202.800,347.200 202.369,347.200 201.757 C 347.200 201.451,347.560 201.200,348.000 201.200 C 348.444 201.200,348.800 200.933,348.800 200.600 C 348.800 200.270,349.145 200.000,349.567 200.000 C 350.759 200.000,351.600 199.569,351.600 198.957 C 351.600 198.630,352.011 198.400,352.597 198.400 C 353.160 198.400,353.810 198.052,354.093 197.600 C 354.368 197.160,354.909 196.800,355.296 196.800 C 355.683 196.800,356.000 196.551,356.000 196.247 C 356.000 195.942,356.360 195.599,356.800 195.484 C 357.240 195.369,357.600 194.988,357.600 194.637 C 357.600 194.287,357.870 194.000,358.200 194.000 C 358.530 194.000,358.800 193.730,358.800 193.400 C 358.800 192.996,359.204 192.800,360.037 192.800 C 360.938 192.800,361.332 192.583,361.484 192.000 C 361.599 191.560,362.001 191.200,362.377 191.200 C 363.115 191.200,364.800 189.617,364.800 188.924 C 364.800 188.691,365.324 188.395,365.964 188.267 C 366.850 188.090,367.192 187.749,367.391 186.843 C 367.586 185.954,367.941 185.589,368.793 185.402 C 369.420 185.264,370.033 184.892,370.154 184.576 C 370.276 184.259,370.651 184.000,370.987 184.000 C 371.324 184.000,371.600 183.736,371.600 183.414 C 371.600 183.092,371.960 182.635,372.400 182.400 C 372.840 182.165,373.200 181.708,373.200 181.386 C 373.200 181.064,373.456 180.800,373.768 180.800 C 374.081 180.800,374.450 180.283,374.589 179.652 C 374.776 178.798,375.169 178.411,376.120 178.139 C 377.175 177.839,377.422 177.549,377.525 176.487 C 377.594 175.779,377.811 175.200,378.007 175.200 C 378.435 175.200,380.400 173.287,380.400 172.871 C 380.400 172.710,380.760 172.270,381.200 171.893 C 381.640 171.516,382.000 170.846,382.000 170.404 C 382.000 169.956,382.266 169.600,382.600 169.600 C 382.930 169.600,383.200 169.283,383.200 168.896 C 383.200 168.509,383.560 167.968,384.000 167.693 C 384.452 167.410,384.800 166.760,384.800 166.197 C 384.800 165.467,385.014 165.200,385.600 165.200 C 386.118 165.200,386.400 164.933,386.400 164.443 C 386.400 164.026,386.670 163.582,387.000 163.455 C 387.408 163.299,387.600 162.660,387.600 161.459 C 387.600 160.030,387.752 159.653,388.400 159.484 C 388.840 159.369,389.200 158.988,389.200 158.637 C 389.200 158.287,389.451 158.000,389.757 158.000 C 390.361 158.000,390.800 157.162,390.800 156.010 C 390.800 155.612,391.070 155.182,391.400 155.055 C 391.823 154.893,392.000 154.232,392.000 152.813 C 392.000 151.067,392.106 150.800,392.800 150.800 C 393.318 150.800,393.600 150.533,393.600 150.043 C 393.600 149.626,393.870 149.182,394.200 149.055 C 394.608 148.899,394.800 148.260,394.800 147.059 C 394.800 145.630,394.952 145.253,395.600 145.084 C 396.213 144.924,396.400 144.538,396.400 143.437 C 396.400 142.484,396.585 142.000,396.950 142.000 C 397.624 142.000,398.000 140.263,398.000 137.150 C 398.000 135.328,398.135 134.800,398.600 134.800 C 399.061 134.800,399.200 134.289,399.200 132.600 C 399.200 131.390,399.380 130.400,399.600 130.400 C 399.861 130.400,400.000 123.667,400.000 111.000 C 400.000 98.333,399.861 91.600,399.600 91.600 C 399.380 91.600,399.200 91.330,399.200 91.000 C 399.200 90.670,398.942 90.400,398.627 90.400 C 398.312 90.400,397.940 90.040,397.800 89.600 C 397.660 89.160,397.281 88.800,396.956 88.800 C 396.632 88.800,395.980 88.440,395.508 88.000 C 394.212 86.792,386.832 86.792,386.516 88.000 C 386.359 88.601,385.970 88.800,384.953 88.800 C 383.867 88.800,383.600 88.958,383.600 89.600 C 383.600 90.133,383.333 90.400,382.800 90.400 C 382.360 90.400,382.000 90.649,382.000 90.953 C 382.000 91.258,381.640 91.601,381.200 91.716 C 380.617 91.868,380.400 92.262,380.400 93.163 C 380.400 94.116,380.224 94.400,379.633 94.400 C 378.441 94.400,377.600 94.831,377.600 95.443 C 377.600 95.749,377.342 96.000,377.027 96.000 C 376.712 96.000,376.340 96.360,376.200 96.800 C 376.060 97.240,375.688 97.600,375.373 97.600 C 375.058 97.600,374.800 97.772,374.800 97.982 C 374.800 98.478,372.878 100.400,372.382 100.400 C 372.172 100.400,372.000 100.670,372.000 101.000 C 372.000 101.330,371.726 101.600,371.390 101.600 C 371.055 101.600,370.609 102.050,370.400 102.600 C 370.191 103.150,369.835 103.600,369.610 103.600 C 369.384 103.600,369.200 103.870,369.200 104.200 C 369.200 104.533,368.844 104.800,368.400 104.800 C 367.956 104.800,367.600 105.067,367.600 105.400 C 367.600 105.730,367.313 106.000,366.963 106.000 C 366.612 106.000,366.231 106.360,366.116 106.800 C 366.001 107.240,365.679 107.600,365.400 107.600 C 365.121 107.600,364.799 107.960,364.684 108.400 C 364.569 108.840,364.188 109.200,363.837 109.200 C 363.487 109.200,363.200 109.470,363.200 109.800 C 363.200 110.130,362.913 110.400,362.563 110.400 C 362.212 110.400,361.831 110.760,361.716 111.200 C 361.601 111.640,361.258 112.000,360.953 112.000 C 360.649 112.000,360.400 112.172,360.400 112.382 C 360.400 112.852,358.490 114.800,358.028 114.800 C 357.844 114.800,357.599 115.160,357.484 115.600 C 357.369 116.040,356.988 116.400,356.637 116.400 C 356.267 116.400,356.000 116.735,356.000 117.200 C 356.000 117.644,355.733 118.000,355.400 118.000 C 355.070 118.000,354.800 118.270,354.800 118.600 C 354.800 118.933,354.444 119.200,354.000 119.200 C 353.556 119.200,353.200 119.467,353.200 119.800 C 353.200 120.130,352.913 120.400,352.563 120.400 C 352.212 120.400,351.831 120.760,351.716 121.200 C 351.601 121.640,351.279 122.000,351.000 122.000 C 350.721 122.000,350.399 122.360,350.284 122.800 C 350.169 123.240,349.788 123.600,349.437 123.600 C 349.087 123.600,348.800 123.870,348.800 124.200 C 348.800 124.530,348.513 124.800,348.163 124.800 C 347.812 124.800,347.431 125.160,347.316 125.600 C 347.201 126.040,346.858 126.400,346.553 126.400 C 346.249 126.400,346.000 126.658,346.000 126.973 C 346.000 127.288,345.640 127.660,345.200 127.800 C 344.760 127.940,344.400 128.312,344.400 128.627 C 344.400 128.942,344.142 129.200,343.827 129.200 C 343.512 129.200,343.140 129.560,343.000 130.000 C 342.860 130.440,342.488 130.800,342.173 130.800 C 341.858 130.800,341.600 130.972,341.600 131.182 C 341.600 131.392,341.142 132.022,340.582 132.582 C 340.022 133.142,339.392 133.600,339.182 133.600 C 338.972 133.600,338.800 133.870,338.800 134.200 C 338.800 134.530,338.524 134.800,338.187 134.800 C 337.851 134.800,337.459 135.115,337.318 135.500 C 337.176 135.885,336.822 136.344,336.530 136.520 C 336.239 136.696,336.000 137.101,336.000 137.420 C 336.000 137.739,335.640 138.000,335.200 138.000 C 334.756 138.000,334.400 138.267,334.400 138.600 C 334.400 138.933,334.044 139.200,333.600 139.200 C 333.067 139.200,332.800 139.467,332.800 140.000 C 332.800 141.163,329.163 141.163,328.000 140.000 C 327.474 139.474,326.667 139.200,325.643 139.200 C 324.628 139.200,324.005 138.991,323.855 138.600 C 323.683 138.151,322.966 138.000,321.013 138.000 C 318.667 138.000,318.400 137.918,318.400 137.200 C 318.400 136.499,318.133 136.400,316.247 136.400 C 314.430 136.400,314.061 136.275,313.884 135.600 C 313.709 134.932,313.338 134.800,311.637 134.800 C 310.093 134.800,309.600 134.655,309.600 134.200 C 309.600 133.741,309.094 133.600,307.447 133.600 C 305.630 133.600,305.261 133.475,305.084 132.800 C 304.910 132.135,304.538 132.000,302.880 132.000 C 301.476 132.000,300.817 131.822,300.655 131.400 C 300.493 130.977,299.832 130.800,298.413 130.800 C 296.959 130.800,296.400 130.645,296.400 130.243 C 296.400 129.510,295.517 129.200,293.429 129.200 C 292.232 129.200,291.508 128.962,291.000 128.400 C 290.486 127.832,289.768 127.600,288.525 127.600 C 287.338 127.600,286.701 127.407,286.545 127.000 C 286.384 126.583,285.733 126.400,284.404 126.400 C 282.830 126.400,282.456 126.259,282.284 125.600 C 282.110 124.935,281.738 124.800,280.080 124.800 C 278.676 124.800,278.017 124.622,277.855 124.200 C 277.729 123.870,277.349 123.600,277.013 123.600 C 276.583 123.600,276.400 123.195,276.400 122.243 C 276.400 121.405,276.170 120.797,275.800 120.655 C 275.444 120.519,275.200 119.917,275.200 119.175 C 275.200 118.284,274.982 117.868,274.441 117.727 C 273.790 117.556,273.660 117.064,273.535 114.295 C 273.439 112.199,273.214 111.005,272.894 110.898 C 272.622 110.807,272.400 110.101,272.400 109.329 C 272.400 108.262,272.208 107.875,271.600 107.716 C 270.942 107.544,270.800 107.170,270.800 105.607 C 270.800 104.314,270.545 103.384,270.000 102.691 C 269.560 102.131,269.200 101.387,269.200 101.037 C 269.200 100.687,268.930 100.400,268.600 100.400 C 268.123 100.400,268.000 99.818,268.000 97.563 C 268.000 95.062,267.905 94.700,267.200 94.516 C 266.504 94.334,266.400 93.970,266.400 91.716 C 266.400 89.462,266.296 89.098,265.600 88.916 C 264.999 88.759,264.800 88.370,264.800 87.353 C 264.800 86.417,264.615 86.000,264.200 86.000 C 263.713 86.000,263.600 85.351,263.600 82.563 C 263.600 79.462,263.522 79.105,262.800 78.916 C 262.199 78.759,262.000 78.370,262.000 77.353 C 262.000 76.473,261.808 76.000,261.451 76.000 C 261.084 76.000,260.838 75.335,260.709 73.996 C 260.603 72.894,260.220 71.665,259.858 71.264 C 259.047 70.367,258.977 68.400,259.757 68.400 C 260.064 68.400,260.418 68.130,260.545 67.800 C 260.671 67.470,261.051 67.200,261.387 67.200 C 261.733 67.200,262.000 66.852,262.000 66.400 C 262.000 65.867,262.267 65.600,262.800 65.600 C 263.333 65.600,263.600 65.333,263.600 64.800 C 263.600 64.356,263.867 64.000,264.200 64.000 C 264.530 64.000,264.800 63.730,264.800 63.400 C 264.800 63.067,265.156 62.800,265.600 62.800 C 266.133 62.800,266.400 62.533,266.400 62.000 C 266.400 61.535,266.667 61.200,267.037 61.200 C 267.388 61.200,267.769 60.840,267.884 60.400 C 267.999 59.960,268.342 59.600,268.647 59.600 C 268.951 59.600,269.200 59.330,269.200 59.000 C 269.200 58.667,269.556 58.400,270.000 58.400 C 270.444 58.400,270.800 58.133,270.800 57.800 C 270.800 57.470,271.087 57.200,271.437 57.200 C 271.788 57.200,272.166 56.852,272.277 56.428 C 272.388 56.003,272.731 55.559,273.039 55.440 C 273.348 55.322,273.600 54.949,273.600 54.613 C 273.600 54.276,273.876 54.000,274.213 54.000 C 274.549 54.000,274.929 53.730,275.055 53.400 C 275.182 53.070,275.536 52.800,275.843 52.800 C 276.149 52.800,276.400 52.440,276.400 52.000 C 276.400 51.467,276.667 51.200,277.200 51.200 C 277.733 51.200,278.000 50.933,278.000 50.400 C 278.000 49.956,278.267 49.600,278.600 49.600 C 278.930 49.600,279.200 49.330,279.200 49.000 C 279.200 48.667,279.556 48.400,280.000 48.400 C 280.533 48.400,280.800 48.133,280.800 47.600 C 280.800 47.067,281.067 46.800,281.600 46.800 C 282.040 46.800,282.400 46.549,282.400 46.243 C 282.400 45.936,282.670 45.582,283.000 45.455 C 283.330 45.329,283.600 44.949,283.600 44.613 C 283.600 44.267,283.948 44.000,284.400 44.000 C 284.933 44.000,285.200 43.733,285.200 43.200 C 285.200 42.760,285.404 42.400,285.654 42.400 C 286.188 42.400,288.000 40.530,288.000 39.979 C 288.000 39.771,288.276 39.600,288.613 39.600 C 288.949 39.600,289.329 39.330,289.455 39.000 C 289.582 38.670,289.936 38.400,290.243 38.400 C 290.549 38.400,290.800 38.040,290.800 37.600 C 290.800 37.067,291.067 36.800,291.600 36.800 C 292.133 36.800,292.400 36.533,292.400 36.000 C 292.400 35.548,292.667 35.200,293.013 35.200 C 293.349 35.200,293.729 34.930,293.855 34.600 C 293.982 34.270,294.336 34.000,294.643 34.000 C 294.949 34.000,295.200 33.640,295.200 33.200 C 295.200 32.667,295.467 32.400,296.000 32.400 C 296.533 32.400,296.800 32.133,296.800 31.600 C 296.800 31.156,297.067 30.800,297.400 30.800 C 297.730 30.800,298.000 30.530,298.000 30.200 C 298.000 29.867,298.356 29.600,298.800 29.600 C 299.333 29.600,299.600 29.333,299.600 28.800 C 299.600 28.267,299.867 28.000,300.400 28.000 C 300.844 28.000,301.200 27.733,301.200 27.400 C 301.200 26.625,302.625 25.200,303.400 25.200 C 303.730 25.200,304.000 25.028,304.000 24.818 C 304.000 24.322,305.922 22.400,306.418 22.400 C 306.628 22.400,306.800 22.040,306.800 21.600 C 306.800 21.148,307.067 20.800,307.413 20.800 C 307.749 20.800,308.129 20.530,308.255 20.200 C 308.382 19.870,308.736 19.600,309.043 19.600 C 309.349 19.600,309.600 19.240,309.600 18.800 C 309.600 18.267,309.867 18.000,310.400 18.000 C 311.048 18.000,311.200 17.733,311.200 16.600 C 311.200 15.670,311.387 15.200,311.757 15.200 C 313.147 15.200,313.381 5.677,312.000 5.316 C 311.410 5.162,311.200 4.770,311.200 3.825 C 311.200 2.480,309.755 0.800,308.597 0.800 C 308.269 0.800,308.000 0.620,308.000 0.400 C 308.000 0.140,302.267 0.000,291.600 0.000 C 280.933 0.000,275.200 0.140,275.200 0.400 M52.655 333.400 C 52.821 333.831,53.494 334.000,55.043 334.000 C 56.933 334.000,57.200 334.099,57.200 334.800 C 57.200 335.448,57.467 335.600,58.600 335.600 C 59.578 335.600,60.000 335.781,60.000 336.200 C 60.000 336.530,60.258 336.800,60.573 336.800 C 60.888 336.800,61.260 337.160,61.400 337.600 C 61.540 338.040,61.912 338.400,62.227 338.400 C 62.542 338.400,62.800 338.687,62.800 339.037 C 62.800 339.388,63.160 339.769,63.600 339.884 C 64.169 340.033,64.400 340.430,64.400 341.259 C 64.400 341.927,64.657 342.524,65.000 342.655 C 65.348 342.789,65.600 343.387,65.600 344.080 C 65.600 344.938,65.825 345.334,66.400 345.484 C 67.309 345.722,67.679 354.800,66.780 354.800 C 66.548 354.800,66.096 355.430,65.774 356.200 C 65.452 356.970,65.012 357.600,64.795 357.600 C 64.578 357.600,64.400 358.070,64.400 358.644 C 64.400 359.735,62.960 361.581,62.100 361.593 C 61.825 361.597,61.594 361.825,61.587 362.100 C 61.564 362.971,60.105 364.400,59.239 364.400 C 58.781 364.400,58.182 364.760,57.907 365.200 C 57.632 365.640,57.014 366.000,56.532 366.000 C 56.051 366.000,55.387 366.270,55.057 366.600 C 54.596 367.061,53.430 367.200,50.016 367.200 C 46.437 367.200,45.530 367.083,45.345 366.600 C 45.205 366.236,44.600 366.000,43.804 366.000 C 42.830 366.000,42.440 365.795,42.284 365.200 C 42.132 364.617,41.738 364.400,40.837 364.400 C 39.993 364.400,39.600 364.206,39.600 363.787 C 39.600 363.451,39.330 363.071,39.000 362.945 C 38.670 362.818,38.400 362.464,38.400 362.157 C 38.400 361.851,38.040 361.600,37.600 361.600 C 37.067 361.600,36.800 361.333,36.800 360.800 C 36.800 360.267,36.533 360.000,36.000 360.000 C 35.361 360.000,35.200 359.733,35.200 358.676 C 35.200 357.949,34.936 357.004,34.613 356.576 C 34.290 356.149,34.020 355.393,34.013 354.896 C 34.006 354.399,33.640 353.684,33.200 353.307 C 32.548 352.749,32.400 352.127,32.400 349.938 C 32.400 347.605,32.505 347.221,33.200 347.000 C 33.789 346.813,34.000 346.395,34.000 345.416 C 34.000 344.602,34.233 343.996,34.600 343.855 C 35.011 343.698,35.200 343.055,35.200 341.813 C 35.200 340.267,35.318 340.000,36.000 340.000 C 36.533 340.000,36.800 339.733,36.800 339.200 C 36.800 338.667,37.067 338.400,37.600 338.400 C 38.133 338.400,38.400 338.133,38.400 337.600 C 38.400 337.156,38.667 336.800,39.000 336.800 C 39.330 336.800,39.600 336.530,39.600 336.200 C 39.600 335.781,40.022 335.600,41.000 335.600 C 41.867 335.600,42.705 335.295,43.200 334.800 C 43.712 334.288,44.539 333.998,45.500 333.994 C 46.325 333.991,47.450 333.739,48.000 333.433 C 49.404 332.654,52.361 332.633,52.655 333.400 " stroke="none" fill="#ffffff" fill-rule="evenodd"></path></g></svg>