<svg id="svg" version="1.1" xmlns="http://www.w3.org/2000/svg" xmlns:xlink="http://www.w3.org/1999/xlink" width="400" height="42.63479018802142" viewBox="0, 0, 400,42.63479018802142"><g id="svgg"><path id="path0" d="M291.917 0.266 C 284.733 2.206,282.829 14.220,289.039 18.433 C 289.430 18.699,289.787 18.955,289.833 19.003 C 291.345 20.585,296.994 20.541,299.750 18.926 C 303.940 16.470,305.547 9.318,302.980 4.551 C 301.003 0.879,296.339 -0.928,291.917 0.266 M341.500 0.321 C 338.782 1.184,336.841 3.096,335.736 6.000 C 334.759 8.567,335.069 13.231,336.377 15.660 C 339.206 20.912,347.452 21.857,351.388 17.380 C 351.884 16.816,353.000 15.093,353.000 14.892 C 353.000 14.842,353.107 14.564,353.238 14.275 C 355.292 9.751,353.212 2.944,349.167 0.951 C 347.112 -0.062,343.612 -0.349,341.500 0.321 M0.000 10.083 L 0.000 19.833 5.625 19.831 C 13.593 19.827,14.631 19.518,15.934 16.757 C 17.298 13.866,16.334 11.048,13.634 10.030 L 12.750 9.697 13.249 9.504 C 17.093 8.016,16.784 2.070,12.789 0.666 C 11.910 0.357,11.413 0.333,5.921 0.333 L 0.000 0.333 0.000 10.083 M48.333 10.083 L 48.333 19.833 55.250 19.833 L 62.167 19.833 62.167 17.417 L 62.167 15.000 58.333 15.000 L 54.500 15.000 54.500 7.667 L 54.500 0.333 51.417 0.333 L 48.333 0.333 48.333 10.083 M93.167 7.325 C 93.167 14.670,93.230 15.470,93.922 16.833 C 96.049 21.028,105.556 21.341,108.267 17.306 C 109.258 15.830,109.333 15.128,109.333 7.341 L 109.333 0.333 106.917 0.333 L 104.500 0.333 104.499 7.042 C 104.499 14.671,104.521 14.537,103.122 15.173 C 101.828 15.760,100.538 15.489,99.816 14.477 L 99.417 13.917 99.471 7.125 L 99.525 0.333 96.346 0.333 L 93.167 0.333 93.167 7.325 M141.833 10.083 L 141.833 19.833 149.333 19.833 L 156.833 19.833 156.833 17.500 L 156.833 15.167 152.333 15.167 L 147.833 15.167 147.833 13.583 L 147.833 12.000 151.417 12.000 L 155.000 12.000 155.000 9.833 L 155.000 7.667 151.417 7.667 L 147.833 7.667 147.833 6.250 L 147.833 4.833 152.333 4.833 L 156.833 4.833 156.833 2.583 L 156.833 0.333 149.333 0.333 L 141.833 0.333 141.833 10.083 M188.333 10.083 L 188.333 19.833 191.500 19.833 L 194.667 19.833 194.667 16.333 L 194.667 12.833 197.125 12.832 C 199.808 12.831,200.995 12.592,202.391 11.774 C 206.242 9.517,206.209 3.536,202.333 1.286 C 200.838 0.418,200.093 0.333,193.965 0.333 L 188.333 0.333 188.333 10.083 M236.833 10.074 L 236.833 19.833 239.917 19.833 L 243.000 19.833 243.000 16.167 L 243.000 12.500 243.875 12.502 L 244.750 12.503 245.658 14.960 C 246.157 16.311,246.663 17.604,246.782 17.833 C 246.901 18.063,246.998 18.377,246.999 18.532 C 247.000 18.687,247.069 18.856,247.154 18.909 C 247.238 18.961,247.357 19.228,247.417 19.502 L 247.526 20.000 250.902 20.000 C 254.409 20.000,254.580 19.976,254.328 19.524 C 254.245 19.373,253.684 18.050,253.081 16.583 C 252.479 15.117,251.919 13.767,251.836 13.583 C 250.811 11.319,250.814 11.488,251.792 10.860 C 255.178 8.687,255.245 3.613,251.917 1.396 C 250.478 0.438,250.434 0.432,243.375 0.372 L 236.833 0.316 236.833 10.074 M385.667 10.170 L 385.667 20.008 388.708 19.962 L 391.750 19.917 391.795 16.292 L 391.840 12.667 395.003 12.667 L 398.167 12.667 398.167 10.333 L 398.167 8.000 395.000 8.000 L 391.833 8.000 391.833 6.583 L 391.833 5.167 395.917 5.167 L 400.000 5.167 400.000 2.750 L 400.000 0.333 392.833 0.333 L 385.667 0.333 385.667 10.170 M297.239 1.315 C 297.337 1.392,297.627 1.504,297.884 1.566 C 299.827 2.030,302.247 4.836,302.788 7.250 C 303.545 10.634,302.587 14.712,300.559 16.730 C 299.398 17.886,299.013 18.126,297.172 18.845 C 293.246 20.378,287.485 17.048,286.773 12.833 C 286.125 9.001,286.896 5.563,288.867 3.500 C 289.634 2.696,290.544 2.000,290.827 2.000 C 290.922 2.000,291.000 1.939,291.000 1.865 C 291.000 1.274,296.558 0.784,297.239 1.315 M347.333 1.453 C 351.885 3.164,353.831 7.945,352.271 13.583 C 350.946 18.372,344.360 20.700,340.073 17.895 C 334.197 14.049,335.340 3.365,341.833 1.444 C 343.483 0.956,346.023 0.960,347.333 1.453 M199.071 1.499 C 204.868 2.097,206.097 8.921,200.821 11.220 C 200.013 11.572,199.635 11.618,197.266 11.654 C 193.303 11.714,193.500 11.501,193.500 15.739 L 193.500 18.833 191.500 18.833 L 189.500 18.833 189.500 10.078 L 189.500 1.323 193.589 1.339 C 195.838 1.348,198.305 1.420,199.071 1.499 M249.967 1.758 C 252.587 2.722,253.867 5.365,252.909 7.833 C 252.606 8.613,251.582 9.833,251.230 9.833 C 251.119 9.833,251.003 9.890,250.972 9.958 C 250.942 10.027,250.692 10.198,250.417 10.339 C 249.550 10.781,249.741 11.985,251.170 15.083 C 251.255 15.267,251.480 15.823,251.671 16.320 C 251.861 16.817,252.163 17.544,252.342 17.936 C 252.521 18.328,252.667 18.690,252.667 18.741 C 252.667 18.792,251.705 18.833,250.530 18.833 L 248.394 18.833 247.613 16.823 C 247.184 15.718,246.833 14.711,246.833 14.587 C 246.833 14.463,246.762 14.336,246.675 14.306 C 246.589 14.275,246.472 13.989,246.417 13.671 C 246.361 13.352,246.256 13.052,246.183 13.004 C 246.111 12.956,246.001 12.709,245.939 12.456 C 245.704 11.498,245.395 11.333,243.833 11.333 C 241.765 11.333,241.833 11.194,241.833 15.419 L 241.833 18.833 239.833 18.833 L 237.833 18.833 237.833 10.068 L 237.833 1.303 243.458 1.368 C 248.522 1.427,249.172 1.466,249.967 1.758 M398.833 2.667 L 398.833 4.000 395.012 4.000 C 390.314 4.000,390.667 3.791,390.667 6.569 C 390.667 8.619,390.858 9.260,391.437 9.154 C 391.518 9.139,392.802 9.136,394.292 9.147 L 397.000 9.167 397.000 10.333 L 397.000 11.500 394.095 11.500 C 390.339 11.500,390.667 11.125,390.667 15.429 L 390.667 18.833 388.750 18.833 L 386.833 18.833 386.833 10.083 L 386.833 1.333 392.833 1.333 L 398.833 1.333 398.833 2.667 M293.981 3.486 C 290.277 4.230,289.592 14.611,293.130 16.391 C 295.791 17.731,298.049 16.068,298.507 12.431 C 299.290 6.204,297.552 2.768,293.981 3.486 M343.678 3.515 C 342.786 3.690,341.638 4.803,341.337 5.784 C 341.231 6.132,341.055 6.597,340.947 6.817 C 340.361 8.008,340.819 14.199,341.562 15.125 C 342.575 16.389,343.828 16.982,345.000 16.754 C 346.117 16.536,346.328 16.451,346.788 16.033 C 349.082 13.947,349.077 6.263,346.779 4.135 C 346.375 3.760,344.996 3.279,344.533 3.352 C 344.469 3.362,344.084 3.435,343.678 3.515 M242.109 3.805 C 241.644 4.318,241.706 8.500,242.185 8.933 C 242.619 9.325,245.993 9.388,247.042 9.024 C 249.360 8.220,249.723 4.869,247.604 3.843 C 246.596 3.355,242.542 3.327,242.109 3.805 M193.870 3.926 C 193.333 4.302,193.291 9.043,193.822 9.327 C 194.251 9.557,197.407 9.547,198.250 9.314 C 200.821 8.603,200.874 4.764,198.325 3.930 C 197.223 3.569,194.383 3.567,193.870 3.926 M9.411 4.737 C 10.222 5.076,10.521 6.064,10.055 6.862 C 9.566 7.699,9.142 7.840,7.250 7.792 L 5.583 7.750 5.534 6.347 C 5.508 5.576,5.524 4.845,5.571 4.722 C 5.692 4.406,8.647 4.418,9.411 4.737 M296.152 4.956 C 297.864 6.201,298.023 13.289,296.377 14.942 C 294.320 17.010,292.219 14.971,292.043 10.734 C 291.845 6.003,293.805 3.248,296.152 4.956 M345.418 4.667 C 347.951 5.630,348.042 14.143,345.532 15.358 C 343.175 16.499,341.917 14.721,341.917 10.250 C 341.917 5.722,343.125 3.795,345.418 4.667 M247.321 5.098 C 248.974 6.490,247.376 8.167,244.396 8.167 L 243.000 8.167 243.000 6.417 L 243.000 4.667 244.904 4.667 C 246.709 4.667,246.834 4.689,247.321 5.098 M198.350 5.214 C 198.854 5.553,198.922 5.688,198.966 6.445 C 199.055 7.961,198.117 8.485,195.292 8.497 L 194.500 8.500 194.500 6.667 L 194.500 4.833 196.142 4.833 C 197.576 4.833,197.856 4.882,198.350 5.214 M9.667 12.212 C 10.368 12.561,10.753 13.558,10.473 14.302 C 10.116 15.251,9.456 15.499,7.292 15.500 L 5.500 15.500 5.500 13.750 L 5.500 12.000 7.375 12.002 C 8.530 12.004,9.410 12.084,9.667 12.212 " stroke="none" fill="#ffffff" fill-rule="evenodd"></path><path id="path1" d="M5.571 4.722 C 5.524 4.845,5.508 5.576,5.534 6.347 L 5.583 7.750 7.250 7.792 C 9.142 7.840,9.566 7.699,10.055 6.862 C 10.521 6.064,10.222 5.076,9.411 4.737 C 8.647 4.418,5.692 4.406,5.571 4.722 M147.833 6.250 L 147.833 7.667 151.417 7.667 L 155.000 7.667 155.000 9.833 L 155.000 12.000 151.417 12.000 L 147.833 12.000 147.833 13.583 L 147.833 15.167 151.400 15.167 L 154.966 15.167 155.087 11.833 L 155.209 8.500 156.021 8.500 L 156.833 8.500 156.833 6.667 L 156.833 4.833 152.333 4.833 L 147.833 4.833 147.833 6.250 M15.500 7.470 C 15.500 7.807,14.260 9.006,13.562 9.343 L 12.792 9.716 13.572 10.012 C 14.001 10.175,14.603 10.500,14.909 10.733 C 15.771 11.390,16.189 10.374,15.926 8.263 C 15.833 7.521,15.500 6.901,15.500 7.470 M99.402 10.417 C 99.401 11.975,99.426 12.635,99.457 11.883 C 99.488 11.131,99.488 9.856,99.458 9.050 C 99.427 8.243,99.402 8.858,99.402 10.417 M5.500 13.750 L 5.500 15.500 7.292 15.500 C 10.073 15.499,11.168 14.635,10.394 13.053 C 9.951 12.149,9.539 12.005,7.375 12.002 L 5.500 12.000 5.500 13.750 M93.233 16.750 C 93.369 21.745,95.759 23.839,101.318 23.831 C 106.893 23.823,109.358 21.498,109.321 16.283 L 109.310 14.583 109.007 15.644 C 108.147 18.651,105.662 20.087,101.333 20.078 C 96.721 20.069,94.221 18.602,93.391 15.417 C 93.187 14.633,93.177 14.713,93.233 16.750 M15.874 16.861 C 14.710 19.480,13.512 19.827,5.620 19.831 L -0.011 19.833 0.036 21.708 L 0.083 23.583 4.333 23.631 C 11.213 23.707,13.547 23.374,14.816 22.133 C 16.040 20.936,16.758 18.752,16.462 17.124 C 16.260 16.006,16.255 16.004,15.874 16.861 M48.370 21.708 L 48.417 23.583 55.250 23.583 L 62.083 23.583 62.130 21.708 L 62.178 19.833 55.250 19.833 L 48.322 19.833 48.370 21.708 M141.870 21.708 L 141.917 23.583 149.240 23.627 C 153.268 23.651,156.615 23.613,156.678 23.543 C 156.742 23.474,156.755 22.610,156.708 21.625 L 156.623 19.833 149.223 19.833 L 141.822 19.833 141.870 21.708 " stroke="none" fill="#00ccff" fill-rule="evenodd"></path><path id="path2" d="M155.089 11.762 C 155.022 13.555,155.012 15.068,155.067 15.123 C 155.122 15.177,155.167 14.572,155.167 13.778 L 155.167 12.333 156.000 12.333 L 156.833 12.333 156.833 10.417 L 156.833 8.500 156.022 8.500 L 155.211 8.500 155.089 11.762 M93.186 20.087 C 93.137 24.773,94.953 26.851,99.667 27.502 C 105.832 28.354,109.363 25.631,109.319 20.059 C 109.305 18.271,109.303 18.260,109.098 19.083 C 108.322 22.218,105.688 23.825,101.318 23.831 C 96.622 23.837,94.084 22.180,93.280 18.583 C 93.239 18.400,93.197 19.077,93.186 20.087 M156.726 21.250 C 156.725 22.075,156.754 22.434,156.788 22.047 C 156.823 21.660,156.824 20.985,156.789 20.547 C 156.755 20.109,156.726 20.425,156.726 21.250 M15.787 20.759 C 14.512 23.277,12.709 23.728,4.292 23.632 L -0.000 23.583 -0.000 25.473 L 0.000 27.362 5.958 27.295 C 13.791 27.207,14.470 27.004,15.899 24.322 C 16.426 23.333,16.684 21.156,16.371 20.335 C 16.217 19.932,16.201 19.944,15.787 20.759 M48.333 25.458 L 48.333 27.333 55.250 27.333 L 62.167 27.333 62.167 25.458 L 62.167 23.583 55.250 23.583 L 48.333 23.583 48.333 25.458 M141.833 25.458 L 141.833 27.333 149.309 27.333 L 156.784 27.333 156.767 25.458 L 156.750 23.583 149.292 23.583 L 141.833 23.583 141.833 25.458 " stroke="none" fill="#00a3ff" fill-rule="evenodd"></path><path id="path3" d="M189.578 10.083 C 189.578 14.942,189.599 16.905,189.625 14.447 C 189.651 11.988,189.651 8.013,189.625 5.613 C 189.599 3.213,189.578 5.225,189.578 10.083 M155.167 13.750 L 155.167 15.167 156.000 15.167 L 156.833 15.167 156.833 13.750 L 156.833 12.333 156.000 12.333 L 155.167 12.333 155.167 13.750 M93.179 23.783 C 93.141 29.152,96.010 31.594,101.992 31.287 C 107.069 31.026,109.142 28.999,109.272 24.167 L 109.329 22.083 109.030 23.083 C 107.197 29.233,95.244 29.262,93.487 23.121 L 93.190 22.083 93.179 23.783 M15.823 24.414 C 14.569 26.964,13.736 27.207,5.958 27.295 L 0.000 27.362 0.000 29.194 L 0.000 31.025 6.125 30.962 C 12.948 30.892,13.356 30.833,14.644 29.731 C 16.017 28.555,16.842 25.919,16.382 24.169 L 16.230 23.587 15.823 24.414 M156.725 25.000 C 156.725 25.779,156.754 26.098,156.789 25.708 C 156.824 25.319,156.824 24.681,156.789 24.292 C 156.754 23.902,156.725 24.221,156.725 25.000 M48.333 29.167 L 48.333 31.000 55.250 31.000 L 62.167 31.000 62.167 29.167 L 62.167 27.333 55.250 27.333 L 48.333 27.333 48.333 29.167 M141.833 29.167 L 141.833 31.000 149.333 31.000 L 156.833 31.000 156.833 29.167 L 156.833 27.333 149.333 27.333 L 141.833 27.333 141.833 29.167 " stroke="none" fill="#007aff" fill-rule="evenodd"></path><path id="path4" d="M93.183 27.500 C 93.149 32.599,95.279 34.719,100.667 34.948 C 106.642 35.202,109.348 32.899,109.319 27.583 L 109.310 25.750 109.020 26.763 C 108.160 29.763,105.550 31.322,101.368 31.330 C 97.004 31.340,94.160 29.645,93.402 26.583 C 93.196 25.755,93.195 25.761,93.183 27.500 M15.774 28.216 C 14.570 30.678,13.849 30.883,6.125 30.962 L 0.000 31.025 -0.000 32.948 L -0.000 34.871 5.792 34.787 C 11.774 34.700,12.691 34.604,13.981 33.930 C 15.732 33.015,16.939 29.957,16.385 27.845 L 16.235 27.274 15.774 28.216 M48.333 32.919 L 48.333 34.837 55.208 34.794 L 62.083 34.750 62.130 32.875 L 62.178 31.000 55.255 31.000 L 48.333 31.000 48.333 32.919 M141.870 32.875 L 141.917 34.750 149.333 34.750 L 156.750 34.750 156.797 32.875 L 156.844 31.000 149.333 31.000 L 141.822 31.000 141.870 32.875 " stroke="none" fill="#0052ff" fill-rule="evenodd"></path><path id="path5" d="M93.222 31.667 C 93.338 36.264,95.065 38.096,99.831 38.675 C 105.919 39.416,109.364 36.751,109.318 31.337 C 109.304 29.633,109.298 29.604,109.095 30.333 C 108.177 33.633,105.407 35.150,100.667 34.948 C 96.524 34.772,94.233 33.364,93.464 30.521 L 93.165 29.417 93.222 31.667 M15.934 31.627 C 14.630 34.410,13.793 34.670,5.792 34.787 L 0.000 34.871 -0.000 36.698 L -0.000 38.526 5.958 38.456 C 13.186 38.372,14.029 38.204,15.186 36.619 C 16.323 35.060,16.751 33.523,16.471 32.000 C 16.262 30.863,16.285 30.879,15.934 31.627 M55.208 34.792 L 48.333 34.837 48.333 36.669 L 48.333 38.500 55.250 38.500 L 62.167 38.500 62.167 36.583 C 62.167 35.529,62.148 34.685,62.125 34.706 C 62.102 34.728,58.990 34.767,55.208 34.792 M141.833 36.625 L 141.833 38.500 149.333 38.500 L 156.833 38.500 156.833 36.625 L 156.833 34.750 149.333 34.750 L 141.833 34.750 141.833 36.625 " stroke="none" fill="#0000ff" fill-rule="evenodd"></path><path id="path6" d="M237.911 10.083 C 237.911 14.942,237.932 16.905,237.958 14.447 C 237.984 11.988,237.984 8.013,237.958 5.613 C 237.932 3.213,237.911 5.225,237.911 10.083 M298.717 9.667 C 298.717 10.171,298.748 10.377,298.786 10.125 C 298.824 9.873,298.824 9.460,298.786 9.208 C 298.748 8.956,298.717 9.162,298.717 9.667 M352.705 9.833 C 352.705 10.154,352.740 10.285,352.782 10.125 C 352.823 9.965,352.823 9.702,352.782 9.542 C 352.740 9.381,352.705 9.512,352.705 9.833 M93.214 35.667 C 93.286 39.502,94.229 40.886,97.617 42.124 C 98.269 42.363,98.971 42.417,101.417 42.417 L 104.417 42.417 105.852 41.715 C 107.134 41.088,107.698 40.628,108.468 39.583 C 109.004 38.855,109.214 37.808,109.271 35.583 L 109.330 33.250 109.032 34.254 C 108.062 37.523,104.497 39.243,99.858 38.679 C 96.112 38.223,94.181 36.868,93.424 34.163 L 93.168 33.250 93.214 35.667 M15.958 35.333 C 14.769 38.093,13.904 38.363,5.958 38.456 L -0.000 38.526 -0.000 40.430 L 0.000 42.333 5.458 42.333 C 13.243 42.333,14.496 42.005,15.818 39.619 C 16.455 38.469,16.740 36.157,16.366 35.167 L 16.209 34.750 15.958 35.333 M48.333 40.417 L 48.333 42.333 55.250 42.333 L 62.167 42.333 62.167 40.417 L 62.167 38.500 55.250 38.500 L 48.333 38.500 48.333 40.417 M141.833 40.417 L 141.833 42.333 149.333 42.333 L 156.833 42.333 156.833 40.417 L 156.833 38.500 149.333 38.500 L 141.833 38.500 141.833 40.417 " stroke="none" fill="#0700c4" fill-rule="evenodd"></path></g></svg>