<svg id="svg" version="1.1" xmlns="http://www.w3.org/2000/svg" xmlns:xlink="http://www.w3.org/1999/xlink" width="400" height="325.15337423312883" viewBox="0, 0, 400,325.15337423312883"><g id="svgg"><path id="path0" d="M0.000 92.583 L 0.000 185.167 45.819 185.167 C 72.488 185.167,91.662 185.105,91.694 185.018 C 91.725 184.936,93.100 184.785,94.750 184.683 C 101.093 184.288,109.820 183.091,115.583 181.826 C 119.844 180.891,120.377 180.763,123.250 179.976 C 126.113 179.192,126.954 178.948,127.500 178.745 C 128.174 178.495,129.525 178.047,130.250 177.834 C 130.525 177.753,131.275 177.490,131.917 177.249 C 132.558 177.008,133.308 176.742,133.583 176.657 C 133.858 176.572,134.308 176.393,134.583 176.259 C 134.858 176.125,135.608 175.816,136.250 175.572 C 136.892 175.328,137.492 175.072,137.583 175.002 C 137.675 174.931,137.938 174.818,138.167 174.750 C 139.664 174.305,146.846 170.608,149.500 168.917 C 153.777 166.191,156.117 164.525,159.000 162.154 C 164.982 157.235,170.224 151.419,174.236 145.250 C 175.717 142.972,175.906 142.670,176.573 141.500 C 176.912 140.904,177.259 140.304,177.344 140.167 C 177.796 139.433,180.833 133.171,180.833 132.973 C 180.833 132.845,180.930 132.593,181.048 132.412 C 181.256 132.093,181.623 131.191,182.352 129.208 C 182.546 128.681,182.797 128.025,182.910 127.750 C 183.118 127.243,184.247 123.644,184.819 121.667 C 186.375 116.285,187.884 107.791,188.265 102.272 C 188.352 101.008,188.413 100.781,188.683 100.711 C 189.122 100.596,189.188 77.000,188.750 77.000 C 188.541 77.000,188.500 76.648,188.500 74.833 C 188.500 73.106,188.454 72.667,188.271 72.667 C 187.962 72.667,187.833 71.921,187.833 70.136 C 187.833 69.302,187.768 68.688,187.684 68.739 C 187.433 68.895,187.333 68.370,187.333 66.887 C 187.333 65.609,187.300 65.460,187.000 65.382 C 186.708 65.305,186.667 65.154,186.667 64.156 C 186.667 63.263,186.606 62.983,186.387 62.860 C 186.185 62.747,186.086 62.407,186.033 61.643 C 185.987 60.987,185.871 60.533,185.729 60.450 C 185.572 60.358,185.500 59.976,185.500 59.226 C 185.500 58.276,185.457 58.124,185.167 58.048 C 184.885 57.975,184.833 57.821,184.833 57.064 C 184.833 56.278,184.792 56.167,184.500 56.167 C 184.207 56.167,184.167 56.056,184.167 55.250 C 184.167 54.546,184.109 54.333,183.917 54.333 C 183.737 54.333,183.667 54.150,183.667 53.680 C 183.667 52.866,183.532 52.500,183.232 52.500 C 183.077 52.500,183.000 52.302,183.000 51.901 C 183.000 51.442,182.922 51.282,182.667 51.215 C 182.390 51.143,182.333 50.988,182.333 50.304 C 182.333 49.851,182.266 49.522,182.184 49.573 C 182.000 49.686,181.833 49.280,181.833 48.721 C 181.833 48.442,181.722 48.273,181.500 48.215 C 181.252 48.150,181.167 47.988,181.167 47.583 C 181.167 47.179,181.081 47.016,180.833 46.952 C 180.578 46.885,180.500 46.724,180.500 46.266 C 180.500 45.844,180.426 45.667,180.250 45.667 C 180.082 45.667,180.000 45.498,180.000 45.151 C 180.000 44.776,179.909 44.612,179.667 44.548 C 179.418 44.483,179.333 44.321,179.333 43.908 C 179.333 43.502,179.245 43.328,179.000 43.250 C 178.754 43.172,178.667 42.998,178.667 42.584 C 178.667 42.184,178.584 42.008,178.375 41.968 C 178.215 41.937,178.084 41.764,178.084 41.581 C 178.083 41.399,177.995 41.267,177.887 41.288 C 177.780 41.308,177.642 41.101,177.582 40.828 C 177.522 40.554,177.329 40.254,177.153 40.159 C 176.948 40.050,176.833 39.811,176.833 39.494 C 176.833 39.162,176.750 39.000,176.578 39.000 C 176.438 39.000,176.274 38.869,176.213 38.708 C 176.153 38.548,176.015 38.342,175.905 38.250 C 175.796 38.158,175.659 37.877,175.600 37.625 C 175.542 37.373,175.383 37.167,175.247 37.167 C 175.020 37.167,174.938 36.991,175.042 36.727 C 175.065 36.669,174.915 36.559,174.708 36.483 C 174.487 36.401,174.333 36.204,174.333 36.004 C 174.333 35.817,174.183 35.535,174.000 35.378 C 173.817 35.221,173.667 34.997,173.667 34.880 C 173.667 34.762,173.554 34.667,173.417 34.667 C 173.191 34.667,173.093 34.469,173.147 34.125 C 173.158 34.056,173.052 34.000,172.911 34.000 C 172.771 34.000,172.608 33.869,172.549 33.708 C 172.489 33.548,172.361 33.363,172.262 33.298 C 172.164 33.232,172.073 33.120,172.061 33.048 C 171.985 32.604,171.771 32.167,171.629 32.167 C 171.388 32.167,170.673 31.452,170.670 31.208 C 170.668 31.094,170.554 31.000,170.417 31.000 C 170.278 31.000,170.167 30.852,170.167 30.667 C 170.167 30.473,170.056 30.333,169.901 30.333 C 169.755 30.333,169.596 30.183,169.548 30.000 C 169.500 29.816,169.321 29.667,169.147 29.667 C 168.944 29.667,168.833 29.549,168.833 29.333 C 168.833 29.148,168.722 29.000,168.583 29.000 C 168.446 29.000,168.333 28.917,168.333 28.815 C 168.333 28.569,167.634 27.840,167.394 27.836 C 167.291 27.835,167.166 27.683,167.118 27.500 C 167.070 27.317,166.920 27.167,166.785 27.167 C 166.650 27.167,166.500 27.017,166.452 26.833 C 166.404 26.650,166.245 26.500,166.099 26.500 C 165.953 26.500,165.833 26.387,165.833 26.250 C 165.833 26.113,165.714 26.000,165.568 26.000 C 165.422 26.000,165.264 25.855,165.218 25.678 C 165.168 25.487,165.039 25.393,164.900 25.446 C 164.759 25.500,164.667 25.428,164.667 25.264 C 164.667 25.114,164.479 24.920,164.250 24.833 C 164.021 24.746,163.833 24.561,163.833 24.421 C 163.833 24.281,163.747 24.167,163.641 24.167 C 163.535 24.167,163.141 23.866,162.766 23.499 C 161.617 22.374,161.564 22.333,161.272 22.333 C 161.117 22.333,160.946 22.221,160.894 22.083 C 160.841 21.946,160.686 21.833,160.550 21.833 C 160.414 21.833,160.263 21.683,160.215 21.500 C 160.167 21.317,160.027 21.167,159.903 21.167 C 159.780 21.167,159.598 21.017,159.500 20.833 C 159.396 20.638,159.151 20.500,158.911 20.500 C 158.657 20.500,158.500 20.405,158.500 20.250 C 158.500 20.107,158.350 20.000,158.151 20.000 C 157.942 20.000,157.767 19.866,157.715 19.667 C 157.667 19.483,157.524 19.333,157.397 19.333 C 157.270 19.333,157.017 19.183,156.833 19.000 C 156.650 18.817,156.391 18.667,156.258 18.667 C 156.125 18.667,155.957 18.571,155.883 18.455 C 155.810 18.338,155.544 18.152,155.292 18.042 C 155.040 17.931,154.833 17.764,154.833 17.670 C 154.833 17.577,154.676 17.500,154.484 17.500 C 154.276 17.500,154.100 17.366,154.048 17.167 C 153.993 16.953,153.821 16.833,153.572 16.833 C 153.358 16.833,153.123 16.739,153.050 16.623 C 152.977 16.507,152.692 16.333,152.417 16.236 C 152.142 16.139,151.935 15.971,151.958 15.863 C 151.981 15.755,151.856 15.667,151.680 15.667 C 151.184 15.667,150.833 15.487,150.833 15.232 C 150.833 15.097,150.663 15.000,150.423 15.000 C 150.198 15.000,149.879 14.857,149.715 14.683 C 149.551 14.508,149.229 14.337,149.000 14.304 C 148.771 14.270,148.600 14.156,148.620 14.052 C 148.641 13.947,148.360 13.811,147.995 13.749 C 147.589 13.681,147.333 13.546,147.333 13.402 C 147.333 13.262,147.164 13.167,146.915 13.167 C 146.685 13.167,146.368 13.017,146.211 12.833 C 146.052 12.647,145.720 12.500,145.458 12.500 C 145.195 12.500,144.947 12.390,144.894 12.250 C 144.839 12.108,144.591 12.000,144.317 12.000 C 144.017 12.000,143.758 11.875,143.628 11.667 C 143.501 11.464,143.239 11.333,142.958 11.333 C 142.703 11.333,142.369 11.184,142.211 11.000 C 142.019 10.776,141.720 10.667,141.296 10.667 C 140.848 10.667,140.667 10.595,140.667 10.417 C 140.667 10.249,140.499 10.167,140.156 10.167 C 139.549 10.167,138.951 9.881,139.089 9.658 C 139.142 9.571,138.976 9.499,138.718 9.498 C 137.995 9.494,137.500 9.318,137.500 9.064 C 137.500 8.898,137.265 8.833,136.667 8.833 C 136.037 8.833,135.833 8.772,135.833 8.583 C 135.833 8.403,135.648 8.333,135.167 8.333 C 134.722 8.333,134.389 8.222,134.167 8.000 C 133.983 7.817,133.627 7.666,133.375 7.664 C 132.661 7.661,132.167 7.483,132.167 7.231 C 132.167 7.060,131.907 7.000,131.167 7.000 C 130.389 7.000,130.167 6.944,130.167 6.750 C 130.167 6.561,129.963 6.500,129.333 6.500 C 128.722 6.500,128.411 6.411,128.167 6.167 C 127.965 5.965,127.611 5.833,127.271 5.833 C 126.375 5.833,125.667 5.644,125.667 5.403 C 125.667 5.243,125.329 5.168,124.458 5.132 C 123.601 5.098,123.262 5.023,123.292 4.875 C 123.321 4.727,123.047 4.667,122.344 4.667 C 121.260 4.667,120.421 4.429,120.583 4.167 C 120.648 4.061,120.239 3.999,119.468 3.998 C 118.028 3.995,117.500 3.879,117.500 3.564 C 117.500 3.384,117.154 3.333,115.917 3.333 C 114.666 3.333,114.333 3.284,114.333 3.099 C 114.333 2.915,113.949 2.851,112.570 2.807 C 111.125 2.760,110.767 2.697,110.593 2.458 C 110.415 2.215,110.093 2.164,108.648 2.150 C 106.805 2.132,106.115 2.020,106.198 1.750 C 106.231 1.646,105.259 1.552,103.619 1.500 C 101.903 1.446,100.946 1.350,100.869 1.225 C 100.788 1.095,99.632 1.012,97.250 0.963 C 93.866 0.894,93.066 0.798,93.261 0.483 C 93.315 0.395,89.913 0.333,85.093 0.333 C 79.698 0.333,76.833 0.276,76.833 0.167 C 76.833 0.056,63.917 0.000,38.417 0.000 L 0.000 0.000 0.000 92.583 M211.000 92.590 L 211.000 185.179 261.125 185.113 C 294.166 185.069,311.506 184.989,312.000 184.877 C 312.412 184.784,312.675 184.698,312.583 184.685 C 311.746 184.567,313.356 184.338,315.033 184.336 C 316.836 184.334,317.173 184.292,317.306 184.055 C 317.433 183.828,317.813 183.762,319.354 183.699 C 320.596 183.647,321.305 183.548,321.415 183.410 C 321.519 183.280,322.148 183.172,323.061 183.129 C 324.218 183.073,324.571 182.997,324.694 182.779 C 324.819 182.555,325.109 182.500,326.167 182.500 C 327.208 182.500,327.515 182.443,327.635 182.229 C 327.745 182.032,328.121 181.935,329.018 181.871 C 329.696 181.822,330.325 181.690,330.417 181.577 C 330.508 181.464,331.058 181.332,331.638 181.284 C 332.282 181.230,332.768 181.100,332.888 180.948 C 333.006 180.799,333.470 180.671,334.057 180.627 C 334.602 180.586,335.090 180.458,335.164 180.337 C 335.238 180.218,335.700 180.084,336.191 180.038 C 336.690 179.991,337.142 179.855,337.217 179.727 C 337.290 179.602,337.627 179.493,337.967 179.483 C 338.788 179.461,339.365 179.288,339.302 179.083 C 339.273 178.992,339.595 178.877,340.017 178.828 C 340.439 178.780,340.913 178.611,341.070 178.453 C 341.255 178.269,341.619 178.167,342.095 178.167 C 342.640 178.167,342.833 178.101,342.833 177.917 C 342.833 177.736,343.019 177.667,343.502 177.667 C 343.964 177.667,344.258 177.564,344.455 177.333 C 344.623 177.138,344.949 176.999,345.245 176.997 C 345.790 176.995,346.205 176.802,346.178 176.565 C 346.169 176.483,346.500 176.394,346.914 176.366 C 347.406 176.333,347.667 176.238,347.667 176.092 C 347.667 175.834,348.027 175.667,348.579 175.667 C 348.791 175.667,349.008 175.554,349.060 175.417 C 349.113 175.279,349.340 175.167,349.564 175.167 C 350.145 175.167,350.500 175.002,350.500 174.732 C 350.500 174.578,350.697 174.500,351.089 174.500 C 351.459 174.500,351.713 174.407,351.773 174.249 C 351.826 174.111,352.160 173.952,352.515 173.895 C 352.870 173.838,353.120 173.726,353.070 173.645 C 352.975 173.492,353.106 173.429,353.875 173.261 C 354.127 173.206,354.333 173.049,354.333 172.913 C 354.333 172.743,354.513 172.667,354.917 172.667 C 355.316 172.667,355.500 172.590,355.500 172.424 C 355.500 172.279,355.734 172.138,356.083 172.072 C 356.417 172.010,356.667 171.864,356.667 171.731 C 356.667 171.604,356.811 171.500,356.986 171.500 C 357.483 171.500,357.833 171.320,357.833 171.066 C 357.833 170.923,358.011 170.833,358.293 170.833 C 358.573 170.833,358.835 170.703,358.961 170.500 C 359.076 170.317,359.321 170.167,359.507 170.167 C 359.692 170.167,359.887 170.054,359.940 169.917 C 359.992 169.779,360.175 169.667,360.345 169.667 C 360.516 169.667,360.735 169.517,360.833 169.333 C 360.937 169.140,361.182 169.000,361.417 169.000 C 361.651 169.000,361.897 168.860,362.000 168.667 C 362.098 168.483,362.326 168.333,362.506 168.333 C 362.686 168.333,362.833 168.254,362.833 168.158 C 362.833 168.062,363.058 167.904,363.333 167.808 C 363.608 167.712,363.833 167.529,363.833 167.400 C 363.833 167.262,364.004 167.167,364.250 167.167 C 364.499 167.167,364.667 167.071,364.667 166.930 C 364.667 166.800,364.892 166.644,365.168 166.583 C 365.444 166.522,365.626 166.402,365.572 166.315 C 365.519 166.229,365.706 166.078,365.987 165.979 C 366.269 165.881,366.500 165.696,366.500 165.567 C 366.500 165.438,366.633 165.333,366.796 165.333 C 366.959 165.333,367.221 165.183,367.378 165.000 C 367.535 164.817,367.777 164.667,367.915 164.667 C 368.053 164.667,368.167 164.559,368.167 164.428 C 368.167 164.297,368.317 164.142,368.500 164.083 C 368.683 164.025,368.833 163.870,368.833 163.739 C 368.833 163.607,368.967 163.500,369.130 163.500 C 369.293 163.500,369.554 163.350,369.711 163.167 C 369.868 162.983,370.110 162.833,370.248 162.833 C 370.387 162.833,370.500 162.726,370.500 162.595 C 370.500 162.463,370.650 162.308,370.833 162.250 C 371.017 162.192,371.167 162.037,371.167 161.905 C 371.167 161.774,371.277 161.667,371.411 161.667 C 371.545 161.667,371.735 161.517,371.833 161.333 C 371.931 161.150,372.122 161.000,372.256 161.000 C 372.390 161.000,372.500 160.885,372.500 160.745 C 372.500 160.604,372.631 160.441,372.792 160.382 C 372.952 160.323,373.143 160.176,373.217 160.054 C 373.290 159.933,373.450 159.833,373.572 159.833 C 373.694 159.833,373.834 159.683,373.882 159.500 C 373.930 159.317,374.088 159.167,374.234 159.167 C 374.380 159.167,374.500 159.054,374.500 158.917 C 374.500 158.779,374.610 158.667,374.744 158.667 C 374.878 158.667,375.066 158.522,375.161 158.345 C 375.255 158.167,375.484 157.975,375.669 157.916 C 375.854 157.857,375.959 157.735,375.902 157.643 C 375.846 157.552,375.957 157.436,376.150 157.386 C 376.342 157.336,376.500 157.223,376.500 157.136 C 376.500 157.049,376.762 156.730,377.083 156.427 C 377.404 156.125,377.667 155.792,377.667 155.689 C 377.667 155.585,377.779 155.500,377.917 155.500 C 378.054 155.500,378.167 155.387,378.167 155.250 C 378.167 155.112,378.279 155.000,378.417 155.000 C 378.554 155.000,378.667 154.855,378.667 154.678 C 378.667 154.501,378.817 154.308,379.000 154.250 C 379.183 154.192,379.333 154.037,379.333 153.905 C 379.333 153.774,379.446 153.667,379.583 153.667 C 379.721 153.667,379.833 153.582,379.833 153.478 C 379.833 153.374,380.096 153.042,380.417 152.739 C 380.738 152.437,381.000 152.109,381.000 152.011 C 381.000 151.913,381.075 151.833,381.167 151.833 C 381.258 151.833,381.333 151.729,381.333 151.601 C 381.333 151.473,381.446 151.326,381.583 151.273 C 381.721 151.220,381.833 151.062,381.833 150.922 C 381.833 150.782,381.946 150.667,382.083 150.667 C 382.222 150.667,382.333 150.519,382.333 150.333 C 382.333 150.148,382.444 150.000,382.583 150.000 C 382.721 150.000,382.833 149.880,382.833 149.734 C 382.833 149.588,382.981 149.430,383.163 149.383 C 383.377 149.327,383.529 149.099,383.598 148.732 C 383.658 148.412,383.804 148.167,383.935 148.167 C 384.063 148.167,384.167 148.017,384.167 147.833 C 384.167 147.650,384.265 147.500,384.386 147.500 C 384.506 147.500,384.707 147.237,384.833 146.917 C 384.959 146.596,385.161 146.333,385.281 146.333 C 385.401 146.333,385.500 146.183,385.500 146.000 C 385.500 145.815,385.611 145.667,385.750 145.667 C 385.889 145.667,386.000 145.519,386.000 145.333 C 386.000 145.150,386.150 144.850,386.333 144.667 C 386.517 144.483,386.667 144.221,386.667 144.083 C 386.667 143.946,386.778 143.833,386.913 143.833 C 387.049 143.833,387.206 143.627,387.261 143.375 C 387.432 142.593,387.492 142.475,387.665 142.583 C 387.758 142.640,387.836 142.551,387.839 142.385 C 387.845 142.017,388.242 141.464,388.391 141.614 C 388.451 141.673,388.500 141.485,388.500 141.194 C 388.500 140.778,388.570 140.667,388.833 140.667 C 389.103 140.667,389.167 140.556,389.167 140.083 C 389.167 139.697,389.245 139.500,389.398 139.500 C 389.529 139.500,389.676 139.255,389.736 138.933 C 389.795 138.621,389.953 138.323,390.088 138.271 C 390.232 138.216,390.333 137.961,390.333 137.656 C 390.333 137.276,390.423 137.112,390.667 137.048 C 390.917 136.983,391.000 136.821,391.000 136.397 C 391.000 136.015,391.078 135.833,391.242 135.833 C 391.389 135.833,391.529 135.596,391.597 135.237 C 391.658 134.909,391.812 134.601,391.938 134.552 C 392.067 134.502,392.167 134.228,392.167 133.919 C 392.167 133.386,392.506 132.895,392.724 133.113 C 392.784 133.173,392.833 132.875,392.833 132.450 C 392.833 131.849,392.907 131.639,393.167 131.500 C 393.386 131.383,393.500 131.151,393.500 130.822 C 393.500 130.532,393.605 130.283,393.750 130.227 C 393.924 130.160,394.000 129.889,394.000 129.335 C 394.000 128.679,394.059 128.524,394.333 128.452 C 394.612 128.379,394.667 128.224,394.667 127.516 C 394.667 126.901,394.731 126.667,394.899 126.667 C 395.197 126.667,395.333 126.301,395.333 125.504 C 395.333 125.093,395.422 124.835,395.583 124.773 C 395.761 124.705,395.833 124.428,395.833 123.823 C 395.833 123.109,395.888 122.954,396.167 122.882 C 396.459 122.805,396.500 122.654,396.500 121.667 C 396.500 120.679,396.541 120.528,396.833 120.452 C 397.127 120.375,397.167 120.224,397.167 119.182 C 397.167 118.242,397.218 118.000,397.417 118.000 C 397.615 118.000,397.667 117.758,397.667 116.822 C 397.667 115.565,397.918 114.768,398.182 115.186 C 398.273 115.330,398.329 114.940,398.331 114.146 C 398.334 112.567,398.474 111.833,398.771 111.833 C 398.951 111.833,399.000 111.447,399.000 110.018 C 399.000 108.558,399.049 108.184,399.250 108.106 C 399.455 108.028,399.500 107.615,399.500 105.839 C 399.500 104.019,399.541 103.667,399.750 103.667 C 399.970 103.667,400.000 102.074,400.000 90.333 C 400.000 78.593,399.970 77.000,399.750 77.000 C 399.541 77.000,399.500 76.648,399.500 74.833 C 399.500 73.019,399.459 72.667,399.250 72.667 C 399.042 72.667,399.000 72.343,399.000 70.750 C 399.000 69.229,398.952 68.833,398.769 68.833 C 398.447 68.833,398.338 68.301,398.336 66.708 C 398.334 65.445,398.306 65.333,398.000 65.333 C 397.696 65.333,397.667 65.222,397.667 64.083 C 397.667 63.083,397.617 62.833,397.417 62.833 C 397.220 62.833,397.167 62.602,397.167 61.751 C 397.167 60.850,397.111 60.635,396.833 60.461 C 396.553 60.287,396.500 60.073,396.500 59.127 C 396.500 58.111,396.467 58.000,396.167 58.000 C 395.874 58.000,395.833 57.889,395.833 57.083 C 395.833 56.380,395.775 56.167,395.583 56.167 C 395.394 56.167,395.333 55.961,395.333 55.318 C 395.333 54.609,395.278 54.454,395.000 54.382 C 394.723 54.309,394.667 54.154,394.667 53.465 C 394.667 52.776,394.610 52.621,394.333 52.548 C 394.082 52.483,394.000 52.321,394.000 51.892 C 394.000 51.540,393.905 51.286,393.750 51.227 C 393.599 51.169,393.500 50.917,393.500 50.591 C 393.500 50.290,393.352 49.881,393.167 49.667 C 392.976 49.447,392.833 49.043,392.833 48.724 C 392.833 48.278,392.767 48.167,392.500 48.167 C 392.230 48.167,392.167 48.056,392.167 47.583 C 392.167 47.200,392.088 47.000,391.938 47.000 C 391.800 47.000,391.667 46.735,391.603 46.333 C 391.534 45.902,391.409 45.667,391.248 45.667 C 391.077 45.667,391.000 45.491,391.000 45.103 C 391.000 44.679,390.917 44.517,390.667 44.452 C 390.425 44.389,390.333 44.224,390.333 43.855 C 390.333 43.516,390.222 43.285,390.000 43.167 C 389.782 43.050,389.667 42.818,389.667 42.494 C 389.667 42.166,389.583 42.000,389.417 42.000 C 389.262 42.000,389.167 41.843,389.167 41.589 C 389.167 41.299,389.096 41.204,388.927 41.269 C 388.756 41.335,388.655 41.193,388.578 40.779 C 388.508 40.405,388.355 40.168,388.151 40.114 C 387.925 40.055,387.833 39.883,387.833 39.516 C 387.833 39.168,387.752 39.000,387.583 39.000 C 387.354 39.000,387.271 38.825,387.375 38.561 C 387.398 38.503,387.259 38.396,387.065 38.325 C 386.853 38.246,386.673 37.991,386.611 37.681 C 386.550 37.376,386.405 37.167,386.254 37.167 C 386.111 37.167,386.000 37.021,386.000 36.833 C 386.000 36.648,385.889 36.500,385.750 36.500 C 385.613 36.500,385.500 36.354,385.500 36.177 C 385.500 35.999,385.424 35.806,385.331 35.748 C 385.237 35.691,385.204 35.574,385.257 35.488 C 385.310 35.403,385.241 35.333,385.104 35.333 C 384.968 35.333,384.808 35.183,384.750 35.000 C 384.692 34.817,384.537 34.667,384.405 34.667 C 384.274 34.667,384.167 34.517,384.167 34.333 C 384.167 34.148,384.056 34.000,383.917 34.000 C 383.779 34.000,383.667 33.891,383.667 33.759 C 383.667 33.626,383.479 33.315,383.250 33.068 C 383.021 32.820,382.833 32.516,382.833 32.392 C 382.833 32.268,382.721 32.167,382.583 32.167 C 382.446 32.167,382.333 32.063,382.333 31.936 C 382.333 31.809,382.183 31.666,382.000 31.618 C 381.817 31.570,381.667 31.412,381.667 31.266 C 381.667 31.120,381.554 31.000,381.417 31.000 C 381.278 31.000,381.167 30.852,381.167 30.667 C 381.167 30.473,381.056 30.333,380.901 30.333 C 380.755 30.333,380.596 30.183,380.548 30.000 C 380.500 29.817,380.357 29.667,380.231 29.667 C 380.104 29.667,380.000 29.557,380.000 29.423 C 380.000 29.288,379.850 29.098,379.667 29.000 C 379.483 28.902,379.333 28.712,379.333 28.577 C 379.333 28.443,379.229 28.333,379.101 28.333 C 378.973 28.333,378.826 28.221,378.773 28.083 C 378.720 27.946,378.562 27.833,378.422 27.833 C 378.282 27.833,378.167 27.753,378.167 27.654 C 378.167 27.421,377.246 26.500,377.013 26.500 C 376.914 26.500,376.833 26.387,376.833 26.250 C 376.833 26.113,376.762 26.000,376.675 26.000 C 376.456 26.000,375.667 25.249,375.667 25.041 C 375.667 24.946,375.479 24.822,375.250 24.765 C 375.021 24.707,374.833 24.549,374.833 24.413 C 374.833 24.278,374.721 24.167,374.583 24.167 C 374.446 24.167,374.333 24.072,374.333 23.956 C 374.333 23.840,374.165 23.669,373.958 23.575 C 373.752 23.481,373.602 23.313,373.625 23.202 C 373.648 23.091,373.553 23.000,373.415 23.000 C 373.277 23.000,373.035 22.850,372.878 22.667 C 372.721 22.483,372.459 22.333,372.296 22.333 C 372.133 22.333,372.000 22.221,372.000 22.083 C 372.000 21.946,371.888 21.833,371.751 21.833 C 371.615 21.833,371.409 21.683,371.295 21.500 C 371.180 21.317,370.995 21.167,370.882 21.167 C 370.770 21.167,370.598 21.017,370.500 20.833 C 370.402 20.650,370.172 20.500,369.989 20.500 C 369.806 20.500,369.613 20.387,369.560 20.250 C 369.508 20.112,369.327 20.000,369.160 20.000 C 368.993 20.000,368.811 19.857,368.755 19.683 C 368.700 19.509,368.470 19.320,368.244 19.263 C 368.018 19.207,367.833 19.049,367.833 18.913 C 367.833 18.761,367.674 18.667,367.417 18.667 C 367.168 18.667,367.000 18.571,367.000 18.430 C 367.000 18.300,366.775 18.144,366.500 18.083 C 366.225 18.023,366.000 17.867,366.000 17.737 C 366.000 17.593,365.830 17.500,365.568 17.500 C 365.276 17.500,365.107 17.392,365.048 17.167 C 364.991 16.949,364.821 16.833,364.559 16.833 C 364.337 16.833,364.116 16.729,364.067 16.602 C 364.019 16.475,363.758 16.327,363.489 16.273 C 363.205 16.216,363.000 16.069,363.000 15.921 C 363.000 15.761,362.846 15.667,362.585 15.667 C 362.350 15.667,362.079 15.522,361.961 15.333 C 361.847 15.150,361.587 15.000,361.385 15.000 C 361.182 15.000,360.950 14.880,360.868 14.734 C 360.786 14.588,360.464 14.413,360.151 14.345 C 359.839 14.277,359.599 14.142,359.619 14.045 C 359.639 13.948,359.391 13.819,359.069 13.758 C 358.746 13.698,358.441 13.540,358.390 13.407 C 358.339 13.275,358.117 13.167,357.897 13.167 C 357.677 13.167,357.368 13.017,357.211 12.833 C 357.052 12.647,356.720 12.500,356.458 12.500 C 356.195 12.500,355.947 12.390,355.894 12.250 C 355.839 12.108,355.591 12.000,355.317 12.000 C 355.017 12.000,354.758 11.875,354.628 11.667 C 354.501 11.464,354.239 11.333,353.958 11.333 C 353.703 11.333,353.369 11.184,353.211 11.000 C 353.019 10.776,352.720 10.667,352.296 10.667 C 351.848 10.667,351.667 10.595,351.667 10.417 C 351.667 10.252,351.502 10.167,351.180 10.167 C 350.526 10.167,350.167 10.013,350.167 9.732 C 350.167 9.591,349.988 9.499,349.708 9.498 C 348.995 9.494,348.500 9.317,348.500 9.064 C 348.500 8.902,348.277 8.833,347.745 8.833 C 347.227 8.833,346.959 8.755,346.894 8.583 C 346.831 8.420,346.572 8.333,346.149 8.333 C 345.722 8.333,345.386 8.219,345.167 8.000 C 344.983 7.817,344.627 7.666,344.375 7.664 C 343.661 7.661,343.167 7.483,343.167 7.231 C 343.167 7.062,342.919 7.000,342.245 7.000 C 341.579 7.000,341.296 6.931,341.227 6.750 C 341.160 6.575,340.887 6.500,340.316 6.500 C 339.722 6.500,339.409 6.409,339.167 6.167 C 338.965 5.965,338.611 5.833,338.271 5.833 C 337.366 5.833,336.667 5.643,336.667 5.396 C 336.667 5.223,336.379 5.167,335.500 5.167 C 334.574 5.167,334.333 5.115,334.333 4.917 C 334.333 4.723,334.112 4.667,333.344 4.667 C 332.260 4.667,331.421 4.429,331.583 4.167 C 331.648 4.062,331.288 4.000,330.614 4.000 C 329.228 4.000,328.500 3.849,328.500 3.562 C 328.500 3.385,328.163 3.333,327.008 3.333 C 325.903 3.333,325.482 3.273,325.383 3.100 C 325.287 2.931,324.794 2.850,323.611 2.808 C 322.333 2.763,321.929 2.690,321.773 2.477 C 321.612 2.256,321.183 2.192,319.523 2.143 C 317.845 2.094,317.436 2.032,317.269 1.804 C 317.097 1.569,316.666 1.517,314.526 1.471 C 312.851 1.435,311.947 1.352,311.869 1.225 C 311.788 1.095,310.632 1.012,308.250 0.963 C 304.866 0.894,304.066 0.798,304.261 0.483 C 304.315 0.395,300.913 0.333,296.093 0.333 C 290.698 0.333,287.833 0.276,287.833 0.167 C 287.833 0.056,274.917 0.000,249.417 0.000 L 211.000 0.000 211.000 92.590 M220.833 207.080 C 216.162 208.226,212.889 211.246,211.508 215.683 C 210.983 217.370,210.960 314.499,211.484 316.126 C 214.527 325.572,226.237 328.037,232.895 320.635 C 234.867 318.443,236.134 314.804,235.913 311.966 C 235.795 310.440,235.701 223.313,235.813 219.412 C 235.869 217.485,235.568 215.660,235.004 214.512 C 233.048 210.528,230.472 208.263,226.732 207.239 C 225.411 206.877,222.031 206.787,220.833 207.080 M227.436 210.597 C 228.743 211.224,229.287 211.603,230.160 212.493 C 231.492 213.853,231.625 214.025,231.761 214.568 C 231.820 214.804,231.936 214.956,232.018 214.906 C 232.100 214.855,232.167 214.888,232.167 214.979 C 232.167 215.070,232.233 215.319,232.313 215.531 C 232.394 215.743,232.456 215.954,232.452 216.000 C 232.447 216.046,232.532 216.249,232.641 216.452 C 232.985 217.096,232.985 217.063,232.992 265.917 C 232.998 313.210,232.987 314.697,232.638 315.118 C 232.542 315.234,232.505 315.440,232.557 315.576 C 232.609 315.712,232.583 315.866,232.498 315.918 C 232.413 315.970,232.173 316.385,231.965 316.840 C 231.756 317.295,231.529 317.667,231.459 317.667 C 231.390 317.667,231.333 317.745,231.333 317.840 C 231.333 318.133,230.618 319.000,230.375 319.000 C 230.250 319.000,230.185 319.062,230.232 319.137 C 230.306 319.257,229.712 319.889,229.505 319.909 C 229.462 319.913,229.255 320.077,229.044 320.272 C 227.552 321.654,224.125 322.388,221.352 321.920 C 220.630 321.798,218.303 320.727,218.194 320.467 C 218.164 320.393,218.033 320.333,217.903 320.333 C 217.773 320.333,217.667 320.258,217.667 320.167 C 217.667 320.075,217.592 320.000,217.500 320.000 C 217.408 320.000,217.052 319.707,216.708 319.348 C 215.006 317.572,214.056 315.635,213.920 313.667 C 213.862 312.821,213.790 219.838,213.848 219.500 C 213.855 219.454,213.891 218.832,213.927 218.118 C 214.237 211.977,221.679 207.834,227.436 210.597 " stroke="none" fill="#ffffff" fill-rule="evenodd"></path><path id="path1" d="M188.438 100.799 C 188.393 100.872,188.310 101.603,188.254 102.424 C 187.883 107.811,186.362 116.332,184.819 121.667 C 184.247 123.644,183.118 127.243,182.910 127.750 C 182.797 128.025,182.546 128.681,182.352 129.208 C 181.623 131.191,181.256 132.093,181.048 132.412 C 180.930 132.593,180.833 132.845,180.833 132.973 C 180.833 133.171,177.796 139.433,177.344 140.167 C 177.259 140.304,176.912 140.904,176.573 141.500 C 175.906 142.670,175.717 142.972,174.236 145.250 C 170.224 151.419,164.982 157.235,159.000 162.154 C 156.117 164.525,153.777 166.191,149.500 168.917 C 147.005 170.507,138.972 174.663,138.385 174.668 C 138.311 174.668,138.026 174.785,137.753 174.928 C 137.480 175.070,136.767 175.373,136.170 175.601 C 135.572 175.829,134.858 176.125,134.583 176.259 C 134.308 176.393,133.858 176.572,133.583 176.657 C 133.308 176.742,132.558 177.008,131.917 177.249 C 131.275 177.490,130.525 177.753,130.250 177.834 C 129.525 178.047,128.174 178.495,127.500 178.745 C 126.954 178.948,126.113 179.192,123.250 179.976 C 120.377 180.763,119.844 180.891,115.583 181.826 C 109.820 183.091,101.093 184.288,94.750 184.683 C 93.100 184.785,91.725 184.936,91.694 185.018 C 91.662 185.105,72.488 185.167,45.819 185.167 L 0.000 185.167 0.000 196.833 L 0.000 208.500 48.064 208.500 C 95.988 208.500,96.128 208.499,96.215 208.167 C 96.298 207.849,96.442 207.833,99.240 207.833 C 101.697 207.833,102.193 207.792,102.273 207.583 C 102.352 207.378,102.771 207.333,104.603 207.333 C 106.630 207.333,106.863 207.303,107.122 207.000 C 107.371 206.710,107.614 206.667,109.011 206.667 C 110.403 206.667,110.655 206.623,110.917 206.333 C 111.179 206.043,111.430 206.000,112.841 206.000 C 114.130 206.000,114.484 205.949,114.560 205.750 C 114.631 205.566,114.922 205.500,115.663 205.500 C 116.464 205.500,116.728 205.432,116.955 205.167 C 117.194 204.887,117.447 204.833,118.511 204.833 C 119.570 204.833,119.832 204.778,120.083 204.500 C 120.318 204.241,120.597 204.167,121.339 204.167 C 121.983 204.167,122.360 204.086,122.500 203.917 C 122.619 203.773,122.983 203.667,123.355 203.667 C 123.797 203.667,124.094 203.561,124.289 203.333 C 124.518 203.066,124.780 203.000,125.615 203.000 C 126.484 203.000,126.684 202.945,126.833 202.667 C 126.970 202.412,127.182 202.333,127.735 202.333 C 128.175 202.333,128.541 202.235,128.667 202.083 C 128.783 201.943,129.146 201.833,129.495 201.833 C 129.903 201.833,130.218 201.720,130.417 201.500 C 130.629 201.265,130.930 201.167,131.437 201.167 C 131.984 201.167,132.197 201.088,132.333 200.833 C 132.469 200.579,132.682 200.500,133.230 200.500 C 133.737 200.500,134.037 200.402,134.250 200.167 C 134.416 199.983,134.730 199.833,134.948 199.833 C 135.166 199.833,135.387 199.721,135.440 199.583 C 135.504 199.416,135.768 199.333,136.242 199.333 C 136.737 199.333,137.039 199.233,137.250 199.000 C 137.416 198.817,137.711 198.667,137.905 198.667 C 138.100 198.667,138.388 198.517,138.545 198.333 C 138.702 198.150,139.010 198.000,139.231 198.000 C 139.451 198.000,139.674 197.887,139.727 197.750 C 139.780 197.612,140.001 197.500,140.219 197.500 C 140.437 197.500,140.751 197.350,140.917 197.167 C 141.083 196.983,141.378 196.833,141.572 196.833 C 141.767 196.833,142.054 196.683,142.211 196.500 C 142.368 196.317,142.677 196.167,142.897 196.167 C 143.117 196.167,143.341 196.054,143.394 195.917 C 143.446 195.779,143.668 195.667,143.886 195.667 C 144.103 195.667,144.417 195.517,144.583 195.333 C 144.749 195.150,145.049 195.000,145.250 195.000 C 145.451 195.000,145.751 194.850,145.917 194.667 C 146.083 194.483,146.386 194.333,146.591 194.333 C 146.796 194.333,147.008 194.221,147.060 194.083 C 147.113 193.946,147.331 193.833,147.544 193.833 C 147.777 193.833,148.192 193.567,148.583 193.167 C 148.974 192.766,149.389 192.500,149.622 192.500 C 149.836 192.500,150.054 192.387,150.106 192.250 C 150.159 192.112,150.379 192.000,150.595 192.000 C 150.831 192.000,151.249 191.735,151.647 191.333 C 152.010 190.967,152.448 190.667,152.621 190.667 C 152.793 190.667,153.189 190.404,153.500 190.083 C 153.811 189.762,154.222 189.500,154.413 189.500 C 154.614 189.500,155.144 189.113,155.667 188.583 C 156.165 188.079,156.712 187.667,156.883 187.667 C 157.054 187.667,157.734 187.111,158.396 186.433 C 159.057 185.754,159.763 185.173,159.964 185.141 C 160.472 185.061,169.167 176.401,169.167 175.975 C 169.167 175.788,169.702 175.123,170.417 174.422 C 171.160 173.693,171.667 173.059,171.667 172.857 C 171.667 172.663,172.057 172.149,172.583 171.652 C 173.131 171.134,173.500 170.643,173.500 170.433 C 173.500 170.239,173.762 169.840,174.083 169.546 C 174.405 169.250,174.667 168.849,174.667 168.650 C 174.667 168.452,174.929 168.042,175.250 167.739 C 175.571 167.437,175.833 167.033,175.833 166.843 C 175.833 166.653,175.983 166.368,176.167 166.211 C 176.350 166.054,176.500 165.767,176.500 165.573 C 176.500 165.377,176.789 164.953,177.153 164.616 C 177.611 164.192,177.780 163.916,177.720 163.687 C 177.664 163.470,177.751 163.300,177.984 163.175 C 178.207 163.056,178.333 162.825,178.333 162.534 C 178.333 162.261,178.466 161.997,178.667 161.872 C 178.850 161.758,179.000 161.494,179.000 161.286 C 179.000 161.078,179.154 160.775,179.343 160.614 C 179.564 160.424,179.650 160.209,179.585 160.004 C 179.516 159.787,179.592 159.629,179.825 159.504 C 180.050 159.384,180.167 159.155,180.167 158.833 C 180.167 158.516,180.283 158.283,180.500 158.167 C 180.756 158.030,180.833 157.818,180.833 157.252 C 180.833 156.747,180.918 156.469,181.104 156.365 C 181.252 156.282,181.397 156.003,181.425 155.745 C 181.454 155.487,181.595 155.210,181.738 155.130 C 181.882 155.049,182.000 154.811,182.000 154.601 C 182.000 154.390,182.150 154.083,182.333 153.917 C 182.564 153.708,182.667 153.403,182.667 152.931 C 182.667 152.415,182.753 152.193,183.019 152.027 C 183.315 151.842,183.355 151.703,183.268 151.156 C 183.181 150.617,183.221 150.469,183.498 150.296 C 183.745 150.141,183.833 149.907,183.833 149.402 C 183.833 148.930,183.936 148.625,184.167 148.417 C 184.402 148.204,184.500 147.903,184.500 147.397 C 184.500 146.842,184.578 146.637,184.843 146.495 C 185.141 146.335,185.180 146.179,185.137 145.310 C 185.096 144.498,185.142 144.277,185.377 144.146 C 185.605 144.018,185.667 143.757,185.667 142.914 C 185.667 142.016,185.720 141.817,186.000 141.667 C 186.280 141.517,186.333 141.318,186.333 140.417 C 186.333 139.507,186.385 139.317,186.675 139.162 C 186.986 138.996,187.014 138.838,186.986 137.378 C 186.962 136.067,187.006 135.741,187.228 135.579 C 187.447 135.419,187.500 135.067,187.500 133.780 C 187.500 132.403,187.546 132.137,187.828 131.874 C 188.118 131.604,188.162 131.306,188.203 129.326 C 188.249 127.143,188.260 127.082,188.625 127.030 L 189.000 126.977 189.000 113.822 C 189.000 100.468,188.977 99.927,188.438 100.799 " stroke="none" fill="#00ccff" fill-rule="evenodd"></path><path id="path2" d="M188.278 127.111 C 188.217 127.172,188.167 128.206,188.167 129.407 C 188.167 131.386,188.135 131.620,187.833 131.878 C 187.543 132.127,187.500 132.370,187.500 133.772 C 187.500 135.066,187.447 135.419,187.228 135.579 C 187.006 135.741,186.962 136.067,186.986 137.378 C 187.014 138.838,186.986 138.996,186.675 139.162 C 186.385 139.317,186.333 139.507,186.333 140.417 C 186.333 141.318,186.280 141.517,186.000 141.667 C 185.720 141.817,185.667 142.016,185.667 142.914 C 185.667 143.757,185.605 144.018,185.377 144.146 C 185.142 144.277,185.096 144.498,185.137 145.310 C 185.180 146.179,185.141 146.335,184.843 146.495 C 184.578 146.637,184.500 146.842,184.500 147.397 C 184.500 147.903,184.402 148.204,184.167 148.417 C 183.936 148.625,183.833 148.930,183.833 149.402 C 183.833 149.907,183.745 150.141,183.498 150.296 C 183.221 150.469,183.181 150.617,183.268 151.156 C 183.355 151.703,183.315 151.842,183.019 152.027 C 182.753 152.193,182.667 152.415,182.667 152.931 C 182.667 153.403,182.564 153.708,182.333 153.917 C 182.150 154.083,182.000 154.390,182.000 154.601 C 182.000 154.811,181.882 155.049,181.738 155.130 C 181.595 155.210,181.454 155.487,181.425 155.745 C 181.397 156.003,181.252 156.282,181.104 156.365 C 180.918 156.469,180.833 156.747,180.833 157.252 C 180.833 157.818,180.756 158.030,180.500 158.167 C 180.283 158.283,180.167 158.516,180.167 158.833 C 180.167 159.155,180.050 159.384,179.825 159.504 C 179.592 159.629,179.516 159.787,179.585 160.004 C 179.650 160.209,179.564 160.424,179.343 160.614 C 179.154 160.775,179.000 161.078,179.000 161.286 C 179.000 161.494,178.850 161.758,178.667 161.872 C 178.466 161.997,178.333 162.261,178.333 162.534 C 178.333 162.825,178.207 163.056,177.984 163.175 C 177.751 163.300,177.664 163.470,177.720 163.687 C 177.780 163.916,177.611 164.192,177.153 164.616 C 176.789 164.953,176.500 165.377,176.500 165.573 C 176.500 165.767,176.350 166.054,176.167 166.211 C 175.983 166.368,175.833 166.653,175.833 166.843 C 175.833 167.033,175.571 167.437,175.250 167.739 C 174.929 168.042,174.667 168.452,174.667 168.650 C 174.667 168.849,174.405 169.250,174.083 169.546 C 173.762 169.840,173.500 170.239,173.500 170.433 C 173.500 170.643,173.131 171.134,172.583 171.652 C 172.057 172.149,171.667 172.663,171.667 172.857 C 171.667 173.059,171.160 173.693,170.417 174.422 C 169.702 175.123,169.167 175.788,169.167 175.975 C 169.167 176.401,160.472 185.061,159.964 185.141 C 159.763 185.173,159.057 185.754,158.396 186.433 C 157.734 187.111,157.054 187.667,156.883 187.667 C 156.712 187.667,156.165 188.079,155.667 188.583 C 155.144 189.113,154.614 189.500,154.413 189.500 C 154.222 189.500,153.811 189.762,153.500 190.083 C 153.189 190.404,152.793 190.667,152.621 190.667 C 152.448 190.667,152.010 190.967,151.647 191.333 C 151.249 191.735,150.831 192.000,150.595 192.000 C 150.379 192.000,150.159 192.112,150.106 192.250 C 150.054 192.387,149.836 192.500,149.622 192.500 C 149.389 192.500,148.974 192.766,148.583 193.167 C 148.192 193.567,147.777 193.833,147.544 193.833 C 147.331 193.833,147.113 193.946,147.060 194.083 C 147.008 194.221,146.796 194.333,146.591 194.333 C 146.386 194.333,146.083 194.483,145.917 194.667 C 145.751 194.850,145.451 195.000,145.250 195.000 C 145.049 195.000,144.749 195.150,144.583 195.333 C 144.417 195.517,144.103 195.667,143.886 195.667 C 143.668 195.667,143.446 195.779,143.394 195.917 C 143.341 196.054,143.117 196.167,142.897 196.167 C 142.677 196.167,142.368 196.317,142.211 196.500 C 142.054 196.683,141.767 196.833,141.572 196.833 C 141.378 196.833,141.083 196.983,140.917 197.167 C 140.751 197.350,140.437 197.500,140.219 197.500 C 140.001 197.500,139.780 197.612,139.727 197.750 C 139.674 197.887,139.451 198.000,139.231 198.000 C 139.010 198.000,138.702 198.150,138.545 198.333 C 138.388 198.517,138.100 198.667,137.905 198.667 C 137.711 198.667,137.416 198.817,137.250 199.000 C 137.039 199.233,136.737 199.333,136.242 199.333 C 135.768 199.333,135.504 199.416,135.440 199.583 C 135.387 199.721,135.166 199.833,134.948 199.833 C 134.730 199.833,134.416 199.983,134.250 200.167 C 134.037 200.402,133.737 200.500,133.230 200.500 C 132.682 200.500,132.469 200.579,132.333 200.833 C 132.197 201.088,131.984 201.167,131.437 201.167 C 130.930 201.167,130.629 201.265,130.417 201.500 C 130.218 201.720,129.903 201.833,129.495 201.833 C 129.146 201.833,128.783 201.943,128.667 202.083 C 128.541 202.235,128.175 202.333,127.735 202.333 C 127.182 202.333,126.970 202.412,126.833 202.667 C 126.684 202.945,126.484 203.000,125.615 203.000 C 124.780 203.000,124.518 203.066,124.289 203.333 C 124.094 203.561,123.797 203.667,123.355 203.667 C 122.983 203.667,122.619 203.773,122.500 203.917 C 122.360 204.086,121.983 204.167,121.339 204.167 C 120.597 204.167,120.318 204.241,120.083 204.500 C 119.832 204.778,119.570 204.833,118.511 204.833 C 117.447 204.833,117.194 204.887,116.955 205.167 C 116.728 205.432,116.464 205.500,115.663 205.500 C 114.922 205.500,114.631 205.566,114.560 205.750 C 114.484 205.949,114.130 206.000,112.841 206.000 C 111.430 206.000,111.179 206.043,110.917 206.333 C 110.655 206.623,110.403 206.667,109.011 206.667 C 107.614 206.667,107.371 206.710,107.122 207.000 C 106.863 207.303,106.630 207.333,104.603 207.333 C 102.771 207.333,102.352 207.378,102.273 207.583 C 102.193 207.792,101.697 207.833,99.240 207.833 C 96.442 207.833,96.298 207.849,96.215 208.167 C 96.128 208.499,95.988 208.500,48.064 208.500 L 0.000 208.500 0.000 220.167 L 0.000 231.833 48.064 231.833 C 95.988 231.833,96.128 231.832,96.215 231.500 C 96.298 231.183,96.442 231.167,99.229 231.167 C 101.984 231.167,102.165 231.147,102.333 230.833 C 102.499 230.525,102.682 230.500,104.821 230.500 C 106.721 230.500,107.148 230.456,107.227 230.250 C 107.303 230.051,107.662 230.000,108.989 230.000 C 110.484 230.000,110.673 229.966,110.833 229.667 C 110.993 229.368,111.182 229.333,112.647 229.333 C 114.070 229.333,114.321 229.290,114.583 229.000 C 114.818 228.741,115.097 228.667,115.839 228.667 C 116.483 228.667,116.860 228.586,117.000 228.417 C 117.152 228.234,117.554 228.167,118.495 228.167 C 119.570 228.167,119.831 228.112,120.083 227.833 C 120.318 227.574,120.597 227.500,121.333 227.500 C 122.070 227.500,122.349 227.426,122.583 227.167 C 122.782 226.947,123.097 226.833,123.505 226.833 C 123.854 226.833,124.217 226.724,124.333 226.583 C 124.474 226.414,124.850 226.333,125.495 226.333 C 126.237 226.333,126.515 226.259,126.750 226.000 C 126.963 225.765,127.263 225.667,127.770 225.667 C 128.318 225.667,128.531 225.588,128.667 225.333 C 128.803 225.079,129.016 225.000,129.569 225.000 C 130.009 225.000,130.374 224.902,130.500 224.750 C 130.619 224.606,130.983 224.500,131.355 224.500 C 131.797 224.500,132.094 224.394,132.289 224.167 C 132.491 223.931,132.780 223.833,133.281 223.833 C 133.818 223.833,134.031 223.753,134.167 223.500 C 134.281 223.286,134.516 223.167,134.821 223.167 C 135.091 223.167,135.339 223.058,135.394 222.917 C 135.459 222.745,135.727 222.667,136.243 222.667 C 136.817 222.667,137.047 222.587,137.205 222.333 C 137.331 222.133,137.594 222.000,137.868 222.000 C 138.151 222.000,138.389 221.875,138.500 221.667 C 138.600 221.479,138.849 221.333,139.069 221.333 C 139.284 221.333,139.553 221.221,139.667 221.083 C 139.781 220.946,140.052 220.833,140.269 220.833 C 140.486 220.833,140.758 220.683,140.872 220.500 C 140.997 220.299,141.261 220.167,141.534 220.167 C 141.818 220.167,142.055 220.041,142.167 219.833 C 142.267 219.646,142.516 219.500,142.735 219.500 C 142.950 219.500,143.219 219.387,143.333 219.250 C 143.447 219.112,143.672 219.000,143.831 219.000 C 143.991 219.000,144.312 218.850,144.545 218.667 C 144.779 218.483,145.124 218.333,145.312 218.333 C 145.501 218.333,145.735 218.183,145.833 218.000 C 145.945 217.792,146.182 217.667,146.466 217.667 C 146.739 217.667,147.003 217.534,147.128 217.333 C 147.242 217.150,147.508 217.000,147.719 217.000 C 147.937 217.000,148.344 216.750,148.667 216.417 C 148.978 216.096,149.388 215.833,149.579 215.833 C 149.770 215.833,150.054 215.683,150.211 215.500 C 150.368 215.317,150.650 215.167,150.837 215.167 C 151.024 215.167,151.407 214.904,151.689 214.583 C 151.983 214.249,152.357 214.000,152.568 214.000 C 152.770 214.000,153.189 213.737,153.500 213.417 C 153.811 213.096,154.207 212.833,154.380 212.833 C 154.554 212.833,155.098 212.421,155.590 211.917 C 156.083 211.412,156.633 211.000,156.813 211.000 C 157.000 211.000,157.674 210.463,158.379 209.750 C 159.060 209.063,159.759 208.500,159.932 208.500 C 160.357 208.500,169.167 199.694,169.167 199.269 C 169.167 199.096,169.729 198.400,170.417 197.723 C 171.129 197.023,171.667 196.353,171.667 196.167 C 171.667 195.987,172.079 195.441,172.583 194.952 C 173.092 194.460,173.500 193.916,173.500 193.732 C 173.500 193.549,173.762 193.144,174.083 192.833 C 174.404 192.522,174.667 192.113,174.667 191.924 C 174.667 191.736,174.929 191.340,175.250 191.046 C 175.618 190.708,175.833 190.357,175.833 190.094 C 175.833 189.849,175.970 189.605,176.167 189.500 C 176.350 189.402,176.500 189.152,176.500 188.945 C 176.500 188.726,176.772 188.302,177.147 187.936 C 177.576 187.517,177.767 187.200,177.714 186.997 C 177.664 186.805,177.765 186.608,177.984 186.472 C 178.200 186.337,178.333 186.080,178.333 185.799 C 178.333 185.516,178.459 185.278,178.667 185.167 C 178.875 185.055,179.000 184.818,179.000 184.534 C 179.000 184.257,179.133 183.997,179.342 183.866 C 179.574 183.722,179.652 183.549,179.583 183.333 C 179.515 183.117,179.593 182.945,179.824 182.800 C 180.034 182.670,180.167 182.410,180.167 182.132 C 180.167 181.849,180.292 181.611,180.500 181.500 C 180.756 181.363,180.833 181.151,180.833 180.586 C 180.833 180.080,180.918 179.803,181.104 179.699 C 181.252 179.615,181.397 179.336,181.425 179.078 C 181.454 178.821,181.595 178.544,181.738 178.463 C 181.882 178.383,182.000 178.145,182.000 177.934 C 182.000 177.724,182.150 177.416,182.333 177.250 C 182.568 177.037,182.667 176.737,182.667 176.230 C 182.667 175.670,182.744 175.470,183.019 175.323 C 183.317 175.164,183.355 175.036,183.267 174.486 C 183.181 173.950,183.221 173.802,183.498 173.629 C 183.749 173.473,183.833 173.240,183.833 172.708 C 183.833 172.203,183.930 171.914,184.167 171.711 C 184.403 171.509,184.500 171.220,184.500 170.719 C 184.500 170.177,184.580 169.969,184.842 169.829 C 185.136 169.671,185.178 169.505,185.147 168.633 C 185.119 167.850,185.173 167.574,185.388 167.417 C 185.596 167.265,185.667 166.954,185.667 166.196 C 185.667 165.349,185.723 165.148,186.000 165.000 C 186.280 164.850,186.333 164.651,186.333 163.750 C 186.333 162.841,186.385 162.651,186.675 162.496 C 186.987 162.328,187.014 162.171,186.987 160.633 C 186.963 159.236,187.004 158.928,187.229 158.802 C 187.451 158.678,187.500 158.350,187.500 156.998 C 187.500 155.516,187.534 155.327,187.833 155.167 C 188.142 155.001,188.167 154.818,188.167 152.664 L 188.167 150.340 188.583 150.235 L 189.000 150.131 189.000 138.565 C 189.000 126.269,189.007 126.382,188.278 127.111 " stroke="none" fill="#00a3ff" fill-rule="evenodd"></path><path id="path3" d="M188.375 150.277 C 188.222 150.339,188.167 150.980,188.167 152.675 C 188.167 154.818,188.142 155.001,187.833 155.167 C 187.534 155.327,187.500 155.516,187.500 156.998 C 187.500 158.350,187.451 158.678,187.229 158.802 C 187.004 158.928,186.963 159.236,186.987 160.633 C 187.014 162.171,186.987 162.328,186.675 162.496 C 186.385 162.651,186.333 162.841,186.333 163.750 C 186.333 164.651,186.280 164.850,186.000 165.000 C 185.723 165.148,185.667 165.349,185.667 166.196 C 185.667 166.954,185.596 167.265,185.388 167.417 C 185.173 167.574,185.119 167.850,185.147 168.633 C 185.178 169.505,185.136 169.671,184.842 169.829 C 184.580 169.969,184.500 170.177,184.500 170.719 C 184.500 171.220,184.403 171.509,184.167 171.711 C 183.930 171.914,183.833 172.203,183.833 172.708 C 183.833 173.240,183.749 173.473,183.498 173.629 C 183.221 173.802,183.181 173.950,183.267 174.486 C 183.355 175.036,183.317 175.164,183.019 175.323 C 182.744 175.470,182.667 175.670,182.667 176.230 C 182.667 176.737,182.568 177.037,182.333 177.250 C 182.150 177.416,182.000 177.724,182.000 177.934 C 182.000 178.145,181.882 178.383,181.738 178.463 C 181.595 178.544,181.454 178.821,181.425 179.078 C 181.397 179.336,181.252 179.615,181.104 179.699 C 180.918 179.803,180.833 180.080,180.833 180.586 C 180.833 181.151,180.756 181.363,180.500 181.500 C 180.292 181.611,180.167 181.849,180.167 182.132 C 180.167 182.410,180.034 182.670,179.824 182.800 C 179.593 182.945,179.515 183.117,179.583 183.333 C 179.652 183.549,179.574 183.722,179.342 183.866 C 179.133 183.997,179.000 184.257,179.000 184.534 C 179.000 184.818,178.875 185.055,178.667 185.167 C 178.459 185.278,178.333 185.516,178.333 185.799 C 178.333 186.080,178.200 186.337,177.984 186.472 C 177.765 186.608,177.664 186.805,177.714 186.997 C 177.767 187.200,177.576 187.517,177.147 187.936 C 176.772 188.302,176.500 188.726,176.500 188.945 C 176.500 189.152,176.350 189.402,176.167 189.500 C 175.970 189.605,175.833 189.849,175.833 190.094 C 175.833 190.357,175.618 190.708,175.250 191.046 C 174.929 191.340,174.667 191.736,174.667 191.924 C 174.667 192.113,174.404 192.522,174.083 192.833 C 173.762 193.144,173.500 193.549,173.500 193.732 C 173.500 193.916,173.092 194.460,172.583 194.952 C 172.079 195.441,171.667 195.987,171.667 196.167 C 171.667 196.353,171.129 197.023,170.417 197.723 C 169.729 198.400,169.167 199.094,169.167 199.267 C 169.167 199.692,160.359 208.500,159.935 208.500 C 159.760 208.500,159.060 209.063,158.379 209.750 C 157.674 210.463,157.000 211.000,156.813 211.000 C 156.633 211.000,156.083 211.412,155.590 211.917 C 155.098 212.421,154.554 212.833,154.380 212.833 C 154.207 212.833,153.811 213.096,153.500 213.417 C 153.189 213.737,152.770 214.000,152.568 214.000 C 152.357 214.000,151.983 214.249,151.689 214.583 C 151.407 214.904,151.024 215.167,150.837 215.167 C 150.650 215.167,150.368 215.317,150.211 215.500 C 150.054 215.683,149.770 215.833,149.579 215.833 C 149.388 215.833,148.978 216.096,148.667 216.417 C 148.344 216.750,147.937 217.000,147.719 217.000 C 147.508 217.000,147.242 217.150,147.128 217.333 C 147.003 217.534,146.739 217.667,146.466 217.667 C 146.182 217.667,145.945 217.792,145.833 218.000 C 145.735 218.183,145.501 218.333,145.312 218.333 C 145.124 218.333,144.779 218.483,144.545 218.667 C 144.312 218.850,143.991 219.000,143.831 219.000 C 143.672 219.000,143.447 219.112,143.333 219.250 C 143.219 219.387,142.950 219.500,142.735 219.500 C 142.516 219.500,142.267 219.646,142.167 219.833 C 142.055 220.041,141.818 220.167,141.534 220.167 C 141.261 220.167,140.997 220.299,140.872 220.500 C 140.758 220.683,140.486 220.833,140.269 220.833 C 140.052 220.833,139.781 220.946,139.667 221.083 C 139.553 221.221,139.284 221.333,139.069 221.333 C 138.849 221.333,138.600 221.479,138.500 221.667 C 138.389 221.875,138.151 222.000,137.868 222.000 C 137.594 222.000,137.331 222.133,137.205 222.333 C 137.047 222.587,136.817 222.667,136.243 222.667 C 135.727 222.667,135.459 222.745,135.394 222.917 C 135.339 223.058,135.091 223.167,134.821 223.167 C 134.516 223.167,134.281 223.286,134.167 223.500 C 134.031 223.753,133.818 223.833,133.281 223.833 C 132.780 223.833,132.491 223.931,132.289 224.167 C 132.094 224.394,131.797 224.500,131.355 224.500 C 130.983 224.500,130.619 224.606,130.500 224.750 C 130.374 224.902,130.009 225.000,129.569 225.000 C 129.016 225.000,128.803 225.079,128.667 225.333 C 128.531 225.588,128.318 225.667,127.770 225.667 C 127.263 225.667,126.963 225.765,126.750 226.000 C 126.515 226.259,126.237 226.333,125.495 226.333 C 124.850 226.333,124.474 226.414,124.333 226.583 C 124.217 226.724,123.854 226.833,123.505 226.833 C 123.097 226.833,122.782 226.947,122.583 227.167 C 122.349 227.426,122.070 227.500,121.333 227.500 C 120.597 227.500,120.318 227.574,120.083 227.833 C 119.831 228.112,119.570 228.167,118.495 228.167 C 117.554 228.167,117.152 228.234,117.000 228.417 C 116.860 228.586,116.483 228.667,115.839 228.667 C 115.097 228.667,114.818 228.741,114.583 229.000 C 114.321 229.290,114.070 229.333,112.647 229.333 C 111.182 229.333,110.993 229.368,110.833 229.667 C 110.673 229.966,110.484 230.000,108.989 230.000 C 107.662 230.000,107.303 230.051,107.227 230.250 C 107.148 230.456,106.721 230.500,104.821 230.500 C 102.682 230.500,102.499 230.525,102.333 230.833 C 102.165 231.147,101.984 231.167,99.229 231.167 C 96.442 231.167,96.298 231.183,96.215 231.500 C 96.128 231.832,95.988 231.833,48.064 231.833 L 0.000 231.833 0.000 243.500 L 0.000 255.167 47.994 255.167 C 95.818 255.167,95.989 255.165,96.167 254.833 C 96.334 254.520,96.516 254.500,99.216 254.500 C 101.906 254.500,102.100 254.479,102.295 254.167 C 102.486 253.860,102.683 253.833,104.731 253.833 C 106.508 253.833,107.001 253.783,107.167 253.583 C 107.324 253.394,107.751 253.333,108.939 253.333 C 110.297 253.333,110.541 253.289,110.789 253.000 C 111.037 252.710,111.280 252.667,112.678 252.667 C 114.070 252.667,114.321 252.623,114.583 252.333 C 114.818 252.074,115.097 252.000,115.839 252.000 C 116.483 252.000,116.860 251.919,117.000 251.750 C 117.150 251.569,117.547 251.500,118.437 251.500 C 119.444 251.500,119.727 251.440,120.000 251.167 C 120.259 250.908,120.556 250.833,121.332 250.833 C 122.150 250.833,122.368 250.773,122.539 250.500 C 122.692 250.255,122.927 250.167,123.431 250.167 C 123.903 250.167,124.208 250.064,124.417 249.833 C 124.651 249.574,124.930 249.500,125.672 249.500 C 126.317 249.500,126.693 249.419,126.833 249.250 C 126.959 249.098,127.325 249.000,127.765 249.000 C 128.318 249.000,128.530 248.921,128.667 248.667 C 128.803 248.412,129.016 248.333,129.563 248.333 C 130.070 248.333,130.371 248.235,130.583 248.000 C 130.782 247.780,131.097 247.667,131.505 247.667 C 131.854 247.667,132.217 247.557,132.333 247.417 C 132.459 247.265,132.825 247.167,133.265 247.167 C 133.818 247.167,134.030 247.088,134.167 246.833 C 134.278 246.625,134.516 246.500,134.799 246.500 C 135.073 246.500,135.336 246.367,135.461 246.167 C 135.620 245.913,135.850 245.833,136.423 245.833 C 136.940 245.833,137.207 245.755,137.273 245.583 C 137.326 245.446,137.568 245.333,137.811 245.333 C 138.073 245.333,138.338 245.197,138.461 245.000 C 138.576 244.817,138.845 244.667,139.059 244.667 C 139.273 244.667,139.584 244.517,139.750 244.333 C 139.916 244.150,140.230 244.000,140.448 244.000 C 140.666 244.000,140.887 243.887,140.940 243.750 C 140.994 243.608,141.242 243.500,141.512 243.500 C 141.818 243.500,142.052 243.381,142.167 243.167 C 142.266 242.981,142.516 242.833,142.730 242.833 C 142.942 242.833,143.251 242.683,143.417 242.500 C 143.583 242.317,143.897 242.167,144.114 242.167 C 144.332 242.167,144.554 242.054,144.606 241.917 C 144.661 241.775,144.909 241.667,145.179 241.667 C 145.484 241.667,145.719 241.547,145.833 241.333 C 145.933 241.148,146.182 241.000,146.397 241.000 C 146.608 241.000,146.917 240.850,147.083 240.667 C 147.249 240.483,147.543 240.333,147.735 240.333 C 147.928 240.333,148.327 240.071,148.621 239.750 C 148.959 239.382,149.310 239.167,149.572 239.167 C 149.818 239.167,150.061 239.030,150.167 238.833 C 150.265 238.650,150.515 238.500,150.723 238.500 C 150.936 238.500,151.348 238.246,151.667 237.917 C 151.978 237.596,152.390 237.333,152.583 237.333 C 152.777 237.333,153.189 237.071,153.500 236.750 C 153.811 236.429,154.196 236.167,154.355 236.167 C 154.514 236.167,155.064 235.754,155.576 235.250 C 156.088 234.746,156.639 234.333,156.800 234.333 C 156.960 234.333,157.650 233.771,158.333 233.083 C 159.061 232.351,159.714 231.833,159.911 231.833 C 160.356 231.833,169.167 223.046,169.167 222.602 C 169.167 222.428,169.729 221.722,170.417 221.035 C 171.104 220.347,171.667 219.643,171.667 219.469 C 171.667 219.295,172.079 218.749,172.583 218.257 C 173.124 217.729,173.500 217.217,173.500 217.009 C 173.500 216.815,173.762 216.427,174.083 216.144 C 174.423 215.846,174.667 215.477,174.667 215.260 C 174.667 215.040,174.935 214.639,175.319 214.283 C 175.778 213.859,175.947 213.582,175.887 213.354 C 175.830 213.137,175.918 212.966,176.151 212.842 C 176.362 212.729,176.500 212.491,176.500 212.239 C 176.500 211.969,176.727 211.614,177.147 211.228 C 177.579 210.831,177.767 210.532,177.714 210.328 C 177.664 210.138,177.766 209.941,177.984 209.805 C 178.200 209.670,178.333 209.413,178.333 209.132 C 178.333 208.849,178.459 208.611,178.667 208.500 C 178.875 208.389,179.000 208.151,179.000 207.868 C 179.000 207.590,179.133 207.330,179.342 207.200 C 179.574 207.055,179.652 206.883,179.583 206.667 C 179.515 206.451,179.593 206.278,179.824 206.134 C 180.034 206.003,180.167 205.743,180.167 205.466 C 180.167 205.182,180.292 204.945,180.500 204.833 C 180.754 204.697,180.833 204.484,180.833 203.937 C 180.833 203.426,180.931 203.130,181.173 202.911 C 181.359 202.743,181.473 202.504,181.426 202.382 C 181.379 202.259,181.489 202.011,181.670 201.830 C 181.852 201.648,182.000 201.315,182.000 201.089 C 182.000 200.849,182.138 200.604,182.333 200.500 C 182.590 200.363,182.667 200.151,182.667 199.583 C 182.667 199.002,182.742 198.805,183.020 198.656 C 183.313 198.499,183.358 198.359,183.287 197.827 C 183.221 197.336,183.275 197.120,183.517 196.901 C 183.734 196.704,183.833 196.390,183.833 195.897 C 183.833 195.349,183.912 195.136,184.167 195.000 C 184.420 194.865,184.500 194.651,184.500 194.115 C 184.500 193.614,184.597 193.324,184.833 193.122 C 185.098 192.895,185.167 192.630,185.167 191.830 C 185.167 191.088,185.233 190.798,185.417 190.727 C 185.603 190.656,185.667 190.359,185.667 189.567 C 185.667 188.683,185.723 188.468,186.000 188.295 C 186.274 188.124,186.333 187.906,186.333 187.080 C 186.333 186.280,186.402 186.016,186.667 185.789 C 186.957 185.540,187.000 185.297,187.000 183.895 C 187.000 182.601,187.053 182.248,187.272 182.088 C 187.494 181.925,187.538 181.599,187.514 180.288 C 187.487 178.835,187.515 178.670,187.821 178.507 C 188.131 178.341,188.161 178.139,188.204 175.955 C 188.249 173.638,188.259 173.582,188.625 173.530 L 189.000 173.477 189.000 161.822 C 189.000 149.775,189.013 150.020,188.375 150.277 M213.705 312.000 C 213.705 312.321,213.740 312.452,213.782 312.292 C 213.823 312.131,213.823 311.869,213.782 311.708 C 213.740 311.548,213.705 311.679,213.705 312.000 " stroke="none" fill="#007aff" fill-rule="evenodd"></path><path id="path4" d="M188.278 173.611 C 188.217 173.672,188.167 174.757,188.167 176.022 C 188.167 178.169,188.144 178.334,187.825 178.504 C 187.514 178.671,187.486 178.829,187.514 180.288 C 187.538 181.599,187.494 181.925,187.272 182.088 C 187.053 182.248,187.000 182.601,187.000 183.895 C 187.000 185.297,186.957 185.540,186.667 185.789 C 186.402 186.016,186.333 186.280,186.333 187.080 C 186.333 187.906,186.274 188.124,186.000 188.295 C 185.723 188.468,185.667 188.683,185.667 189.567 C 185.667 190.359,185.603 190.656,185.417 190.727 C 185.233 190.798,185.167 191.088,185.167 191.830 C 185.167 192.630,185.098 192.895,184.833 193.122 C 184.597 193.324,184.500 193.614,184.500 194.115 C 184.500 194.651,184.420 194.865,184.167 195.000 C 183.912 195.136,183.833 195.349,183.833 195.897 C 183.833 196.390,183.734 196.704,183.517 196.901 C 183.275 197.120,183.221 197.336,183.287 197.827 C 183.358 198.359,183.313 198.499,183.020 198.656 C 182.742 198.805,182.667 199.002,182.667 199.583 C 182.667 200.151,182.590 200.363,182.333 200.500 C 182.138 200.604,182.000 200.849,182.000 201.089 C 182.000 201.315,181.852 201.648,181.670 201.830 C 181.489 202.011,181.379 202.259,181.426 202.382 C 181.473 202.504,181.359 202.743,181.173 202.911 C 180.931 203.130,180.833 203.426,180.833 203.937 C 180.833 204.484,180.754 204.697,180.500 204.833 C 180.292 204.945,180.167 205.182,180.167 205.466 C 180.167 205.743,180.034 206.003,179.824 206.134 C 179.593 206.278,179.515 206.451,179.583 206.667 C 179.652 206.883,179.574 207.055,179.342 207.200 C 179.133 207.330,179.000 207.590,179.000 207.868 C 179.000 208.151,178.875 208.389,178.667 208.500 C 178.459 208.611,178.333 208.849,178.333 209.132 C 178.333 209.413,178.200 209.670,177.984 209.805 C 177.766 209.941,177.664 210.138,177.714 210.328 C 177.767 210.532,177.579 210.831,177.147 211.228 C 176.727 211.614,176.500 211.969,176.500 212.239 C 176.500 212.491,176.362 212.729,176.151 212.842 C 175.918 212.966,175.830 213.137,175.887 213.354 C 175.947 213.582,175.778 213.859,175.319 214.283 C 174.935 214.639,174.667 215.040,174.667 215.260 C 174.667 215.477,174.423 215.846,174.083 216.144 C 173.762 216.427,173.500 216.815,173.500 217.009 C 173.500 217.217,173.124 217.729,172.583 218.257 C 172.079 218.749,171.667 219.295,171.667 219.469 C 171.667 219.643,171.104 220.347,170.417 221.035 C 169.729 221.722,169.167 222.427,169.167 222.600 C 169.167 223.044,160.359 231.833,159.914 231.833 C 159.714 231.833,159.066 232.345,158.333 233.083 C 157.650 233.771,156.960 234.333,156.800 234.333 C 156.639 234.333,156.088 234.746,155.576 235.250 C 155.064 235.754,154.514 236.167,154.355 236.167 C 154.196 236.167,153.811 236.429,153.500 236.750 C 153.189 237.071,152.777 237.333,152.583 237.333 C 152.390 237.333,151.978 237.596,151.667 237.917 C 151.348 238.246,150.936 238.500,150.723 238.500 C 150.515 238.500,150.265 238.650,150.167 238.833 C 150.061 239.030,149.818 239.167,149.572 239.167 C 149.310 239.167,148.959 239.382,148.621 239.750 C 148.327 240.071,147.928 240.333,147.735 240.333 C 147.543 240.333,147.249 240.483,147.083 240.667 C 146.917 240.850,146.608 241.000,146.397 241.000 C 146.182 241.000,145.933 241.148,145.833 241.333 C 145.719 241.547,145.484 241.667,145.179 241.667 C 144.909 241.667,144.661 241.775,144.606 241.917 C 144.554 242.054,144.332 242.167,144.114 242.167 C 143.897 242.167,143.583 242.317,143.417 242.500 C 143.251 242.683,142.942 242.833,142.730 242.833 C 142.516 242.833,142.266 242.981,142.167 243.167 C 142.052 243.381,141.818 243.500,141.512 243.500 C 141.242 243.500,140.994 243.608,140.940 243.750 C 140.887 243.887,140.666 244.000,140.448 244.000 C 140.230 244.000,139.916 244.150,139.750 244.333 C 139.584 244.517,139.273 244.667,139.059 244.667 C 138.845 244.667,138.576 244.817,138.461 245.000 C 138.338 245.197,138.073 245.333,137.811 245.333 C 137.568 245.333,137.326 245.446,137.273 245.583 C 137.207 245.755,136.940 245.833,136.423 245.833 C 135.850 245.833,135.620 245.913,135.461 246.167 C 135.336 246.367,135.073 246.500,134.799 246.500 C 134.516 246.500,134.278 246.625,134.167 246.833 C 134.030 247.088,133.818 247.167,133.265 247.167 C 132.825 247.167,132.459 247.265,132.333 247.417 C 132.217 247.557,131.854 247.667,131.505 247.667 C 131.097 247.667,130.782 247.780,130.583 248.000 C 130.371 248.235,130.070 248.333,129.563 248.333 C 129.016 248.333,128.803 248.412,128.667 248.667 C 128.530 248.921,128.318 249.000,127.765 249.000 C 127.325 249.000,126.959 249.098,126.833 249.250 C 126.693 249.419,126.317 249.500,125.672 249.500 C 124.930 249.500,124.651 249.574,124.417 249.833 C 124.208 250.064,123.903 250.167,123.431 250.167 C 122.927 250.167,122.692 250.255,122.539 250.500 C 122.368 250.773,122.150 250.833,121.332 250.833 C 120.556 250.833,120.259 250.908,120.000 251.167 C 119.727 251.440,119.444 251.500,118.437 251.500 C 117.547 251.500,117.150 251.569,117.000 251.750 C 116.860 251.919,116.483 252.000,115.839 252.000 C 115.097 252.000,114.818 252.074,114.583 252.333 C 114.321 252.623,114.070 252.667,112.678 252.667 C 111.280 252.667,111.037 252.710,110.789 253.000 C 110.541 253.289,110.297 253.333,108.939 253.333 C 107.751 253.333,107.324 253.394,107.167 253.583 C 107.001 253.783,106.508 253.833,104.731 253.833 C 102.683 253.833,102.486 253.860,102.295 254.167 C 102.100 254.479,101.906 254.500,99.216 254.500 C 96.516 254.500,96.334 254.520,96.167 254.833 C 95.989 255.165,95.818 255.167,47.994 255.167 L 0.000 255.167 0.000 266.750 L 0.000 278.333 48.066 278.333 C 90.637 278.333,96.142 278.305,96.227 278.083 C 96.307 277.875,96.789 277.833,99.136 277.833 C 101.737 277.833,101.971 277.808,102.250 277.500 C 102.523 277.199,102.763 277.167,104.750 277.167 C 106.737 277.167,106.977 277.135,107.250 276.833 C 107.512 276.543,107.763 276.500,109.175 276.500 C 110.464 276.500,110.817 276.449,110.894 276.250 C 110.970 276.051,111.329 276.000,112.660 276.000 C 114.150 276.000,114.353 275.964,114.539 275.667 C 114.710 275.393,114.927 275.333,115.753 275.333 C 116.553 275.333,116.818 275.265,117.045 275.000 C 117.285 274.719,117.536 274.667,118.647 274.667 C 119.664 274.667,119.986 274.610,120.060 274.417 C 120.132 274.230,120.430 274.167,121.239 274.167 C 122.151 274.167,122.350 274.114,122.500 273.833 C 122.636 273.579,122.849 273.500,123.397 273.500 C 123.903 273.500,124.204 273.402,124.417 273.167 C 124.651 272.907,124.930 272.833,125.672 272.833 C 126.317 272.833,126.693 272.752,126.833 272.583 C 126.953 272.440,127.316 272.333,127.689 272.333 C 128.130 272.333,128.427 272.227,128.622 272.000 C 128.824 271.764,129.114 271.667,129.615 271.667 C 130.151 271.667,130.365 271.586,130.500 271.333 C 130.636 271.079,130.849 271.000,131.402 271.000 C 131.842 271.000,132.207 270.902,132.333 270.750 C 132.459 270.598,132.825 270.500,133.265 270.500 C 133.818 270.500,134.030 270.421,134.167 270.167 C 134.266 269.981,134.516 269.833,134.730 269.833 C 134.942 269.833,135.251 269.683,135.417 269.500 C 135.628 269.267,135.930 269.167,136.425 269.167 C 136.899 269.167,137.163 269.084,137.227 268.917 C 137.280 268.779,137.501 268.667,137.719 268.667 C 137.937 268.667,138.251 268.517,138.417 268.333 C 138.583 268.150,138.883 268.000,139.083 268.000 C 139.284 268.000,139.584 267.850,139.750 267.667 C 139.916 267.483,140.230 267.333,140.448 267.333 C 140.666 267.333,140.887 267.221,140.940 267.083 C 140.992 266.946,141.204 266.833,141.409 266.833 C 141.614 266.833,141.917 266.683,142.083 266.500 C 142.249 266.317,142.549 266.167,142.750 266.167 C 142.951 266.167,143.251 266.017,143.417 265.833 C 143.583 265.650,143.878 265.500,144.072 265.500 C 144.267 265.500,144.554 265.350,144.711 265.167 C 144.868 264.983,145.138 264.833,145.311 264.833 C 145.484 264.833,145.719 264.721,145.833 264.583 C 145.947 264.446,146.208 264.333,146.411 264.333 C 146.615 264.333,146.917 264.183,147.083 264.000 C 147.249 263.817,147.533 263.667,147.714 263.667 C 147.896 263.667,148.292 263.404,148.594 263.083 C 148.897 262.762,149.288 262.500,149.463 262.500 C 149.638 262.500,149.917 262.350,150.083 262.167 C 150.249 261.983,150.546 261.833,150.743 261.833 C 150.940 261.833,151.356 261.571,151.667 261.250 C 151.978 260.929,152.373 260.667,152.546 260.667 C 152.718 260.667,153.156 260.367,153.520 260.000 C 153.883 259.633,154.328 259.333,154.510 259.333 C 154.694 259.333,155.227 258.927,155.711 258.417 C 156.209 257.892,156.727 257.500,156.920 257.500 C 157.118 257.500,157.740 257.015,158.417 256.333 C 159.053 255.692,159.713 255.167,159.882 255.167 C 160.298 255.167,169.167 246.306,169.167 245.890 C 169.167 245.717,169.729 245.016,170.417 244.333 C 171.118 243.636,171.667 242.949,171.667 242.767 C 171.667 242.589,172.079 242.053,172.583 241.576 C 173.144 241.046,173.500 240.570,173.500 240.350 C 173.500 240.151,173.762 239.749,174.083 239.454 C 174.404 239.160,174.667 238.765,174.667 238.577 C 174.667 238.388,174.958 237.950,175.314 237.602 C 175.742 237.184,175.934 236.867,175.881 236.664 C 175.831 236.471,175.931 236.275,176.150 236.138 C 176.354 236.011,176.500 235.745,176.501 235.502 C 176.501 235.219,176.719 234.899,177.170 234.516 C 177.615 234.138,177.810 233.854,177.751 233.669 C 177.700 233.510,177.807 233.258,177.998 233.085 C 178.182 232.918,178.333 232.608,178.333 232.397 C 178.333 232.182,178.481 231.933,178.667 231.833 C 178.884 231.717,179.000 231.484,179.000 231.167 C 179.000 230.845,179.117 230.616,179.341 230.496 C 179.575 230.371,179.651 230.213,179.582 229.996 C 179.517 229.791,179.602 229.576,179.824 229.386 C 180.013 229.225,180.167 228.924,180.167 228.719 C 180.167 228.513,180.317 228.265,180.500 228.167 C 180.761 228.027,180.833 227.818,180.833 227.201 C 180.833 226.583,180.908 226.367,181.181 226.197 C 181.381 226.072,181.488 225.877,181.434 225.736 C 181.383 225.602,181.489 225.344,181.670 225.163 C 181.852 224.982,182.000 224.648,182.000 224.423 C 182.000 224.182,182.138 223.938,182.333 223.833 C 182.586 223.698,182.667 223.484,182.667 222.948 C 182.667 222.434,182.763 222.158,183.019 221.939 C 183.297 221.701,183.352 221.514,183.278 221.059 C 183.206 220.615,183.260 220.417,183.509 220.204 C 183.736 220.009,183.833 219.713,183.833 219.219 C 183.833 218.682,183.914 218.469,184.167 218.333 C 184.421 218.197,184.500 217.984,184.500 217.437 C 184.500 216.925,184.598 216.630,184.841 216.410 C 185.115 216.162,185.174 215.926,185.144 215.195 C 185.117 214.509,185.176 214.239,185.387 214.084 C 185.595 213.932,185.667 213.623,185.667 212.882 C 185.667 212.097,185.737 211.821,186.000 211.583 C 186.259 211.349,186.333 211.070,186.333 210.333 C 186.333 209.597,186.408 209.318,186.667 209.083 C 186.955 208.822,187.000 208.570,187.000 207.201 C 187.000 205.932,187.054 205.581,187.272 205.421 C 187.494 205.259,187.538 204.933,187.514 203.626 C 187.487 202.195,187.519 202.006,187.820 201.794 C 188.126 201.580,188.161 201.348,188.203 199.238 C 188.249 196.974,188.259 196.915,188.625 196.863 L 189.000 196.810 189.000 185.155 C 189.000 172.762,189.007 172.881,188.278 173.611 " stroke="none" fill="#0052ff" fill-rule="evenodd"></path><path id="path5" d="M188.278 196.944 C 188.217 197.006,188.167 198.075,188.167 199.321 C 188.167 201.424,188.142 201.602,187.825 201.800 C 187.516 201.993,187.486 202.163,187.514 203.618 C 187.538 204.933,187.494 205.259,187.272 205.421 C 187.054 205.581,187.000 205.932,187.000 207.201 C 187.000 208.570,186.955 208.822,186.667 209.083 C 186.408 209.318,186.333 209.597,186.333 210.333 C 186.333 211.070,186.259 211.349,186.000 211.583 C 185.737 211.821,185.667 212.097,185.667 212.882 C 185.667 213.623,185.595 213.932,185.387 214.084 C 185.176 214.239,185.117 214.509,185.144 215.195 C 185.174 215.926,185.115 216.162,184.841 216.410 C 184.598 216.630,184.500 216.925,184.500 217.437 C 184.500 217.984,184.421 218.197,184.167 218.333 C 183.914 218.469,183.833 218.682,183.833 219.219 C 183.833 219.713,183.736 220.009,183.509 220.204 C 183.260 220.417,183.206 220.615,183.278 221.059 C 183.352 221.514,183.297 221.701,183.019 221.939 C 182.763 222.158,182.667 222.434,182.667 222.948 C 182.667 223.484,182.586 223.698,182.333 223.833 C 182.138 223.938,182.000 224.182,182.000 224.423 C 182.000 224.648,181.852 224.982,181.670 225.163 C 181.489 225.344,181.383 225.602,181.434 225.736 C 181.488 225.877,181.381 226.072,181.181 226.197 C 180.908 226.367,180.833 226.583,180.833 227.201 C 180.833 227.818,180.761 228.027,180.500 228.167 C 180.317 228.265,180.167 228.513,180.167 228.719 C 180.167 228.924,180.013 229.225,179.824 229.386 C 179.602 229.576,179.517 229.791,179.582 229.996 C 179.651 230.213,179.575 230.371,179.341 230.496 C 179.117 230.616,179.000 230.845,179.000 231.167 C 179.000 231.484,178.884 231.717,178.667 231.833 C 178.481 231.933,178.333 232.182,178.333 232.397 C 178.333 232.608,178.182 232.918,177.998 233.085 C 177.807 233.258,177.700 233.510,177.751 233.669 C 177.810 233.854,177.615 234.138,177.170 234.516 C 176.719 234.899,176.501 235.219,176.501 235.502 C 176.500 235.745,176.354 236.011,176.150 236.138 C 175.931 236.275,175.831 236.471,175.881 236.664 C 175.934 236.867,175.742 237.184,175.314 237.602 C 174.958 237.950,174.667 238.388,174.667 238.577 C 174.667 238.765,174.404 239.160,174.083 239.454 C 173.762 239.749,173.500 240.151,173.500 240.350 C 173.500 240.570,173.144 241.046,172.583 241.576 C 172.079 242.053,171.667 242.589,171.667 242.767 C 171.667 242.949,171.118 243.636,170.417 244.333 C 169.729 245.016,169.167 245.717,169.167 245.890 C 169.167 246.306,160.298 255.167,159.882 255.167 C 159.713 255.167,159.053 255.692,158.417 256.333 C 157.740 257.015,157.118 257.500,156.920 257.500 C 156.727 257.500,156.209 257.892,155.711 258.417 C 155.227 258.927,154.694 259.333,154.510 259.333 C 154.328 259.333,153.883 259.633,153.520 260.000 C 153.156 260.367,152.718 260.667,152.546 260.667 C 152.373 260.667,151.978 260.929,151.667 261.250 C 151.356 261.571,150.940 261.833,150.743 261.833 C 150.546 261.833,150.249 261.983,150.083 262.167 C 149.917 262.350,149.638 262.500,149.463 262.500 C 149.288 262.500,148.897 262.762,148.594 263.083 C 148.292 263.404,147.896 263.667,147.714 263.667 C 147.533 263.667,147.249 263.817,147.083 264.000 C 146.917 264.183,146.615 264.333,146.411 264.333 C 146.208 264.333,145.947 264.446,145.833 264.583 C 145.719 264.721,145.484 264.833,145.311 264.833 C 145.138 264.833,144.868 264.983,144.711 265.167 C 144.554 265.350,144.267 265.500,144.072 265.500 C 143.878 265.500,143.583 265.650,143.417 265.833 C 143.251 266.017,142.951 266.167,142.750 266.167 C 142.549 266.167,142.249 266.317,142.083 266.500 C 141.917 266.683,141.614 266.833,141.409 266.833 C 141.204 266.833,140.992 266.946,140.940 267.083 C 140.887 267.221,140.666 267.333,140.448 267.333 C 140.230 267.333,139.916 267.483,139.750 267.667 C 139.584 267.850,139.284 268.000,139.083 268.000 C 138.883 268.000,138.583 268.150,138.417 268.333 C 138.251 268.517,137.937 268.667,137.719 268.667 C 137.501 268.667,137.280 268.779,137.227 268.917 C 137.163 269.084,136.899 269.167,136.425 269.167 C 135.930 269.167,135.628 269.267,135.417 269.500 C 135.251 269.683,134.942 269.833,134.730 269.833 C 134.516 269.833,134.266 269.981,134.167 270.167 C 134.030 270.421,133.818 270.500,133.265 270.500 C 132.825 270.500,132.459 270.598,132.333 270.750 C 132.207 270.902,131.842 271.000,131.402 271.000 C 130.849 271.000,130.636 271.079,130.500 271.333 C 130.365 271.586,130.151 271.667,129.615 271.667 C 129.114 271.667,128.824 271.764,128.622 272.000 C 128.427 272.227,128.130 272.333,127.689 272.333 C 127.316 272.333,126.953 272.440,126.833 272.583 C 126.693 272.752,126.317 272.833,125.672 272.833 C 124.930 272.833,124.651 272.907,124.417 273.167 C 124.204 273.402,123.903 273.500,123.397 273.500 C 122.849 273.500,122.636 273.579,122.500 273.833 C 122.350 274.114,122.151 274.167,121.239 274.167 C 120.430 274.167,120.132 274.230,120.060 274.417 C 119.986 274.610,119.664 274.667,118.647 274.667 C 117.536 274.667,117.285 274.719,117.045 275.000 C 116.818 275.265,116.553 275.333,115.753 275.333 C 114.927 275.333,114.710 275.393,114.539 275.667 C 114.353 275.964,114.150 276.000,112.660 276.000 C 111.329 276.000,110.970 276.051,110.894 276.250 C 110.817 276.449,110.464 276.500,109.175 276.500 C 107.763 276.500,107.512 276.543,107.250 276.833 C 106.977 277.135,106.737 277.167,104.750 277.167 C 102.763 277.167,102.523 277.199,102.250 277.500 C 101.971 277.808,101.737 277.833,99.136 277.833 C 96.789 277.833,96.307 277.875,96.227 278.083 C 96.142 278.305,90.637 278.333,48.066 278.333 L 0.000 278.333 0.000 290.000 L 0.000 301.667 48.083 301.667 C 90.713 301.667,96.167 301.638,96.167 301.417 C 96.167 301.204,96.599 301.167,99.058 301.167 C 101.737 301.167,101.970 301.142,102.250 300.833 C 102.523 300.532,102.763 300.500,104.770 300.500 C 106.818 300.500,107.002 300.474,107.167 300.167 C 107.327 299.868,107.516 299.833,108.985 299.833 C 110.240 299.833,110.675 299.775,110.833 299.583 C 110.991 299.394,111.418 299.333,112.605 299.333 C 113.964 299.333,114.208 299.289,114.455 299.000 C 114.684 298.733,114.947 298.667,115.781 298.667 C 116.651 298.667,116.851 298.612,117.000 298.333 C 117.156 298.041,117.349 298.000,118.549 298.000 C 119.739 298.000,119.947 297.956,120.128 297.667 C 120.301 297.390,120.517 297.333,121.400 297.333 C 122.192 297.333,122.489 297.269,122.560 297.083 C 122.626 296.912,122.894 296.833,123.410 296.833 C 123.983 296.833,124.214 296.754,124.372 296.500 C 124.543 296.226,124.761 296.167,125.586 296.167 C 126.386 296.167,126.651 296.098,126.878 295.833 C 127.073 295.606,127.370 295.500,127.811 295.500 C 128.184 295.500,128.547 295.394,128.667 295.250 C 128.793 295.098,129.158 295.000,129.598 295.000 C 130.151 295.000,130.364 294.921,130.500 294.667 C 130.636 294.412,130.849 294.333,131.397 294.333 C 131.903 294.333,132.204 294.235,132.417 294.000 C 132.615 293.780,132.930 293.667,133.339 293.667 C 133.687 293.667,134.050 293.557,134.167 293.417 C 134.281 293.279,134.541 293.167,134.745 293.167 C 134.948 293.167,135.251 293.017,135.417 292.833 C 135.615 292.615,135.930 292.500,136.333 292.500 C 136.737 292.500,137.052 292.385,137.250 292.167 C 137.416 291.983,137.718 291.833,137.922 291.833 C 138.126 291.833,138.386 291.721,138.500 291.583 C 138.614 291.446,138.883 291.333,139.098 291.333 C 139.318 291.333,139.566 291.188,139.667 291.000 C 139.778 290.792,140.016 290.667,140.299 290.667 C 140.573 290.667,140.836 290.534,140.961 290.333 C 141.076 290.150,141.347 290.000,141.564 290.000 C 141.782 290.000,142.053 289.887,142.167 289.750 C 142.281 289.612,142.552 289.500,142.769 289.500 C 142.986 289.500,143.258 289.350,143.372 289.167 C 143.491 288.977,143.761 288.833,144.000 288.833 C 144.239 288.833,144.509 288.690,144.628 288.500 C 144.742 288.317,145.014 288.167,145.231 288.167 C 145.448 288.167,145.719 288.054,145.833 287.917 C 145.947 287.779,146.218 287.667,146.436 287.667 C 146.653 287.667,146.924 287.517,147.039 287.333 C 147.157 287.144,147.427 287.000,147.666 287.000 C 147.941 287.000,148.252 286.800,148.572 286.417 C 148.854 286.078,149.210 285.833,149.420 285.833 C 149.619 285.833,149.917 285.683,150.083 285.500 C 150.249 285.317,150.547 285.167,150.745 285.167 C 150.947 285.167,151.332 284.911,151.622 284.583 C 151.906 284.262,152.292 284.000,152.479 284.000 C 152.667 284.000,153.117 283.700,153.480 283.333 C 153.844 282.967,154.280 282.667,154.451 282.667 C 154.622 282.667,155.169 282.254,155.667 281.750 C 156.171 281.239,156.722 280.833,156.911 280.832 C 157.110 280.831,157.763 280.315,158.493 279.582 C 159.177 278.895,159.868 278.333,160.029 278.333 C 160.447 278.333,169.167 269.595,169.167 269.177 C 169.167 268.982,169.682 268.350,170.417 267.645 C 171.201 266.892,171.667 266.313,171.667 266.092 C 171.667 265.885,172.046 265.364,172.583 264.833 C 173.119 264.304,173.500 263.782,173.500 263.576 C 173.500 263.378,173.755 263.012,174.083 262.738 C 174.438 262.442,174.667 262.103,174.667 261.871 C 174.667 261.648,174.910 261.267,175.250 260.954 C 175.585 260.647,175.833 260.259,175.833 260.044 C 175.833 259.838,175.983 259.576,176.167 259.461 C 176.350 259.347,176.500 259.074,176.500 258.855 C 176.500 258.613,176.736 258.234,177.098 257.892 C 177.429 257.580,177.718 257.132,177.745 256.890 C 177.771 256.649,177.914 256.385,178.063 256.301 C 178.212 256.218,178.333 255.978,178.333 255.768 C 178.333 255.557,178.483 255.249,178.667 255.083 C 178.850 254.917,179.000 254.610,179.000 254.399 C 179.000 254.189,179.118 253.951,179.262 253.870 C 179.405 253.790,179.546 253.513,179.575 253.255 C 179.603 252.997,179.748 252.718,179.896 252.635 C 180.045 252.552,180.167 252.311,180.167 252.101 C 180.167 251.890,180.317 251.583,180.500 251.417 C 180.730 251.208,180.833 250.903,180.833 250.431 C 180.833 249.917,180.920 249.693,181.183 249.528 C 181.405 249.390,181.503 249.196,181.451 248.998 C 181.404 248.818,181.504 248.564,181.685 248.400 C 181.858 248.243,182.000 247.942,182.000 247.730 C 182.000 247.516,182.148 247.266,182.333 247.167 C 182.588 247.031,182.667 246.818,182.667 246.270 C 182.667 245.753,182.764 245.463,183.015 245.236 C 183.283 244.994,183.343 244.792,183.274 244.368 C 183.207 243.951,183.264 243.746,183.509 243.537 C 183.736 243.342,183.833 243.046,183.833 242.548 C 183.833 242.017,183.918 241.783,184.167 241.628 C 184.420 241.470,184.500 241.239,184.500 240.667 C 184.500 240.087,184.579 239.864,184.843 239.699 C 185.139 239.515,185.180 239.345,185.137 238.480 C 185.096 237.664,185.142 237.444,185.377 237.312 C 185.602 237.187,185.667 236.927,185.667 236.157 C 185.667 235.370,185.736 235.104,186.000 234.878 C 186.265 234.651,186.333 234.386,186.333 233.586 C 186.333 232.761,186.393 232.543,186.667 232.372 C 186.964 232.187,187.000 231.983,187.000 230.507 C 187.000 229.147,187.049 228.823,187.272 228.697 C 187.498 228.571,187.539 228.278,187.513 227.001 C 187.486 225.655,187.525 225.411,187.819 225.098 C 188.118 224.781,188.162 224.481,188.203 222.495 C 188.249 220.310,188.260 220.249,188.625 220.197 L 189.000 220.143 189.000 208.488 C 189.000 196.095,189.007 196.215,188.278 196.944 M134.708 316.782 C 134.869 316.823,135.131 316.823,135.292 316.782 C 135.452 316.740,135.321 316.705,135.000 316.705 C 134.679 316.705,134.548 316.740,134.708 316.782 M132.960 317.451 C 133.168 317.491,133.468 317.490,133.627 317.448 C 133.786 317.406,133.617 317.374,133.250 317.375 C 132.883 317.377,132.753 317.411,132.960 317.451 M129.377 318.620 C 129.631 318.658,130.006 318.657,130.211 318.617 C 130.416 318.578,130.208 318.546,129.750 318.548 C 129.292 318.549,129.124 318.581,129.377 318.620 M127.460 319.285 C 127.668 319.324,127.968 319.323,128.127 319.281 C 128.286 319.239,128.117 319.207,127.750 319.209 C 127.383 319.211,127.253 319.245,127.460 319.285 M123.211 320.453 C 123.464 320.491,123.839 320.490,124.044 320.451 C 124.249 320.411,124.042 320.380,123.583 320.381 C 123.125 320.382,122.957 320.415,123.211 320.453 M120.961 321.121 C 121.261 321.158,121.711 321.157,121.961 321.119 C 122.212 321.081,121.967 321.051,121.417 321.052 C 120.867 321.053,120.662 321.084,120.961 321.121 M115.288 322.287 C 115.584 322.324,116.109 322.324,116.455 322.288 C 116.800 322.252,116.558 322.222,115.917 322.221 C 115.275 322.221,114.992 322.250,115.288 322.287 M111.964 322.956 C 112.448 322.990,113.198 322.990,113.631 322.956 C 114.063 322.921,113.667 322.894,112.750 322.894 C 111.833 322.895,111.480 322.923,111.964 322.956 M103.701 324.123 C 104.316 324.155,105.366 324.156,106.034 324.124 C 106.703 324.092,106.200 324.066,104.917 324.066 C 103.633 324.065,103.086 324.091,103.701 324.123 M97.867 324.791 C 98.664 324.821,100.014 324.821,100.867 324.791 C 101.719 324.761,101.067 324.736,99.417 324.736 C 97.767 324.735,97.069 324.760,97.867 324.791 " stroke="none" fill="#0000ff" fill-rule="evenodd"></path><path id="path6" d="M188.278 220.278 C 188.217 220.339,188.167 221.377,188.167 222.585 C 188.167 224.587,188.136 224.809,187.826 225.090 C 187.523 225.364,187.488 225.577,187.514 226.972 C 187.538 228.274,187.496 228.572,187.272 228.698 C 187.049 228.822,187.000 229.149,187.000 230.507 C 187.000 231.983,186.964 232.187,186.667 232.372 C 186.393 232.543,186.333 232.761,186.333 233.586 C 186.333 234.386,186.265 234.651,186.000 234.878 C 185.736 235.104,185.667 235.370,185.667 236.157 C 185.667 236.927,185.602 237.187,185.377 237.312 C 185.142 237.444,185.096 237.664,185.137 238.480 C 185.180 239.345,185.139 239.515,184.843 239.699 C 184.579 239.864,184.500 240.087,184.500 240.667 C 184.500 241.239,184.420 241.470,184.167 241.628 C 183.918 241.783,183.833 242.017,183.833 242.548 C 183.833 243.046,183.736 243.342,183.509 243.537 C 183.264 243.746,183.207 243.951,183.274 244.368 C 183.343 244.792,183.283 244.994,183.015 245.236 C 182.764 245.463,182.667 245.753,182.667 246.270 C 182.667 246.818,182.588 247.031,182.333 247.167 C 182.148 247.266,182.000 247.516,182.000 247.730 C 182.000 247.942,181.858 248.243,181.685 248.400 C 181.504 248.564,181.404 248.818,181.451 248.998 C 181.503 249.196,181.405 249.390,181.183 249.528 C 180.920 249.693,180.833 249.917,180.833 250.431 C 180.833 250.903,180.730 251.208,180.500 251.417 C 180.317 251.583,180.167 251.890,180.167 252.101 C 180.167 252.311,180.045 252.552,179.896 252.635 C 179.748 252.718,179.603 252.997,179.575 253.255 C 179.546 253.513,179.405 253.790,179.262 253.870 C 179.118 253.951,179.000 254.189,179.000 254.399 C 179.000 254.610,178.850 254.917,178.667 255.083 C 178.483 255.249,178.333 255.557,178.333 255.768 C 178.333 255.978,178.212 256.218,178.063 256.301 C 177.914 256.385,177.771 256.649,177.745 256.890 C 177.718 257.132,177.429 257.580,177.098 257.892 C 176.736 258.234,176.500 258.613,176.500 258.855 C 176.500 259.074,176.350 259.347,176.167 259.461 C 175.983 259.576,175.833 259.838,175.833 260.044 C 175.833 260.259,175.585 260.647,175.250 260.954 C 174.910 261.267,174.667 261.648,174.667 261.871 C 174.667 262.103,174.438 262.442,174.083 262.738 C 173.755 263.012,173.500 263.378,173.500 263.576 C 173.500 263.782,173.119 264.304,172.583 264.833 C 172.046 265.364,171.667 265.885,171.667 266.092 C 171.667 266.313,171.201 266.892,170.417 267.645 C 169.682 268.350,169.167 268.982,169.167 269.177 C 169.167 269.595,160.447 278.333,160.029 278.333 C 159.868 278.333,159.177 278.895,158.493 279.582 C 157.763 280.315,157.110 280.831,156.911 280.832 C 156.722 280.833,156.171 281.239,155.667 281.750 C 155.169 282.254,154.622 282.667,154.451 282.667 C 154.280 282.667,153.844 282.967,153.480 283.333 C 153.117 283.700,152.667 284.000,152.479 284.000 C 152.292 284.000,151.906 284.262,151.622 284.583 C 151.332 284.911,150.947 285.167,150.745 285.167 C 150.547 285.167,150.249 285.317,150.083 285.500 C 149.917 285.683,149.619 285.833,149.420 285.833 C 149.210 285.833,148.854 286.078,148.572 286.417 C 148.252 286.800,147.941 287.000,147.666 287.000 C 147.427 287.000,147.157 287.144,147.039 287.333 C 146.924 287.517,146.653 287.667,146.436 287.667 C 146.218 287.667,145.947 287.779,145.833 287.917 C 145.719 288.054,145.448 288.167,145.231 288.167 C 145.014 288.167,144.742 288.317,144.628 288.500 C 144.509 288.690,144.239 288.833,144.000 288.833 C 143.761 288.833,143.491 288.977,143.372 289.167 C 143.258 289.350,142.986 289.500,142.769 289.500 C 142.552 289.500,142.281 289.612,142.167 289.750 C 142.053 289.887,141.782 290.000,141.564 290.000 C 141.347 290.000,141.076 290.150,140.961 290.333 C 140.836 290.534,140.573 290.667,140.299 290.667 C 140.016 290.667,139.778 290.792,139.667 291.000 C 139.566 291.188,139.318 291.333,139.098 291.333 C 138.883 291.333,138.614 291.446,138.500 291.583 C 138.386 291.721,138.126 291.833,137.922 291.833 C 137.718 291.833,137.416 291.983,137.250 292.167 C 137.052 292.385,136.737 292.500,136.333 292.500 C 135.930 292.500,135.615 292.615,135.417 292.833 C 135.251 293.017,134.948 293.167,134.745 293.167 C 134.541 293.167,134.281 293.279,134.167 293.417 C 134.050 293.557,133.687 293.667,133.339 293.667 C 132.930 293.667,132.615 293.780,132.417 294.000 C 132.204 294.235,131.903 294.333,131.397 294.333 C 130.849 294.333,130.636 294.412,130.500 294.667 C 130.364 294.921,130.151 295.000,129.598 295.000 C 129.158 295.000,128.793 295.098,128.667 295.250 C 128.547 295.394,128.184 295.500,127.811 295.500 C 127.370 295.500,127.073 295.606,126.878 295.833 C 126.651 296.098,126.386 296.167,125.586 296.167 C 124.761 296.167,124.543 296.226,124.372 296.500 C 124.214 296.754,123.983 296.833,123.410 296.833 C 122.894 296.833,122.626 296.912,122.560 297.083 C 122.489 297.269,122.192 297.333,121.400 297.333 C 120.517 297.333,120.301 297.390,120.128 297.667 C 119.947 297.956,119.739 298.000,118.549 298.000 C 117.349 298.000,117.156 298.041,117.000 298.333 C 116.851 298.612,116.651 298.667,115.781 298.667 C 114.947 298.667,114.684 298.733,114.455 299.000 C 114.208 299.289,113.964 299.333,112.605 299.333 C 111.418 299.333,110.991 299.394,110.833 299.583 C 110.675 299.775,110.240 299.833,108.985 299.833 C 107.516 299.833,107.327 299.868,107.167 300.167 C 107.002 300.474,106.818 300.500,104.770 300.500 C 102.763 300.500,102.523 300.532,102.250 300.833 C 101.970 301.142,101.737 301.167,99.058 301.167 C 96.599 301.167,96.167 301.204,96.167 301.417 C 96.167 301.638,90.713 301.667,48.083 301.667 L 0.000 301.667 0.000 313.333 L 0.000 325.000 48.250 325.000 C 80.306 325.000,96.500 324.944,96.500 324.833 C 96.500 324.728,97.605 324.667,99.481 324.667 C 102.321 324.667,102.465 324.651,102.548 324.333 C 102.630 324.019,102.776 324.000,105.068 324.000 C 106.925 324.000,107.490 323.951,107.458 323.792 C 107.428 323.638,107.923 323.561,109.333 323.500 C 110.388 323.454,111.231 323.360,111.208 323.292 C 111.074 322.888,111.289 322.833,113.000 322.833 C 114.722 322.833,114.833 322.813,114.833 322.500 C 114.833 322.198,114.944 322.167,116.000 322.167 C 116.926 322.167,117.167 322.115,117.167 321.917 C 117.167 321.712,117.452 321.667,118.731 321.667 C 120.154 321.667,120.302 321.637,120.382 321.333 C 120.458 321.040,120.609 321.000,121.651 321.000 C 122.722 321.000,122.833 320.969,122.833 320.667 C 122.833 320.374,122.944 320.333,123.750 320.333 C 124.454 320.333,124.667 320.275,124.667 320.083 C 124.667 319.885,124.905 319.833,125.814 319.833 C 126.821 319.833,126.972 319.793,127.048 319.500 C 127.121 319.223,127.276 319.167,127.965 319.167 C 128.654 319.167,128.809 319.110,128.882 318.833 C 128.954 318.555,129.109 318.500,129.818 318.500 C 130.461 318.500,130.667 318.440,130.667 318.250 C 130.667 318.059,130.877 318.000,131.564 318.000 C 132.321 318.000,132.475 317.948,132.548 317.667 C 132.621 317.387,132.776 317.333,133.500 317.333 C 134.224 317.333,134.379 317.279,134.452 317.000 C 134.517 316.750,134.679 316.667,135.103 316.667 C 135.493 316.667,135.667 316.590,135.667 316.417 C 135.667 316.225,135.880 316.167,136.583 316.167 C 137.389 316.167,137.500 316.126,137.500 315.833 C 137.500 315.566,137.611 315.500,138.064 315.500 C 138.488 315.500,138.649 315.417,138.715 315.167 C 138.782 314.911,138.942 314.833,139.401 314.833 C 139.822 314.833,140.000 314.759,140.000 314.583 C 140.000 314.409,140.176 314.333,140.583 314.333 C 141.056 314.333,141.167 314.270,141.167 314.000 C 141.167 313.732,141.278 313.667,141.731 313.667 C 142.154 313.667,142.316 313.584,142.382 313.333 C 142.448 313.078,142.609 313.000,143.068 313.000 C 143.489 313.000,143.667 312.926,143.667 312.750 C 143.667 312.594,143.824 312.500,144.085 312.500 C 144.315 312.500,144.632 312.350,144.789 312.167 C 144.946 311.983,145.274 311.833,145.518 311.833 C 145.821 311.833,145.989 311.728,146.048 311.500 C 146.114 311.247,146.276 311.167,146.715 311.167 C 147.161 311.167,147.315 311.087,147.385 310.821 C 147.440 310.612,147.596 310.487,147.779 310.507 C 148.329 310.564,148.500 310.503,148.500 310.250 C 148.500 310.112,148.641 310.000,148.814 310.000 C 148.988 310.000,149.167 309.851,149.215 309.667 C 149.278 309.428,149.442 309.333,149.798 309.333 C 150.154 309.333,150.319 309.239,150.382 309.000 C 150.445 308.756,150.609 308.667,150.990 308.667 C 151.299 308.667,151.549 308.565,151.606 308.417 C 151.659 308.279,151.798 308.167,151.915 308.167 C 152.032 308.167,152.167 308.017,152.215 307.833 C 152.279 307.588,152.442 307.500,152.833 307.500 C 153.224 307.500,153.388 307.412,153.452 307.167 C 153.500 306.983,153.643 306.833,153.769 306.833 C 153.896 306.833,154.000 306.721,154.000 306.583 C 154.000 306.407,154.178 306.333,154.599 306.333 C 155.058 306.333,155.218 306.255,155.285 306.000 C 155.333 305.817,155.476 305.667,155.603 305.667 C 155.730 305.667,155.833 305.547,155.833 305.401 C 155.833 305.255,155.983 305.096,156.167 305.048 C 156.350 305.000,156.500 304.857,156.500 304.731 C 156.500 304.578,156.698 304.500,157.083 304.500 C 157.506 304.500,157.667 304.427,157.667 304.234 C 157.667 304.088,157.817 303.930,158.000 303.882 C 158.183 303.834,158.333 303.684,158.333 303.548 C 158.333 303.413,158.483 303.263,158.667 303.215 C 158.850 303.167,159.000 303.024,159.000 302.897 C 159.000 302.770,159.104 302.667,159.231 302.667 C 159.357 302.667,159.500 302.517,159.548 302.333 C 159.615 302.078,159.776 302.000,160.234 302.000 C 160.661 302.000,160.833 301.927,160.833 301.745 C 160.833 301.604,160.946 301.446,161.083 301.394 C 161.221 301.341,161.333 301.193,161.333 301.066 C 161.333 300.938,161.483 300.833,161.667 300.833 C 161.861 300.833,162.000 300.722,162.000 300.568 C 162.000 300.422,162.150 300.263,162.333 300.215 C 162.517 300.167,162.667 300.022,162.667 299.892 C 162.667 299.762,162.779 299.613,162.917 299.560 C 163.054 299.508,163.167 299.360,163.167 299.232 C 163.167 299.104,163.317 299.000,163.500 299.000 C 163.694 299.000,163.833 298.889,163.833 298.734 C 163.833 298.588,163.983 298.430,164.167 298.382 C 164.350 298.334,164.500 298.184,164.500 298.048 C 164.500 297.913,164.650 297.763,164.833 297.715 C 165.017 297.667,165.167 297.565,165.167 297.489 C 165.167 297.274,165.932 296.500,166.144 296.500 C 166.248 296.500,166.333 296.423,166.333 296.329 C 166.333 296.106,167.773 294.667,167.996 294.667 C 168.090 294.667,168.167 294.547,168.167 294.401 C 168.167 294.255,168.317 294.096,168.500 294.048 C 168.688 293.999,168.833 293.821,168.833 293.640 C 168.833 293.426,168.931 293.335,169.125 293.368 C 169.355 293.406,169.418 293.294,169.425 292.834 C 169.431 292.423,169.517 292.235,169.717 292.197 C 169.873 292.167,170.000 292.028,170.000 291.889 C 170.000 291.749,170.150 291.596,170.333 291.548 C 170.517 291.500,170.667 291.357,170.667 291.231 C 170.667 291.104,170.770 291.000,170.897 291.000 C 171.024 291.000,171.167 290.850,171.215 290.667 C 171.267 290.467,171.442 290.333,171.651 290.333 C 171.939 290.333,172.000 290.231,172.000 289.750 C 172.000 289.343,172.075 289.167,172.250 289.167 C 172.389 289.167,172.500 289.019,172.500 288.833 C 172.500 288.650,172.604 288.500,172.731 288.500 C 172.857 288.500,173.000 288.350,173.048 288.167 C 173.102 287.960,173.276 287.833,173.503 287.833 C 173.821 287.833,173.861 287.762,173.795 287.311 C 173.735 286.905,173.786 286.771,174.026 286.708 C 174.195 286.664,174.333 286.517,174.333 286.382 C 174.333 286.246,174.490 286.094,174.682 286.044 C 174.962 285.971,175.016 285.854,174.958 285.454 C 174.902 285.072,174.957 284.937,175.192 284.875 C 175.362 284.831,175.500 284.688,175.500 284.559 C 175.500 284.429,175.631 284.274,175.792 284.215 C 176.204 284.063,176.334 283.811,176.225 283.376 C 176.149 283.075,176.200 283.000,176.482 283.000 C 176.760 283.000,176.833 282.897,176.833 282.509 C 176.833 282.024,177.446 281.167,177.793 281.167 C 178.033 281.167,178.193 280.680,178.076 280.310 C 177.986 280.027,178.142 279.917,178.542 279.980 C 178.610 279.991,178.667 279.700,178.667 279.333 C 178.667 278.778,178.722 278.667,179.000 278.667 C 179.268 278.667,179.333 278.556,179.333 278.103 C 179.333 277.679,179.416 277.517,179.667 277.452 C 179.922 277.385,180.000 277.224,180.000 276.766 C 180.000 276.344,180.074 276.167,180.250 276.167 C 180.425 276.167,180.500 275.991,180.500 275.583 C 180.500 275.104,180.562 275.000,180.846 275.000 C 181.158 275.000,181.187 274.914,181.144 274.125 C 181.101 273.322,181.129 273.245,181.482 273.195 C 181.808 273.148,181.856 273.061,181.792 272.631 C 181.735 272.238,181.788 272.104,182.026 272.042 C 182.258 271.981,182.333 271.803,182.333 271.314 C 182.333 270.770,182.389 270.667,182.679 270.667 C 182.991 270.667,183.020 270.581,182.978 269.792 C 182.935 268.992,182.963 268.912,183.310 268.862 C 183.657 268.812,183.686 268.731,183.644 267.946 C 183.607 267.245,183.651 267.075,183.883 267.030 C 184.109 266.987,184.167 266.791,184.167 266.071 C 184.167 265.278,184.208 265.167,184.500 265.167 C 184.793 265.167,184.833 265.056,184.833 264.250 C 184.833 263.444,184.874 263.333,185.167 263.333 C 185.468 263.333,185.500 263.222,185.500 262.161 C 185.500 261.273,185.561 260.966,185.750 260.894 C 185.939 260.821,186.000 260.516,186.000 259.649 C 186.000 258.599,186.030 258.500,186.345 258.500 C 186.665 258.500,186.686 258.415,186.649 257.292 C 186.612 256.155,186.631 256.080,186.980 256.029 C 187.340 255.976,187.350 255.918,187.321 254.196 C 187.294 252.669,187.328 252.409,187.562 252.363 C 187.793 252.317,187.833 252.038,187.833 250.488 C 187.833 248.778,187.854 248.667,188.167 248.667 C 188.485 248.667,188.500 248.556,188.500 246.167 C 188.500 244.056,188.539 243.667,188.750 243.667 C 188.970 243.667,189.000 242.250,189.000 231.917 C 189.000 219.420,189.008 219.548,188.278 220.278 " stroke="none" fill="#0700c4" fill-rule="evenodd"></path></g></svg>