<?xml version="1.0" encoding="UTF-8" standalone="no"?>
<!DOCTYPE svg PUBLIC "-//W3C//DTD SVG 1.1//EN" "http://www.w3.org/Graphics/SVG/1.1/DTD/svg11.dtd">
<svg width="100%" height="100%" viewBox="0 0 403 23" version="1.1" xmlns="http://www.w3.org/2000/svg" xmlns:xlink="http://www.w3.org/1999/xlink" xml:space="preserve" xmlns:serif="http://www.serif.com/" style="fill-rule:evenodd;clip-rule:evenodd;stroke-linejoin:round;stroke-miterlimit:2;">
    <g id="blueproof_logo" transform="matrix(1.0075,0,0,0.5309,0,0)">
        <rect x="0" y="0" width="400" height="42.635" style="fill:none;"/>
        <g id="PROOF" transform="matrix(0.992556,0,0,1.8836,1.98511,2.35272)">
            <path id="path0" d="M400,5.167L400,0.333L385.667,0.333L385.667,20.008L388.708,19.962L391.75,19.917L391.84,12.667L398.167,12.667L398.167,8L391.833,8L391.833,5.167L400,5.167ZM386.833,1.333L398.833,1.333L398.833,4L395.012,4C390.314,4 390.667,3.791 390.667,6.569C390.667,8.619 390.858,9.26 391.437,9.154C391.518,9.139 392.802,9.136 394.292,9.147L397,9.167L397,11.5L394.095,11.5C390.339,11.5 390.667,11.125 390.667,15.429L390.667,18.833L386.833,18.833L386.833,1.333Z" style="fill:white;"/>
            <path id="path01" serif:id="path0" d="M291.917,0.266C284.733,2.206 282.829,14.22 289.039,18.433C289.43,18.699 289.787,18.955 289.833,19.003C291.345,20.585 296.994,20.541 299.75,18.926C303.94,16.47 305.547,9.318 302.98,4.551C301.003,0.879 296.339,-0.928 291.917,0.266ZM297.239,1.315C297.337,1.392 297.627,1.504 297.884,1.566C299.827,2.03 302.247,4.836 302.788,7.25C303.545,10.634 302.587,14.712 300.559,16.73C299.398,17.886 299.013,18.126 297.172,18.845C293.246,20.378 287.485,17.048 286.773,12.833C286.125,9.001 286.896,5.563 288.867,3.5C289.634,2.696 290.544,2 290.827,2C290.922,2 291,1.939 291,1.865C291,1.274 296.558,0.784 297.239,1.315ZM293.981,3.486C290.277,4.23 289.592,14.611 293.13,16.391C295.791,17.731 298.049,16.068 298.507,12.431C299.29,6.204 297.552,2.768 293.981,3.486ZM296.152,4.956C297.864,6.201 298.023,13.289 296.377,14.942C294.32,17.01 292.219,14.971 292.043,10.734C291.845,6.003 293.805,3.248 296.152,4.956Z" style="fill:white;"/>
            <path id="path02" serif:id="path0" d="M341.5,0.321C338.782,1.184 336.841,3.096 335.736,6C334.759,8.567 335.069,13.231 336.377,15.66C339.206,20.912 347.452,21.857 351.388,17.38C351.884,16.816 353,15.093 353,14.892C353,14.842 353.107,14.564 353.238,14.275C355.292,9.751 353.212,2.944 349.167,0.951C347.112,-0.062 343.612,-0.349 341.5,0.321ZM347.333,1.453C351.885,3.164 353.831,7.945 352.271,13.583C350.946,18.372 344.36,20.7 340.073,17.895C334.197,14.049 335.34,3.365 341.833,1.444C343.483,0.956 346.023,0.96 347.333,1.453ZM343.678,3.515C342.786,3.69 341.638,4.803 341.337,5.784C341.231,6.132 341.055,6.597 340.947,6.817C340.361,8.008 340.819,14.199 341.562,15.125C342.575,16.389 343.828,16.982 345,16.754C346.117,16.536 346.328,16.451 346.788,16.033C349.082,13.947 349.077,6.263 346.779,4.135C346.375,3.76 344.996,3.279 344.533,3.352C344.469,3.362 344.084,3.435 343.678,3.515ZM345.418,4.667C347.951,5.63 348.042,14.143 345.532,15.358C343.175,16.499 341.917,14.721 341.917,10.25C341.917,5.722 343.125,3.795 345.418,4.667Z" style="fill:white;"/>
            <path id="path03" serif:id="path0" d="M243.375,0.372L236.833,0.316L236.833,19.833L243,19.833L243,12.5L244.75,12.503L245.658,14.96C246.157,16.311 246.663,17.604 246.782,17.833C246.901,18.063 246.998,18.377 246.999,18.532C247,18.687 247.069,18.856 247.154,18.909C247.238,18.961 247.357,19.228 247.417,19.502L247.526,20L250.902,20C254.409,20 254.58,19.976 254.328,19.524C254.245,19.373 253.684,18.05 253.081,16.583C252.479,15.117 251.919,13.767 251.836,13.583C250.811,11.319 250.814,11.488 251.792,10.86C255.178,8.687 255.245,3.613 251.917,1.396C250.478,0.438 250.434,0.432 243.375,0.372ZM249.967,1.758C252.587,2.722 253.867,5.365 252.909,7.833C252.606,8.613 251.582,9.833 251.23,9.833C251.119,9.833 251.003,9.89 250.972,9.958C250.942,10.027 250.692,10.198 250.417,10.339C249.55,10.781 249.741,11.985 251.17,15.083C251.255,15.267 251.48,15.823 251.671,16.32C251.861,16.817 252.163,17.544 252.342,17.936C252.521,18.328 252.667,18.69 252.667,18.741C252.667,18.792 251.705,18.833 250.53,18.833L248.394,18.833L247.613,16.823C247.184,15.718 246.833,14.711 246.833,14.587C246.833,14.463 246.762,14.336 246.675,14.306C246.589,14.275 246.472,13.989 246.417,13.671C246.361,13.352 246.256,13.052 246.183,13.004C246.111,12.956 246.001,12.709 245.939,12.456C245.704,11.498 245.395,11.333 243.833,11.333C241.765,11.333 241.833,11.194 241.833,15.419L241.833,18.833L237.833,18.833L237.833,1.303L243.458,1.368C248.522,1.427 249.172,1.466 249.967,1.758ZM242.109,3.805C241.644,4.318 241.706,8.5 242.185,8.933C242.619,9.325 245.993,9.388 247.042,9.024C249.36,8.22 249.723,4.869 247.604,3.843C246.596,3.355 242.542,3.327 242.109,3.805ZM247.321,5.098C248.974,6.49 247.376,8.167 244.396,8.167L243,8.167L243,4.667L244.904,4.667C246.709,4.667 246.834,4.689 247.321,5.098Z" style="fill:white;"/>
            <path id="path04" serif:id="path0" d="M194.248,0.333L193.965,0.333L188.333,0.333L188.333,19.833L194.667,19.833L194.667,12.833L197.125,12.832C199.808,12.831 200.995,12.592 202.391,11.774C206.242,9.517 206.209,3.536 202.333,1.286C200.861,0.432 200.116,0.336 194.248,0.333ZM199.071,1.499C204.868,2.097 206.097,8.921 200.821,11.22C200.013,11.572 199.635,11.618 197.266,11.654C193.303,11.714 193.5,11.501 193.5,15.739L193.5,18.833L189.5,18.833L189.5,1.323L193.589,1.339C195.838,1.348 198.305,1.42 199.071,1.499ZM193.87,3.926C193.333,4.302 193.291,9.043 193.822,9.327C194.251,9.557 197.407,9.547 198.25,9.314C200.821,8.603 200.874,4.764 198.325,3.93C197.223,3.569 194.383,3.567 193.87,3.926ZM198.35,5.214C198.854,5.553 198.922,5.688 198.966,6.445C199.055,7.961 198.117,8.485 195.292,8.497L194.5,8.5L194.5,4.833L196.142,4.833C197.576,4.833 197.856,4.882 198.35,5.214Z" style="fill:white;"/>
        </g>
        <g id="BLUE" transform="matrix(0.992556,0,0,1.8836,1.98511,2.01451)">
            <path id="path05" serif:id="path0" d="M48.333,10.083L48.333,19.833L62.167,19.833L62.167,15L54.5,15L54.5,0.333L48.333,0.333L48.333,10.083" style="fill:white;"/>
            <path id="path06" serif:id="path0" d="M93.167,7.325C93.167,14.67 93.23,15.47 93.922,16.833C96.049,21.028 105.556,21.341 108.267,17.306C109.258,15.83 109.333,15.128 109.333,7.341L109.333,0.333L104.5,0.333L104.499,7.042C104.499,14.671 104.521,14.537 103.122,15.173C101.828,15.76 100.538,15.489 99.816,14.477L99.417,13.917L99.525,0.333L93.167,0.333L93.167,7.325" style="fill:white;"/>
            <path id="path07" serif:id="path0" d="M141.833,10.083L141.833,19.833L156.833,19.833L156.833,15.167L147.833,15.167L147.833,12L155,12L155,7.667L147.833,7.667L147.833,4.833L156.833,4.833L156.833,0.333L141.833,0.333L141.833,10.083" style="fill:white;"/>
            <path id="path08" serif:id="path0" d="M6.421,0.333L5.921,0.333L0,0.333L0,19.833L5.625,19.831C13.593,19.827 14.631,19.518 15.934,16.757C17.298,13.866 16.334,11.048 13.634,10.03L12.75,9.697L13.249,9.504C17.093,8.016 16.784,2.07 12.789,0.666C11.938,0.367 11.444,0.335 6.421,0.333ZM9.667,12.212C10.368,12.561 10.753,13.558 10.473,14.302C10.116,15.251 9.456,15.499 7.292,15.5L5.5,15.5L5.5,12L7.375,12.002C8.53,12.004 9.41,12.084 9.667,12.212ZM9.411,4.737C10.222,5.076 10.521,6.064 10.055,6.862C9.566,7.699 9.142,7.84 7.25,7.792L5.583,7.75L5.534,6.347C5.508,5.576 5.524,4.845 5.571,4.722C5.692,4.406 8.647,4.418 9.411,4.737Z" style="fill:white;"/>
        </g>
    </g>
</svg>
